<svg width="230" height="230" viewBox="0 0 230 230" fill="none" xmlns="http://www.w3.org/2000/svg">
<path d="M229 115C229 119.901 222.175 124.304 221.558 129.034C220.926 133.877 226.379 139.885 225.141 144.51C223.885 149.215 216.149 151.698 214.312 156.134C212.453 160.621 216.153 167.845 213.742 172.009C211.317 176.202 203.204 176.598 200.263 180.42C197.315 184.257 199.022 192.193 195.609 195.609C192.197 199.025 184.257 197.315 180.42 200.263C176.598 203.2 176.202 211.314 172.009 213.742C167.845 216.153 160.617 212.453 156.134 214.312C151.698 216.153 149.215 223.885 144.51 225.141C139.885 226.379 133.874 220.926 129.034 221.558C124.304 222.175 119.901 229 115 229C110.099 229 105.696 222.175 100.966 221.558C96.1228 220.926 90.1148 226.379 85.4899 225.141C80.7851 223.885 78.302 216.149 73.8659 214.312C69.3789 212.453 62.1548 216.153 57.9909 213.742C53.798 211.317 53.4023 203.204 49.5797 200.263C45.7425 197.315 37.8069 199.022 34.3908 195.609C30.9748 192.197 32.6846 184.257 29.7369 180.42C26.8 176.598 18.6865 176.202 16.2578 172.009C13.8474 167.845 17.5466 160.617 15.6879 156.134C13.8474 151.698 6.11499 149.215 4.85893 144.51C3.62102 139.885 9.07362 133.874 8.44196 129.034C7.82483 124.304 1 119.901 1 115C1 110.099 7.82483 105.696 8.44196 100.966C9.07362 96.1228 3.62102 90.1148 4.85893 85.4899C6.11499 80.7851 13.851 78.302 15.6879 73.8659C17.5466 69.3789 13.8474 62.1548 16.2578 57.9909C18.6828 53.798 26.7964 53.4023 29.7369 49.5797C32.6846 45.7425 30.9784 37.8069 34.3908 34.3908C37.8069 30.9748 45.7425 32.6846 49.5797 29.7369C53.4023 26.8 53.798 18.6865 57.9909 16.2578C62.1548 13.8474 69.3826 17.5466 73.8659 15.6879C78.302 13.8474 80.7851 6.11499 85.4899 4.85893C90.1148 3.62102 96.1265 9.07362 100.966 8.44196C105.696 7.82483 110.099 1 115 1C119.901 1 124.304 7.82483 129.034 8.44196C133.877 9.07362 139.885 3.62102 144.51 4.85893C149.215 6.11499 151.698 13.851 156.134 15.6879C160.621 17.5466 167.845 13.8474 172.009 16.2578C176.202 18.6828 176.598 26.7964 180.42 29.7369C184.257 32.6846 192.193 30.9784 195.609 34.3908C199.025 37.8069 197.315 45.7425 200.263 49.5797C203.2 53.4023 211.314 53.798 213.742 57.9909C216.153 62.1548 212.453 69.3826 214.312 73.8659C216.153 78.302 223.885 80.7851 225.141 85.4899C226.379 90.1148 220.926 96.1265 221.558 100.966C222.175 105.699 229 110.099 229 115Z" stroke="#F06754" stroke-miterlimit="10"/>
</svg>
