<svg width="47" height="50" viewBox="0 0 47 50" fill="none" xmlns="http://www.w3.org/2000/svg">
<path d="M1.21559 49.9287H0V44.9233H3.29053V45.9959H1.21559V47.0327H3.21774V48.1053H1.21559V49.9287Z" fill="white"/>
<path d="M8.1581 49.9287H6.9425V44.9233H8.1581V49.9287Z" fill="white"/>
<path d="M12.6449 49.257C12.4037 49.0171 12.2123 48.7319 12.0817 48.4178C11.9511 48.1036 11.8839 47.7668 11.8839 47.4266C11.8839 47.0864 11.9511 46.7496 12.0817 46.4355C12.2123 46.1213 12.4037 45.8361 12.6449 45.5962C13.1559 45.1179 13.8297 44.8518 14.5296 44.8518C15.2295 44.8518 15.9032 45.1179 16.4143 45.5962C16.6554 45.8361 16.8468 46.1213 16.9774 46.4355C17.108 46.7496 17.1752 47.0864 17.1752 47.4266C17.1752 47.7668 17.108 48.1036 16.9774 48.4178C16.8468 48.7319 16.6554 49.0171 16.4143 49.257C15.9028 49.7345 15.2292 50 14.5296 50C13.8299 50 13.1563 49.7345 12.6449 49.257ZM13.5387 46.3892C13.2816 46.6733 13.1392 47.0428 13.1392 47.426C13.1392 47.8092 13.2816 48.1787 13.5387 48.4628C13.6661 48.5964 13.8192 48.7027 13.9889 48.7754C14.1585 48.8481 14.3412 48.8855 14.5257 48.8855C14.7103 48.8855 14.893 48.8481 15.0626 48.7754C15.2323 48.7027 15.3854 48.5964 15.5128 48.4628C15.7699 48.1787 15.9123 47.8092 15.9123 47.426C15.9123 47.0428 15.7699 46.6733 15.5128 46.3892C15.3852 46.2559 15.232 46.1498 15.0624 46.0774C14.8928 46.0049 14.7102 45.9676 14.5257 45.9676C14.3413 45.9676 14.1587 46.0049 13.9891 46.0774C13.8195 46.1498 13.6663 46.2559 13.5387 46.3892Z" fill="white"/>
<path d="M24.2608 47.8844V44.9233H25.4764V49.9287H24.2965L22.1156 46.9688V49.9287H20.9V44.9233H22.0799L24.2608 47.8844Z" fill="white"/>
<path d="M30.5609 49.9287H29.3453V44.9233H30.5609V49.9287Z" fill="white"/>
<path d="M36.824 49.9287H35.6097V45.9959H34.1426V44.9233H38.2912V45.9959H36.824V49.9287Z" fill="white"/>
<path d="M46.6062 44.9233L44.7049 48.1985V48.8561H45.4557V49.9287H42.7385V48.8561H43.4894V48.1985L41.5868 44.9233H43.0169L44.1329 46.9829L45.2476 44.9233H46.6062Z" fill="white"/>
<path d="M32.7304 11.7512C32.5631 11.718 32.3997 11.6809 32.2388 11.6426C31.3393 11.4815 30.4296 11.3838 29.5165 11.3502C29.7193 11.6368 29.9407 11.9097 30.1792 12.1674C30.3854 12.3632 30.6481 12.4888 30.93 12.5262V13.9653C30.4869 14.2206 29.5382 14.9242 28.6788 16.7016C25.1304 24.0284 22.3327 22.6966 19.4789 21.3367C17.9224 20.5948 16.3454 19.844 14.6267 21.2575C13.655 22.053 13.4597 23.3899 13.2477 24.8328C12.9923 26.563 12.7229 28.4183 11.2673 29.9774C12.1266 29.8854 13.1187 29.6633 13.89 29.1653C15.6227 28.0442 16.1616 26.6703 16.1628 26.6664L16.4693 25.9169L17.1486 26.3523C17.1486 26.3523 18.2173 27.0584 20.2437 27.5602C20.1684 25.6449 18.1701 24.1459 18.1637 24.1407L18.9745 23.0669C18.9835 23.0733 21.6892 25.1099 21.5883 27.8322C22.7626 28.0146 23.9516 28.086 25.1393 28.0455C25.9718 28.0199 26.7699 28.0378 27.5258 28.0876C27.9679 27.557 28.476 27.0849 29.0376 26.683C30.2375 25.8367 31.1641 24.6584 31.7038 23.2929C32.1555 22.1232 32.3942 20.8821 32.4086 19.6282C32.438 18.3807 32.8989 17.4397 33.591 16.7412C34.4146 15.9125 35.5536 15.4554 36.6657 15.2473C37.2762 15.1396 37.8388 14.8467 38.2772 14.4083C37.0156 13.692 34.2294 12.161 32.8147 11.7716L32.7636 11.7575L32.7304 11.7512ZM8.46067 38.9143C8.21678 35.657 8.63177 30.6452 8.63305 30.6286L8.66114 30.2838L8.95993 30.1051C11.3158 28.6916 11.6261 26.5707 11.9095 24.6362C12.1368 23.0758 12.3513 21.6176 13.4329 20.5182C13.1149 20.2871 12.7433 20.0279 12.4624 19.867V18.4075C12.9579 18.5352 13.9832 19.2541 14.5425 19.6678C16.5855 18.4663 18.3335 19.2975 20.0573 20.1198C22.3034 21.1886 24.5034 22.2369 27.4632 16.1168C28.1234 14.7544 28.8793 13.8912 29.4999 13.3587C29.4011 13.2864 29.3081 13.2065 29.2215 13.12C28.638 12.5364 27.6458 11.0297 27.642 11.0246L27.5756 10.9237V9.98395H28.1987C28.1987 9.98395 28.366 9.98395 28.6444 9.98395C24.1625 6.5619 24.8137 0.0242608 24.8137 0L26.1519 0.116197C26.0562 1.54371 26.1986 2.9772 26.5733 4.358C26.7429 3.81859 26.982 3.30353 27.2845 2.82574L28.4017 3.574C28.4017 3.574 27.3802 5.07689 27.6433 6.85558C28.1708 7.72088 28.8679 8.47054 29.6927 9.05948C29.1628 7.28079 29.9404 5.3744 29.9481 5.36546L31.1968 5.866C31.1968 5.87621 29.7233 9.47447 33.0317 10.4347C33.3931 10.5049 33.7468 10.5547 34.0915 10.5866C36.6006 10.5305 37.2442 7.26674 37.2467 7.25142L38.5645 7.52084C38.5645 7.5285 38.258 9.07608 37.2723 10.3402C38.5205 10.0089 39.6917 9.43626 40.7198 8.65471C41.288 7.25014 40.8833 6.33717 40.8807 6.33462L42.1142 5.79705C42.2851 6.24132 42.3696 6.71415 42.3632 7.19013C43.2556 6.24671 44.0108 5.18243 44.6067 4.02857L45.8184 4.61848C45.8082 4.64019 42.7667 11.0208 36.4295 11.8801C38.0895 12.7254 39.5923 13.6103 39.6 13.6141L39.872 13.7725V14.4747L39.8618 14.4965C39.5495 15.0354 39.1231 15.4995 38.6124 15.8561C38.1018 16.2128 37.5193 16.4534 36.9058 16.5612C36.0286 16.7259 35.145 17.0719 34.5384 17.6823C34.0243 18.2085 33.7392 18.9168 33.7455 19.6525C33.7286 21.067 33.4578 22.467 32.9462 23.7858C32.3127 25.3937 31.2231 26.7815 29.8114 27.7786C29.603 27.9272 29.4035 28.088 29.2138 28.26C32.558 28.7082 34.7364 29.6722 34.7453 29.676L35.0747 29.819V30.6082C34.97 30.8163 33.1466 34.3481 30.6491 35.2049L30.2175 33.9281C31.6782 33.4288 32.9245 31.6297 33.5144 30.6414C31.7736 30.0447 29.9675 29.6589 28.1349 29.4922C27.3818 30.5928 26.8569 31.8333 26.5911 33.1402L27.4569 38.9245H44.2849V40.2729H3.51147V38.9143H8.46067ZM19.069 38.9143C17.81 36.6951 16.8741 33.8067 16.5421 32.7137V31.5518L16.846 31.4483C16.8536 31.4483 19.1622 30.6822 19.9718 28.8703C18.9634 28.6312 17.9838 28.2836 17.0503 27.8335C16.43 28.8217 15.5989 29.6607 14.6165 30.2902C13.1009 31.2709 10.9966 31.3909 9.92781 31.3819C9.82566 32.8491 9.60987 36.4895 9.80012 38.9156L19.069 38.9143ZM26.0919 38.9143L25.2402 33.2232L25.2261 33.1262L25.2427 33.0202C25.4868 31.74 25.9481 30.5109 26.6064 29.3862C26.1404 29.3721 25.6603 29.3709 25.1674 29.3862C23.8772 29.43 22.5858 29.3488 21.3112 29.1436C20.6179 30.9912 18.8213 32.037 17.8738 32.475C18.2671 33.7582 19.3129 36.9121 20.6319 38.9143H26.0919Z" fill="white"/>
</svg>
