<svg width="18" height="18" viewBox="0 0 18 18" fill="none" xmlns="http://www.w3.org/2000/svg">
<path d="M3.36286 0.119995C1.56646 0.119995 0.119995 1.56646 0.119995 3.36286V14.6371C0.119995 16.4335 1.56646 17.88 3.36286 17.88H9.47342V10.9369H7.63748V8.43722H9.47342V6.30158C9.47342 4.62371 10.5582 3.08314 13.0571 3.08314C14.0688 3.08314 14.817 3.18027 14.817 3.18027L14.7581 5.5146C14.7581 5.5146 13.9951 5.50739 13.1625 5.50739C12.2614 5.50739 12.1169 5.92258 12.1169 6.61185V8.43724H14.8297L14.7115 10.937H12.1169V17.88H14.6371C16.4335 17.88 17.88 16.4335 17.88 14.6371V3.36288C17.88 1.56647 16.4335 0.120013 14.6371 0.120013H3.36285L3.36286 0.119995Z" fill="white"/>
</svg>
