<svg width="145" height="20" viewBox="0 0 145 20" fill="none" xmlns="http://www.w3.org/2000/svg">
<rect x="2.34998" y="10" width="8" height="8" transform="rotate(-45 2.34998 10)" fill="#F06754"/>
<path d="M32.75 13.18V15H25.162V5.2H32.568V7.02H27.416V9.148H31.966V10.912H27.416V13.18H32.75ZM44.5529 15L42.1869 11.598L39.8629 15H37.2589L40.8849 10.016L37.4409 5.2H40.0169L42.2709 8.378L44.4829 5.2H46.9329L43.5169 9.932L47.1709 15H44.5529ZM56.2206 5.2C57.0886 5.2 57.8399 5.34467 58.4746 5.634C59.1186 5.92333 59.6132 6.334 59.9586 6.866C60.3039 7.398 60.4766 8.028 60.4766 8.756C60.4766 9.47467 60.3039 10.1047 59.9586 10.646C59.6132 11.178 59.1186 11.5887 58.4746 11.878C57.8399 12.158 57.0886 12.298 56.2206 12.298H54.2466V15H51.9786V5.2H56.2206ZM56.0946 10.45C56.7759 10.45 57.2939 10.3053 57.6486 10.016C58.0032 9.71733 58.1806 9.29733 58.1806 8.756C58.1806 8.20533 58.0032 7.78533 57.6486 7.496C57.2939 7.19733 56.7759 7.048 56.0946 7.048H54.2466V10.45H56.0946ZM66.0158 5.2H68.2838V13.152H73.1978V15H66.0158V5.2ZM82.9669 15.168C81.9496 15.168 81.0302 14.9487 80.2089 14.51C79.3969 14.0713 78.7576 13.4693 78.2909 12.704C77.8336 11.9293 77.6049 11.0613 77.6049 10.1C77.6049 9.13867 77.8336 8.27533 78.2909 7.51C78.7576 6.73533 79.3969 6.12867 80.2089 5.69C81.0302 5.25133 81.9496 5.032 82.9669 5.032C83.9842 5.032 84.8989 5.25133 85.7109 5.69C86.5229 6.12867 87.1622 6.73533 87.6289 7.51C88.0956 8.27533 88.3289 9.13867 88.3289 10.1C88.3289 11.0613 88.0956 11.9293 87.6289 12.704C87.1622 13.4693 86.5229 14.0713 85.7109 14.51C84.8989 14.9487 83.9842 15.168 82.9669 15.168ZM82.9669 13.236C83.5456 13.236 84.0682 13.1053 84.5349 12.844C85.0016 12.5733 85.3656 12.2 85.6269 11.724C85.8976 11.248 86.0329 10.7067 86.0329 10.1C86.0329 9.49333 85.8976 8.952 85.6269 8.476C85.3656 8 85.0016 7.63133 84.5349 7.37C84.0682 7.09933 83.5456 6.964 82.9669 6.964C82.3882 6.964 81.8656 7.09933 81.3989 7.37C80.9322 7.63133 80.5636 8 80.2929 8.476C80.0316 8.952 79.9009 9.49333 79.9009 10.1C79.9009 10.7067 80.0316 11.248 80.2929 11.724C80.5636 12.2 80.9322 12.5733 81.3989 12.844C81.8656 13.1053 82.3882 13.236 82.9669 13.236ZM100.197 15L98.3074 12.27H98.1954H96.2214V15H93.9534V5.2H98.1954C99.0634 5.2 99.8147 5.34467 100.449 5.634C101.093 5.92333 101.588 6.334 101.933 6.866C102.279 7.398 102.451 8.028 102.451 8.756C102.451 9.484 102.274 10.114 101.919 10.646C101.574 11.1687 101.079 11.57 100.435 11.85L102.633 15H100.197ZM100.155 8.756C100.155 8.20533 99.9781 7.78533 99.6234 7.496C99.2687 7.19733 98.7507 7.048 98.0694 7.048H96.2214V10.464H98.0694C98.7507 10.464 99.2687 10.3147 99.6234 10.016C99.9781 9.71733 100.155 9.29733 100.155 8.756ZM115.756 13.18V15H108.168V5.2H115.574V7.02H110.422V9.148H114.972V10.912H110.422V13.18H115.756Z" fill="#F06754"/>
<path d="M139.243 14.24L143.485 9.99735L139.243 5.75471" stroke="#F06754" stroke-width="1.5"/>
<path d="M143 10H127" stroke="#F06754" stroke-width="1.5"/>
</svg>
