<svg width="18" height="18" viewBox="0 0 18 18" fill="none" xmlns="http://www.w3.org/2000/svg">
<path d="M17.8228 5.36194C17.8128 4.61624 17.673 3.87795 17.4096 3.1801C17.1811 2.59146 16.8322 2.05688 16.385 1.6105C15.9379 1.16411 15.4024 0.815755 14.8128 0.587675C14.1228 0.329079 13.3938 0.189252 12.6569 0.174148C11.7082 0.13181 11.4074 0.119995 8.99901 0.119995C6.59064 0.119995 6.28195 0.119995 5.3401 0.174148C4.60355 0.189363 3.87491 0.329189 3.18519 0.587675C2.59549 0.815596 2.05993 1.1639 1.61278 1.6103C1.16564 2.0567 0.816755 2.59137 0.588454 3.1801C0.328909 3.86845 0.189153 4.59604 0.175224 5.33142C0.132816 6.27958 0.119995 6.57988 0.119995 8.98424C0.119995 11.3886 0.119995 11.6958 0.175224 12.6371C0.190017 13.3735 0.329075 14.1002 0.588454 14.7904C0.817138 15.3789 1.16628 15.9134 1.61357 16.3596C2.06087 16.8058 2.59648 17.1539 3.18618 17.3818C3.87401 17.6508 4.60277 17.8006 5.34109 17.8249C6.29083 17.8672 6.59163 17.88 9 17.88C11.4084 17.88 11.7171 17.88 12.6589 17.8249C13.3958 17.8104 14.1248 17.6709 14.8148 17.4123C15.4043 17.184 15.9396 16.8355 16.3867 16.3892C16.8338 15.9428 17.1828 15.4084 17.4115 14.8199C17.6709 14.1307 17.81 13.4041 17.8248 12.6666C17.8672 11.7194 17.88 11.4191 17.88 9.01378C17.878 6.60942 17.878 6.30419 17.8228 5.36194ZM8.99309 13.5311C6.47427 13.5311 4.43376 11.494 4.43376 8.97932C4.43376 6.46468 6.47427 4.42757 8.99309 4.42757C10.2023 4.42757 11.362 4.90713 12.217 5.76075C13.0721 6.61437 13.5524 7.77212 13.5524 8.97932C13.5524 10.1865 13.0721 11.3443 12.217 12.1979C11.362 13.0515 10.2023 13.5311 8.99309 13.5311ZM13.7339 5.32059C13.1451 5.32059 12.6707 4.84602 12.6707 4.2592C12.6707 4.11989 12.6982 3.98193 12.7516 3.85322C12.805 3.7245 12.8833 3.60755 12.982 3.50904C13.0807 3.41053 13.1978 3.33238 13.3267 3.27907C13.4557 3.22575 13.5939 3.19831 13.7334 3.19831C13.873 3.19831 14.0111 3.22575 14.1401 3.27907C14.269 3.33238 14.3861 3.41053 14.4848 3.50904C14.5835 3.60755 14.6618 3.7245 14.7152 3.85322C14.7686 3.98193 14.7961 4.11989 14.7961 4.2592C14.7961 4.84602 14.3207 5.32059 13.7339 5.32059Z" fill="white"/>
</svg>
