<svg width="14" height="9" viewBox="0 0 14 9" fill="none" xmlns="http://www.w3.org/2000/svg">
<path d="M3.696 8.11C3.08 8.11 2.53 7.956 2.046 7.648C1.562 7.33267 1.18067 6.878 0.902 6.284C0.623333 5.68267 0.484 4.97133 0.484 4.15C0.484 3.32867 0.623333 2.621 0.902 2.027C1.18067 1.42567 1.562 0.971 2.046 0.662999C2.53 0.347666 3.08 0.19 3.696 0.19C4.312 0.19 4.862 0.347666 5.346 0.662999C5.83733 0.971 6.22233 1.42567 6.501 2.027C6.77967 2.621 6.919 3.32867 6.919 4.15C6.919 4.97133 6.77967 5.68267 6.501 6.284C6.22233 6.878 5.83733 7.33267 5.346 7.648C4.862 7.956 4.312 8.11 3.696 8.11ZM3.696 6.867C4.246 6.867 4.67867 6.63967 4.994 6.185C5.31667 5.73033 5.478 5.052 5.478 4.15C5.478 3.248 5.31667 2.56967 4.994 2.115C4.67867 1.66033 4.246 1.433 3.696 1.433C3.15333 1.433 2.72067 1.66033 2.398 2.115C2.08267 2.56967 1.925 3.248 1.925 4.15C1.925 5.052 2.08267 5.73033 2.398 6.185C2.72067 6.63967 3.15333 6.867 3.696 6.867ZM13.5737 0.299999V8H12.1437V1.499H10.5157V0.299999H13.5737Z" fill="#F06754"/>
</svg>
