<svg width="17" height="9" viewBox="0 0 17 9" fill="none" xmlns="http://www.w3.org/2000/svg">
<path d="M3.696 8.11C3.08 8.11 2.53 7.956 2.046 7.648C1.562 7.33267 1.18067 6.878 0.902 6.284C0.623333 5.68267 0.484 4.97133 0.484 4.15C0.484 3.32867 0.623333 2.621 0.902 2.027C1.18067 1.42567 1.562 0.971 2.046 0.662999C2.53 0.347666 3.08 0.19 3.696 0.19C4.312 0.19 4.862 0.347666 5.346 0.662999C5.83733 0.971 6.22233 1.42567 6.501 2.027C6.77967 2.621 6.919 3.32867 6.919 4.15C6.919 4.97133 6.77967 5.68267 6.501 6.284C6.22233 6.878 5.83733 7.33267 5.346 7.648C4.862 7.956 4.312 8.11 3.696 8.11ZM3.696 6.867C4.246 6.867 4.67867 6.63967 4.994 6.185C5.31667 5.73033 5.478 5.052 5.478 4.15C5.478 3.248 5.31667 2.56967 4.994 2.115C4.67867 1.66033 4.246 1.433 3.696 1.433C3.15333 1.433 2.72067 1.66033 2.398 2.115C2.08267 2.56967 1.925 3.248 1.925 4.15C1.925 5.052 2.08267 5.73033 2.398 6.185C2.72067 6.63967 3.15333 6.867 3.696 6.867ZM14.1359 3.479C14.8473 3.567 15.3899 3.809 15.7639 4.205C16.1379 4.601 16.3249 5.096 16.3249 5.69C16.3249 6.13733 16.2113 6.54433 15.9839 6.911C15.7566 7.27767 15.4119 7.571 14.9499 7.791C14.4953 8.00367 13.9379 8.11 13.2779 8.11C12.7279 8.11 12.1963 8.033 11.6829 7.879C11.1769 7.71767 10.7443 7.49767 10.3849 7.219L11.0009 6.108C11.2796 6.34267 11.6169 6.52967 12.0129 6.669C12.4163 6.801 12.8306 6.867 13.2559 6.867C13.7619 6.867 14.1579 6.76433 14.4439 6.559C14.7373 6.34633 14.8839 6.06033 14.8839 5.701C14.8839 5.34167 14.7446 5.063 14.4659 4.865C14.1946 4.65967 13.7766 4.557 13.2119 4.557H12.5079V3.578L14.2569 1.499H10.7589V0.299999H16.0059V1.257L14.1359 3.479Z" fill="white"/>
</svg>
