<svg width="17" height="9" viewBox="0 0 17 9" fill="none" xmlns="http://www.w3.org/2000/svg">
<path d="M3.696 8.11C3.08 8.11 2.53 7.956 2.046 7.648C1.562 7.33267 1.18067 6.878 0.902 6.284C0.623333 5.68267 0.484 4.97133 0.484 4.15C0.484 3.32867 0.623333 2.621 0.902 2.027C1.18067 1.42567 1.562 0.971 2.046 0.662999C2.53 0.347666 3.08 0.19 3.696 0.19C4.312 0.19 4.862 0.347666 5.346 0.662999C5.83733 0.971 6.22233 1.42567 6.501 2.027C6.77967 2.621 6.919 3.32867 6.919 4.15C6.919 4.97133 6.77967 5.68267 6.501 6.284C6.22233 6.878 5.83733 7.33267 5.346 7.648C4.862 7.956 4.312 8.11 3.696 8.11ZM3.696 6.867C4.246 6.867 4.67867 6.63967 4.994 6.185C5.31667 5.73033 5.478 5.052 5.478 4.15C5.478 3.248 5.31667 2.56967 4.994 2.115C4.67867 1.66033 4.246 1.433 3.696 1.433C3.15333 1.433 2.72067 1.66033 2.398 2.115C2.08267 2.56967 1.925 3.248 1.925 4.15C1.925 5.052 2.08267 5.73033 2.398 6.185C2.72067 6.63967 3.15333 6.867 3.696 6.867ZM13.3744 3.281C14.4597 3.281 15.2627 3.49367 15.7834 3.919C16.304 4.337 16.5644 4.909 16.5644 5.635C16.5644 6.097 16.4507 6.515 16.2234 6.889C15.996 7.263 15.655 7.56 15.2004 7.78C14.7457 8 14.1847 8.11 13.5174 8.11C12.9674 8.11 12.4357 8.033 11.9224 7.879C11.409 7.71767 10.9764 7.49767 10.6244 7.219L11.2294 6.108C11.5154 6.34267 11.8564 6.52967 12.2524 6.669C12.6557 6.801 13.07 6.867 13.4954 6.867C14.0014 6.867 14.3974 6.76433 14.6834 6.559C14.9767 6.34633 15.1234 6.05667 15.1234 5.69C15.1234 5.294 14.9657 4.997 14.6504 4.799C14.3424 4.59367 13.8107 4.491 13.0554 4.491H11.1964L11.5924 0.299999H16.1134V1.499H12.8024L12.6374 3.281H13.3744Z" fill="white"/>
</svg>
