<svg width="40" height="40" viewBox="0 0 40 40" fill="none" xmlns="http://www.w3.org/2000/svg">
<path d="M18.1438 7.48602C18.1854 7.32328 18.2629 7.17956 18.3651 7.0605C14.9708 4.59108 10.1739 6.1488 8.57812 11.1755C8.67253 11.1994 8.76482 11.2382 8.85288 11.291C12.3944 13.417 17.0881 11.5704 18.1438 7.48602Z" fill="#00457F"/>
<path d="M11.1741 20.9107C15.6357 24.4741 21.6564 20.6085 21.6564 14.082C21.6564 12.0918 21.0399 10.1784 19.9818 8.70386C18.2676 13.571 12.6269 15.6869 8.16025 13.324C7.92938 16.1666 8.97796 19.1564 11.1741 20.9107Z" fill="#00457F"/>
<path d="M12.6328 24.0373L14.8914 27.1991L17.1501 24.0366C15.6841 24.4784 14.1001 24.4781 12.6328 24.0373Z" fill="#00457F"/>
<path d="M20.4579 29.3465C20.4579 29.7222 20.6645 29.2093 16.393 37.3968C16.2896 37.5947 16.1325 37.7456 15.9491 37.8422V33.6785L18.3444 29.0873V26.0029L15.9491 29.3564C15.7249 29.6706 15.4937 30.0743 14.8924 30.0743C14.2869 30.0743 14.0444 29.649 13.8356 29.3564L11.4403 26.0029V29.0873L13.8356 33.6785V37.8422C13.6522 37.7456 13.4951 37.5947 13.3918 37.3968C9.32265 29.5972 9.44094 29.8358 9.40501 29.7446C9.2949 29.4766 9.32681 29.7516 9.32681 24.1255C5.20971 24.7809 2 28.362 2 32.7316V36.9079C2 37.4912 2.47342 37.9647 3.05675 37.9647H22.7454V24.3946C22.0043 24.1684 21.2364 24.0423 20.4579 24.0198V29.3465Z" fill="#00457F"/>
<path d="M26.805 22.3247H26.0782C25.4946 22.3247 25.0215 22.7978 25.0215 23.3815V37.9646H27.8617V23.3815C27.8617 22.7978 27.3887 22.3247 26.805 22.3247Z" fill="#00457F"/>
<path d="M31.8929 19.988H31.1661C30.5825 19.988 30.1094 20.4612 30.1094 21.0448V37.9648H32.9496V21.0448C32.9496 20.4611 32.4765 19.988 31.8929 19.988Z" fill="#00457F"/>
<path d="M36.9437 17.7456H36.2169C35.6333 17.7456 35.1602 18.2187 35.1602 18.8024V37.9648H38.0004V18.8024C38.0004 18.2187 37.5273 17.7456 36.9437 17.7456Z" fill="#00457F"/>
<path d="M31.2357 15.4207C34.9259 15.4207 37.9285 12.4181 37.9285 8.72791C37.9285 5.03774 34.9259 2.03516 31.2357 2.03516C27.5456 2.03516 24.543 5.03774 24.543 8.72791C24.543 12.4181 27.5456 15.4207 31.2357 15.4207ZM31.2357 6.61441C32.401 6.61441 33.3492 7.56267 33.3492 8.72791C33.3492 9.89316 32.401 10.8414 31.2357 10.8414C30.0705 10.8414 29.1222 9.89316 29.1222 8.72791C29.1222 7.56267 30.0705 6.61441 31.2357 6.61441Z" fill="#00457F"/>
</svg>
