<svg width="40" height="40" viewBox="0 0 40 40" fill="none" xmlns="http://www.w3.org/2000/svg">
<path fill-rule="evenodd" clip-rule="evenodd" d="M2.00001 19.9861C2.00837 10.0443 10.0722 1.99164 20.0139 2.00001C29.9501 2.00837 38 10.0638 38 20C37.9847 29.9404 29.9265 37.9916 19.9861 38C10.0443 37.9916 1.99164 29.9279 2.00001 19.9861ZM26.4785 15.723C26.7028 17.0856 26.0522 18.4438 24.8485 19.1224C26.3838 19.4902 27.4774 20.8471 27.5095 22.4243C27.5095 25.0992 26.172 27.0636 22.1596 27.0636H21.7416V30.268H19.8329V27.0636H18.5234V30.268H16.559V27.0636H12.7695V25.0017H14.2602C14.6503 25.0017 15.0125 24.7787 15.0125 24.0543V15.3747C15.0125 14.8453 14.6921 14.6503 14.0373 14.6503H12.5744V12.6301H16.5033V9.49546H18.4538V12.6301H19.7633V9.49546H21.7138V12.658C23.6922 12.8251 26.1999 13.6193 26.4785 15.723ZM19.8469 14.7756H18.4537V18.6069H21.0311C22.0607 18.476 22.8116 17.5676 22.7447 16.5311C22.7447 14.9428 20.8221 14.7756 19.8469 14.7756ZM20.6131 24.7927V24.8066C22.703 24.8066 23.7478 23.9289 23.7478 22.3685C23.7478 20.8081 21.5466 20.6131 20.9615 20.6131H18.4537V24.7927H20.6131Z" fill="#5A74B7"/>
</svg>
