<svg width="40" height="40" viewBox="0 0 40 40" fill="none" xmlns="http://www.w3.org/2000/svg">
<path fill-rule="evenodd" clip-rule="evenodd" d="M20.0001 2C10.064 2 2 10.064 2 20.0001C2 29.9361 10.064 38.0001 20.0001 38.0001C29.9361 38.0001 38.0001 29.9361 38.0001 20.0001C38.0001 10.064 29.9361 2 20.0001 2ZM28.8201 26.2821L26.3001 28.8021C25.9401 29.1621 25.3821 29.1621 25.0221 28.8021L18.8841 22.6641C16.6881 23.4381 14.1321 22.9701 12.368 21.2061C10.37 19.2081 10.028 16.1841 11.306 13.826L15.5361 18.0561L18.0741 15.5181L13.844 11.306C16.2201 10.028 19.2261 10.37 21.2241 12.368C22.9881 14.132 23.4561 16.6881 22.6821 18.8841L28.8201 25.0221C29.1621 25.3641 29.1621 25.9401 28.8201 26.2821Z" fill="#85ACD6"/>
</svg>
