<svg width="40" height="40" viewBox="0 0 40 40" fill="none" xmlns="http://www.w3.org/2000/svg">
<path d="M6.28906 12.5469H4.17969V20.9844H6.28906V23.0937H8.39844V20.9844H10.5078V12.5469H8.39844V10.4375H6.28906V12.5469Z" fill="#FF8200"/>
<path d="M16.8359 18.875V16.7656H18.9453V8.32812H16.8359V6.21875H14.7266V8.32812H12.6172V16.7656H14.7266V18.875H16.8359Z" fill="#FF8200"/>
<path d="M25.2734 16.7656V14.6562H27.3828V6.21875H25.2734V4.10938H23.1641V6.21875H21.0547V14.6562H23.1641V16.7656H25.2734Z" fill="#FF8200"/>
<path d="M33.7109 14.6562V12.5469H35.8203V4.10938H33.7109V2H31.6016V4.10938H29.4922V12.5469H31.6016V14.6562H33.7109Z" fill="#FF8200"/>
<path d="M3.125 27.3126H11.8115L20.249 23.0938H28.6865L34.4226 20.2258L33.9979 22.0429L36.052 22.523L37.1875 17.6642L32.6192 15.6572L31.7707 17.5885L33.4793 18.3391L28.1885 20.9845H19.751L11.3135 25.2032H3.125V27.3126Z" fill="#FF8200"/>
<path d="M35.8203 25.2031H29.4922V35.8906H27.3828V25.2031H21.0547V35.8906H18.9453V26.6606L12.6172 29.8247V35.8906H10.5078V29.4219H4.17969V35.8906H2V38H38V35.8906H35.8203V25.2031ZM31.6016 27.3125H33.7109V35.8906H31.6016V27.3125ZM23.1641 27.3125H25.2734V35.8906H23.1641V27.3125ZM14.7266 31.1284L16.8359 30.0737V35.8906H14.7266V31.1284ZM6.28906 31.5312H8.39844V35.8906H6.28906V31.5312Z" fill="#FF8200"/>
</svg>
