<svg width="40" height="40" viewBox="0 0 40 40" fill="none" xmlns="http://www.w3.org/2000/svg">
<path d="M20.0019 11.719C19.3554 11.719 18.8301 12.2443 18.8301 12.8909C18.8301 13.5374 19.3554 14.0627 20.0019 14.0627C20.6485 14.0627 21.1738 13.5375 21.1738 12.8909C21.1737 12.2443 20.6485 11.719 20.0019 11.719Z" fill="#FDB900"/>
<path d="M22.1093 35.8906H17.8906C17.3077 35.8906 16.8359 36.3624 16.8359 36.9453C16.8359 37.5283 17.3077 38 17.8906 38H22.1093C22.6922 38 23.164 37.5283 23.164 36.9453C23.164 36.3624 22.6922 35.8906 22.1093 35.8906Z" fill="#FDB900"/>
<path d="M17.5255 2.25686C13.0184 3.19208 9.43107 6.88341 8.59674 11.4399C7.97771 14.8141 8.8048 18.1316 10.9255 20.7827C12.0162 22.1453 12.6167 23.8087 12.6167 25.4669V27.4532H18.9448V16.5715C18.8417 16.5348 18.7416 16.4955 18.6439 16.4487L16.271 18.8216C15.859 19.2336 15.1915 19.2336 14.7796 18.8216C14.3676 18.4096 14.3676 17.7422 14.7796 17.3302L17.1525 14.9573C17.1057 14.8596 17.0664 14.7594 17.0297 14.6564H13.6713C13.0884 14.6564 12.6166 14.1847 12.6166 13.6018C12.6166 13.0188 13.0884 12.5471 13.6713 12.5471H17.0297C17.0664 12.4441 17.1057 12.3439 17.1525 12.2462L14.7796 9.8733C14.3676 9.46134 14.3676 8.79387 14.7796 8.38191C15.1915 7.96995 15.859 7.96995 16.271 8.38191L18.6439 10.7548C18.7416 10.7081 18.8417 10.6687 18.9448 10.632V7.27379C18.9448 6.69083 19.4165 6.2191 19.9994 6.2191C20.5824 6.2191 21.0541 6.69083 21.0541 7.27379V10.6321C21.1571 10.6688 21.2573 10.7082 21.355 10.7549L23.7279 8.38205C24.1398 7.97009 24.8073 7.97009 25.2193 8.38205C25.6312 8.79401 25.6312 9.46148 25.2193 9.87344L22.8463 12.2463C22.8931 12.3441 22.9324 12.4442 22.9691 12.5472H26.3275C26.9104 12.5472 27.3822 13.0189 27.3822 13.6019C27.3822 14.1849 26.9104 14.6566 26.3275 14.6566H22.9691C22.9324 14.7596 22.8931 14.8597 22.8463 14.9574L25.2192 17.3303C25.6312 17.7423 25.6312 18.4098 25.2192 18.8217C24.8073 19.2337 24.1398 19.2337 23.7278 18.8217L21.3549 16.4488C21.2572 16.4956 21.1571 16.535 21.0541 16.5717V27.4533H27.3821V25.4639C27.3821 23.7881 27.964 22.1484 29.0208 20.8477C30.7089 18.7692 31.6008 16.2634 31.6008 13.6019C31.6008 6.30762 24.9245 0.716386 17.5255 2.25686Z" fill="#FDB900"/>
<path d="M12.7246 29.5625C13.2146 31.9666 15.3449 33.7812 17.8912 33.7812H22.1099C24.6563 33.7812 26.7865 31.9665 27.2765 29.5625H12.7246Z" fill="#FDB900"/>
</svg>
