<svg width="76" height="76" viewBox="0 0 76 76" fill="none" xmlns="http://www.w3.org/2000/svg">
<path d="M39.5661 63.5418C39.5667 63.5418 39.573 63.5401 39.5738 63.5401V16.2313C38.7891 15.8301 30.2939 9.05707 17.8606 8.3994L15.7852 8.29163V55.6138L17.6622 55.7043C31.1889 56.3498 37.9586 62.7224 39.5661 63.5418Z" fill="#122861"/>
<rect x="46" y="24" width="22" height="30" fill="#FDD328"/>
<path d="M43.5176 15.3938V62.7262C46.4764 62.205 50.8696 61.6348 56.1375 61.6741C64.4157 61.7358 69.6508 63.2416 71.2491 63.4996V16.2119C70.6002 16.1395 64.7001 14.4084 56.1375 14.3057C52.4018 14.2607 48.1236 14.5459 43.5176 15.3938ZM49.4319 49.4857V26.3482L66.7859 37.9169L49.4319 49.4857Z" fill="#122861"/>
<path d="M53.375 33.7142V42.1198L59.6782 37.9171L53.375 33.7142Z" fill="#122861"/>
<path d="M28.9434 62.0266C26.0062 60.8585 22.1579 59.8661 17.4741 59.6432L11.8428 59.3718V15.0513C7.30939 15.7251 4.88597 16.4534 3.95703 16.6625V64.1002L6.40595 63.486C13.7201 61.6597 21.4665 61.1831 28.9434 62.0266Z" fill="#122861"/>
</svg>
