<svg width="76" height="76" viewBox="0 0 76 76" fill="none" xmlns="http://www.w3.org/2000/svg">
<rect x="36" y="9.5" width="20" height="22" fill="#FF8200"/>
<path d="M55.8193 9.5H50.9159V26.0949C50.9159 27.2608 49.7371 27.8373 48.8238 26.3734L45.5851 21.1916L42.3464 26.3734C41.4267 27.8308 40.2543 27.2608 40.2543 26.0949V9.5H23.8148C19.8408 9.51069 16.625 12.7353 16.625 16.7093V59.2653C16.6357 63.2316 19.8484 66.4444 23.8148 66.4551H55.8258C56.7012 66.4536 57.5401 66.1042 58.1576 65.4835C58.7783 64.866 59.1277 64.0271 59.1292 63.1516V12.8099C59.1256 10.9833 57.6459 9.50356 55.8193 9.5ZM56.4346 57.905L25.201 57.9439C24.5202 57.9908 23.9785 58.5327 23.9316 59.2133C23.8796 59.9663 24.448 60.6189 25.201 60.6708H56.4346L56.4282 63.184C56.4285 63.3338 56.3703 63.4779 56.2662 63.5856C56.1585 63.6897 56.0144 63.7479 55.8646 63.7476H23.8148C21.3554 63.7476 19.3617 61.7538 19.3617 59.2944C19.3617 56.835 21.3554 54.8412 23.8148 54.8412H55.8646C56.178 54.8448 56.4311 55.0979 56.4346 55.4112V57.905Z" fill="#122861"/>
</svg>
