<svg width="76" height="76" viewBox="0 0 76 76" fill="none" xmlns="http://www.w3.org/2000/svg">
<path d="M68.8732 32.3304C68.3757 31.9833 67.7396 31.9017 67.1705 32.1112L63.2291 33.5628C60.5651 31.6689 57.2273 30.6362 53.7103 30.6362C48.8503 30.6362 44.3245 32.6573 41.5686 35.9852C39.424 34.5942 36.8535 34.0945 34.2588 34.609C32.4435 34.9691 30.7863 35.8019 29.4761 36.9595C28.6469 32.1244 31.3988 27.585 35.074 22.3923C36.7264 21.5175 38.8245 21.5702 41.0374 21.6262C42.3848 21.6601 43.7778 21.6954 45.1249 21.5127C47.2405 21.2258 48.9377 19.9364 49.7815 17.9752C50.6251 16.0139 50.394 13.8951 49.1473 12.1621L46.6228 8.65263C45.2831 6.79039 42.9794 5.94622 40.754 6.50195C34.1421 8.15355 28.25 11.176 23.2415 15.4855C19.1381 19.0162 15.6238 23.4079 12.7962 28.5387C7.71235 37.7639 6.39509 46.4993 6.3346 48.832C6.33151 48.9523 6.34004 49.0724 6.36021 49.1909C7.07234 53.3836 10.1671 57.19 15.0745 59.9089C19.749 62.4988 25.7584 63.9251 31.9955 63.9251C38.0898 63.9251 43.892 62.5854 48.5059 60.1321L58.5281 69.18C58.8685 69.4874 59.3107 69.6578 59.7695 69.6583L67.8099 69.6667H67.8119C68.3037 69.6667 68.7752 69.4715 69.1232 69.124C69.4715 68.776 69.6673 68.3038 69.6673 67.8114V33.8522C69.6673 33.2455 69.3707 32.6773 68.8732 32.3304Z" fill="#122861"/>
</svg>
