<svg width="76" height="76" viewBox="0 0 76 76" fill="none" xmlns="http://www.w3.org/2000/svg">
<circle cx="38" cy="39" r="24" fill="#00E8D3"/>
<path d="M64.4669 18.7626C60.1466 13.1067 54.1371 8.97385 47.3098 6.96339L46.5949 9.41927C52.8973 11.2755 58.4445 15.091 62.4323 20.3124C66.5129 25.6449 68.7143 32.1778 68.6929 38.8925C68.6929 55.8164 54.9243 69.5851 38.0003 69.5851C21.0764 69.5851 7.30772 55.8164 7.30772 38.8925C7.30772 22.7949 19.7648 9.55307 35.5452 8.29819L34.3783 10.0482L36.5063 11.467L39.064 7.63047C39.2041 7.42038 39.2788 7.17353 39.2788 6.92102C39.2788 6.66852 39.2041 6.42166 39.064 6.21158L36.5063 2.375L34.3783 3.79389L35.6664 5.72529C18.4178 6.92742 4.75 21.343 4.75 38.8925C4.75 57.2267 19.6661 72.1428 38.0003 72.1428C56.3345 72.1428 71.2507 57.2267 71.2507 38.8925C71.2736 31.6176 68.8884 24.5397 64.4669 18.7626Z" fill="#122861"/>
<path d="M44.6496 6.30732C43.7746 6.12972 42.8797 5.98537 41.9893 5.87891L41.6855 8.41856C42.5071 8.51687 43.3332 8.64987 44.1406 8.81389L44.6496 6.30732Z" fill="#122861"/>
<path d="M12.4238 38.8925C12.4238 52.9959 23.8976 64.4697 38.001 64.4697C52.1044 64.4697 63.5782 52.9959 63.5782 38.8925C63.5782 24.7891 52.1044 13.3153 38.001 13.3153C23.8976 13.3153 12.4238 24.7891 12.4238 38.8925ZM28.8776 20.5325L30.1565 22.7477L27.9415 24.0266L26.6626 21.8114L28.8776 20.5325ZM17.5393 37.6136H20.097V40.1713H17.5393V37.6136ZM20.9199 50.2308L19.6411 48.0159L21.8562 46.737L23.1351 48.952L20.9199 50.2308ZM21.8562 31.048L19.6411 29.7691L20.9199 27.5541L23.1351 28.833L21.8562 31.048ZM28.8776 57.2524L26.6626 55.9736L27.9415 53.7584L30.1565 55.0373L28.8776 57.2524ZM39.2799 59.3542H36.7221V56.7965H39.2799V59.3542ZM39.2799 38.8925C39.2799 39.117 39.2208 39.3375 39.1085 39.5319C38.9963 39.7263 38.8348 39.8877 38.6404 40L30.9673 44.4301L29.6884 42.2151L36.7221 38.1547V24.825H39.2799V38.8925ZM58.4627 40.1713H55.905V37.6136H58.4627V40.1713ZM55.0821 27.5541L56.3609 29.7691L54.1458 31.048L52.8669 28.833L55.0821 27.5541ZM54.1458 46.737L56.3609 48.0159L55.0821 50.2308L52.8669 48.952L54.1458 46.737ZM47.1244 20.5325L49.3394 21.8114L48.0605 24.0266L45.8455 22.7477L47.1244 20.5325ZM48.0605 53.7592L49.3394 55.9744L47.1244 57.2532L45.8455 55.0381L48.0605 53.7592ZM39.2799 20.9885H36.7221V18.4307H39.2799V20.9885Z" fill="#122861"/>
</svg>
