<svg width="76" height="76" viewBox="0 0 76 76" fill="none" xmlns="http://www.w3.org/2000/svg">
<path d="M65.892 58.6856V9.5L64.0153 9.65734C56.4887 10.2795 49.1063 12.0787 42.1376 14.9902L38.834 16.3618V65.3528L41.2398 64.3529C48.4511 61.3526 56.0864 59.4963 63.87 58.8502L65.892 58.6856Z" fill="#122861"/>
<path d="M72.041 16.7714H68.3513V59.8182C68.3537 60.4596 67.8618 60.9953 67.2223 61.0482L64.0724 61.3064C63.1632 61.3815 62.2564 61.4745 61.3532 61.5856C61.0601 61.6211 60.7688 61.6679 60.4776 61.7087C59.8686 61.7898 59.2609 61.8721 58.6549 61.9682C58.3018 62.0246 57.9511 62.0907 57.5992 62.1525C57.0569 62.2474 56.5134 62.3417 55.9723 62.4486C55.603 62.5225 55.2342 62.6054 54.8577 62.6852C54.3424 62.7945 53.8272 62.9062 53.3155 63.0281C52.9318 63.1194 52.5492 63.2161 52.1679 63.3134C51.67 63.4365 51.1746 63.5692 50.6797 63.7074C50.2948 63.813 49.9098 63.9248 49.5261 64.0377C49.0342 64.183 48.5496 64.3307 48.0638 64.4857C47.6836 64.6088 47.3029 64.7319 46.9239 64.8544C46.4375 65.0183 45.9535 65.1877 45.4712 65.3624C45.1025 65.4964 44.7332 65.6309 44.356 65.772C44.1873 65.8363 44.0197 65.9047 43.8516 65.9702H72.041V16.7714Z" fill="#122861"/>
<path d="M11.1931 9.65734L9.31641 9.5V58.6892L11.4994 58.8748C19.2782 59.5252 26.9069 61.3929 34.1062 64.4094L36.3744 65.3528V16.3618L33.0745 14.9914C26.1052 12.0793 18.7215 10.2795 11.1931 9.65734Z" fill="#122861"/>
<path d="M3.16602 16.7714V65.9678H31.3753C31.224 65.9083 31.0726 65.8447 30.9201 65.7882C30.5682 65.6543 30.2132 65.5264 29.8589 65.3973C29.3593 65.2159 28.8602 65.0393 28.357 64.8706C27.993 64.7475 27.6279 64.628 27.2622 64.5115C26.7631 64.3475 26.2623 64.1932 25.7608 64.0491C25.3915 63.941 25.0228 63.8323 24.654 63.729C24.1484 63.589 23.6415 63.4563 23.1334 63.326C22.7647 63.2311 22.3954 63.1362 22.0182 63.048C21.503 62.9248 20.9847 62.8119 20.467 62.7008C20.0983 62.621 19.729 62.5399 19.3602 62.466C18.824 62.3603 18.2853 62.2654 17.7466 62.1712C17.3935 62.1093 17.0403 62.048 16.6866 61.985C16.0921 61.8907 15.4957 61.8108 14.8994 61.7304C14.5979 61.6901 14.2989 61.6421 13.998 61.6078C13.096 61.4986 12.194 61.4055 11.292 61.3286L7.98116 61.0481C7.34279 60.9935 6.85335 60.4584 6.85575 59.8182V16.7714H3.16602Z" fill="#122861"/>
</svg>
