<svg width="76" height="76" viewBox="0 0 76 76" fill="none" xmlns="http://www.w3.org/2000/svg">
<rect x="35" y="10" width="19" height="44" fill="#FDD328"/>
<rect x="17" y="10" width="11" height="44" fill="#FF8200"/>
<path fill-rule="evenodd" clip-rule="evenodd" d="M63.5768 57.3717H19.3515C16.781 57.3717 14.6781 59.3894 14.5285 61.923C14.5302 62.0785 14.5328 62.1954 14.5345 62.2706C14.535 62.2992 14.5321 62.3265 14.5291 62.354C14.5273 62.3714 14.5254 62.3889 14.5244 62.4067C14.6287 64.981 16.7513 67.0455 19.3515 67.0455H62.2867V62.3157C62.2867 61.3716 63.0538 60.6046 63.9978 60.6046C64.9417 60.6046 65.7088 61.3714 65.7088 62.3157V68.7564C65.7088 69.7013 64.9419 70.4675 63.9978 70.4675H19.0926C19.0029 70.4675 18.9181 70.4549 18.8316 70.4416C14.5196 70.1708 11.0915 66.5866 11.0915 62.2085C11.0915 62.1506 11.0956 62.0938 11.0996 62.037C11.1026 61.9954 11.1056 61.9538 11.107 61.9118C11.0548 56.8312 11.107 18.184 11.1129 13.9781C11.1109 13.9584 11.1083 13.9389 11.1056 13.9194C11.1003 13.8802 11.0949 13.8408 11.0949 13.8001C11.0949 9.24703 14.7995 5.54163 19.3539 5.54163H22.088H63.5802H63.9979C64.942 5.54163 65.7091 6.30818 65.709 7.25269V55.6132C65.709 56.558 64.942 57.3241 63.9979 57.3241C63.9879 57.3241 63.9795 57.3224 63.9695 57.3224C63.8434 57.3525 63.7122 57.3717 63.5768 57.3717ZM22.2292 12.0891C21.2847 12.0891 20.5182 12.8556 20.5182 13.8001V48.5565C20.5182 49.5004 21.2847 50.2675 22.2292 50.2675C23.1738 50.2675 23.9403 49.5006 23.9403 48.5565V13.8001C23.9403 12.8556 23.1738 12.0891 22.2292 12.0891ZM39.6745 37.434C40.7985 38.1623 42.1838 38.5264 43.8302 38.5264C45.6192 38.5264 47.0678 38.0752 48.176 37.1728C49.3 36.2704 49.862 35.0514 49.862 33.5158C49.862 33.0408 49.7987 32.6054 49.672 32.2097C49.5612 31.798 49.4187 31.4498 49.2446 31.1648C49.0863 30.8798 48.8488 30.6028 48.5322 30.3336C48.2155 30.0645 47.9306 29.8508 47.6773 29.6925C47.4398 29.5341 47.0915 29.3679 46.6324 29.1938C46.1891 29.0038 45.8329 28.8692 45.5638 28.7901C45.3105 28.6951 44.9305 28.5684 44.4239 28.4101C43.1891 28.0302 42.35 27.6819 41.9067 27.3652C41.4793 27.0328 41.2656 26.6053 41.2656 26.0829C41.2656 25.5921 41.4555 25.1963 41.8355 24.8955C42.2313 24.5789 42.7695 24.4206 43.4503 24.4206C44.9068 24.4206 45.9675 25.133 46.6324 26.5578L49.3871 24.9668C48.8171 23.7953 48.0177 22.8849 46.9886 22.2359C45.9754 21.5709 44.796 21.2385 43.4503 21.2385C41.9463 21.2385 40.656 21.6897 39.5795 22.5921C38.5188 23.4786 37.9884 24.6739 37.9884 26.1779C37.9884 26.9378 38.123 27.6027 38.3921 28.1726C38.6613 28.7426 39.0492 29.2175 39.5558 29.5975C40.0782 29.9616 40.5927 30.2545 41.0993 30.4761C41.6218 30.6978 42.255 30.9194 42.9991 31.141C44.3448 31.521 45.2788 31.8772 45.8013 32.2097C46.3237 32.5263 46.5849 32.9775 46.5849 33.5632C46.5849 34.0699 46.3712 34.4894 45.9437 34.8218C45.5163 35.1543 44.8435 35.3205 43.9252 35.3205C42.0255 35.3205 40.751 34.4736 40.1019 32.7796L37.2998 34.4181C37.7589 35.6847 38.5505 36.69 39.6745 37.434Z" fill="#122861"/>
</svg>
