<svg width="676" height="436" viewBox="0 0 676 436" fill="none" xmlns="http://www.w3.org/2000/svg">
<path d="M59.1738 211.625C59.1738 127.065 105.72 52.4629 170.259 40.1799C234.799 27.8969 292.888 82.9595 353.713 68.0526C414.538 53.1458 470.571 30.1802 548.476 70.667C626.381 111.154 589.477 200.784 614.08 239.912C638.683 279.041 619.547 393.693 508.84 410.755C398.134 427.816 227.25 426.299 150.712 375.795C74.1745 325.292 59.1738 247.258 59.1738 211.625Z" fill="#EDF3FF"/>
<path opacity="0.25" d="M32.0273 46.6628C32.0273 46.6628 122.967 135.928 273.573 129.939C424.178 123.949 376.644 103.428 475.672 127.858C574.701 152.288 632.798 112.913 632.798 112.913L627.517 322.239H53.8133L32.0273 46.6628Z" fill="#8DBEF7"/>
<path opacity="0.53" d="M32.0273 129.437C32.0273 129.437 122.967 218.693 273.573 212.713C424.178 206.733 376.644 186.201 475.672 210.632C574.701 235.064 632.798 195.688 632.798 195.688L627.517 321.191H53.8133L32.0273 129.437Z" fill="#8DBEF7"/>
<path opacity="0.56" d="M32.0273 224.964C32.0273 224.964 122.967 314.225 273.573 308.24C424.178 302.254 376.644 281.729 475.672 306.159C574.701 330.589 632.798 291.224 632.798 291.224L627.517 322.738H53.8133L32.0273 224.964Z" fill="#8DBEF7"/>
<path d="M670.548 318.193H5.45117V323.512H670.548V318.193Z" fill="#59559D"/>
<path opacity="0.51" d="M157.415 354.54C157.415 354.54 262.937 350.756 279.124 353.653C295.31 356.549 292.473 373.894 319.769 371.41C347.066 368.927 387.807 359.627 426.45 370.671C465.094 381.715 454.416 390.568 388.834 397.295C323.253 404.022 303.702 393.006 292.058 416.379C280.414 439.751 119.502 431.248 118.428 413.193C117.354 395.138 142.716 359.4 157.415 354.54Z" fill="#3177DB"/>
<path d="M320.627 13.3873C320.627 10.9933 319.674 8.69743 317.979 7.00459C316.284 5.31174 313.985 4.36049 311.588 4.35999H146.69C145.503 4.35999 144.327 4.59349 143.231 5.04715C142.134 5.50082 141.137 6.16577 140.298 7.00403C139.459 7.8423 138.793 8.83746 138.338 9.93271C137.884 11.028 137.65 12.2018 137.65 13.3873V24.5183H320.637L320.627 13.3873Z" fill="#00E8D3"/>
<path d="M137.65 24.1248V133.018C137.65 135.413 138.603 137.709 140.298 139.402C141.993 141.095 144.292 142.046 146.69 142.046H311.588C313.985 142.045 316.284 141.094 317.979 139.401C319.674 137.708 320.627 135.412 320.627 133.018V24.1248H137.65Z" fill="#59559D"/>
<path d="M265.761 17.4357C267.746 17.4357 269.355 15.829 269.355 13.847C269.355 11.8651 267.746 10.2584 265.761 10.2584C263.777 10.2584 262.168 11.8651 262.168 13.847C262.168 15.829 263.777 17.4357 265.761 17.4357Z" fill="#FEFFFF"/>
<path d="M281.015 17.4357C283 17.4357 284.609 15.829 284.609 13.847C284.609 11.8651 283 10.2584 281.015 10.2584C279.031 10.2584 277.422 11.8651 277.422 13.847C277.422 15.829 279.031 17.4357 281.015 17.4357Z" fill="#FEFFFF"/>
<path d="M296.267 17.4357C298.252 17.4357 299.861 15.829 299.861 13.847C299.861 11.8651 298.252 10.2584 296.267 10.2584C294.283 10.2584 292.674 11.8651 292.674 13.847C292.674 15.829 294.283 17.4357 296.267 17.4357Z" fill="#FEFFFF"/>
<path d="M209.467 45.9667C202.795 41.1384 194.763 38.5444 186.523 38.5568V77.6853L209.467 45.9667Z" fill="#00E8D3"/>
<path d="M227.281 79.0416C227.285 72.8479 225.815 66.7419 222.991 61.227C220.168 55.7122 216.073 50.9465 211.043 47.323L188.098 79.0416L225.348 91.1903C226.631 87.268 227.283 83.1677 227.281 79.0416Z" fill="#FFD4DE"/>
<path d="M184.417 79.961V40.8325C162.777 40.8325 145.236 58.3499 145.236 79.961C145.236 101.572 162.777 119.09 184.417 119.09C201.807 119.09 216.548 107.775 221.668 92.1173L184.417 79.961Z" fill="white"/>
<path d="M464.968 18.8298H492.52V328.531H455.393V28.385C455.393 27.1295 455.64 25.8864 456.122 24.7266C456.603 23.5669 457.308 22.5132 458.198 21.6258C459.087 20.7384 460.143 20.0348 461.304 19.555C462.466 19.0753 463.711 18.8288 464.968 18.8298V18.8298Z" fill="#7F98EF"/>
<path d="M492.523 18.8298H597.78C599.037 18.8288 600.282 19.0753 601.444 19.555C602.606 20.0348 603.661 20.7384 604.551 21.6258C605.44 22.5132 606.145 23.5669 606.627 24.7266C607.108 25.8864 607.356 27.1295 607.356 28.385V328.531H492.523V18.8298Z" fill="#C2D2F9"/>
<path d="M601.607 33.3242H498.26V92.3859H601.607V33.3242Z" fill="#F0F3FF"/>
<path opacity="0.44" d="M573.205 103.101H613.879V25.7157H573.205V103.101Z" fill="#A0C0F9"/>
<path d="M601.607 99.5045H498.26V158.566H601.607V99.5045Z" fill="white"/>
<path opacity="0.44" d="M573.475 167.73H614.148V90.3448H573.475V167.73Z" fill="#B3CCFF"/>
<path d="M601.607 165.683H498.26V224.744H601.607V165.683Z" fill="white"/>
<path opacity="0.27" d="M573.467 233.902H614.141V156.517H573.467V233.902Z" fill="#A0C0F9"/>
<path d="M601.607 231.863H498.26V290.925H601.607V231.863Z" fill="white"/>
<path opacity="0.44" d="M573.475 300.075H614.148V222.69H573.475V300.075Z" fill="#A0C0F9"/>
<path d="M585.358 51.6268L583.59 48.827H567.008V92.386H586.352L585.358 51.6268Z" fill="#86A9EF"/>
<path d="M583.59 92.3594H595.293V48.8269H583.59V92.3594Z" fill="#FF8200"/>
<path d="M571.217 51.6268L569.448 48.827H552.867V92.386H572.21L571.217 51.6268Z" fill="#86A9EF"/>
<path d="M569.448 92.3594H581.15V48.8269H569.448V92.3594Z" fill="#FCD6D6"/>
<path d="M557.074 51.6268L555.307 48.827H538.725V92.386H558.067L557.074 51.6268Z" fill="#86A9EF"/>
<path d="M555.305 92.3594H567.008V48.8269H555.305V92.3594Z" fill="#FCD6D6"/>
<path d="M542.932 51.6268L541.164 48.827H524.582V92.386H543.926L542.932 51.6268Z" fill="#86A9EF"/>
<path d="M541.166 92.3594H552.869V48.8269H541.166V92.3594Z" fill="#FDD328"/>
<path d="M528.791 51.6268L527.022 48.827H510.441V92.386H529.784L528.791 51.6268Z" fill="#86A9EF"/>
<path d="M527.022 92.3594H538.725V48.8269H527.022V92.3594Z" fill="#00E8D3"/>
<path d="M585.358 119.332L583.59 116.53H567.008V160.089H586.352L585.358 119.332Z" fill="#86A9EF"/>
<path d="M583.59 160.064H595.293V116.532H583.59V160.064Z" fill="#FF8200"/>
<path d="M571.217 119.332L569.448 116.53H552.867V160.089H572.21L571.217 119.332Z" fill="#86A9EF"/>
<path d="M569.448 160.064H581.15V116.532H569.448V160.064Z" fill="#FDD328"/>
<path d="M557.074 119.332L555.307 116.53H538.725V160.089H558.067L557.074 119.332Z" fill="#86A9EF"/>
<path d="M555.305 160.064H567.008V116.532H555.305V160.064Z" fill="#FCD6D6"/>
<path d="M542.932 119.332L541.164 116.53H524.582V160.089H543.926L542.932 119.332Z" fill="#86A9EF"/>
<path d="M541.166 160.064H552.869V116.532H541.166V160.064Z" fill="#FCD6D6"/>
<path d="M528.791 119.332L527.022 116.53H510.441V160.089H529.784L528.791 119.332Z" fill="#86A9EF"/>
<path d="M527.022 160.064H538.725V116.532H527.022V160.064Z" fill="#00E8D3"/>
<path d="M585.358 184.746L583.59 181.944H567.008V225.503H586.352L585.358 184.746Z" fill="#86A9EF"/>
<path d="M583.59 225.479H595.293V181.946H583.59V225.479Z" fill="#A9C2FF"/>
<path d="M571.217 184.746L569.448 181.944H552.867V225.503H572.21L571.217 184.746Z" fill="#86A9EF"/>
<path d="M569.448 225.479H581.15V181.946H569.448V225.479Z" fill="#A9C2FF"/>
<path d="M557.074 184.746L555.307 181.944H538.725V225.503H558.067L557.074 184.746Z" fill="#86A9EF"/>
<path d="M555.305 225.479H567.008V181.946H555.305V225.479Z" fill="#A9C2FF"/>
<path d="M542.932 184.746L541.164 181.944H524.582V225.503H543.926L542.932 184.746Z" fill="#86A9EF"/>
<path d="M541.166 225.479H552.869V181.946H541.166V225.479Z" fill="#A9C2FF"/>
<path d="M528.791 184.746L527.022 181.944H510.441V225.503H529.784L528.791 184.746Z" fill="#86A9EF"/>
<path d="M527.022 225.479H538.725V181.946H527.022V225.479Z" fill="#A9C2FF"/>
<path d="M585.358 250.018L583.59 247.216H567.008V290.777H586.352L585.358 250.018Z" fill="#86A9EF"/>
<path d="M583.59 290.751H595.293V247.218H583.59V290.751Z" fill="#A9C2FF"/>
<path d="M571.217 250.018L569.448 247.216H552.867V290.777H572.21L571.217 250.018Z" fill="#86A9EF"/>
<path d="M569.448 290.751H581.15V247.218H569.448V290.751Z" fill="#A9C2FF"/>
<path d="M557.074 250.018L555.307 247.216H538.725V290.777H558.067L557.074 250.018Z" fill="#86A9EF"/>
<path d="M555.305 290.751H567.008V247.218H555.305V290.751Z" fill="#A9C2FF"/>
<path d="M542.932 250.018L541.164 247.216H524.582V290.777H543.926L542.932 250.018Z" fill="#86A9EF"/>
<path d="M541.166 290.751H552.869V247.218H541.166V290.751Z" fill="#A9C2FF"/>
<path d="M528.791 250.018L527.022 247.216H510.441V290.777H529.784L528.791 250.018Z" fill="#86A9EF"/>
<path d="M527.022 290.751H538.725V247.218H527.022V290.751Z" fill="#A9C2FF"/>
<path d="M400.906 337.412L470.746 295.717L522.662 332.147L602.36 278.218L592.788 268.23L628.552 263.152L622.24 297.642L613.125 288.713L523.189 352.701L470.594 316.089L408.898 351.886L400.906 337.412Z" fill="#85ACD6"/>
<path d="M402.395 351.055L470.5 309.169L523.778 346.057L612.975 283.82L621.206 292.156L627.229 260.356L636.729 259.76L626.733 302.307L528.908 359.952L463.165 331.064C463.165 331.064 400.844 361.445 400.844 361.486C400.844 361.528 402.395 351.055 402.395 351.055Z" fill="#59559D"/>
<path d="M410.345 370.939H420.305V308.455H410.345V370.939Z" fill="#19276B"/>
<path opacity="0.47" d="M402.291 328.695H422.293V314.036H402.291V328.695Z" fill="#464B68"/>
<path d="M411.192 320.025H419.448C423.726 320.025 427.193 316.562 427.193 312.29V287.576C427.193 283.304 423.726 279.841 419.448 279.841H411.192C406.915 279.841 403.447 283.304 403.447 287.576V312.29C403.447 316.562 406.915 320.025 411.192 320.025Z" fill="#2E49AA"/>
<path opacity="0.53" d="M387.699 301.732H438.592V286.349H387.699V301.732Z" fill="#010744"/>
<path d="M375.715 381.512C375.715 385.878 393.447 389.418 415.32 389.418C437.193 389.418 454.927 385.878 454.927 381.512C454.927 377.146 437.195 367.96 415.32 367.96C393.445 367.96 375.715 377.146 375.715 381.512Z" fill="#2E49AA"/>
<path opacity="0.53" d="M452.984 375.09C452.984 375.09 447.901 384.755 419.472 383.425C391.043 382.095 380.153 379.074 381.242 374.363C381.242 374.363 370.111 380.038 369.507 380.284C368.903 380.53 371.441 389.418 371.441 389.418L407.622 397.077L452.868 391.402C452.868 391.402 459.877 389.227 460.006 388.623C460.134 388.02 452.984 375.09 452.984 375.09Z" fill="#010744"/>
<path d="M507.528 190.003C507.683 217.622 493.732 266.68 475.136 279.259C456.54 291.837 365.666 285.549 359.068 284.052C352.471 282.556 345.572 254.698 345.873 234.631C346.174 214.563 370.593 200.975 397.872 186.876C403.978 159.257 426.55 144.777 445.445 141.474C464.34 138.171 507.227 136.69 507.528 190.003Z" fill="#5A74B7"/>
<path d="M348.824 271.132C348.824 271.132 403.735 278.485 441.604 271.656C479.472 264.826 510.443 235.94 510.443 235.94C510.443 235.94 494.469 282.51 493.495 282.51C492.521 282.51 438.097 296.481 438.097 296.481L351.668 292.141L348.824 271.132Z" fill="#122861"/>
<path d="M486.202 136.51C486.202 136.51 497.702 152.908 489.287 179.368C480.873 205.827 467.899 217.369 464.743 229.459C461.588 241.549 453.188 269.166 425.305 269.711C397.421 270.256 341.376 258.419 341.376 258.419C341.376 258.419 338.301 235.247 339.46 235.247C340.62 235.247 358.854 229.994 371.474 215.288C384.093 200.581 408.647 191.344 408.647 191.344C408.647 191.344 426.322 143.275 443.431 138.309C460.54 133.344 486.202 136.51 486.202 136.51Z" fill="#122861"/>
<path d="M282.942 304.375H154.102V309.454H282.942V304.375Z" fill="#1B3287"/>
<path d="M258.378 306.125L251.387 334.245H258.926L265.853 306.914L258.378 306.125Z" fill="#1B3287"/>
<path d="M374.738 220.314C374.738 220.314 360.082 222.991 349.487 224.968C338.893 226.945 320.478 227.892 312.606 237.799C304.733 247.706 266.166 298.951 266.166 298.951C266.166 298.951 270.665 310.744 281.165 307.3C281.165 307.3 290.85 298.255 301.731 289.183C312.612 280.11 330.145 262.284 333.447 255.888C333.447 255.888 381.561 253.217 394.063 250.858C406.565 248.499 414.332 240.355 415.322 236.591L411.155 218.767L389.786 223.01L374.738 220.314Z" fill="#FDD328"/>
<path d="M269.537 307.983C269.774 307.657 285.544 294.267 298.561 281.428C311.578 268.589 321.55 250.801 331.279 250.058C341.008 249.314 371.627 244.929 377.857 241.466C384.087 238.002 375.086 233 371.013 224.062C366.94 215.123 376.169 213.778 376.169 213.778L408.038 217.641L414.359 220.416L398.304 251.043L380.295 260.642L333.942 257.977C333.942 257.977 292.854 302.811 291.09 304.12L275.216 315.916L269.537 307.983Z" fill="#FF8200"/>
<path d="M333.605 358.06C333.605 358.06 332.805 370.786 331.188 373.315L336.952 378.801L347.637 378.196L349.749 360.529L333.605 358.06Z" fill="#F9B9A8"/>
<path d="M338.639 375.578C342.566 376.641 345.743 375.642 347.91 375.922C350.077 376.202 349.793 379.571 349.198 385.644C348.603 391.716 349.444 399.485 343.204 399.064C336.965 398.642 307.456 395.577 301.167 392.532C294.878 389.486 297.67 382.695 304.387 382.025C311.104 381.355 329.704 374.473 330.827 372.833C331.95 371.193 333.992 374.322 338.639 375.578Z" fill="#3D19D1"/>
<path d="M295.819 386.444C295.819 386.444 334.462 395.11 351.118 394.788L348.326 400.607L300.211 397.066C300.211 397.066 293.563 391.391 293.616 391.135C293.669 390.88 295.819 386.444 295.819 386.444Z" fill="#001B8C"/>
<path d="M270.47 295.917C270.47 295.917 263.103 304.668 260.588 305.631L261.813 312.661L269.841 317.91L280.792 306.293L270.47 295.917Z" fill="#F9B9A8"/>
<path d="M264.752 311.229C267.025 314.083 269.84 315.056 271.255 316.41C272.67 317.765 270.665 320.044 266.996 324.106C263.327 328.167 259.798 334.219 255.513 330.594C251.228 326.97 231.594 309.057 228.69 303.514C225.787 297.971 231.422 294.553 236.624 297.65C241.825 300.747 258.908 305.677 260.594 305.092C262.28 304.507 262.071 307.85 264.752 311.229Z" fill="#3D19D1"/>
<path d="M228.075 296.276C228.075 296.276 251.319 323.092 263.498 331.722L258.383 334.433L225.574 306.28C225.574 306.28 223.805 298.656 223.983 298.494C224.161 298.331 228.075 296.276 228.075 296.276Z" fill="#001B8C"/>
<path d="M411.466 229.665C411.466 229.665 367.881 261.614 360.025 268.661C352.17 275.708 351.903 287.306 344.932 308.476C337.961 329.647 331.928 358.789 331.928 358.789C331.928 358.789 340.263 372.105 353.566 362.858C353.566 362.858 356.902 349.237 362.346 335.869C367.79 322.5 376.125 292.824 378.58 290.577C381.035 288.329 398.996 282.253 411.54 276.92C424.084 271.588 440.956 260.073 443.436 255.275L411.466 229.665Z" fill="#FDD328"/>
<path d="M336.752 361.518C337.008 361.458 348.172 359.033 352.654 348.636C357.136 338.239 367.062 301.959 370.476 292.614C373.889 283.269 382.726 281.025 399.424 275.059C416.122 269.092 418.056 260.822 412.151 254.817C406.247 248.813 406.152 238.418 406.304 231.371C406.455 224.325 406.417 222.624 406.417 222.624L414.779 222.2L457.618 243.306L450.41 264.047L383.643 294.568L355.825 362.194L352.766 365.302C352.766 365.302 348.589 366.689 348.243 366.359C347.896 366.03 338.36 365.287 338.36 365.287L336.752 361.518Z" fill="#FF8200"/>
<path d="M270.49 290.516L262.115 300.743C262.115 300.743 269.48 313.194 280.69 311.904L287.934 302.767C287.934 302.767 273.964 297.896 270.49 290.516Z" fill="#2636AA"/>
<path d="M331.569 354.54L328.828 366.717C328.828 366.717 339.275 378.175 354.677 369.933L355.23 359.651C355.23 359.651 343.461 363.86 331.569 354.54Z" fill="#2636AA"/>
<path d="M360.888 142.56C360.888 142.56 358.463 135.143 356.582 128.287C354.701 121.432 353.036 115.492 348.569 111.718C344.103 107.944 336.946 111.517 341.112 123.424C345.277 135.33 353.549 147.713 353.549 147.713L360.888 142.56Z" fill="#F6A3A8"/>
<path d="M455.969 122.813L458.65 123.117C458.65 123.117 479.824 127.502 485.12 143.056C490.417 158.61 475.567 210.799 454.84 218.055C454.84 218.055 452.444 247.091 444.407 257.341C444.407 257.341 421.143 255.886 411.267 245.536C411.267 245.536 407.959 236.078 408.257 223.197C408.257 223.197 395.879 235.961 390.261 237.105C384.643 238.25 378.026 234.392 371.964 220.174C371.964 220.174 381.739 215.577 389.549 206.474C397.359 197.371 398.374 191.096 398.374 191.096C398.374 191.096 385.777 194.781 373.999 182.147C362.22 169.512 348.816 149.934 348.816 149.934C348.816 149.934 355.139 141.385 361.076 140.744C361.076 140.744 388.374 170.849 394.127 168.886C399.88 166.922 403.941 150.838 409.471 136.768C415 122.697 426.464 120.376 431.583 120.658C436.701 120.94 439.629 121.415 439.629 121.415L455.969 122.813Z" fill="white"/>
<path d="M425.425 167.317L424.429 168.263C424.429 168.263 434.692 223.545 454.841 218.052L456.618 235.586L446.376 260.863L418.559 256.028C418.559 256.028 419.663 255.771 430.492 242.05C441.322 228.329 437.901 222.522 432.248 207.524C426.596 192.527 424.427 168.263 424.427 168.263" fill="#C5CDFF"/>
<path d="M466.156 152.687C466.156 152.687 459.757 188.701 455.845 191.367C451.934 194.032 439.176 163.999 439.176 163.999C439.176 163.999 449.236 184.685 453.129 179.731C457.022 174.776 466.156 152.687 466.156 152.687Z" fill="#C5CDFF"/>
<path d="M409.49 225.042C409.407 225.06 409.322 225.06 409.24 225.042C409.083 225.011 408.945 224.921 408.856 224.789C408.767 224.658 408.733 224.496 408.762 224.34C413.708 198.612 422.151 174.09 428.364 158.044C435.096 140.657 440.734 129.199 440.791 129.084C440.826 129.013 440.874 128.95 440.934 128.898C440.993 128.846 441.062 128.806 441.137 128.781C441.211 128.756 441.29 128.745 441.369 128.75C441.448 128.756 441.525 128.776 441.596 128.811C441.666 128.846 441.73 128.895 441.782 128.954C441.834 129.013 441.874 129.082 441.899 129.157C441.924 129.231 441.935 129.31 441.929 129.389C441.924 129.468 441.903 129.544 441.868 129.615C441.812 129.729 436.186 141.155 429.48 158.491C423.286 174.487 414.869 198.938 409.944 224.567C409.923 224.681 409.868 224.787 409.787 224.871C409.707 224.956 409.603 225.015 409.49 225.042V225.042Z" fill="#C5CDFF"/>
<path d="M397.366 192.687L398.381 191.096C398.381 191.096 415.066 147.087 419.472 138.033C419.472 138.033 400.548 181.244 394.701 184.381C388.853 187.517 379.027 181.386 373.638 175.092C368.249 168.799 349.498 145.803 349.498 145.803L346.533 149.866L372.026 193.533L394.757 194.161L397.366 192.687Z" fill="#C5CDFF"/>
<path d="M378.055 231.716C378.151 231.873 387.306 234.829 389.61 228.297C389.61 228.297 393.292 236.848 399.759 232.941L391.352 240.357L381.815 239.347L378.055 231.716Z" fill="#C5CDFF"/>
<path d="M435.141 87.3502C435.141 87.3502 427.433 83.6084 424.294 77.1027C421.155 70.5971 431.231 68.1624 431.741 64.8594C432.25 61.5565 431.265 58.9327 433.493 56.5926C435.72 54.2525 440.761 57.7484 443.214 56.0251C445.667 54.3017 446.991 49.5175 454.828 50.0869C462.664 50.6563 460.59 57.0144 463.82 58.246C467.05 59.4775 474.996 58.036 479.622 65.5991C484.248 73.1622 477.176 78.5991 479.569 82.4355C481.961 86.2719 483.909 89.5692 481.628 93.627C479.347 97.6847 474.466 96.4646 473.34 100.95C472.215 105.435 465.722 112.281 460.999 109.041C458.203 107.137 455.627 104.93 453.318 102.459C453.318 102.459 447.238 91.1639 435.141 87.3502Z" fill="#3A3938"/>
<path opacity="0.94" d="M424.999 71.5C424.999 71.5 425.959 77.8347 431.801 74.719C437.643 71.6034 435.834 70.4059 443.881 72.483C451.927 74.5601 450.728 73.0865 456.534 72.3165C462.34 71.5466 464.191 70.8032 463.789 77.5453C463.388 84.2874 468 89.9569 471.774 90.6947C475.547 91.4325 481.681 90.984 482.188 87C482.188 87 484.499 97.5 482.188 100.579C479.878 103.658 476.979 100.626 476.979 100.626C476.979 100.626 471.774 112.807 467.064 114.814C462.355 116.821 456.76 112.807 456.76 112.807L449.143 98.3108L453.195 91.7919L446.798 83.4853L437.285 84.1777L433.098 93.5153C433.098 93.5153 420.499 84.1777 419.482 80.0443C418.466 75.9108 424.999 71.5 424.999 71.5Z" fill="#312E36"/>
<path d="M449.183 113.458C449.183 113.458 440.348 112.512 439.175 112.453C438.003 112.395 433.669 118.129 434.885 124.91C434.885 124.91 435.72 121.986 438.471 121.468C441.221 120.949 443.421 121.925 443.53 121.859C443.64 121.793 449.183 113.458 449.183 113.458Z" fill="#59559D"/>
<path d="M434.75 76.4822C434.75 76.4822 430.015 102.331 435.372 106.031C438.238 108.01 441.623 106.01 444.464 108.046C446.603 110.111 444.942 114.845 441.07 118.847C440.153 119.793 438.797 121.513 438.797 121.513L440.859 131.24L458.65 123.117C457.711 121.824 457.04 120.357 456.676 118.802C456.311 117.247 456.261 115.634 456.529 114.059C457.463 108.753 458.631 107.117 459.048 106.771C459.465 106.424 458.164 105.115 457.912 101.947C457.66 98.7781 459.363 97.2666 461.183 96.6858C463.003 96.1051 465.381 95.2406 466.08 91.7276C466.779 88.2147 463.456 84.3688 459.211 86.1338C454.966 87.8988 458.575 78.3777 458.287 76.083C457.999 73.7884 452.983 77.7232 446.921 77.0289C442.879 76.6033 438.815 76.4208 434.75 76.4822V76.4822Z" fill="#F9B9A8"/>
<path d="M431.566 82.1574C431.723 82.0609 433.082 79.8873 438.295 80.644C443.508 81.4007 452.254 79.0038 453.492 80.4548C454.731 81.9058 451.998 86.3778 453.837 87.5677C455.677 88.7576 458.281 89.887 461.964 88.1863C465.646 86.4856 466.029 86.5783 466.029 86.5783L465 70.5L446.5 70H435L430.619 79.1419L431.566 82.1574Z" fill="#3A3938"/>
<path d="M442.643 108.01L442.667 107.238C442.667 107.238 448.363 107.17 451.892 105.221C455.421 103.273 456.628 102.968 455.897 104.444C455.166 105.919 450.868 111.125 444.287 111.761L442.643 108.01Z" fill="#F6A3A8"/>
<path d="M448.258 117.376C448.258 117.376 443.884 123.808 442.279 132.699C442.279 132.699 456.865 124.082 460.506 122.985C460.506 122.985 458.981 117.179 458.57 115.951C458.159 114.723 450.51 116.227 448.258 117.376Z" fill="#59559D"/>
<path d="M401.05 162.38L400.506 162.83L392.503 162.768C392.451 162.767 392.401 162.75 392.36 162.717C392.32 162.685 392.291 162.64 392.28 162.589C392.268 162.539 392.273 162.486 392.295 162.439C392.317 162.392 392.354 162.354 392.401 162.331L399.548 158.736L400.264 159.02L401.05 162.38Z" fill="#F9898B"/>
<path d="M400.496 162.869L454.926 150.16L453.967 146.063L399.537 158.772L400.496 162.869Z" fill="url(#paint0_linear)"/>
<path d="M439.168 163.999C439.168 163.999 436.561 157.991 435.979 154.446C435.398 150.901 426.944 146.627 424.197 145.16C421.45 143.692 407.088 149.113 412.752 154.739C418.416 160.365 421.939 159.48 422.924 163.159C423.909 166.839 424.44 168.267 424.44 168.267C424.44 168.267 432.485 171.184 439.168 163.999Z" fill="#F9B9A8"/>
<path d="M412.679 148.627C412.679 148.627 412.344 153.356 416.449 155.626C420.554 157.896 423.189 157.707 424.907 161.894C426.625 166.08 429.198 168.562 431.844 168.844L420.601 171.065L419.48 161.782L413.659 159.103L409.025 153.284L412.679 148.627Z" fill="#F6A3A8"/>
<path d="M343.506 90.5851L343.894 89.5843L341.204 88.8125L309.748 107.488L312.438 108.259L313.639 108.424L343.506 90.5851Z" fill="#5A74B7"/>
<path d="M326.164 164.323L325.844 165.533L323.154 164.762L309.748 107.488L312.438 108.259L313.523 109.08L326.164 164.323Z" fill="#59559D"/>
<path d="M312.436 108.259L343.892 89.5842L356.604 143.898L325.841 165.533L312.436 108.259Z" fill="#B0CBEF"/>
<path d="M316.133 110.673L342.09 95.2614L352.806 141.043L327.421 158.897L316.133 110.673Z" fill="white"/>
<path d="M341.642 98.8934L318.811 112.493" stroke="#59559D" stroke-width="5" stroke-linecap="round" stroke-linejoin="round"/>
<path d="M342.869 104.784L320.225 118.533" stroke="#59559D" stroke-width="5" stroke-linecap="round" stroke-linejoin="round"/>
<path d="M344.091 110.675L321.639 124.574" stroke="#59559D" stroke-width="5" stroke-linecap="round" stroke-linejoin="round"/>
<path d="M345.316 116.568L323.051 130.612" stroke="#59559D" stroke-width="5" stroke-linecap="round" stroke-linejoin="round"/>
<path d="M346.541 122.459L324.465 136.652" stroke="#59559D" stroke-width="5" stroke-linecap="round" stroke-linejoin="round"/>
<path d="M347.765 128.35L325.877 142.693" stroke="#59559D" stroke-width="5" stroke-linecap="round" stroke-linejoin="round"/>
<path d="M348.99 134.242L327.293 148.733" stroke="#59559D" stroke-width="5" stroke-linecap="round" stroke-linejoin="round"/>
<path d="M350.216 140.133L328.707 154.773" stroke="#59559D" stroke-width="5" stroke-linecap="round" stroke-linejoin="round"/>
<path d="M435.838 262.893C445.135 239.231 452.528 226.827 477.237 215.246C495.147 206.849 502.334 202.067 507.31 196.707C505.509 224.932 492.308 267.647 475.136 279.253C456.542 291.839 427.912 283.065 435.838 262.893Z" fill="#85ACD6"/>
<path d="M158.392 219.041H158.39C156.022 219.041 154.102 220.959 154.102 223.324V357.682C154.102 360.047 156.022 361.965 158.39 361.965H158.392C160.761 361.965 162.681 360.047 162.681 357.682V223.324C162.681 220.959 160.761 219.041 158.392 219.041Z" fill="#1B3287"/>
<path d="M111.762 260.245H120.339V398.886C120.339 400.022 119.887 401.111 119.083 401.914C118.279 402.717 117.188 403.169 116.05 403.169V403.169C114.913 403.169 113.822 402.717 113.018 401.914C112.214 401.111 111.762 400.022 111.762 398.886V260.245V260.245Z" fill="#1B3287"/>
<path d="M275.859 260.5H284.438V399.141C284.438 400.277 283.987 401.366 283.182 402.17C282.378 402.973 281.287 403.424 280.15 403.424V403.424C279.012 403.424 277.922 402.973 277.117 402.17C276.313 401.366 275.861 400.277 275.861 399.141V260.5H275.859Z" fill="#1B3287"/>
<path d="M289.521 259.813L293.02 265.676L305.755 189.131L304.761 184.303L303.914 185.035L289.521 259.813Z" fill="#1D34B7"/>
<path d="M152.821 250.145L102.299 252.842V265.676H293.019V252.842L286.698 248.892L152.821 250.145Z" fill="#3652CC"/>
<path d="M164.27 185.412L102.299 252.842H293.019L304.76 184.303L164.27 185.412Z" fill="#4D86F7"/>
<path d="M78.611 178.469L76.8607 177.867L72.8164 180.873L117.288 244.714C117.522 245.049 117.875 245.282 118.276 245.366C118.676 245.449 119.093 245.377 119.442 245.164L122.747 243.14L123.537 240.696L78.611 178.469Z" fill="#59559D"/>
<path d="M221.905 192.748L224.364 191.24V195.529L197.823 247.309L197.221 241.522L221.905 192.748Z" fill="#59559D"/>
<path d="M125.343 241.522L122.748 243.138V245.69C122.748 246.119 122.919 246.531 123.223 246.835C123.527 247.138 123.94 247.309 124.37 247.309H197.814L197.513 243.147L195.556 241.532L125.343 241.522Z" fill="#59559D"/>
<path d="M122.578 241.532L122.749 243.138H197.513L224.355 191.238L162.708 190.55L122.578 241.532Z" fill="#FFE3E3"/>
<path d="M163.599 192.32L193.474 193.238L166.96 239.343L128.203 239.72L163.599 192.32Z" fill="#59559D"/>
<path d="M192.923 207.327L183.893 222.208H198.943L206.919 207.327H192.923Z" fill="#00E8D3"/>
<path d="M76.8613 177.868L122.748 243.14L162.708 190.55L131.892 143.035L76.8613 177.868Z" fill="#F4B39F"/>
<path d="M84.6699 179.553L131.036 149.026L158.438 191.357L123.33 236.532L84.6699 179.553Z" fill="#59559D"/>
<path opacity="0.36" d="M111.488 154.429L128.851 236.532L135.742 229.671L118.59 149.026L111.488 154.429Z" fill="white"/>
<path opacity="0.36" d="M124.9 150.759L140.718 219.491L145.406 213.32L129.109 147.477L124.9 150.759Z" fill="white"/>
<path d="M289.675 177.89L290.141 174.655H240.631L229.006 194.186L247.225 195.103L284.701 195.449L289.675 177.89Z" fill="#5A6DE0"/>
<path d="M285.165 194.409L284.186 194.186H229.006V203.016H284.186L285.165 194.409Z" fill="#1D34B7"/>
<path d="M290.026 181.992L284.186 203.016V194.186L290.141 174.655L290.026 181.992Z" fill="white"/>
<path d="M291.976 166.22L292.442 162.985H242.932L231.307 182.515L249.524 183.431L287.002 183.777L291.976 166.22Z" fill="#5A6DE0"/>
<path d="M287.466 182.739L286.487 182.516H231.307V191.344H286.487L287.466 182.739Z" fill="#1D34B7"/>
<path d="M292.326 170.321L286.486 191.344V182.515L292.442 162.985L292.326 170.321Z" fill="white"/>
<path d="M288.998 158.657L289.464 155.422H239.951L228.326 174.952L246.545 175.87L284.023 176.216L288.998 158.657Z" fill="#B0CBEF"/>
<path d="M284.486 175.176L283.506 174.952H228.326V183.783H283.506L284.486 175.176Z" fill="#59559D"/>
<path d="M289.35 162.758L283.508 183.783V174.952L289.465 155.422L289.35 162.758Z" fill="white"/>
<path d="M288.482 208.27L224.557 206.208L217.203 230.766L285.503 232.775L288.482 208.27Z" fill="#00E8D3"/>
<path d="M288.283 39.4667H258.317C256.426 39.4667 254.893 40.998 254.893 42.8869V48.9915C254.893 50.8805 256.426 52.4118 258.317 52.4118H288.283C290.174 52.4118 291.708 50.8805 291.708 48.9915V42.8869C291.708 40.998 290.174 39.4667 288.283 39.4667Z" fill="#59559D"/>
<path d="M288.283 84.2893H258.317C256.426 84.2893 254.893 85.8206 254.893 87.7095V93.8141C254.893 95.7031 256.426 97.2344 258.317 97.2344H288.283C290.174 97.2344 291.708 95.7031 291.708 93.8141V87.7095C291.708 85.8206 290.174 84.2893 288.283 84.2893Z" fill="#FFD4DE"/>
<path d="M304.481 58.7151H241.747C238.839 58.7151 236.482 61.0688 236.482 63.9722V69.8233C236.482 72.7268 238.839 75.0805 241.747 75.0805H304.481C307.388 75.0805 309.745 72.7268 309.745 69.8233V63.9722C309.745 61.0688 307.388 58.7151 304.481 58.7151Z" fill="white"/>
<path d="M304.481 104.088H241.747C238.839 104.088 236.482 106.442 236.482 109.345V115.196C236.482 118.1 238.839 120.453 241.747 120.453H304.481C307.388 120.453 309.745 118.1 309.745 115.196V109.345C309.745 106.442 307.388 104.088 304.481 104.088Z" fill="white"/>
<path d="M280.79 331.707H113.414V336.786H280.79V331.707Z" fill="#1B3287"/>
<defs>
<linearGradient id="paint0_linear" x1="782453" y1="-176125" x2="798513" y2="-179885" gradientUnits="userSpaceOnUse">
<stop stop-color="#604BC7"/>
<stop offset="1" stop-color="#342FA9"/>
</linearGradient>
</defs>
</svg>
