<svg width="148" height="134" viewBox="0 0 148 134" fill="none" xmlns="http://www.w3.org/2000/svg">
<path d="M17.6663 94.4819C13.7741 126.166 34.5344 139.747 64.0508 124.82C93.5633 109.862 120.623 72.0843 124.515 40.3996C128.41 8.69948 107.659 -4.88189 78.1444 10.0923C48.628 25.0184 21.5546 62.8289 17.6663 94.4819Z" fill="url(#paint0_radial)"/>
<path d="M50.5763 48.6281C50.5763 48.6281 48.6664 48.2984 48.6302 48.4556C48.5941 48.6133 48.4061 49.66 48.1344 49.9481C47.8626 50.2351 47.5295 51.0978 47.5372 51.3415C47.5613 52.1555 46.917 52.8691 47.4282 52.9053C47.8303 52.9343 48.0051 52.3636 48.1152 52.0892C48.1585 51.9818 48.2166 51.6954 48.3519 51.8602C48.7256 52.3143 48.5563 54.9417 48.8028 55.0923C49.0494 55.243 49.1337 54.9275 49.1787 54.8201C49.5003 54.0522 50.3807 54.2138 50.5445 53.2931C50.6881 52.4863 50.4388 51.0343 50.3769 50.641C50.315 50.2483 50.5763 48.6281 50.5763 48.6281Z" fill="#FDABAB"/>
<path d="M45.5919 27.4127C44.3789 26.9691 42.7857 28.3165 43.6475 31.3355C43.8289 31.9692 45.4429 36.0701 46.9052 40.0115C48.367 43.9524 50.2029 43.042 50.8587 42.0726C51.5145 41.1031 51.1228 39.9874 49.918 35.0623C48.7121 30.1371 47.4668 28.0985 45.5919 27.4127Z" fill="#5A74B7"/>
<path d="M47.152 40.7289C48.1113 45.2366 47.9678 49.2449 47.9678 49.2449C47.9678 49.2449 49.1019 50.8004 51.0682 49.6173C51.0682 49.6173 52.0648 43.3618 50.963 39.7868C49.8612 36.2118 46.6633 38.4328 47.152 40.7289Z" fill="#5A74B7"/>
<path d="M50.095 78.3221C49.6655 78.1534 49.7006 77.1067 49.7006 77.1067L46.4922 76.5869C46.4922 76.5869 46.5377 79.3184 46.5749 79.7911C46.6083 80.2052 46.8445 81.1873 48.012 80.9622C49.4535 80.6845 50.753 80.9161 51.1891 81.0509C51.6264 81.1856 52.5336 81.3023 53.5927 81.0975C54.6216 80.8992 55.3081 80.4128 54.4556 79.6777C53.6026 78.9427 51.1234 78.7258 50.095 78.3221Z" fill="#023248"/>
<path d="M43.6992 62.2909C43.6976 63.1546 44.6635 71.0775 45.8414 77.6534C46.186 79.577 50.2929 78.0188 50.3181 77.1528C50.3658 75.5168 49.3495 64.1378 48.7611 60.852C48.3902 58.7849 43.7042 59.6568 43.6992 62.2909Z" fill="#1C213C"/>
<path d="M38.3738 82.1866C38.3941 82.0124 38.2993 81.629 38.2993 81.629L35.5018 81.0879C35.5018 81.0879 35.2619 81.5414 35.1885 82.122C35.1161 82.7031 35.006 83.9618 34.9671 84.3304C34.9271 84.6985 34.9036 85.5989 35.6607 86.4545C36.4179 87.31 36.8107 87.6463 37.8331 87.2985C38.8554 86.9502 38.8477 85.5053 38.6757 84.7642C38.5031 84.022 38.3536 82.3608 38.3738 82.1866Z" fill="#023248"/>
<path d="M35.3313 65.2654C35.1778 66.1122 34.7324 74.0908 34.7324 80.7917C34.7324 82.752 39.0366 82.0843 39.2135 81.2392C39.5477 79.6442 40.5509 68.2636 40.5509 64.9159C40.5514 62.8094 35.7991 62.6823 35.3313 65.2654Z" fill="#1C213C"/>
<path d="M41.1313 50.0382C41.0842 51.6742 41.7362 53.9802 42.1 55.5302C42.4643 57.0803 43.3705 62.4266 43.8483 63.9586C44.4701 65.9534 49.0219 65.2759 49.0268 62.6424C49.0279 61.7787 49.2569 51.2103 48.079 44.6343C47.7338 42.7102 41.1571 49.1717 41.1313 50.0382Z" fill="#1C213C"/>
<path d="M34.7328 51.795C34.1543 53.9739 34.9849 65.3293 35.1848 66.9336C35.4445 69.021 40.0297 69.3113 40.4982 66.7276C40.6516 65.8814 42.3703 55.5185 42.3703 48.8176C42.3692 46.8573 34.9536 50.9614 34.7328 51.795Z" fill="#1C213C"/>
<path d="M42.8217 27.0992L38.8506 26.0547C38.8506 26.0547 38.0968 26.1538 37.8995 26.3576C37.5604 26.7087 37.3303 27.1896 37.1845 27.5823C37.0027 28.0703 36.715 28.5074 36.3293 28.8442C36.3293 28.8442 33.7247 30.9294 33.0798 31.7088C30.6286 34.6715 34.0047 49.9656 34.0047 56.8165C34.0047 56.8165 40.1508 56.6977 43.4808 55.8005L44.1607 53.224L45.1945 54.9888C46.3489 54.6437 49.0752 52.5667 49.1935 52.4095C49.3107 52.2523 48.089 29.5108 45.6378 27.5231C45.0806 27.0707 42.8217 27.0992 42.8217 27.0992Z" fill="#5A74B7"/>
<path d="M37.7561 40.8586C36.4955 39.8995 33.9938 36.8837 33.8125 35.4355C34.2294 35.6974 47.6755 35.5166 48.1275 39.4208C48.7005 44.3744 41.3195 43.5693 37.7561 40.8586Z" fill="#023248"/>
<path d="M43.7421 28.5155C43.5964 28.1223 43.3542 27.7696 43.0244 27.5094C42.6858 27.2432 42.2316 27.0044 41.7812 27.1358C41.7812 27.1358 42.8228 27.5214 42.6535 29.0512C42.5844 29.6537 42.6781 30.6478 42.5888 31.769C42.4858 33.0551 43.1756 37.1252 43.1756 37.1252L44.9343 32.1135L44.0818 31.2712L45.0115 30.6161L43.7421 28.5155Z" fill="#023248"/>
<path d="M38.1308 26.0588C37.6574 26.4291 37.2767 27.2682 38.4294 28.7224C38.9877 29.4262 39.5542 30.5545 40.0697 31.461C40.445 32.121 42.79 35.4052 43.0929 36.3369C43.0929 36.3369 43.1231 35.4884 43.1598 34.1137C43.1685 33.8031 43.1603 29.8918 42.9028 28.9459C42.2908 26.6925 39.6068 24.9108 38.1308 26.0588Z" fill="white"/>
<path d="M38.6153 24.8438C38.6153 24.8438 38.5622 25.5021 38.1502 26.6381C38.091 26.8008 38.1167 26.9832 38.2252 27.1185C38.6548 27.6498 39.8245 28.9462 41.0271 28.9462C41.0271 28.9462 41.9037 28.2577 41.9037 27.4443C41.9037 26.631 38.6153 24.8438 38.6153 24.8438Z" fill="#FDABAB"/>
<path d="M40.5932 18.66C36.7958 18.763 37.8467 22.9696 37.8467 22.9696C37.8467 22.9696 37.5656 23.095 37.7163 23.6361C37.8675 24.1778 37.9037 24.2342 37.9809 24.5026C38.0582 24.7716 38.2494 25.2694 38.6307 25.1911C38.6307 25.1911 39.2043 26.6519 41.6846 27.4965C42.1168 27.6444 42.6877 27.4866 42.805 27.0501C42.9228 26.6136 43.7517 25.3439 43.7818 24.3635C43.8043 23.6213 43.5238 23.6783 43.7155 23.2604C43.9089 22.8419 44.3905 18.5565 40.5932 18.66Z" fill="#FDABAB"/>
<path d="M40.7792 18.3781C38.1943 18.2659 36.3633 20.465 37.6426 23.3339C38.1094 22.6312 38.6375 23.4605 38.7153 23.7365C38.7575 23.8882 38.8994 24.5263 39.135 24.5263C39.3054 24.5263 39.3591 23.908 39.3591 23.908C39.3591 22.1454 38.9268 21.94 39.8029 21.5204C40.5496 21.1628 42.2015 22.4981 43.6671 22.4998C44.9792 22.5009 44.3311 18.5326 40.7792 18.3781Z" fill="#023248"/>
<path d="M42.5518 29.9474L41.5645 29.748L40.9219 30.5516C40.9219 30.5516 41.1093 30.9711 41.6199 31.5282C41.4895 31.7686 41.3991 32.3328 41.4846 33.3658C41.7853 33.9989 43.1748 37.1264 43.1748 37.1264L43.1939 33.0004C43.0455 32.0293 42.9134 31.7982 42.5474 31.28L42.5518 29.9474Z" fill="#B0CBEF"/>
<path d="M38.4816 28.5747C37.3206 27.1276 38.1277 26.0596 38.1277 26.0596C37.5853 26.2173 37.2785 26.7552 37.107 27.2459C36.941 27.7241 36.9229 28.2411 37.0297 28.7357L37.6981 31.8402L38.4674 31.7614L38.2471 32.5808L43.1747 37.1318C43.1747 37.1318 41.2407 32.5419 40.3055 31.2996C39.4897 30.2157 38.9424 29.1427 38.4816 28.5747Z" fill="#023248"/>
<path d="M57.3277 41.8103C57.6203 41.7686 58.2158 41.7357 58.2843 41.338C58.3709 40.8339 57.5244 41.2887 56.7393 41.0701C56.5037 41.0043 55.5865 41.1221 55.2425 41.3172C54.8973 41.5117 53.8366 41.4437 53.6745 41.441C53.5134 41.4388 53.377 43.3717 53.377 43.3717C53.377 43.3717 55.0129 43.5054 55.38 43.6593C55.7471 43.8144 57.0976 44.4034 57.9156 44.4571C58.8497 44.5184 58.9029 43.6248 59.7258 43.4966C59.8403 43.4786 60.1674 43.4725 60.0797 43.1969C59.992 42.9214 57.4 42.4573 57.0477 41.9861C56.9201 41.8136 57.2126 41.8261 57.3277 41.8103Z" fill="#FDABAB"/>
<path d="M44.5569 37.0462C41.079 34.6839 37.4827 32.1364 36.9102 31.8089C34.184 30.2506 32.9595 31.2519 32.5929 32.7647C31.9716 35.328 34.5056 37.0648 39.0015 39.4124C43.4963 41.7605 44.5148 41.7807 45.6133 41.376C46.7118 40.9723 48.0349 39.408 44.5569 37.0462Z" fill="#5A74B7"/>
<path d="M44.5565 37.0463C42.1935 35.9016 38.4695 38.7054 42.0576 40.8579C45.6467 43.011 54.1893 44.1158 54.1893 44.1158C56.0006 42.2968 54.6133 40.6504 54.6133 40.6504C54.6133 40.6504 49.1964 39.2942 44.5565 37.0463Z" fill="#5A74B7"/>
<path d="M38.5316 23.5611C38.3672 23.3096 37.9947 23.3233 37.8539 23.5896L37.8506 23.5951C37.6922 23.8926 37.7339 24.2618 37.9645 24.5084C38.6609 25.2518 39.5484 25.5597 39.9265 25.6628C40.0344 25.6923 40.1478 25.6485 40.2103 25.5554C40.2892 25.4354 40.2569 25.271 40.1352 25.1949C39.3901 24.7341 38.8515 24.0509 38.5316 23.5611Z" fill="#023248"/>
<path d="M37.7692 22.9952C37.5698 23.1929 37.5029 23.5754 37.7697 23.8942C37.7917 23.9205 37.8311 23.9233 37.8563 23.9013C37.8821 23.8794 37.8859 23.8411 37.864 23.8153C37.6432 23.5523 37.6947 23.2417 37.8558 23.0817C37.9834 22.9557 38.2124 22.8987 38.4749 23.1223C39.1131 23.6652 38.9143 24.5336 38.9121 24.5418C38.9044 24.5747 38.9247 24.6081 38.9575 24.6152C38.9619 24.6163 38.9674 24.6174 38.9718 24.6174C38.9992 24.6174 39.0249 24.5983 39.0315 24.5709C39.0403 24.5314 39.2485 23.6203 38.5538 23.0291C38.2283 22.7519 37.9281 22.8379 37.7692 22.9952Z" fill="#B0CBEF"/>
<path d="M16.0033 100.152C16.0022 100.799 16.4301 101.447 17.2859 101.94L60.9008 127.056C62.6015 128.035 65.3502 128.032 67.0376 127.05L130.773 90.1692C131.612 89.6806 132.031 89.0425 132.032 88.4033L132.029 90.643C132.028 91.2822 131.608 91.9208 130.77 92.4088L67.0343 129.289C65.3463 130.272 62.5982 130.275 60.897 129.295L17.2826 104.179C16.4268 103.686 15.9989 103.038 16 102.392L16.0033 100.152Z" fill="#C8CDE2"/>
<path d="M17.2897 101.942L60.9025 127.059C62.6009 128.037 65.3513 128.037 67.0404 127.05L130.775 90.1672C132.464 89.189 132.455 87.5929 130.748 86.6147L87.1349 61.4972C85.4365 60.5189 82.6861 60.5189 80.997 61.5065L17.2623 98.3891C15.5727 99.3674 15.582 100.964 17.2897 101.942Z" fill="#F2F7FA"/>
<path d="M21.4453 98.2958L68.0204 125.12C68.2576 125.257 68.5491 125.256 68.7852 125.119L129.627 89.852C130.136 89.5568 130.135 88.8223 129.626 88.5287L83.0504 61.7045C82.8131 61.5681 82.5217 61.5686 82.2855 61.7056L21.4436 96.973C20.9346 97.2677 20.9357 98.0022 21.4453 98.2958Z" fill="#B0CBEF"/>
<path d="M68.4024 125.496C68.2233 125.496 68.0441 125.451 67.8842 125.358L21.309 98.5338C20.9836 98.3465 20.7891 98.0107 20.7891 97.6355C20.7885 97.2603 20.9825 96.9245 21.3068 96.7361L82.1482 61.4687C82.4687 61.283 82.8664 61.2825 83.1875 61.4676L129.763 88.2919C130.088 88.4792 130.282 88.815 130.283 89.1896C130.283 89.5648 130.09 89.9011 129.765 90.0895L68.9235 125.357C68.763 125.449 68.5827 125.496 68.4024 125.496ZM21.5829 98.0589L68.1581 124.883C68.3099 124.97 68.4983 124.97 68.649 124.883L129.49 89.6152C129.644 89.5264 129.735 89.3676 129.735 89.1901C129.735 89.0132 129.643 88.8544 129.489 88.7662L82.9141 61.9419C82.7623 61.8548 82.5739 61.8554 82.4232 61.9425L21.5818 97.2099C21.4284 97.2986 21.3369 97.4575 21.3375 97.6344C21.3375 97.8119 21.429 97.9707 21.5829 98.0589Z" fill="white"/>
<path d="M118.148 98.3847C118.199 98.3141 118.261 98.2538 118.329 98.2149L120.109 97.1854C120.198 97.1345 120.277 97.1295 120.335 97.1624L120.569 97.2967C120.511 97.2632 120.432 97.2687 120.342 97.3197L118.563 98.3491C118.495 98.388 118.433 98.4477 118.381 98.519C118.335 98.5814 118.298 98.6527 118.274 98.725C118.253 98.7858 118.242 98.8477 118.242 98.9063V99.0088C118.242 99.1118 118.278 99.1846 118.338 99.2181L118.104 99.0844C118.045 99.0504 118.008 98.9781 118.008 98.8751V98.7726C118.008 98.714 118.019 98.6521 118.04 98.5908C118.065 98.5179 118.102 98.4466 118.148 98.3847Z" fill="#B4BED8"/>
<path d="M118.563 98.3487L120.342 97.3192C120.521 97.2167 120.663 97.3 120.664 97.5066V97.609C120.664 97.8139 120.521 98.0632 120.343 98.1662L118.564 99.1957C118.387 99.297 118.242 99.2127 118.242 99.0078V98.9053C118.242 98.6987 118.386 98.4506 118.563 98.3487Z" fill="white"/>
<path d="M104.072 72.2541L109.781 75.5498C109.956 75.6517 109.975 75.805 109.823 75.8927C109.671 75.9809 109.405 75.9699 109.229 75.868L103.521 72.5724C103.345 72.471 103.325 72.3171 103.478 72.2295C103.63 72.1413 103.896 72.1523 104.072 72.2541Z" fill="#023248"/>
<path d="M111.062 76.1543C110.635 76.1543 110.336 76.3784 110.336 76.5795C110.336 76.7805 110.635 77.004 111.062 77.004C111.49 77.004 111.789 76.78 111.789 76.5795C111.789 76.3778 111.491 76.1543 111.062 76.1543Z" fill="#023248"/>
<path d="M112.437 77.0488C112.254 77.0488 112.125 77.1453 112.125 77.2313C112.125 77.3173 112.253 77.4137 112.437 77.4137C112.621 77.4137 112.75 77.3173 112.75 77.2313C112.75 77.1453 112.621 77.0488 112.437 77.0488Z" fill="#023248"/>
<path d="M57.4094 101.173L70.9453 108.988C71.233 109.152 71.6948 109.152 71.9814 108.988C72.2663 108.824 72.2663 108.555 71.9814 108.393L58.4427 100.577C58.1551 100.413 57.6949 100.413 57.41 100.577C57.1212 100.741 57.1212 101.01 57.4094 101.173Z" fill="#3C52C7"/>
<path d="M43.7879 96.1686L57.3244 103.984C57.612 104.147 58.0739 104.147 58.3598 103.984C58.6447 103.819 58.6447 103.55 58.3598 103.388L44.8212 95.5716C44.5336 95.4084 44.0734 95.4084 43.7885 95.5716C43.5003 95.7365 43.5003 96.0049 43.7879 96.1686Z" fill="#3C52C7"/>
<path d="M56.4626 99.542L41.6524 90.992C41.3664 90.8282 40.9045 90.8282 40.618 90.992C40.3331 91.1585 40.3331 91.4258 40.618 91.589L55.4293 100.139C55.7159 100.302 56.1755 100.302 56.4621 100.139C56.7486 99.9725 56.7486 99.7041 56.4626 99.542Z" fill="#3C52C7"/>
<path d="M74.63 112.735L59.8198 104.185C59.5338 104.022 59.0719 104.022 58.7859 104.185C58.501 104.352 58.501 104.619 58.7859 104.782L73.5973 113.332C73.8838 113.496 74.344 113.496 74.63 113.332C74.916 113.166 74.916 112.897 74.63 112.735Z" fill="#3C52C7"/>
<path d="M101.315 77.7614L114.851 85.5764C115.139 85.7402 115.601 85.7402 115.887 85.5764C116.172 85.4115 116.172 85.1426 115.887 84.981L102.349 77.1644C102.061 77.0012 101.601 77.0012 101.316 77.1644C101.028 77.3293 101.028 77.5977 101.315 77.7614Z" fill="#3C52C7"/>
<path d="M118.538 89.3242L103.728 80.7742C103.442 80.6104 102.98 80.6104 102.694 80.7742C102.409 80.9407 102.409 81.2075 102.694 81.3712L117.505 89.9212C117.792 90.085 118.252 90.085 118.538 89.9212C118.824 89.7547 118.824 89.4863 118.538 89.3242Z" fill="#3C52C7"/>
<path d="M98.9071 82.091L112.444 89.9058C112.731 90.0696 113.193 90.0696 113.479 89.9058C113.764 89.741 113.764 89.4726 113.479 89.3105L99.9404 81.4939C99.6527 81.3302 99.1925 81.3302 98.9076 81.4939C98.6194 81.6593 98.6194 81.9272 98.9071 82.091Z" fill="#3C52C7"/>
<path d="M114.007 92.3803L99.1973 83.8308C98.9113 83.6671 98.4494 83.6671 98.1629 83.8308C97.878 83.9973 97.878 84.2641 98.1629 84.4279L112.974 92.9778C113.26 93.1411 113.72 93.1411 114.007 92.9778C114.294 92.8108 114.294 92.543 114.007 92.3803Z" fill="#3C52C7"/>
<path d="M74.4559 69.694L87.9923 77.5095C88.28 77.6733 88.7418 77.6733 89.0278 77.5095C89.3127 77.3446 89.3127 77.0757 89.0278 76.9141L75.4892 69.097C75.2016 68.9338 74.7413 68.9338 74.4564 69.097C74.1683 69.2624 74.1683 69.5308 74.4559 69.694Z" fill="#3C52C7"/>
<path d="M91.6789 81.2562L76.8692 72.7068C76.5826 72.543 76.1213 72.543 75.8348 72.7068C75.5499 72.8733 75.5499 73.1401 75.8348 73.3038L90.6461 81.8538C90.9321 82.017 91.3923 82.017 91.6789 81.8538C91.9649 81.6868 91.9649 81.4189 91.6789 81.2562Z" fill="#3C52C7"/>
<path d="M72.0477 74.0236L85.5841 81.8385C85.8718 82.0022 86.3336 82.0022 86.6196 81.8385C86.9045 81.6736 86.9045 81.4052 86.6196 81.2431L73.081 73.4265C72.7933 73.2628 72.3331 73.2628 72.0482 73.4265C71.7601 73.5914 71.7601 73.8598 72.0477 74.0236Z" fill="#3C52C7"/>
<path d="M87.1482 84.3129L72.3379 75.7635C72.0519 75.5997 71.5901 75.5997 71.3035 75.7635C71.0186 75.93 71.0186 76.1967 71.3035 76.3599L86.1149 84.9099C86.4014 85.0731 86.8611 85.0731 87.1476 84.9099C87.4347 84.7434 87.4347 84.475 87.1482 84.3129Z" fill="#3C52C7"/>
<path d="M58.6182 114.311L54.6576 112.023C54.1147 111.709 54.113 111.203 54.6593 110.887C55.2022 110.573 56.0854 110.571 56.6311 110.884L60.5917 113.173C61.1346 113.485 61.1346 113.997 60.5906 114.311C60.0477 114.623 59.1617 114.621 58.6182 114.311Z" fill="#FF8200"/>
<path d="M61.4425 112.683L57.4786 110.396C56.934 110.082 56.934 109.573 57.4797 109.259C58.026 108.944 58.9042 108.944 59.4521 109.256L63.4116 111.547C63.9529 111.858 63.9562 112.37 63.41 112.686C62.8686 112.998 61.9827 112.993 61.4425 112.683Z" fill="#FFDE95"/>
<path d="M45.1042 102.861L40.2911 100.079C40.0522 99.9433 40.0555 99.7247 40.2922 99.5866C40.5294 99.4475 40.9118 99.4458 41.1507 99.585L45.9638 102.363C46.1994 102.501 46.2005 102.723 45.9638 102.861C45.7271 102.997 45.3398 102.996 45.1042 102.861Z" fill="#FFDE95"/>
<path d="M43.7991 103.612L38.9843 100.834C38.7487 100.695 38.7504 100.476 38.9871 100.34C39.2259 100.201 39.61 100.199 39.8472 100.336L44.6587 103.118C44.8959 103.253 44.8976 103.476 44.6587 103.612C44.4204 103.75 44.038 103.749 43.7991 103.612Z" fill="#FF8200"/>
<path d="M42.4805 104.374L37.6673 101.596C37.4285 101.458 37.4334 101.237 37.669 101.1C37.9079 100.964 38.2886 100.962 38.5286 101.099L43.3401 103.877C43.5773 104.014 43.579 104.238 43.3401 104.374C43.1018 104.511 42.7177 104.51 42.4805 104.374Z" fill="#FFDE95"/>
<path d="M55.0832 108.609L50.269 105.83C50.0351 105.695 50.0351 105.475 50.2706 105.337C50.5095 105.198 50.893 105.198 51.1319 105.335L55.9434 108.114C56.179 108.251 56.1822 108.475 55.9434 108.613C55.704 108.748 55.3204 108.746 55.0832 108.609Z" fill="#1C213C"/>
<path d="M53.7762 109.361L48.9647 106.583C48.7275 106.447 48.7275 106.224 48.9674 106.088C49.2047 105.951 49.5871 105.951 49.8238 106.086L54.6369 108.866C54.8725 109.003 54.8758 109.227 54.6369 109.365C54.4018 109.501 54.0134 109.499 53.7762 109.361Z" fill="#1C213C"/>
<path d="M52.4602 110.123L47.6471 107.345C47.4115 107.207 47.4115 106.987 47.6498 106.85C47.8854 106.713 48.2694 106.713 48.5083 106.848L53.3181 109.626C53.5554 109.764 53.5581 109.987 53.3181 110.126C53.0842 110.262 52.6974 110.261 52.4602 110.123Z" fill="#FFDE95"/>
<path d="M82.7578 107.609L86.9409 110.023L104.916 99.4757L100.733 97.0586L82.7578 107.609Z" fill="#FFB64D"/>
<path d="M86.9416 110.339L82.2129 107.611L100.732 96.7412L105.459 99.4733L86.9416 110.339ZM83.3021 107.607L86.9394 109.706L104.371 99.4782L100.733 97.376L83.3021 107.607Z" fill="white"/>
<path d="M76.8145 104.19L80.9959 106.605L95.1377 98.5346L90.953 96.1191L76.8145 104.19Z" fill="#FF8200"/>
<path d="M70.9512 100.884L75.1326 103.298L84.149 98.1772L79.9649 95.7617L70.9512 100.884Z" fill="#73CA74"/>
<path d="M66.5144 81.7046C65.5474 81.2477 64.1229 81.3332 63.3307 81.8871C62.5429 82.4459 62.6864 83.2672 63.6518 83.7274C64.6188 84.1816 66.0427 84.1021 66.8322 83.5422C67.625 82.9823 67.4781 82.161 66.5144 81.7046Z" fill="#FFDE95"/>
<path d="M67.8915 80.7059C65.9635 79.7929 63.1134 79.9582 61.5344 81.0762C59.9544 82.188 60.2404 83.8323 62.1727 84.7421C64.0991 85.6568 66.9502 85.4886 68.5309 84.3767C70.1098 83.2583 69.8189 81.614 67.8915 80.7059ZM62.9496 84.1943C61.5498 83.5321 61.3416 82.3315 62.4888 81.5209C63.6334 80.7163 65.7093 80.5925 67.1124 81.2547C68.5139 81.9158 68.7232 83.1176 67.5759 83.9249C66.4303 84.7344 64.3544 84.8538 62.9496 84.1943Z" fill="#73CA74"/>
<path d="M61.5355 81.0763C60.6819 81.6806 60.3773 82.4362 60.5762 83.1512L61.7848 83.0087C61.6533 82.4932 61.8812 81.9562 62.4899 81.5218C63.6344 80.7169 65.7103 80.5931 67.1134 81.2555L67.892 80.7065C65.9645 79.7927 63.1145 79.9581 61.5355 81.0763Z" fill="#FF8200"/>
<path d="M67.8918 80.7061L67.1133 81.255C68.1932 81.7679 68.5679 82.5935 68.1521 83.3189L69.3223 83.5435C69.8927 82.548 69.3831 81.4084 67.8918 80.7061Z" fill="#FFDE95"/>
<path d="M74.5902 86.9221C73.3707 86.7752 72.1746 87.23 71.9221 87.9378C71.6695 88.643 72.459 89.3344 73.6813 89.4785C74.8943 89.6259 76.0958 89.1667 76.3495 88.4655C76.5971 87.756 75.8109 87.0645 74.5902 86.9221Z" fill="#1C213C"/>
<path d="M75.0824 85.6229C72.6394 85.3337 70.2463 86.244 69.7477 87.6528C69.2448 89.0632 70.8232 90.444 73.2635 90.7343C75.7037 91.0218 78.0979 90.1104 78.5982 88.7033C79.1 87.2919 77.5177 85.9094 75.0824 85.6229ZM73.5084 90.0343C71.7382 89.8262 70.5849 88.8244 70.9503 87.7979C71.3207 86.7732 73.0586 86.1093 74.8364 86.3207C76.6094 86.5283 77.7583 87.5367 77.3945 88.5615C77.0252 89.583 75.2846 90.2435 73.5084 90.0343Z" fill="#FF8200"/>
<path d="M77.7724 86.6104L76.8191 87.0584C77.3483 87.4807 77.5856 88.0114 77.3927 88.5619C77.024 89.5834 75.2828 90.2445 73.5066 90.0347L73.2617 90.7353C75.702 91.0228 78.0962 90.1114 78.5964 88.7043C78.8676 87.9408 78.5296 87.1833 77.7724 86.6104Z" fill="#FFDE95"/>
<path d="M70.9352 88.4883L69.7129 88.6045C70.0082 89.6356 71.3801 90.5138 73.2637 90.7357L73.5086 90.0349C72.1405 89.8744 71.1505 89.2383 70.9352 88.4883Z" fill="#1C213C"/>
<path d="M65.9698 91.8966C64.7518 91.7498 63.5542 92.2056 63.3032 92.914C63.0496 93.6197 63.8402 94.3095 65.0608 94.4536C66.2738 94.5988 67.4748 94.1413 67.7306 93.4389C67.9816 92.7278 67.1888 92.0391 65.9698 91.8966Z" fill="#1C213C"/>
<path d="M66.4621 90.5979C64.0191 90.3076 61.6243 91.219 61.1307 92.6277C60.6272 94.0365 62.2062 95.4206 64.6464 95.7081C67.085 95.9973 69.476 95.0875 69.9811 93.6788C70.4781 92.2668 68.8991 90.8838 66.4621 90.5979ZM64.888 95.0103C63.1179 94.8006 61.9673 93.796 62.336 92.7712C62.6987 91.7497 64.4393 91.0859 66.2161 91.2956C67.989 91.5038 69.1429 92.5116 68.7752 93.5347C68.4065 94.5563 66.667 95.2179 64.888 95.0103Z" fill="#FFDE95"/>
<path d="M69.158 91.583L68.2014 92.031C68.729 92.4517 68.9651 92.9852 68.7733 93.5345C68.4046 94.5566 66.6651 95.2183 64.8862 95.0107L64.6445 95.7079C67.0831 95.9971 69.4741 95.0873 69.9792 93.6786C70.2488 92.9151 69.9124 92.1598 69.158 91.583Z" fill="#FF8200"/>
<path d="M62.3122 93.4629L61.0898 93.579C61.3868 94.6118 62.7587 95.49 64.645 95.7086L64.8867 95.0112C63.5208 94.849 62.5308 94.2124 62.3122 93.4629Z" fill="#73CA74"/>
<path d="M56.8574 86.6052C55.6532 86.4206 54.4155 86.8381 54.0928 87.5339C53.7761 88.2302 54.4873 88.9458 55.6975 89.1293C56.9029 89.3162 58.1422 88.8987 58.4621 88.2007C58.787 87.5082 58.071 86.7888 56.8574 86.6052Z" fill="#FFDE95"/>
<path d="M57.4074 85.3251C54.9962 84.9532 52.5165 85.7836 51.8755 87.1786C51.2328 88.5677 52.677 89.9972 55.0806 90.3675C57.4885 90.7344 59.9698 89.9025 60.6109 88.514C61.2502 87.1282 59.817 85.6921 57.4074 85.3251ZM55.3983 89.6795C53.6451 89.409 52.6031 88.3672 53.0699 87.3594C53.5367 86.3483 55.3403 85.7474 57.0902 86.0131C58.8374 86.276 59.8855 87.321 59.417 88.3332C58.9508 89.3427 57.1488 89.9452 55.3983 89.6795Z" fill="#73CA74"/>
<path d="M57.407 85.3247C56.1036 85.1258 54.7805 85.2759 53.7324 85.6781L54.4556 86.2566C55.2068 85.975 56.1568 85.8682 57.0904 86.0134C58.8376 86.2764 59.8857 87.3217 59.4172 88.3342L60.6105 88.515C61.2499 87.1283 59.8166 85.6918 57.407 85.3247Z" fill="#FF2456"/>
<path d="M59.4185 88.334C59.0641 89.1114 57.9058 89.6483 56.5898 89.7327L56.723 90.4378C58.5282 90.3233 60.1132 89.5886 60.6118 88.5148L59.4185 88.334Z" fill="#1C213C"/>
<path d="M85.9652 29.1938C84.253 31.8415 83.2417 34.9444 83.2756 38.3331C83.3721 48.1719 90.769 57.6448 101.189 57.8036C100.586 58.8169 99.7816 59.6911 98.7209 60.2974C97.956 60.7361 97.086 61.0127 96.2089 61.1009C95.6823 61.1573 95.1273 61.1606 94.5466 61.1009C88.189 60.4535 81.2244 52.787 78.9896 43.9796C76.8134 35.4055 79.9352 28.9391 85.9652 29.1938Z" fill="#BD6000"/>
<path d="M95.3882 61.4176C95.1011 61.4176 94.8113 61.4028 94.5203 61.3732C88.0685 60.716 80.9828 52.9432 78.7255 44.0465C77.4035 38.8371 77.9497 34.2444 80.224 31.4461C81.6479 29.6945 83.6389 28.822 85.9789 28.9195C86.077 28.9233 86.1657 28.9797 86.2107 29.0673C86.2556 29.1544 86.2507 29.2591 86.1975 29.3418C84.4355 32.0672 83.5206 35.175 83.5518 38.3294C83.6411 47.4353 90.4118 57.3644 101.195 57.5288C101.293 57.5304 101.383 57.5835 101.43 57.669C101.478 57.7544 101.476 57.8585 101.426 57.9428C100.755 59.0728 99.8906 59.9448 98.859 60.5347C98.0646 60.9904 97.1584 61.2801 96.2379 61.3727C95.9591 61.4034 95.6753 61.4176 95.3882 61.4176ZM85.4754 29.4617C83.5222 29.5006 81.861 30.3003 80.6486 31.7917C78.5163 34.4153 77.9958 38.9461 79.2559 43.9118C81.4611 52.6036 88.3331 60.1923 94.5751 60.8282C95.1197 60.8836 95.6599 60.8847 96.1804 60.8282C97.0258 60.7433 97.8575 60.4772 98.5856 60.0598C99.4101 59.5882 100.12 58.9178 100.7 58.0628C89.8694 57.6082 83.0932 47.5602 83.0028 38.3349C82.9727 35.2336 83.8263 32.1757 85.4754 29.4617Z" fill="white"/>
<path d="M91.1675 44.6117C91.2688 46.3534 91.5176 47.9709 91.8753 49.4344L92.3799 58.1339L95.7088 57.9405L95.7083 57.9307C98.5627 57.5506 101.362 51.8723 100.909 44.0464C100.455 36.22 97.0166 30.9043 94.1375 30.8561L94.137 30.8457L90.8086 31.0385L91.3132 39.7391C91.1264 41.2344 91.0661 42.8699 91.1675 44.6117Z" fill="#FFB64D"/>
<path d="M92.3814 58.4073C92.3146 58.4073 92.2494 58.3826 92.199 58.3383C92.1448 58.2901 92.1119 58.2221 92.1075 58.1493L91.6029 49.4498C91.2342 47.9605 90.9937 46.3212 90.895 44.6271C90.7964 42.9341 90.8463 41.2783 91.0419 39.7052L90.5356 31.0545C90.5313 30.9822 90.5565 30.911 90.6041 30.8567C90.6523 30.8025 90.7203 30.7696 90.7931 30.7653L94.1215 30.5725C94.1555 30.5714 94.19 30.5747 94.2207 30.5845C97.2291 30.7258 100.723 36.1171 101.183 44.0301C101.642 51.9512 98.7889 57.7133 95.8133 58.1915C95.786 58.2041 95.7564 58.2117 95.7251 58.2134L92.3962 58.4067C92.3918 58.4067 92.3869 58.4073 92.3814 58.4073ZM91.4424 44.5953C91.5388 46.256 91.7744 47.8619 92.1426 49.3687L92.6384 57.8442L95.6221 57.6711C95.6386 57.6657 95.6556 57.6613 95.6731 57.6591C98.3725 57.2992 101.075 51.627 100.636 44.0618C100.197 36.4972 96.8571 31.175 94.1341 31.1301C94.1149 31.1301 94.0969 31.1273 94.0788 31.1235L91.0989 31.296L91.5876 39.7233C91.3942 41.3122 91.346 42.9351 91.4424 44.5953Z" fill="white"/>
<path d="M98.0812 56.1058C98.2877 55.8384 98.4888 55.5436 98.68 55.2188L92.2266 55.593L92.2759 56.4422L98.0812 56.1058Z" fill="#FF8DA5"/>
<path d="M91.2324 40.585L100.264 40.0607C100.204 39.7747 100.14 39.4953 100.071 39.2197L91.3075 39.7282L91.3113 39.7983C91.2801 40.0552 91.2565 40.321 91.2324 40.585Z" fill="#FF8DA5"/>
<path d="M100.522 41.4926C100.479 41.2077 100.433 40.9255 100.382 40.6494L91.1847 41.183C91.1655 41.4641 91.1485 41.7474 91.1387 42.0372L100.522 41.4926Z" fill="#FF8DA5"/>
<path d="M98.1904 34.3941C98.0217 34.1032 97.8475 33.8287 97.6705 33.5723L90.9727 33.9607L91.022 34.8099L98.1904 34.3941Z" fill="#FF8DA5"/>
<path d="M100.698 42.9289C100.67 42.6435 100.639 42.3608 100.603 42.083L91.1268 42.6325C91.1235 42.9141 91.1208 43.1958 91.1257 43.4839L100.698 42.9289Z" fill="#FF8DA5"/>
<path d="M97.2415 33.0005C96.9988 32.6992 96.7507 32.428 96.4997 32.1924L90.8867 32.5178L90.936 33.366L97.2415 33.0005Z" fill="#FF8DA5"/>
<path d="M99.4714 37.2126C99.3706 36.9261 99.2654 36.6489 99.1558 36.3799L91.1387 36.845L91.188 37.6931L99.4714 37.2126Z" fill="#FF8DA5"/>
<path d="M99.9175 38.634C99.838 38.3486 99.7548 38.0697 99.6677 37.7969L91.2227 38.2872L91.272 39.1353L99.9175 38.634Z" fill="#FF8DA5"/>
<path d="M98.9063 35.7987C98.7776 35.511 98.6445 35.2344 98.5069 34.9697L91.0547 35.4026L91.104 36.2518L98.9063 35.7987Z" fill="#FF8DA5"/>
<path d="M100.115 51.6457C100.189 51.3657 100.256 51.077 100.32 50.7822L91.9766 51.2666L92.0259 52.1147L100.115 51.6457Z" fill="#FF8DA5"/>
<path d="M100.834 45.8157C100.835 45.5352 100.833 45.2519 100.825 44.9648L91.2402 45.5209C91.2665 45.8069 91.2972 46.0886 91.3306 46.3669L100.834 45.8157Z" fill="#FF8DA5"/>
<path d="M91.1934 44.9279L100.804 44.3701C100.798 44.2639 100.795 44.1592 100.789 44.0518C100.779 43.8732 100.765 43.6979 100.752 43.5215L91.1484 44.0787C91.1556 44.2562 91.1577 44.4304 91.1682 44.6107C91.1742 44.7186 91.1862 44.821 91.1934 44.9279Z" fill="#FF8DA5"/>
<path d="M95.6521 57.7756L95.6515 57.7657C96.292 57.6797 96.9297 57.3214 97.5275 56.7324L92.3105 57.0349L92.3648 57.9657L95.6521 57.7756Z" fill="#FF8DA5"/>
<path d="M95.8124 31.6365C95.2388 31.247 94.6592 31.0344 94.1009 31.0251L94.1003 31.0146L90.8125 31.2053L90.8541 31.9241L95.8124 31.6365Z" fill="#FF8DA5"/>
<path d="M99.0188 54.6029C99.159 54.3273 99.2932 54.0359 99.4198 53.7285L92.1445 54.1504L92.1938 54.9985L99.0188 54.6029Z" fill="#FF8DA5"/>
<path d="M100.788 47.2657C100.804 46.9852 100.817 46.7008 100.825 46.4121L91.4043 46.9589C91.4448 47.2454 91.4931 47.5243 91.5424 47.8021L100.788 47.2657Z" fill="#FF8DA5"/>
<path d="M99.6544 53.1188C99.7557 52.8399 99.8516 52.5507 99.9426 52.251L92.0586 52.7085L92.1079 53.5566L99.6544 53.1188Z" fill="#FF8DA5"/>
<path d="M100.44 50.1805C100.493 49.9 100.54 49.6129 100.583 49.3203L91.8926 49.8244L91.9419 50.6736L100.44 50.1805Z" fill="#FF8DA5"/>
<path d="M100.66 48.7202C100.693 48.4402 100.72 48.1531 100.744 47.8633L91.6484 48.3909C91.7054 48.6763 91.7679 48.9568 91.8325 49.2319L100.66 48.7202Z" fill="#FF8DA5"/>
<path d="M85.1756 44.9578C85.6391 52.9414 89.2074 58.3162 92.1216 58.1475C95.0341 57.9788 97.957 52.2272 97.4941 44.2435C97.0306 36.2599 93.4622 30.884 90.5492 31.0527C87.6355 31.2219 84.7126 36.9741 85.1756 44.9578Z" fill="#FFDE95"/>
<path d="M91.9957 58.4256C88.9807 58.4256 85.3691 52.9911 84.9039 44.974C84.4317 36.8288 87.4921 30.9561 90.535 30.7798C90.5821 30.777 90.6304 30.7754 90.678 30.7754C93.693 30.7754 97.3041 36.2099 97.7692 44.228C98.2415 52.3727 95.181 58.2448 92.1392 58.4218C92.0916 58.4245 92.0433 58.4256 91.9957 58.4256ZM85.4502 44.9423C85.9044 52.7643 89.3171 58.0236 92.1069 57.8746C94.8846 57.7136 97.6624 51.8562 97.2219 44.2593C96.7808 36.6618 93.3418 31.1774 90.5663 31.3264C87.788 31.4874 85.0097 37.3448 85.4502 44.9423Z" fill="white"/>
<path opacity="0.25" d="M96.4435 53.1603C96.7486 52.2719 97.0018 51.2833 97.188 50.2087L85.3774 39.6973C85.2278 40.7582 85.1402 41.8931 85.1309 43.091L96.4435 53.1603Z" fill="white"/>
<path opacity="0.25" d="M97.5371 45.3366C97.5294 44.9778 97.5174 44.6142 97.496 44.2455C97.4747 43.8769 97.4445 43.5154 97.41 43.1578L87.1187 33.9971C86.8776 34.4424 86.6513 34.9315 86.4453 35.4633L97.5371 45.3366Z" fill="white"/>
<path d="M104.273 24.6799C98.7614 18.9501 89.5543 12.6787 81.4682 16.9542L76.0195 20.183C78.3453 19.052 86.2112 16.5763 97.1627 26.4808C103.316 32.0446 107.767 39.659 110.16 47.595C111.329 51.4756 109.959 65.6387 106.705 68.8982C98.8272 76.7871 92.0253 87.5055 92.0253 87.5055L98.144 83.971C98.144 83.971 113.665 66.5397 114.872 64.6489C117.753 60.1346 117.793 54.343 116.926 49.2289C115.384 40.1131 110.66 31.3216 104.273 24.6799Z" fill="#BD6000"/>
<path d="M92.0247 87.7785C91.9519 87.7785 91.8801 87.7495 91.8269 87.6942C91.7398 87.6033 91.7256 87.4647 91.793 87.3579C91.8615 87.2505 98.7012 76.5239 106.51 68.704C109.745 65.4637 110.99 51.3012 109.897 47.6736C107.408 39.421 102.82 31.9665 96.9775 26.6837C86.0424 16.7935 78.2615 19.3957 76.1379 20.4292C76.0059 20.4933 75.8464 20.4418 75.7768 20.3126C75.7073 20.1833 75.7522 20.0223 75.8787 19.9472L81.3274 16.7184C90.964 11.6235 101.476 21.3785 104.469 24.4901C111.061 31.3448 115.7 40.3451 117.195 49.182C118.291 55.649 117.586 60.9017 115.102 64.7955C113.897 66.6829 98.9817 83.44 98.3472 84.1526C98.3275 84.1745 98.3051 84.1931 98.2793 84.2079L92.1606 87.7424C92.119 87.7665 92.0718 87.7785 92.0247 87.7785ZM81.3301 18.7905C85.1932 18.7905 90.7191 20.2846 97.3457 26.2773C103.261 31.6258 107.905 39.1685 110.421 47.5153C111.57 51.3269 110.319 65.6636 106.898 69.0907C100.494 75.504 94.7406 83.8902 92.8821 86.6929L97.9687 83.755C98.7297 82.8994 113.484 66.3127 114.641 64.5003C117.05 60.7248 117.728 55.6014 116.656 49.273C115.178 40.5417 110.592 31.6466 104.075 24.8691C101.15 21.8276 90.8824 12.2835 81.5959 17.1955L78.3875 19.0972C79.2175 18.9175 80.2031 18.7905 81.3301 18.7905Z" fill="white"/>
<path d="M111.762 56.2787C111.279 47.6323 107.664 39.0725 102.512 32.2117C97.8687 26.0284 90.7271 19.6162 82.6431 18.8839C79.2216 18.5733 75.8171 19.6266 73.4596 22.1867C70.6292 25.2709 69.7285 29.6724 69.7285 33.7398C69.7285 49.063 92.0255 87.5061 92.0255 87.5061C92.0255 87.5061 107.124 70.9566 108.865 68.5444C111.39 65.0313 112.001 60.4972 111.762 56.2787ZM102.695 52.3093C102.512 56.9447 99.6515 61.6223 94.5502 61.103C88.1926 60.4512 81.2285 52.788 78.9931 43.9784C76.7589 35.1688 80.102 28.5534 86.4607 29.2036C96.23 30.2119 103.082 43.7029 102.695 52.3093ZM95.3062 61.4158C95.0482 61.4158 94.7868 61.4021 94.5222 61.3752C88.0698 60.7136 80.9847 52.9398 78.7274 44.0458C77.3895 38.7707 78.0048 33.9836 80.3732 31.2416C81.8974 29.4769 84.0117 28.6789 86.4887 28.9314C96.4453 29.9589 103.35 43.8289 102.969 52.3214C102.849 55.3415 101.648 58.1245 99.7572 59.7655C98.5048 60.8522 96.9783 61.4158 95.3062 61.4158ZM85.6132 29.4331C83.6759 29.4331 82.0196 30.173 80.788 31.5993C78.5368 34.2065 77.9648 38.809 79.2589 43.9111C81.4635 52.6007 88.3361 60.1905 94.5781 60.8303C96.431 61.0181 98.0506 60.5214 99.3983 59.3514C101.178 57.8074 102.308 55.1706 102.422 52.2984V52.2967C102.794 44.0075 96.0957 30.4737 86.4328 29.4763C86.1545 29.4473 85.8811 29.4331 85.6132 29.4331Z" fill="#FF8200"/>
<defs>
<radialGradient id="paint0_radial" cx="0" cy="0" r="1" gradientUnits="userSpaceOnUse" gradientTransform="translate(71.0952 67.4525) rotate(-53.9986) scale(71.9169 40.0241)">
<stop stop-color="#B4BED8"/>
<stop offset="0.1782" stop-color="#C7CFE2"/>
<stop offset="0.5132" stop-color="#E6E9F2"/>
<stop offset="0.799" stop-color="#F8F9FC"/>
<stop offset="1" stop-color="white"/>
</radialGradient>
</defs>
</svg>
