<svg width="148" height="134" viewBox="0 0 148 134" fill="none" xmlns="http://www.w3.org/2000/svg">
<path d="M5.42669 89.3222C1.88567 118.148 20.7732 130.505 47.628 116.924C74.4789 103.315 99.0988 68.9443 102.64 40.117C106.183 11.2754 87.3035 -1.08096 60.4511 12.5431C33.5962 26.1231 8.96467 60.5237 5.42669 89.3222Z" fill="url(#paint0_radial)"/>
<path d="M81.4434 100.781V101.14C81.4434 102.16 81.9897 103.098 82.8731 103.604L101.755 114.233C103.997 115.512 106.539 115.666 108.776 114.373L117.275 109.624L116.134 109.27L115.61 109.225L81.4434 100.781Z" fill="#023248"/>
<path d="M82.1735 102.057L102.288 113.453C104.198 114.555 106.55 114.555 108.459 113.453L116.135 109.271L101.784 100.988L82.1735 99.5273C81.2 100.089 81.2 101.494 82.1735 102.057Z" fill="#FF8200"/>
<path d="M83.3671 89.2705L108.634 103.485L109.328 103.939L109.204 114.134H109.204V114.135L103.079 117.552C100.843 118.845 98.0923 118.849 95.8517 117.57L76.9688 106.941C76.0854 106.435 75.5391 105.497 75.5391 104.477L83.3671 89.2705Z" fill="#023248"/>
<path d="M108.052 113.773L82.6719 99.3377V88.8164L108.052 103.598V113.773Z" fill="#FF8200"/>
<path d="M76.2693 105.392L96.3837 116.788C98.2933 117.89 100.645 117.89 102.556 116.788L108.064 113.78L82.6727 99.3379L76.2688 102.863C75.2957 103.425 75.2957 104.83 76.2693 105.392Z" fill="#B4BED8"/>
<path d="M80.5187 21.0094L139.924 56.1015C144.523 58.6115 144.067 62.3486 143.729 66.5493L137.281 117.584C136.984 122.242 135.081 122.964 135.081 122.964L75.2981 88.6802C72.5847 87.1136 70.6579 82.4387 70.9954 78.238L75.4324 20.7165C75.4324 20.7165 77.7263 20.2443 78.5458 20.3284C78.971 20.3715 79.5832 20.4698 80.5187 21.0094Z" fill="#023248"/>
<path d="M65.0801 82.7082L72.3537 25.9108C72.6259 22.5101 74.307 20.4571 76.3803 20.6435C76.8582 20.6836 77.37 20.8427 77.8819 21.1416L138.075 56.1086C143.034 58.8264 142.713 62.3527 142.374 66.5514L135.081 122.964L65.0801 82.7082Z" fill="#F2F7FA"/>
<path d="M67.2949 75.4381L134.079 114.084L140.477 66.7469C140.769 62.8968 141.202 60.629 137.867 58.6935L76.8776 23.2715C75.9861 22.7562 74.9416 22.9721 74.301 23.6196C73.9807 23.9469 73.7647 24.3786 73.709 24.8796L67.2949 75.4381Z" fill="#59559D"/>
<path d="M134.279 114.492L133.952 114.302L67.0215 75.5718L67.0428 75.4046L73.4568 24.8461C73.5166 24.3096 73.7457 23.8222 74.1192 23.4411C74.8825 22.6695 76.0694 22.5104 77.0035 23.0505L137.993 58.473C141.244 60.3593 141.063 62.6094 140.788 66.0152L140.73 66.7645L134.279 114.492ZM67.5668 75.3017L133.878 113.675L140.225 66.7118L140.283 65.9751C140.56 62.5334 140.713 60.6375 137.738 58.9118L76.749 23.4898C76.0126 23.0647 75.0797 23.1904 74.4796 23.7968C74.1872 24.0957 74.0068 24.4798 73.9596 24.9069L67.5668 75.3017Z" fill="white"/>
<path d="M120.679 85.1353L89.5284 66.9331C85.4654 64.5736 80.3107 67.1231 79.7223 71.7834L79.7116 71.8649C79.2094 75.8417 81.1383 79.7318 84.6083 81.7397L115.76 99.8923C119.798 102.229 124.916 99.7246 125.548 95.1033C126.097 91.1012 124.173 87.1645 120.679 85.1353Z" fill="#748AFD"/>
<path d="M118.254 98.2793C120.584 98.2793 122.577 96.5404 122.892 94.2361C123.306 91.2114 121.867 88.2657 119.226 86.7315L88.6129 68.9382C87.8847 68.5156 87.0981 68.3008 86.275 68.3008C83.922 68.3008 81.9252 70.0594 81.6308 72.3915L81.6222 72.4579C81.2436 75.4599 82.6899 78.3777 85.3086 79.8931L115.923 97.6454C116.65 98.0655 117.434 98.2793 118.254 98.2793Z" fill="url(#paint1_linear)"/>
<path d="M118.254 98.2789C120.583 98.2789 122.576 96.5401 122.891 94.2358C123.305 91.211 121.866 88.2653 119.226 86.7311L117.629 85.8425C116.9 85.4199 116.114 85.2051 115.291 85.2051C112.937 85.2051 110.941 86.9637 110.647 89.2959L110.638 89.3622C110.259 92.3642 111.705 95.282 114.324 96.7974L115.922 97.6451C116.649 98.0651 117.434 98.2789 118.254 98.2789Z" fill="#5677D5"/>
<path d="M118.253 98.7854C117.343 98.7854 116.473 98.5493 115.668 98.0837L114.086 97.2446C111.274 95.6182 109.729 92.5028 110.134 89.2982L110.143 89.2318C110.47 86.6474 112.682 84.6982 115.29 84.6982C116.203 84.6982 117.075 84.9359 117.882 85.404L119.471 86.2881C122.298 87.9307 123.835 91.075 123.393 94.304C123.043 96.8585 120.834 98.7854 118.253 98.7854ZM115.29 85.7116C113.191 85.7116 111.411 87.2797 111.148 89.359L111.14 89.4259C110.786 92.2241 112.136 94.9459 114.577 96.359L116.159 97.1975C116.824 97.5815 117.523 97.7721 118.253 97.7721C120.329 97.7721 122.107 96.2222 122.388 94.1667C122.774 91.3461 121.432 88.5995 118.97 87.1687L117.381 86.2846C116.724 85.9031 116.022 85.7116 115.29 85.7116Z" fill="#8DABFC"/>
<path d="M127.385 55.5489L114.677 28.7979L95.2407 36.6308H95.2402L95.2407 36.6313L107.778 61.5483L127.385 55.5489Z" fill="#F0F0F0"/>
<path d="M102.296 40.8809L100.266 54.9857L122.108 67.8396L124.4 53.8898L102.296 40.8809Z" fill="#99D897"/>
<path d="M101.139 54.6057L102.932 42.1465L123.52 54.2632L121.495 66.5852L101.139 54.6057ZM103.214 42.7423L101.534 54.4066L121.226 65.9939L123.122 54.4588L103.214 42.7423Z" fill="#73CA74"/>
<path d="M101.219 54.6554L101.137 54.6068L102.93 42.1455L121.092 52.834L123.52 54.2643L121.494 66.5837L101.219 54.6554ZM103.212 42.7423L101.533 54.4082L121.224 65.9944L123.121 54.4609L103.212 42.7423Z" fill="#73CA74"/>
<path d="M111.03 59.2573C108.883 57.8245 107.429 54.3422 107.787 51.4958C107.975 49.9971 108.619 48.9103 109.6 48.4346C110.484 48.0059 111.531 48.1453 112.548 48.8247C114.694 50.2575 116.149 53.7393 115.791 56.5867C115.603 58.0849 114.958 59.1722 113.977 59.6479C113.641 59.8111 113.28 59.8921 112.906 59.8916C112.3 59.8911 111.659 59.6778 111.03 59.2573ZM109.733 48.733C108.899 49.1373 108.324 50.141 108.155 51.4862C107.809 54.2338 109.209 57.5909 111.273 58.97C112.183 59.577 113.096 59.7118 113.844 59.349C114.679 58.9447 115.254 57.941 115.424 56.5953C115.769 53.8477 114.369 50.4901 112.305 49.1115C111.73 48.7279 111.154 48.5329 110.62 48.5323C110.308 48.5329 110.009 48.5992 109.733 48.733Z" fill="#73CA74"/>
<path d="M112.299 49.9699C113.991 51.0997 115.134 53.8382 114.851 56.0868C114.568 58.3353 112.968 59.2418 111.275 58.1114C109.582 56.981 108.44 54.243 108.723 51.9945C109.005 49.7459 110.606 48.8395 112.299 49.9699Z" fill="#73CA74"/>
<path d="M123.319 54.3616L122.837 57.2885C122.662 57.2475 122.482 57.1649 122.301 57.0454C121.334 56.3984 120.678 54.8297 120.841 53.5428C120.867 53.3341 120.912 53.1456 120.975 52.9814L123.319 54.3616Z" fill="#73CA74"/>
<path d="M101.234 54.4641L101.715 51.5371C101.89 51.5781 102.069 51.6602 102.251 51.7798C103.217 52.4268 103.874 53.9944 103.712 55.2818C103.686 55.4906 103.642 55.679 103.579 55.8432L101.234 54.4641Z" fill="#73CA74"/>
<path d="M105.2 43.6982C105.214 43.9176 105.209 44.1365 105.184 44.3489C105.024 45.6367 104.107 46.1567 103.137 45.5095C102.977 45.4036 102.826 45.2698 102.686 45.1187L103.07 42.4443L105.2 43.6982Z" fill="#73CA74"/>
<path d="M119.264 65.0806C119.256 64.8616 119.268 64.6437 119.3 64.4334C119.499 63.1572 120.435 62.6702 121.388 63.3473C121.547 63.4583 121.694 63.5961 121.83 63.7512L121.364 66.4003L119.264 65.0806Z" fill="#73CA74"/>
<path d="M99.5908 43.3135L97.5605 57.4188L119.403 70.2723L121.695 56.3229L99.5908 43.3135Z" fill="#99D897"/>
<path d="M98.4316 57.0383L100.225 44.5791L120.812 56.6953L118.787 69.0173L98.4316 57.0383ZM100.506 45.1759L98.827 56.8402L118.518 68.4275L120.414 56.8924L100.506 45.1759Z" fill="#73CA74"/>
<path d="M98.5128 57.088L98.4297 57.0394L100.224 44.5781L120.813 56.6964L118.787 69.0158L98.5128 57.088ZM100.505 45.175L98.8255 56.8408L118.517 68.427L120.414 56.8935L100.505 45.175Z" fill="#73CA74"/>
<path d="M108.324 61.6906C106.178 60.2572 104.724 56.7749 105.081 53.9285C105.27 52.4298 105.914 51.3431 106.895 50.8673C107.779 50.4387 108.826 50.5775 109.843 51.2574C111.989 52.6908 113.444 56.1725 113.086 59.0194C112.898 60.5176 112.254 61.6049 111.272 62.0807C110.936 62.2438 110.575 62.3249 110.202 62.3244C109.595 62.3239 108.954 62.1111 108.324 61.6906ZM109.6 51.5447C108.69 50.9367 107.777 50.803 107.028 51.1657C106.194 51.57 105.619 52.5732 105.45 53.9189C105.104 56.6665 106.503 60.0236 108.569 61.4028C109.477 62.0102 110.392 62.1445 111.14 61.7817C111.974 61.3769 112.55 60.3737 112.718 59.0281C113.063 56.281 111.665 52.9233 109.6 51.5447Z" fill="#73CA74"/>
<path d="M109.596 52.4026C111.288 53.533 112.431 56.271 112.148 58.5195C111.865 60.7681 110.265 61.6745 108.572 60.5441C106.879 59.4143 105.737 56.6758 106.02 54.4272C106.302 52.1782 107.903 51.2722 109.596 52.4026Z" fill="#73CA74"/>
<path d="M120.613 56.7947L120.132 59.7212C119.957 59.6801 119.777 59.598 119.596 59.478C118.629 58.831 117.973 57.2629 118.136 55.9754C118.162 55.7667 118.206 55.5782 118.269 55.4141L120.613 56.7947Z" fill="#73CA74"/>
<path d="M98.5273 56.8962L99.0079 53.9688C99.1832 54.0098 99.3626 54.0919 99.544 54.2114C100.511 54.8579 101.168 56.4261 101.005 57.7135C100.979 57.9227 100.935 58.1107 100.872 58.2749L98.5273 56.8962Z" fill="#73CA74"/>
<path d="M102.493 46.1308C102.506 46.3497 102.502 46.5692 102.477 46.7815C102.316 48.0693 101.4 48.5893 100.43 47.9421C100.269 47.8362 100.119 47.7024 99.9785 47.5513L100.363 44.877L102.493 46.1308Z" fill="#73CA74"/>
<path d="M116.559 67.5132C116.551 67.2947 116.563 67.0768 116.595 66.866C116.794 65.5899 117.73 65.1028 118.684 65.7799C118.842 65.8909 118.989 66.0293 119.125 66.1838L118.659 68.8329L116.559 67.5132Z" fill="#73CA74"/>
<path d="M100.077 37.9541L98.0469 52.059L119.889 64.9129L122.182 50.9631L100.077 37.9541Z" fill="#99D897"/>
<path d="M98.918 51.679L100.711 39.2197L121.299 51.3365L119.274 63.6584L98.918 51.679ZM100.992 39.8161L99.3133 51.4804L119.005 63.0676L120.9 51.5325L100.992 39.8161Z" fill="#73CA74"/>
<path d="M98.9992 51.7287L98.916 51.68L100.71 39.2188L118.871 49.9072L121.3 51.3375L119.273 63.6569L98.9992 51.7287ZM100.991 39.8156L99.3124 51.4814L119.004 63.0677L120.901 51.5341L100.991 39.8156Z" fill="#73CA74"/>
<path d="M108.808 56.3309C106.663 54.8976 105.208 51.4158 105.566 48.5689C105.754 47.0707 106.398 45.9834 107.379 45.5077C108.264 45.079 109.31 45.2189 110.327 45.8978C112.473 47.3306 113.928 50.8124 113.57 53.6598C113.382 55.158 112.738 56.2453 111.756 56.721C111.419 56.8847 111.059 56.9652 110.686 56.9652C110.079 56.9647 109.438 56.7509 108.808 56.3309ZM107.512 45.8061C106.678 46.2104 106.103 47.2141 105.934 48.5598C105.588 51.3074 106.987 54.6645 109.053 56.0436C109.962 56.6506 110.875 56.7849 111.624 56.4226C112.458 56.0183 113.034 55.0146 113.202 53.6689C113.548 50.9213 112.148 47.5637 110.083 46.1851C109.509 45.8015 108.934 45.6065 108.399 45.6065C108.087 45.6065 107.789 45.6728 107.512 45.8061Z" fill="#73CA74"/>
<path d="M110.079 47.0431C111.772 48.1735 112.915 50.9115 112.632 53.16C112.349 55.4086 110.749 56.315 109.056 55.1846C107.363 54.0543 106.221 51.3163 106.504 49.0677C106.787 46.8192 108.387 45.9128 110.079 47.0431Z" fill="#73CA74"/>
<path d="M121.1 51.4348L120.618 54.3618C120.443 54.3207 120.264 54.2382 120.082 54.1186C119.116 53.4716 118.459 51.9035 118.623 50.6161C118.648 50.4073 118.693 50.2188 118.756 50.0547L121.1 51.4348Z" fill="#73CA74"/>
<path d="M99.0156 51.5369L99.4961 48.6094C99.6714 48.6504 99.8508 48.7325 100.032 48.8521C100.999 49.4986 101.656 51.0667 101.493 52.3541C101.468 52.5633 101.423 52.7513 101.36 52.9155L99.0156 51.5369Z" fill="#73CA74"/>
<path d="M102.979 40.7704C102.993 40.9899 102.988 41.2088 102.963 41.4212C102.803 42.7089 101.886 43.2289 100.916 42.5817C100.756 42.4758 100.605 42.342 100.465 42.191L100.849 39.5166L102.979 40.7704Z" fill="#73CA74"/>
<path d="M117.045 62.1533C117.038 61.9349 117.05 61.7169 117.081 61.5066C117.281 60.2305 118.216 59.7434 119.17 60.4205C119.328 60.5315 119.475 60.6694 119.611 60.8239L119.145 63.473L117.045 62.1533Z" fill="#73CA74"/>
<path d="M95.2365 36.6299L90.9414 64.3537L123.151 82.7601L127.387 55.5516L107.773 61.5529L95.2365 36.6299Z" fill="white"/>
<path d="M107.778 61.5479L123.155 82.7576L90.9453 64.3497L107.778 61.5479Z" fill="#D9E1EA"/>
<path d="M76.4972 53.7609C76.7694 53.7351 77.3208 53.7315 77.4014 53.3671C77.5038 52.9049 76.7015 53.2876 75.9864 53.0504C75.7715 52.9794 74.9191 53.0474 74.5927 53.2121C74.2653 53.3763 73.2877 53.2663 73.1382 53.2567C72.9892 53.2475 72.7773 55.0279 72.7773 55.0279C72.7773 55.0279 74.2831 55.2241 74.6155 55.3827C74.9475 55.5418 76.1689 56.1459 76.923 56.2321C77.783 56.3304 77.8717 55.5069 78.638 55.4248C78.7449 55.4131 79.047 55.4217 78.9785 55.1633C78.9101 54.9043 76.5358 54.361 76.2312 53.9099C76.1207 53.7462 76.3903 53.7706 76.4972 53.7609Z" fill="#F6A3A8"/>
<path d="M64.0691 48.7514C60.9604 46.4142 57.0413 43.5678 56.5269 43.24C54.077 41.679 53.6108 42.8833 53.2048 44.2645C52.5171 46.6052 54.3345 48.4718 58.3843 50.8404C62.4331 53.2095 63.8198 53.1244 64.8526 52.7991C65.886 52.4744 67.1783 51.0876 64.0691 48.7514Z" fill="#FF8200"/>
<path d="M64.0693 48.751C61.9367 47.5887 58.3683 50.3074 61.588 52.4562C64.8082 54.6049 72.6556 55.711 72.6556 55.711C74.4096 54.1104 73.2013 52.5276 73.2013 52.5276C73.2013 52.5276 68.257 51.0335 64.0693 48.751Z" fill="#FF8200"/>
<path d="M59.2585 89.7042C58.8616 89.5481 58.8931 88.5804 58.8931 88.5804L55.9258 88.0996C55.9258 88.0996 55.9678 90.6258 56.0023 91.0636C56.0332 91.4471 56.2516 92.355 57.3311 92.1468C58.665 91.8899 59.8672 92.1043 60.2706 92.2289C60.675 92.3535 61.5143 92.4614 62.4939 92.2719C63.4457 92.0885 64.0812 91.6386 63.2921 90.9587C62.5025 90.2782 60.2097 90.0776 59.2585 89.7042Z" fill="#023248"/>
<path d="M53.3438 74.8749C53.3422 75.6739 54.2357 83.0027 55.3254 89.0862C55.6441 90.8656 59.4431 89.4241 59.4664 88.6231C59.511 87.1097 58.5704 76.5839 58.0261 73.5444C57.683 71.6323 53.3483 72.4384 53.3438 74.8749Z" fill="#005478"/>
<path d="M48.4156 93.2786C48.4343 93.1174 48.3466 92.7628 48.3466 92.7628L45.7589 92.2617C45.7589 92.2617 45.5369 92.6812 45.4695 93.2183C45.4021 93.7559 45.3007 94.9201 45.2647 95.2611C45.2278 95.6016 45.2059 96.4345 45.9068 97.2259C46.6072 98.0173 46.9707 98.3289 47.9164 98.0067C48.8621 97.6845 48.8549 96.3479 48.6958 95.6624C48.5357 94.9769 48.3973 93.4397 48.4156 93.2786Z" fill="#023248"/>
<path d="M45.6033 77.6264C45.4614 78.4097 45.0488 85.7902 45.0488 91.9887C45.0488 93.802 49.0302 93.1844 49.1944 92.4026C49.5036 90.9272 50.4315 80.3999 50.4315 77.3032C50.4321 75.354 46.0361 75.237 45.6033 77.6264Z" fill="#005478"/>
<path d="M50.969 63.5407C50.9255 65.0541 51.5286 67.1872 51.8651 68.621C52.2016 70.0549 53.0403 75.0004 53.4823 76.4175C54.0575 78.2627 58.2675 77.636 58.2721 75.2C58.2736 74.401 58.4854 64.625 57.3958 58.5421C57.077 56.7627 50.9934 62.7397 50.969 63.5407Z" fill="#005478"/>
<path d="M45.0495 65.1673C44.5148 67.1828 45.2831 77.6868 45.4676 79.1703C45.7083 81.1012 49.9497 81.3697 50.382 78.9803C50.5239 78.1975 52.1138 68.6115 52.1138 62.4131C52.1138 60.5997 45.2542 64.3956 45.0495 65.1673Z" fill="#005478"/>
<path d="M52.5316 42.3217L48.8589 41.3555C48.8589 41.3555 48.1615 41.4472 47.9791 41.6362C47.6659 41.9604 47.453 42.4058 47.3177 42.7685C47.1499 43.22 46.8834 43.6243 46.5271 43.9359C46.5271 43.9359 44.1173 45.8647 43.5208 46.5857C41.2533 49.3257 44.3762 63.4737 44.3762 69.8104C44.3762 69.8104 50.062 69.701 53.1424 68.8711L53.7708 66.4878L54.7271 68.1202C55.7949 67.801 58.3173 65.8803 58.4263 65.7344C58.5353 65.589 57.4046 44.5525 55.1377 42.7138C54.6217 42.2953 52.5316 42.3217 52.5316 42.3217Z" fill="#FF8200"/>
<path d="M44.0523 53.5184C44.628 52.1712 45.5818 50.1213 46.8402 49.6318C46.6993 50.0645 43.8668 61.9279 43.8668 61.9279C43.8668 61.9279 42.4244 57.3259 44.0523 53.5184Z" fill="#023248"/>
<path d="M53.3827 43.633C53.2474 43.2692 53.0234 42.9429 52.7188 42.7022C52.4056 42.456 51.9855 42.2351 51.5684 42.3567C51.5684 42.3567 52.5317 42.7134 52.3751 44.1285C52.3113 44.6858 52.398 45.6054 52.3154 46.6425C52.2201 47.8321 52.8576 51.5971 52.8576 51.5971L54.485 46.9617L53.6964 46.1825L54.5565 45.5765L53.3827 43.633Z" fill="#023248"/>
<path d="M48.1921 41.3603C47.7542 41.7028 47.4015 42.479 48.4688 43.8236C48.9852 44.4752 49.5093 45.5189 49.9857 46.3569C50.3328 46.9675 52.5025 50.0054 52.7827 50.8672C52.7827 50.8672 52.8106 50.0824 52.844 48.8107C52.8527 48.5234 52.845 44.9054 52.6068 44.0304C52.0402 41.9465 49.5569 40.2978 48.1921 41.3603Z" fill="white"/>
<path d="M48.6409 40.2354C48.6409 40.2354 48.5912 40.8444 48.2101 41.8952C48.1558 42.0461 48.1792 42.2144 48.28 42.3395C48.6769 42.831 49.7594 44.0302 50.8718 44.0302C50.8718 44.0302 51.6827 43.3934 51.6827 42.641C51.6827 41.8886 48.6409 40.2354 48.6409 40.2354Z" fill="#F6A3A8"/>
<path d="M50.4696 34.5154C46.9565 34.6106 47.929 38.5018 47.929 38.5018C47.929 38.5018 47.669 38.6178 47.8089 39.1184C47.9483 39.6189 47.9822 39.6716 48.0537 39.9199C48.1251 40.1687 48.3015 40.6287 48.6547 40.5563C48.6547 40.5563 49.1853 41.9075 51.4796 42.6888C51.879 42.8256 52.4076 42.6797 52.5166 42.2759C52.6255 41.8721 53.3923 40.6981 53.4197 39.7907C53.4405 39.1042 53.181 39.1569 53.3589 38.7703C53.5367 38.3837 53.9823 34.4201 50.4696 34.5154Z" fill="#F6A3A8"/>
<path d="M50.6416 34.2548C48.2506 34.1509 46.5568 36.1851 47.7402 38.8395C48.172 38.189 48.66 38.9561 48.7325 39.2114C48.7715 39.3523 48.9028 39.942 49.1207 39.942C49.2783 39.942 49.328 39.37 49.328 39.37C49.328 37.7396 48.9281 37.5501 49.7385 37.1615C50.4292 36.8306 51.9573 38.0659 53.313 38.0674C54.5263 38.0684 53.9267 34.3977 50.6416 34.2548Z" fill="#023248"/>
<path d="M52.2836 44.9569L51.3703 44.7725L50.7754 45.5152C50.7754 45.5152 50.9487 45.9033 51.421 46.4186C51.3009 46.641 51.2168 47.1629 51.2959 48.1184C51.5746 48.7041 52.8593 51.5971 52.8593 51.5971L52.8771 47.7805C52.7402 46.8822 52.6176 46.6684 52.2796 46.1891L52.2836 44.9569Z" fill="#59559D"/>
<path d="M48.5158 43.6869C47.4424 42.3483 48.1884 41.3604 48.1884 41.3604C47.6872 41.5063 47.4034 42.0038 47.2448 42.4578C47.0907 42.9001 47.0745 43.3779 47.1733 43.8359L47.7916 46.7076L48.5032 46.6342L48.2999 47.3921L52.8576 51.6019C52.8576 51.6019 51.0691 47.3561 50.204 46.2075C49.4483 45.2049 48.9421 44.2123 48.5158 43.6869Z" fill="#023248"/>
<path d="M48.5629 39.0496C48.4109 38.817 48.0663 38.8296 47.9365 39.0754L47.9335 39.0805C47.787 39.3557 47.825 39.6973 48.0384 39.9253C48.6825 40.6131 49.5036 40.8979 49.8528 40.9932C49.9526 41.0205 50.0575 40.9795 50.1158 40.8933C50.1888 40.7823 50.1589 40.6303 50.0458 40.5599C49.3576 40.1347 48.8589 39.5022 48.5629 39.0496Z" fill="#023248"/>
<path d="M47.8576 38.526C47.6731 38.7089 47.6113 39.0627 47.8581 39.3576C47.8784 39.382 47.9143 39.3845 47.9382 39.3642C47.962 39.344 47.9655 39.3085 47.9453 39.2847C47.7415 39.0414 47.7887 38.754 47.9377 38.606C48.0552 38.4895 48.2676 38.4368 48.5104 38.6436C49.1003 39.1458 48.9173 39.9491 48.9148 39.9567C48.9077 39.9871 48.9264 40.018 48.9568 40.0246C48.9614 40.0261 48.966 40.0266 48.9695 40.0266C48.9954 40.0266 49.0192 40.0089 49.0248 39.9835C49.0334 39.9471 49.2255 39.1042 48.5834 38.5574C48.2828 38.301 48.0046 38.381 47.8576 38.526Z" fill="#59559D"/>
<path d="M40.2087 66.2594C40.2087 66.2594 41.9754 65.9544 42.0088 66.0998C42.0423 66.2458 42.2156 67.214 42.4675 67.4805C42.7184 67.746 43.027 68.544 43.0204 68.7694C42.9976 69.5228 43.5936 70.1825 43.1212 70.2164C42.7487 70.2433 42.5871 69.7154 42.4852 69.4615C42.4457 69.3622 42.3909 69.0972 42.2658 69.2497C41.9201 69.6703 42.0772 72.1002 41.8487 72.2395C41.6211 72.3789 41.5426 72.087 41.501 71.9877C41.2035 71.2774 40.3896 71.4269 40.2381 70.5752C40.1048 69.8289 40.3359 68.4857 40.3932 68.1219C40.4504 67.7586 40.2087 66.2594 40.2087 66.2594Z" fill="#F6A3A8"/>
<path d="M44.8203 45.6214C45.9423 45.211 47.9098 46.7766 47.1126 49.5693C46.9453 50.1555 44.9576 53.6297 43.605 57.2756C42.2528 60.921 40.5545 60.0789 39.9479 59.1822C39.3417 58.2854 39.7036 57.2533 40.8186 52.6974C41.9335 48.141 43.0855 46.2558 44.8203 45.6214Z" fill="#FF8200"/>
<path d="M43.3755 57.9394C42.4881 62.1092 42.6214 66.8303 42.6214 66.8303C42.6214 66.8303 41.5723 68.2692 39.7534 67.1748C39.7534 67.1748 38.8316 60.3749 39.8507 57.068C40.8699 53.761 43.8276 55.815 43.3755 57.9394Z" fill="#FF8200"/>
<path d="M83.5192 102.028C82.9754 102.79 79.9609 102.039 79.9609 99.6778C79.9609 97.8376 81.9704 92.2425 83.1959 92.8541C84.0691 93.2898 85.1906 97.0801 85.1906 97.0801C85.1779 97.5412 85.0892 97.9951 84.9291 98.4273C84.5044 99.5719 83.658 101.833 83.5192 102.028Z" fill="#FFB64D"/>
<path d="M96.5487 84.18C96.8497 83.4879 96.9414 82.7066 96.3799 82.2025C95.6511 81.5479 92.9094 83.5117 91.839 84.3649C90.0576 85.7841 83.7347 89.3403 83.7347 89.3403C83.7347 89.3403 82.4839 88.216 81.6538 88.0635C79.5343 87.6734 78.9262 88.4126 78.2349 88.6649C77.6587 88.8752 77.5619 88.9406 76.9755 88.7632C75.1156 88.2009 73.9813 88.514 72.9642 89.0232C72.7589 89.126 72.1391 89.5779 71.9131 89.5394C69.3902 89.1108 67.8653 90.5806 67.1481 91.222C63.8575 94.1647 60.4234 100.901 54.0352 104.34L62.1708 114.991C62.1708 114.991 74.0335 109.224 76.3673 108.021C77.0328 107.678 77.7408 107.435 78.4761 107.296C80.7841 106.862 86.0057 105.891 87.8033 105.661C90.2943 105.343 93.4045 105.156 93.1369 103.724C92.9022 102.467 92.2794 102.204 91.0261 101.764C88.3451 100.821 85.3246 101.796 83.1098 101.07C81.8494 100.657 81.3725 98.9491 82.1945 97.7189C83.2492 96.1402 86.7963 92.9832 89.8326 90.5811C91.3575 89.3748 95.8979 85.6767 96.5487 84.18Z" fill="#FFDE95"/>
<path d="M65.6869 110.43C67.5433 110.056 68.2853 109.453 70.0105 108.671C71.3494 108.064 72.7254 107.148 78.0296 106.108C79.1253 105.893 85.7126 105.236 87.605 105.11C88.7752 105.032 94.2214 105.558 92.6452 102.586C92.9021 102.905 93.08 103.278 93.1342 103.723C93.3086 105.169 90.2916 105.341 87.8006 105.66C86.0035 105.889 80.783 106.86 78.475 107.295C77.7386 107.434 77.0291 107.677 76.3632 108.02C74.0293 109.224 68.3106 112.14 67.3391 112.332C65.1862 112.756 63.9775 112.67 61.668 110.517C63.0221 110.682 64.3738 110.695 65.6869 110.43Z" fill="#FFB64D"/>
<path d="M40.7148 105.115L51.3532 99.0613C52.8761 98.2142 54.9631 98.3546 57.266 99.684C61.9276 102.374 65.7062 108.918 65.7062 114.299C65.7062 117.022 64.7388 118.925 63.1788 119.793L52.5674 125.831L40.7148 105.115Z" fill="#FF8DA5"/>
<path d="M46.7693 105.763C51.4303 108.453 55.1949 114.971 55.1797 120.326C55.1645 125.68 51.3751 127.838 46.7146 125.148C42.054 122.458 38.2895 115.94 38.3047 110.585C38.3194 105.231 42.1087 103.073 46.7693 105.763Z" fill="#59559D"/>
<path d="M50.5014 126.562C49.2952 126.562 47.9633 126.161 46.5874 125.367C41.865 122.642 38.0356 116.01 38.0508 110.585C38.0584 107.91 38.9823 105.908 40.6532 104.946C42.3358 103.979 44.5525 104.192 46.8955 105.543C51.6184 108.269 55.4478 114.901 55.4326 120.327C55.425 123.001 54.5005 125.004 52.8296 125.965C52.1353 126.363 51.3492 126.562 50.5014 126.562ZM42.9835 104.855C42.2228 104.855 41.5219 105.031 40.9061 105.385C39.3984 106.253 38.5647 108.099 38.5576 110.586C38.5429 115.85 42.2583 122.284 46.8408 124.929C49.0221 126.187 51.0584 126.399 52.5768 125.525C54.0845 124.659 54.9187 122.811 54.9258 120.325C54.9405 115.061 51.2246 108.627 46.6421 105.982C45.3462 105.233 44.1 104.855 42.9835 104.855Z" fill="white"/>
<defs>
<radialGradient id="paint0_radial" cx="0" cy="0" r="1" gradientUnits="userSpaceOnUse" gradientTransform="translate(54.023 64.7492) rotate(-53.9986) scale(65.4313 36.4146)">
<stop stop-color="#B4BED8"/>
<stop offset="0.1782" stop-color="#C7CFE2"/>
<stop offset="0.5132" stop-color="#E6E9F2"/>
<stop offset="0.799" stop-color="#F8F9FC"/>
<stop offset="1" stop-color="white"/>
</radialGradient>
<linearGradient id="paint1_linear" x1="115.287" y1="90.9687" x2="83.9415" y2="72.5249" gradientUnits="userSpaceOnUse">
<stop stop-color="#5677D5"/>
<stop offset="0.2625" stop-color="#617EE4"/>
<stop offset="0.6951" stop-color="#6F87F6"/>
<stop offset="1" stop-color="#748AFD"/>
</linearGradient>
</defs>
</svg>
