<svg width="148" height="134" viewBox="0 0 148 134" fill="none" xmlns="http://www.w3.org/2000/svg">
<path d="M11.4248 86.9534C7.89953 115.651 26.703 127.952 53.4372 114.432C80.1681 100.884 104.677 66.6669 108.203 37.9687C111.73 9.25653 92.9353 -3.04472 66.2025 10.5181C39.4687 24.0368 14.9466 58.2839 11.4248 86.9534Z" fill="url(#paint0_radial)"/>
<path d="M41.3984 83.2032L84.5602 108.148L137.315 77.5511L94.1683 52.6123L41.3984 83.2032Z" fill="#023248"/>
<path d="M94.4178 52.7568L137.365 77.5811L135.732 98.3993L94.3984 102.381L94.4178 52.7568Z" fill="#023248"/>
<path d="M84.5751 129.993L137.416 99.2681L94.411 73.915L41.3984 104.988L84.5751 129.993Z" fill="#023248"/>
<path d="M87.0633 83.8969L125.759 104.249V51.6585L85.7656 32.0566V39.2873L86.3169 39.2654L87.0633 83.8969Z" fill="#FFB64D"/>
<path d="M122.268 95.1261L87.3477 74.9707V35.4912L122.266 55.6467L122.268 95.1261Z" fill="white"/>
<path d="M80.5039 87.6821L116.61 109.529L119.291 99.7859V59.9909L116.61 56.939L80.5039 35.0918V87.6821Z" fill="#FFB64D"/>
<path d="M125.758 104.249L116.609 109.528V56.9382L125.758 51.6582V104.249Z" fill="#FFA04C"/>
<path d="M124.997 81.7931L117.373 86.195V63.6245L124.997 59.2236V81.7931Z" fill="white"/>
<path d="M124.997 59.2227L117.373 63.6235V61.4541L124.998 57.0537L124.997 59.2227Z" fill="#023248"/>
<path d="M123.365 91.322C123.365 92.5469 122.505 94.0362 121.444 94.6484C120.382 95.2601 119.523 94.7645 119.523 93.5391C119.523 92.3152 120.382 90.825 121.444 90.2128C122.505 89.6016 123.365 90.0977 123.365 91.322Z" fill="#023248"/>
<path d="M123.338 91.3381C123.338 92.5461 122.491 94.0135 121.446 94.6153C120.819 94.9769 120.266 94.9467 119.922 94.6058C120.234 94.6966 120.625 94.6311 121.048 94.3861C122.092 93.7833 122.942 92.3149 122.942 91.1079C122.942 90.6237 122.804 90.2541 122.575 90.0254C123.039 90.1564 123.338 90.6197 123.338 91.3381Z" fill="#FFA04C"/>
<path d="M77.3066 72.7515L108.933 102.936L123.365 52.3639L90.2852 22.5449L88.3008 29.4972L88.8372 29.6277L77.3066 72.7515Z" fill="#576DFC"/>
<path d="M108.08 93.2049L80.0312 64.2456L90.8656 26.2812L118.913 55.24L108.08 93.2049Z" fill="white"/>
<path d="M69.9609 74.5923L98.6856 105.504L103.938 96.87L114.859 58.602L113.118 54.9319L84.3935 24.0195L69.9609 74.5923Z" fill="#576DFC"/>
<path d="M108.933 102.936L98.6855 105.504L113.118 54.9321L123.365 52.3643L108.933 102.936Z" fill="#3C52C7"/>
<path d="M114.359 81.1325L105.82 83.2747L112.014 61.5704L120.553 59.4287L114.359 81.1325Z" fill="white"/>
<path d="M120.552 59.4279L112.014 61.5695L112.609 59.4834L121.149 57.3428L120.552 59.4279Z" fill="#023248"/>
<path d="M110.179 89.8485C109.842 91.0263 108.607 92.2223 107.419 92.5205C106.23 92.8177 105.54 92.1053 105.876 90.9275C106.212 89.7503 107.447 88.5527 108.636 88.2551C109.823 87.9574 110.515 88.6708 110.179 89.8485Z" fill="#023248"/>
<path d="M110.148 89.8567C109.816 91.018 108.599 92.1968 107.428 92.489C106.726 92.6646 106.202 92.4845 105.965 92.0624C106.24 92.2355 106.634 92.2796 107.108 92.1596C108.278 91.8664 109.499 90.6872 109.83 89.5263C109.963 89.061 109.931 88.6675 109.773 88.3848C110.184 88.6378 110.345 89.1666 110.148 89.8567Z" fill="#576DFC"/>
<path d="M56.8528 99.0507L95.5489 119.403V66.8128L55.5547 47.2109V54.4411L56.1065 54.4197L56.8528 99.0507Z" fill="#00E8D3"/>
<path d="M92.0574 110.28L57.1367 90.1249V50.6455L92.0555 70.801L92.0574 110.28Z" fill="white"/>
<path d="M86.3992 72.0937L88.1757 74.1159V118.228L86.3992 124.683L50.293 102.836V50.2461L86.3992 72.0937Z" fill="#00E8D3"/>
<path d="M95.5476 119.403L86.3984 124.682V72.0924L95.5476 66.8125V119.403Z" fill="#02A899"/>
<path d="M94.7858 96.9469L87.1621 101.348V78.7783L94.7858 74.377V96.9469Z" fill="white"/>
<path d="M94.7858 74.3764L87.1621 78.7778V76.6079L94.7868 72.208L94.7858 74.3764Z" fill="#023248"/>
<path d="M93.1539 106.475C93.1539 107.7 92.2949 109.189 91.2334 109.802C90.171 110.414 89.3125 109.918 89.3125 108.693C89.3125 107.469 90.171 105.978 91.2334 105.367C92.2939 104.755 93.1539 105.25 93.1539 106.475Z" fill="#023248"/>
<path d="M93.128 106.491C93.128 107.699 92.281 109.167 91.2354 109.768C90.6086 110.13 90.0553 110.1 89.7109 109.759C90.0231 109.85 90.4141 109.784 90.8374 109.539C91.882 108.937 92.732 107.468 92.732 106.261C92.732 105.777 92.5936 105.407 92.3648 105.179C92.8288 105.31 93.128 105.774 93.128 106.491Z" fill="#00E8D3"/>
<path d="M75.4039 76.899V93.8115L56.0898 82.1244V65.2129L75.4039 76.899Z" fill="#F2F7FA"/>
<path d="M137.383 77.5547V99.3383L84.5735 129.993L84.5586 108.149L97.8875 100.43L97.8925 108.244L124.054 93.0533V85.274L137.383 77.5547Z" fill="#5B5C70"/>
<path d="M84.5751 129.994L84.5602 108.148L41.3984 83.2031V104.988L84.5751 129.994Z" fill="#B4BED8"/>
<path d="M128.591 73.2406L126.294 73.6241C126.966 71.7637 126.008 71.5107 126.008 71.5107L126.965 69.9023L128.591 73.2406Z" fill="#FDABAB"/>
<path d="M119.148 69.8084C119.99 70.9013 122.443 72.5499 125.224 74.1746C126.487 74.9138 125.797 77.1899 124.127 76.92C122.456 76.6516 117.676 70.9549 117.676 70.9549C117.939 69.6244 119.148 69.8084 119.148 69.8084Z" fill="#FDABAB"/>
<path d="M115.955 66.562C116.759 67.0175 116.689 66.3899 116.987 66.3547C117.286 66.3174 118.484 66.9386 118.652 67.1593C118.853 67.4208 118.497 68.7984 119.279 70.0109C119.419 70.2287 117.81 71.1048 117.81 71.1048C117.81 71.1048 116.077 69.7276 115.758 69.2554C115.438 68.7851 114.542 68.5677 114.827 68.4219C115.111 68.2755 115.833 68.535 116.228 68.6943C116.622 68.8525 116.528 68.1669 116.061 67.4873C115.594 66.8096 113.978 66.0664 114.201 65.7643C114.344 65.5688 115.314 66.1994 115.955 66.562Z" fill="#FDABAB"/>
<path d="M132.126 97.4561C132.126 97.4561 130.613 101.266 131.823 103.972C133.788 108.368 133.115 117.831 133.278 118.941C133.441 120.051 131.445 121.245 130.955 119.023C130.466 116.802 128.133 107.033 127.099 104.691C126.066 102.35 126.467 97.969 126.467 97.969L132.126 97.4561Z" fill="#FDABAB"/>
<path d="M127.844 100.435C126.902 102.376 125.913 108.119 126.403 111.705C126.894 115.291 125.849 122.476 125.822 123.602C125.794 124.726 123.734 125.549 123.628 123.267C123.523 120.984 122.439 111.913 121.819 109.4C121.199 106.887 122.262 99.2462 122.262 99.2462C122.262 99.2462 128.786 98.4932 127.844 100.435Z" fill="#FDABAB"/>
<path d="M122.292 126.269C123.64 125.455 123.481 123.052 123.481 123.052C125.222 123.12 126.025 122.785 126.025 122.785C126.025 123.517 126.861 124.77 126.961 125.87C127.051 126.853 126.236 127.435 126.236 128.292H125.521L125.88 126.286C124.71 126.286 123.218 128.317 121.76 128.299C120.23 128.281 119.797 127.817 119.681 127.335C119.564 126.851 120.944 127.085 122.292 126.269Z" fill="#023248"/>
<path d="M129.587 122.349C130.934 121.533 130.776 119.131 130.776 119.131C132.516 119.199 133.319 118.864 133.319 118.864C133.319 119.596 134.156 120.849 134.256 121.949C134.346 122.931 133.531 123.513 133.531 124.371H132.815L133.175 122.366C132.005 122.366 130.513 124.396 129.055 124.377C127.525 124.36 127.092 123.896 126.976 123.413C126.858 122.931 128.239 123.164 129.587 122.349Z" fill="#023248"/>
<path d="M130.976 83.5459C130.976 83.5459 131.415 85.1473 132.575 87.1039C133.734 89.0605 134.819 91.9572 134.424 94.1872C134.033 96.3904 134.873 105.122 135.679 109.587C135.679 109.587 131.704 110.357 130.2 111.416C124.938 115.121 119.242 111.657 119.242 111.657C119.242 102.149 123.212 89.828 124.021 84.3769L130.976 83.5459Z" fill="#00E8D3"/>
<path d="M122.83 78.3193C123.172 77.4422 123.471 76.8826 123.844 75.4806C124.217 74.0806 126.416 72.8771 128.59 73.2402C130.977 73.6391 131.377 77.0498 131.383 79.2018C131.388 81.1976 131.179 83.4559 132.328 86.6755C129.803 88.9338 125.661 90.0173 123.059 88.6237C123.374 86.4548 124.45 82.7966 123.972 81.155C123.893 80.8806 122.164 80.0259 122.83 78.3193Z" fill="#023248"/>
<path d="M124.486 67.2663C124.428 66.9915 124.479 66.4875 124.508 66.2384C124.766 64.0794 127.835 66.0772 128.892 67.8319C129.948 69.5866 125.609 72.6986 124.718 71.1637C123.671 69.3579 124.163 67.9906 124.219 67.9132C124.429 67.621 124.539 67.5154 124.486 67.2663Z" fill="#FDABAB"/>
<path d="M127.57 63.708C129.907 64.3152 130.667 62.9351 131.909 65.6751C132.933 67.9328 134.715 65.7902 135.771 68.4071C136.827 71.024 135.209 71.1004 137.181 72.7142C139.092 74.2774 137.08 76.7653 136.535 78.1231C135.99 79.4799 135.005 80.1596 136.203 82.1251C136.203 82.1251 131.319 82.0607 131.706 78.8231C132.093 75.5861 129.006 77.1349 129.28 74.8474C129.499 73.0128 127.145 73.7709 127.211 72.6125C127.276 71.4521 125.084 70.9426 126.555 68.8565C127.429 67.6188 124.077 66.8409 124.238 65.4969C124.345 64.6025 125.233 63.1008 127.57 63.708Z" fill="#005478"/>
<path d="M126.891 68.0091C127.06 68.3927 126.912 68.9609 126.673 69.3092C126.432 69.6561 126.221 69.538 126.259 69.3588C126.308 69.1301 126.057 68.7187 126.182 68.1252C126.218 67.956 126.723 67.6255 126.891 68.0091Z" fill="#FDABAB"/>
<path d="M123.464 78.1976C123.58 75.3694 124.54 74.465 125.159 74.2502C126.965 73.6236 127.783 75.7866 127.433 78.1262C127.1 80.3591 126.387 83.5659 124.577 85.9626C123.864 86.9061 122.481 84.2967 122.608 83.5977C122.735 82.8982 123.365 80.6087 123.464 78.1976Z" fill="#FDABAB"/>
<path d="M111.692 84.7389C112.452 84.6318 113.273 84.8525 112.95 84.6228C112.586 84.3629 112.261 84.0305 112.366 83.6495C112.445 83.3613 112.768 84.0985 113.293 84.1774C113.892 84.2677 114.439 84.9642 115.031 84.986C115.031 84.986 115.107 86.7526 114.866 86.7516C114.624 86.7501 113.837 86.8756 113.303 86.9634C112.769 87.0513 112.245 87.7671 111.833 87.6565C111.584 87.5895 110.926 86.5889 110.853 86.3185C110.781 86.0477 111.363 85.4102 110.967 85.6156C110.897 85.6523 110.274 86.0531 110.204 86.0968C109.496 86.5343 109.049 86.3612 109.269 86.1915C109.642 85.9013 110.933 84.8466 111.692 84.7389Z" fill="#FDABAB"/>
<path d="M114.612 84.9869C115.891 85.109 121.372 83.7567 122.774 83.5468C123.411 83.4506 125.639 85.1735 124.394 86.1402C123.148 87.1073 114.476 86.7386 114.476 86.7386C113.738 85.7139 114.612 84.9869 114.612 84.9869Z" fill="#FDABAB"/>
<defs>
<radialGradient id="paint0_radial" cx="0" cy="0" r="1" gradientUnits="userSpaceOnUse" gradientTransform="translate(59.8222 62.4746) rotate(-53.9986) scale(65.1381 36.2515)">
<stop stop-color="#B4BED8"/>
<stop offset="0.1782" stop-color="#C7CFE2"/>
<stop offset="0.5132" stop-color="#E6E9F2"/>
<stop offset="0.799" stop-color="#F8F9FC"/>
<stop offset="1" stop-color="white"/>
</radialGradient>
</defs>
</svg>
