<svg width="148" height="134" viewBox="0 0 148 134" fill="none" xmlns="http://www.w3.org/2000/svg">
<path d="M11.4875 95.0642C7.44145 128.002 29.0235 142.121 59.7083 126.604C90.3891 111.053 118.52 71.7797 122.566 38.8406C126.615 5.88575 105.042 -8.23369 74.3599 7.33364C43.6751 22.8506 15.5302 62.158 11.4875 95.0642Z" fill="url(#paint0_radial)"/>
<path d="M66.7923 27.8211C67.1039 27.7916 67.7339 27.7875 67.826 27.3713C67.943 26.8433 67.0263 27.2804 66.2092 27.0094C65.9636 26.9284 64.9896 27.006 64.6167 27.1941C64.2426 27.3817 63.1261 27.2561 62.9553 27.2451C62.785 27.2347 62.543 29.2684 62.543 29.2684C62.543 29.2684 64.2634 29.4925 64.6428 29.6737C65.0226 29.8555 66.4182 30.5455 67.2793 30.644C68.2621 30.7563 68.364 29.8155 69.239 29.7217C69.3612 29.7084 69.7063 29.7183 69.6281 29.423C69.5499 29.1272 66.8369 28.5066 66.4889 27.9913C66.3615 27.8043 66.6701 27.8321 66.7923 27.8211Z" fill="#FDABAB"/>
<path d="M52.5902 22.0975C49.0387 19.4269 44.56 16.1745 43.9722 15.7999C41.1735 14.0163 40.6401 15.3924 40.1763 16.9705C39.3905 19.6452 41.4671 21.7779 46.0946 24.4844C50.7209 27.1915 52.3053 27.0942 53.4855 26.7225C54.6663 26.3514 56.1429 24.7675 52.5902 22.0975Z" fill="#59559D"/>
<path d="M52.5895 22.0973C50.1527 20.7693 46.0754 23.8758 49.7543 26.331C53.4344 28.7863 62.4005 30.0501 62.4005 30.0501C64.4047 28.2212 63.0242 26.4126 63.0242 26.4126C63.0242 26.4126 57.3746 24.706 52.5895 22.0973Z" fill="#59559D"/>
<path d="M47.0933 68.8911C46.6392 68.7128 46.6757 67.607 46.6757 67.607L43.2852 67.0576C43.2852 67.0576 43.3332 69.9441 43.3726 70.4443C43.4079 70.8826 43.6575 71.92 44.8916 71.6821C46.4151 71.3886 47.7887 71.6334 48.2497 71.7759C48.7118 71.9183 49.6708 72.0416 50.7902 71.8251C51.8777 71.6155 52.6033 71.1014 51.7022 70.3245C50.8006 69.547 48.1802 69.3177 47.0933 68.8911Z" fill="#023248"/>
<path d="M40.334 51.9466C40.3322 52.8596 41.3532 61.2337 42.5982 68.1843C42.9625 70.2175 47.3033 68.5711 47.3294 67.6552C47.3803 65.9259 46.3056 53.8987 45.6836 50.4258C45.2921 48.2415 40.3386 49.1631 40.334 51.9466Z" fill="#B0CBEF"/>
<path d="M34.7036 72.9767C34.725 72.7926 34.6248 72.3874 34.6248 72.3874L31.668 71.8154C31.668 71.8154 31.4143 72.2948 31.3367 72.9084C31.2603 73.5227 31.1439 74.8531 31.1028 75.2427C31.0605 75.6317 31.0356 76.5835 31.8359 77.4877C32.6362 78.392 33.0514 78.7475 34.132 78.3798C35.2126 78.0116 35.2045 76.4845 35.0226 75.7012C34.8402 74.9167 34.6821 73.1608 34.7036 72.9767Z" fill="#023248"/>
<path d="M31.4904 55.0914C31.3282 55.9864 30.8574 64.4196 30.8574 71.5022C30.8574 73.5742 35.4067 72.8685 35.5938 71.9752C35.947 70.2894 37.0074 58.2604 37.0074 54.722C37.0074 52.4955 31.9849 52.3612 31.4904 55.0914Z" fill="#B0CBEF"/>
<path d="M37.6197 38.9972C37.5699 40.7264 38.2591 43.1637 38.6436 44.8021C39.0281 46.4404 39.9865 52.0913 40.4915 53.7106C41.1487 55.819 45.9592 55.1029 45.965 52.3194C45.9662 51.4065 46.2082 40.2361 44.9632 33.2855C44.5984 31.2517 37.647 38.0813 37.6197 38.9972Z" fill="#B0CBEF"/>
<path d="M30.8576 40.854C30.2461 43.1569 31.124 55.1592 31.3348 56.8549C31.6098 59.0612 36.4562 59.368 36.9508 56.6372C37.1129 55.7428 38.9295 44.7895 38.9295 37.7069C38.9295 35.6349 31.0916 39.9723 30.8576 40.854Z" fill="#B0CBEF"/>
<path d="M39.4076 14.7505L35.2103 13.6465C35.2103 13.6465 34.4135 13.7513 34.205 13.9666C33.8466 14.3377 33.6034 14.846 33.4493 15.2611C33.2577 15.7769 32.9531 16.2389 32.546 16.5949C32.546 16.5949 29.793 18.7989 29.1108 19.6222C26.5205 22.7536 30.0889 38.9195 30.0889 46.1601C30.0889 46.1601 36.5851 46.0351 40.1048 45.0868L40.8235 42.3636L41.9162 44.2288C43.1363 43.8641 46.0179 41.6688 46.143 41.5027C46.2675 41.3365 44.9755 17.2995 42.3853 15.1986C41.7952 14.7204 39.4076 14.7505 39.4076 14.7505Z" fill="#59559D"/>
<path d="M29.7173 27.5435C30.3752 26.0041 31.465 23.6612 32.9029 23.1025C32.7419 23.5969 29.5059 37.1525 29.5059 37.1525C29.5059 37.1525 27.8573 31.8947 29.7173 27.5435Z" fill="#023248"/>
<path d="M40.3792 16.2476C40.2252 15.832 39.9692 15.4591 39.6206 15.1842C39.2627 14.9028 38.7827 14.6504 38.3066 14.7893C38.3066 14.7893 39.4075 15.1969 39.2285 16.8138C39.1556 17.4507 39.2546 18.5014 39.1602 19.6865C39.0514 21.0458 39.7798 25.3478 39.7798 25.3478L41.6393 20.0512L40.7382 19.1608L41.721 18.4684L40.3792 16.2476Z" fill="#023248"/>
<path d="M34.4481 13.6515C33.9477 14.0428 33.5453 14.9297 34.7637 16.4662C35.3538 17.2107 35.9525 18.4033 36.4975 19.3608C36.8941 20.0584 39.3726 23.5297 39.6929 24.5144C39.6929 24.5144 39.7247 23.6177 39.7635 22.1646C39.7734 21.8363 39.7641 17.7022 39.4925 16.703C38.8445 14.3218 36.0076 12.438 34.4481 13.6515Z" fill="white"/>
<path d="M34.96 12.3672C34.96 12.3672 34.9038 13.0631 34.4683 14.2638C34.4058 14.4363 34.433 14.6285 34.5477 14.7715C35.0017 15.333 36.238 16.7033 37.5091 16.7033C37.5091 16.7033 38.4357 15.9756 38.4357 15.1159C38.4357 14.2562 34.96 12.3672 34.96 12.3672Z" fill="#FDABAB"/>
<path d="M37.052 5.83105C33.0383 5.93989 34.1496 10.3861 34.1496 10.3861C34.1496 10.3861 33.8525 10.5186 34.0118 11.0906C34.1716 11.6632 34.2098 11.7228 34.2915 12.0065C34.3731 12.2907 34.5752 12.8164 34.9783 12.7336C34.9783 12.7336 35.5846 14.2776 38.2061 15.1703C38.6624 15.3266 39.2664 15.1599 39.3904 14.6985C39.5149 14.2371 40.391 12.8957 40.4229 11.8588C40.4466 11.0744 40.1501 11.1346 40.3528 10.6929C40.5566 10.2512 41.0657 5.72163 37.052 5.83105Z" fill="#FDABAB"/>
<path d="M37.2493 5.53267C34.5171 5.41399 32.5818 7.73838 33.934 10.7708C34.4274 10.028 34.985 10.9045 35.0678 11.1963C35.1124 11.3572 35.2624 12.0311 35.5114 12.0311C35.6915 12.0311 35.7483 11.3775 35.7483 11.3775C35.7483 9.51451 35.2914 9.29801 36.2173 8.85397C37.0066 8.47593 38.7526 9.88735 40.3017 9.88909C41.688 9.89025 41.0023 5.69651 37.2493 5.53267Z" fill="#023248"/>
<path d="M39.1212 17.7615L38.0777 17.5508L37.3984 18.3995C37.3984 18.3995 37.5965 18.843 38.1362 19.4317C37.9984 19.6859 37.9028 20.2822 37.9932 21.374C38.3111 22.0433 39.7796 25.3489 39.7796 25.3489L39.8005 20.9879C39.6436 19.9614 39.504 19.7171 39.1172 19.1695L39.1212 17.7615Z" fill="#576DFC"/>
<path d="M34.8195 16.3108C33.5924 14.7813 34.446 13.6523 34.446 13.6523C33.8727 13.8191 33.5484 14.3876 33.3671 14.9063C33.1917 15.4117 33.1726 15.9576 33.2855 16.481L33.992 19.7623L34.805 19.679L34.5722 20.545L39.7805 25.3553C39.7805 25.3553 37.7369 20.5039 36.7479 19.1915C35.885 18.0452 35.3065 16.9117 34.8195 16.3108Z" fill="#023248"/>
<path d="M34.8727 11.0118C34.699 10.746 34.3052 10.7605 34.1564 11.0419L34.1529 11.0477C33.9855 11.3621 34.0295 11.7524 34.2728 12.013C35.0088 12.7989 35.9469 13.1243 36.3465 13.2332C36.4606 13.2644 36.5804 13.2175 36.6464 13.1191C36.7298 12.9923 36.6957 12.8186 36.5671 12.7381C35.7801 12.2516 35.2109 11.5295 34.8727 11.0118Z" fill="#023248"/>
<path d="M34.0663 10.4137C33.8555 10.6227 33.7849 11.0269 34.0669 11.3639C34.09 11.3917 34.1312 11.3946 34.1584 11.3715C34.1856 11.3483 34.1896 11.3078 34.1665 11.2805C33.9331 11.0026 33.9875 10.6742 34.1578 10.5051C34.2927 10.372 34.5348 10.3117 34.8122 10.548C35.4868 11.1219 35.2766 12.0397 35.2743 12.0484C35.2662 12.0832 35.2876 12.1185 35.3223 12.126C35.327 12.1278 35.3328 12.1283 35.3374 12.1283C35.3664 12.1283 35.3936 12.1081 35.4005 12.0791C35.4098 12.0374 35.6298 11.0744 34.8956 10.4496C34.5516 10.1565 34.2342 10.2475 34.0663 10.4137Z" fill="#576DFC"/>
<path d="M25.3253 42.1032C25.3253 42.1032 27.344 41.7547 27.3822 41.9209C27.421 42.0882 27.6191 43.1939 27.9069 43.4984C28.1935 43.8024 28.5462 44.7142 28.5381 44.9718C28.5126 45.8321 29.193 46.5864 28.6533 46.6247C28.2283 46.6553 28.0435 46.0521 27.9272 45.762C27.8814 45.6486 27.82 45.3458 27.6764 45.52C27.2815 46 27.461 48.7771 27.1998 48.9363C26.9392 49.0955 26.85 48.7621 26.8026 48.6486C26.4626 47.8369 25.532 48.0077 25.3589 47.0345C25.2072 46.1818 25.4706 44.647 25.5361 44.2314C25.6015 43.8157 25.3253 42.1032 25.3253 42.1032Z" fill="#FDABAB"/>
<path d="M30.5932 18.5203C31.8753 18.0514 34.1233 19.8403 33.2124 23.0313C33.0213 23.7011 30.7501 27.6708 29.2051 31.8368C27.6601 36.0022 25.7196 35.04 25.027 34.0153C24.3338 32.9906 24.7473 31.8113 26.0213 26.6056C27.2947 21.3999 28.611 19.2451 30.5932 18.5203Z" fill="#59559D"/>
<path d="M28.9453 32.5955C27.9314 37.36 28.0831 42.7545 28.0831 42.7545C28.0831 42.7545 26.8844 44.3986 24.806 43.1487C24.806 43.1487 23.7527 35.379 24.9172 31.6003C26.0817 27.8211 29.4613 30.1686 28.9453 32.5955Z" fill="#59559D"/>
<path d="M14.3355 94.5307C14.3343 95.2149 14.7866 95.8998 15.6912 96.4209L61.7907 122.968C63.5882 124.003 66.4935 124 68.2771 122.961L135.644 83.9797C136.53 83.4639 136.973 82.7889 136.975 82.1133L136.971 84.4805C136.97 85.1561 136.527 85.8306 135.64 86.347L68.2737 125.328C66.4895 126.367 63.5848 126.37 61.7873 125.335L15.6877 98.7881C14.7831 98.2671 14.3309 97.5822 14.332 96.8979L14.3355 94.5307Z" fill="#5A74B7"/>
<path d="M15.6949 96.4232L61.7922 122.972C63.5873 124.006 66.4944 124.006 68.2803 122.962L135.645 83.978C137.431 82.944 137.421 81.257 135.616 80.223L89.519 53.6746C87.7238 52.6407 84.8168 52.6407 83.0314 53.6845L15.6659 92.6682C13.88 93.7016 13.8904 95.3886 15.6949 96.4232Z" fill="#F2F7FA"/>
<path d="M20.0859 92.5698L69.3143 120.922C69.5645 121.066 69.8726 121.066 70.1227 120.921L134.431 83.6445C134.968 83.3325 134.967 82.5561 134.429 82.2458L85.2005 53.8929C84.9503 53.7488 84.6417 53.7493 84.3921 53.8941L20.0848 91.1706C19.5468 91.4832 19.5474 92.2595 20.0859 92.5698Z" fill="white"/>
<path d="M78.3061 83.4347L92.6137 91.6948C92.9177 91.8679 93.4058 91.8679 93.7081 91.6948C94.0098 91.5205 94.0098 91.2369 93.7081 91.0655L79.3982 82.8037C79.0942 82.6306 78.6078 82.6306 78.3066 82.8037C78.002 82.9785 78.002 83.2622 78.3061 83.4347Z" fill="#5A74B7"/>
<path d="M63.9096 78.1447L78.2166 86.4048C78.5206 86.5779 79.0088 86.5779 79.3116 86.4048C79.6128 86.2305 79.6128 85.9468 79.3116 85.7755L65.0017 77.5136C64.6977 77.3405 64.2113 77.3405 63.9102 77.5136C63.6056 77.6884 63.6056 77.9716 63.9096 78.1447Z" fill="#5A74B7"/>
<path d="M99.8695 94.3638L95.6955 91.9559C95.3926 91.7816 94.9033 91.7816 94.6021 91.9559C94.2993 92.1302 94.2993 92.4128 94.6021 92.5871L98.7774 94.9967C99.0814 95.1699 99.5678 95.1699 99.869 94.9967C100.171 94.8224 100.171 94.5404 99.8695 94.3638Z" fill="#5A74B7"/>
<path d="M63.3828 76.5395L59.2087 74.1317C58.9064 73.9574 58.4171 73.9574 58.1154 74.1317C57.8131 74.306 57.8131 74.5886 58.1154 74.7629L62.2906 77.1719C62.5946 77.3451 63.0811 77.3451 63.3822 77.1719C63.6839 76.9976 63.6839 76.7156 63.3828 76.5395Z" fill="#5A74B7"/>
<path d="M77.3046 81.7104L61.6512 72.6733C61.3483 72.5008 60.8607 72.5008 60.5579 72.6733C60.2567 72.8493 60.2567 73.1318 60.5579 73.3044L76.213 82.3414C76.5153 82.5145 77.0017 82.5145 77.3046 82.3414C77.6074 82.166 77.6074 81.8823 77.3046 81.7104Z" fill="#5A74B7"/>
<path d="M96.5077 95.6555L80.8543 86.6191C80.552 86.446 80.0639 86.446 79.761 86.6191C79.4599 86.7951 79.4599 87.077 79.761 87.2495L95.4161 96.2866C95.719 96.4591 96.2048 96.4591 96.5077 96.2866C96.8106 96.1106 96.8106 95.8275 96.5077 95.6555Z" fill="#5A74B7"/>
<path d="M81.9208 74.5825L75.3117 70.7674C74.4077 70.2434 74.4048 69.3947 75.3134 68.8714C76.222 68.348 77.6952 68.3457 78.6055 68.8679L85.2129 72.6813C86.1204 73.2052 86.1204 74.0557 85.21 74.5825C84.3043 75.1047 82.8329 75.1029 81.9208 74.5825Z" fill="#5A74B7"/>
<path d="M68.664 93.1462L64.4778 90.728C63.9039 90.3969 63.9022 89.8614 64.4789 89.5268C65.0534 89.1957 65.9863 89.1939 66.5637 89.5233L70.7499 91.9432C71.3238 92.2732 71.3238 92.8145 70.7488 93.1462C70.1743 93.4762 69.2385 93.4745 68.664 93.1462Z" fill="#F85976"/>
<path d="M27.375 90.5667L72.2782 116.487L72.4369 116.398L27.5319 90.4746L27.375 90.5667Z" fill="#5A74B7"/>
<path d="M71.6486 91.4256L67.4589 89.0074C66.8833 88.6763 66.8833 88.1379 67.4601 87.8061C68.0374 87.4727 68.9657 87.4727 69.5448 87.8032L73.7299 90.2249C74.3026 90.5525 74.3055 91.0944 73.7281 91.4273C73.156 91.7585 72.2196 91.7538 71.6486 91.4256Z" fill="#5A74B7"/>
<path d="M65.127 112.182L70.2971 115.166L92.5127 102.13L87.3431 99.1426L65.127 112.182Z" fill="#5A74B7"/>
<path d="M57.7812 107.957L62.949 110.941L80.4271 100.967L75.2559 97.9814L57.7812 107.957Z" fill="#F85976"/>
<path d="M50.5371 103.87L55.7055 106.855L66.8489 100.525L61.6776 97.5391L50.5371 103.87Z" fill="#FFDE95"/>
<path d="M45.5488 83.4182C44.5267 82.9346 43.0216 83.025 42.1837 83.6104C41.351 84.2011 41.5033 85.0691 42.523 85.5556C43.5451 86.0362 45.0508 85.9523 45.8852 85.3598C46.7232 84.7686 46.568 83.9 45.5488 83.4182Z" fill="#FFDE95"/>
<path d="M47.0048 82.3628C44.967 81.3977 41.9546 81.572 40.2862 82.7535C38.6156 83.9288 38.9184 85.6667 40.9603 86.6289C42.9964 87.5957 46.0105 87.4174 47.6806 86.2427C49.349 85.0605 49.0421 83.3226 47.0048 82.3628ZM41.782 86.0499C40.3019 85.35 40.0824 84.081 41.295 83.2242C42.5047 82.3738 44.6989 82.2429 46.1814 82.9429C47.6627 83.6411 47.8839 84.9118 46.6713 85.7651C45.4604 86.6208 43.2662 86.747 41.782 86.0499Z" fill="#B0CBEF"/>
<path d="M40.2849 82.7538C39.3821 83.3926 39.0607 84.1917 39.2709 84.9468L40.5484 84.7963C40.4094 84.2513 40.6503 83.6838 41.2943 83.2246C42.504 82.3739 44.6982 82.2431 46.1806 82.9432L47.0035 82.363C44.9657 81.3976 41.9533 81.5719 40.2849 82.7538Z" fill="#F85976"/>
<path d="M47.0045 82.3633L46.1816 82.9435C47.3236 83.4856 47.7197 84.3582 47.2796 85.1249L48.5165 85.3624C49.1194 84.3102 48.5808 83.1057 47.0045 82.3633Z" fill="#5A74B7"/>
<path d="M54.0867 88.9334C52.7982 88.7782 51.5335 89.2589 51.2665 90.007C50.9996 90.7523 51.834 91.4832 53.126 91.6355C54.4081 91.7906 55.6775 91.3054 55.9462 90.5647C56.2085 89.8148 55.3775 89.084 54.0867 88.9334Z" fill="#B0CBEF"/>
<path d="M54.6045 87.5606C52.0224 87.2549 49.4929 88.2171 48.9659 89.7055C48.4343 91.1962 50.1027 92.6557 52.682 92.9625C55.2612 93.2665 57.7918 92.3031 58.3206 90.8159C58.851 89.3245 57.1786 87.8628 54.6045 87.5606ZM52.9402 92.2232C51.0698 92.0033 49.8502 90.9444 50.237 89.8595C50.6285 88.7763 52.4654 88.0746 54.3445 88.2975C56.2185 88.5175 57.4328 89.5828 57.0477 90.6659C56.658 91.7462 54.8176 92.4444 52.9402 92.2232Z" fill="#F85976"/>
<path d="M57.4507 88.6035L56.443 89.0771C57.0024 89.5234 57.2532 90.0844 57.0494 90.6662C56.6596 91.7465 54.8193 92.4447 52.9419 92.2229L52.6836 92.9628C55.2629 93.2668 57.7935 92.3034 58.3222 90.8162C58.6083 90.0103 58.251 89.2102 57.4507 88.6035Z" fill="#FFDE95"/>
<path d="M50.2216 90.5889L48.9297 90.7117C49.2418 91.8015 50.6919 92.7292 52.6828 92.9637L52.941 92.2236C51.4956 92.054 50.4492 91.3816 50.2216 90.5889Z" fill="#023248"/>
<path d="M44.9722 94.1922C43.6849 94.037 42.419 94.5188 42.1538 95.2675C41.8851 96.0128 42.7213 96.7424 44.0115 96.8942C45.2936 97.0476 46.5629 96.5641 46.8334 95.8223C47.0992 95.0701 46.2612 94.3421 44.9722 94.1922Z" fill="#023248"/>
<path d="M45.4917 92.8189C42.9095 92.5115 40.3783 93.4748 39.8566 94.9638C39.325 96.4528 40.9933 97.9158 43.5726 98.2197C46.1501 98.5254 48.6772 97.5632 49.2112 96.0742C49.7364 94.5823 48.0675 93.1211 45.4917 92.8189ZM43.8274 97.4828C41.9569 97.2616 40.7402 96.1993 41.13 95.1161C41.5133 94.0364 43.3537 93.3347 45.2311 93.5559C47.105 93.7759 48.324 94.8411 47.936 95.9225C47.5469 97.0022 45.7083 97.7022 43.8274 97.4828Z" fill="#5A74B7"/>
<path d="M48.3409 93.8604L47.3303 94.3345C47.888 94.7791 48.1376 95.343 47.9349 95.9236C47.5452 97.0033 45.7066 97.7033 43.8257 97.4833L43.5703 98.2203C46.1478 98.5259 48.675 97.5637 49.2089 96.0747C49.4938 95.2683 49.1383 94.47 48.3409 93.8604Z" fill="#F85976"/>
<path d="M41.1058 95.8477L39.8145 95.9704C40.1283 97.062 41.5784 97.9903 43.5722 98.2214L43.8275 97.4842C42.3833 97.3128 41.3369 96.6399 41.1058 95.8477Z" fill="#B0CBEF"/>
<path d="M35.3409 88.5982C34.0686 88.4025 32.7599 88.8437 32.4194 89.5798C32.0846 90.3158 32.8363 91.0727 34.1155 91.2667C35.3895 91.4641 36.6994 91.0223 37.037 90.2851C37.3804 89.552 36.623 88.7922 35.3409 88.5982Z" fill="#FFDE95"/>
<path d="M35.9207 87.2452C33.3721 86.8521 30.7512 87.7303 30.0736 89.2043C29.3944 90.6725 30.9208 92.1835 33.4613 92.5754C36.0064 92.9627 38.6291 92.0839 39.3066 90.6157C39.9824 89.151 38.4675 87.6331 35.9207 87.2452ZM33.7972 91.8477C31.9441 91.5617 30.8427 90.4605 31.3361 89.3953C31.8294 88.3266 33.7358 87.6915 35.5854 87.9723C37.4321 88.2502 38.5399 89.3548 38.0448 90.4247C37.552 91.4916 35.6474 92.129 33.7972 91.8477Z" fill="#B0CBEF"/>
<path d="M35.9211 87.2457C34.5434 87.0355 33.1449 87.1942 32.0371 87.6192L32.8021 88.2307C33.596 87.9331 34.6002 87.8202 35.5869 87.9736C37.4336 88.2516 38.5414 89.3564 38.0463 90.4266L39.3076 90.6177C39.9828 89.152 38.4679 87.6337 35.9211 87.2457Z" fill="#FF2456"/>
<path d="M38.0465 90.4258C37.6712 91.2469 36.447 91.815 35.0566 91.9036L35.1974 92.6489C37.1055 92.5279 38.7808 91.7513 39.3077 90.6163L38.0465 90.4258Z" fill="#023248"/>
<path d="M54.3826 81.0425L49.2953 78.1033C49.0429 77.9591 49.0463 77.7281 49.2965 77.5828C49.5472 77.4358 49.9514 77.4341 50.2034 77.5811L55.2907 80.5168C55.5397 80.6621 55.5414 80.8966 55.2907 81.0425C55.0411 81.1861 54.6316 81.1843 54.3826 81.0425Z" fill="#5A74B7"/>
<path d="M53.0053 81.8369L47.9162 78.9012C47.6672 78.7541 47.6689 78.5231 47.9191 78.379C48.1716 78.2319 48.5775 78.2302 48.8277 78.3755L53.9133 81.3147C54.164 81.4571 54.1657 81.6927 53.9133 81.8369C53.6614 81.9822 53.2572 81.9805 53.0053 81.8369Z" fill="#F85976"/>
<path d="M51.6105 82.6416L46.5232 79.7059C46.2707 79.5606 46.2759 79.3278 46.5244 79.1819C46.7768 79.0378 47.1793 79.0366 47.4335 79.1808L52.5191 82.1165C52.7698 82.2618 52.7716 82.498 52.5191 82.6416C52.2672 82.7869 51.8612 82.7852 51.6105 82.6416Z" fill="#FFDE95"/>
<path d="M64.93 87.1173L59.8416 84.1798C59.5943 84.0374 59.5943 83.8047 59.8427 83.6593C60.0952 83.5123 60.5006 83.5123 60.753 83.6576L65.8386 86.5933C66.0876 86.7387 66.0905 86.9748 65.8386 87.1202C65.5867 87.2643 65.1808 87.2626 64.93 87.1173Z" fill="#023248"/>
<path d="M63.5506 87.9127L58.465 84.977C58.2143 84.8328 58.2143 84.5972 58.4679 84.4531C58.7187 84.3089 59.1229 84.3089 59.3736 84.4513L64.4609 87.3888C64.7099 87.5329 64.7128 87.7703 64.4609 87.9156C64.2125 88.0598 63.8013 88.058 63.5506 87.9127Z" fill="#B0CBEF"/>
<path d="M62.1579 88.7174L57.0712 85.7817C56.8222 85.6363 56.8222 85.4031 57.0741 85.2577C57.3231 85.1136 57.729 85.1136 57.9809 85.256L63.0647 88.1918C63.3155 88.3371 63.3184 88.5732 63.0647 88.7203C62.8175 88.865 62.4086 88.8633 62.1579 88.7174Z" fill="#5A74B7"/>
<path d="M77.5932 78.5307L73.4168 76.12C73.1157 75.9457 72.6264 75.9457 72.3235 76.12C72.0224 76.2943 72.0224 76.5769 72.3235 76.7512L76.5016 79.1608C76.8016 79.3351 77.2886 79.3351 77.5932 79.1608C77.8943 78.9871 77.8926 78.7039 77.5932 78.5307Z" fill="#5A74B7"/>
<path d="M90.0073 85.5096L86.8426 83.6819C86.5415 83.5071 86.0521 83.5071 85.7493 83.6819C85.4482 83.8563 85.4482 84.1383 85.7493 84.3132L88.9157 86.1396C89.2157 86.3139 89.7027 86.3139 90.0073 86.1396C90.3085 85.9665 90.3073 85.6821 90.0073 85.5096Z" fill="#5A74B7"/>
<path d="M84.2355 82.2955L80.0603 79.8859C79.7562 79.7099 79.2698 79.7099 78.9669 79.8859C78.6647 80.0591 78.6647 80.3411 78.9669 80.5171L83.1422 82.9267C83.4439 83.101 83.9326 83.101 84.2355 82.9267C84.5337 82.7507 84.5337 82.4669 84.2355 82.2955Z" fill="#5A74B7"/>
<path d="M71.2698 75.0421L67.0951 72.6314C66.7917 72.4588 66.3024 72.4588 66.0012 72.6314C65.7001 72.8057 65.7001 73.09 66.0012 73.2609L70.1765 75.6722C70.4787 75.8482 70.9669 75.8482 71.2698 75.6722C71.5709 75.499 71.5709 75.217 71.2698 75.0421Z" fill="#5A74B7"/>
<path d="M37.5106 106.428L38.8616 105.646C39.5357 105.256 40.666 105.297 41.4339 105.74L43.9066 107.123C44.1632 107.271 44.3606 107.455 44.4765 107.656C44.7394 108.109 44.5772 108.609 44.0746 108.899L42.7236 109.682C42.0489 110.072 40.9191 110.031 40.1512 109.588L37.6785 108.205C37.422 108.058 37.2245 107.873 37.1087 107.673C36.8464 107.219 37.0079 106.719 37.5106 106.428Z" fill="#F0F0F0"/>
<path d="M37.5117 106.885L38.8627 106.103C39.5368 105.713 40.6671 105.754 41.435 106.197L43.9077 107.58C44.1643 107.727 44.3617 107.912 44.4775 108.113C44.5221 108.19 44.5378 108.269 44.5586 108.347C44.4862 108.562 44.3235 108.757 44.0762 108.9L42.7252 109.681C42.0506 110.071 40.9208 110.03 40.1529 109.587L37.6802 108.205C37.4237 108.057 37.2262 107.873 37.1104 107.672C37.0652 107.595 37.0501 107.516 37.0293 107.437C37.1011 107.223 37.2638 107.028 37.5117 106.885Z" fill="#5A74B7"/>
<path d="M107.421 65.0431L113.455 68.5265C113.641 68.6342 113.661 68.7963 113.5 68.8889C113.339 68.9821 113.057 68.97 112.872 68.8629L106.837 65.3795C106.652 65.2718 106.631 65.1097 106.792 65.0171C106.953 64.9239 107.235 64.9354 107.421 65.0431Z" fill="#023248"/>
<path d="M114.811 69.166C114.359 69.166 114.043 69.4029 114.043 69.6154C114.043 69.8279 114.359 70.0648 114.811 70.0648C115.263 70.0648 115.579 69.8279 115.579 69.6154C115.579 69.4029 115.264 69.166 114.811 69.166Z" fill="#023248"/>
<path d="M116.262 70.1113C116.068 70.1113 115.932 70.2127 115.932 70.3042C115.932 70.3957 116.067 70.497 116.262 70.497C116.456 70.497 116.592 70.3951 116.592 70.3042C116.592 70.2133 116.456 70.1113 116.262 70.1113Z" fill="#023248"/>
<path d="M86.8996 54.9624L84.3707 56.6268L83.6914 50.555L86.2203 48.8906L86.8996 54.9624Z" fill="#F0F0F0"/>
<path d="M84.3712 56.9164C84.3295 56.9164 84.2873 56.9071 84.2485 56.8892C84.1575 56.8464 84.095 56.7595 84.0834 56.6594L83.4042 50.5876C83.392 50.4793 83.4418 50.3734 83.5327 50.3138L86.0616 48.6493C86.1461 48.5938 86.2527 48.5862 86.3436 48.6291C86.4345 48.6719 86.4971 48.7588 86.5087 48.8589L87.1879 54.9307C87.2001 55.039 87.1503 55.1449 87.0594 55.2045L84.5305 56.8689C84.4824 56.9002 84.4268 56.9164 84.3712 56.9164ZM83.9995 50.6993L84.6063 56.1256L86.5926 54.8184L85.9857 49.3921L83.9995 50.6993Z" fill="white"/>
<path d="M76.786 27.2826C76.7032 27.2537 76.6198 27.2305 76.5376 27.2103C76.4374 27.186 76.3378 27.1663 76.2382 27.1535C76.171 27.1448 76.105 27.1408 76.0384 27.1373C75.9307 27.1321 75.8241 27.135 75.7193 27.1437C75.6967 27.1454 75.6747 27.1478 75.6527 27.1501C75.5473 27.1611 75.4431 27.1773 75.3412 27.2022C75.333 27.2039 75.3261 27.2068 75.318 27.2085C75.1871 27.2415 75.0591 27.2838 74.9358 27.3376C74.9317 27.3394 74.9283 27.3411 74.9242 27.3428C74.798 27.3984 74.6764 27.4638 74.5605 27.5403L77.0894 25.8758C77.2052 25.8 77.3269 25.734 77.4531 25.6784C77.4572 25.6767 77.4606 25.6749 77.4647 25.6732C77.588 25.6194 77.716 25.5771 77.8469 25.5441C77.8521 25.543 77.8573 25.5406 77.8625 25.5389C77.8648 25.5383 77.8671 25.5383 77.87 25.5378C77.972 25.5134 78.0762 25.4967 78.1816 25.4857C78.2036 25.4833 78.2262 25.481 78.2482 25.4793C78.353 25.4712 78.4596 25.4683 78.5673 25.4729C78.5725 25.4729 78.5771 25.4723 78.5823 25.4729C78.6437 25.4764 78.7051 25.4816 78.767 25.4897C78.8661 25.5019 78.9663 25.5221 79.0664 25.5464C79.0734 25.5482 79.0809 25.5488 79.0879 25.5505C79.1631 25.5696 79.239 25.5922 79.3155 25.6188C79.3201 25.6205 79.3253 25.6229 79.3299 25.6246C79.4 25.6489 79.4695 25.6761 79.539 25.7068C79.5465 25.7103 79.5546 25.7155 79.5621 25.719C79.6635 25.7647 79.7654 25.8156 79.8656 25.8753L112.412 44.9839C112.454 45.0082 112.495 45.0337 112.536 45.0603C112.622 45.1165 112.705 45.1773 112.786 45.2415C112.796 45.2496 112.805 45.2589 112.816 45.267C112.878 45.3173 112.939 45.3689 112.997 45.4239C113.026 45.4511 113.051 45.4818 113.079 45.5096C113.114 45.5449 113.148 45.5808 113.182 45.6178C113.249 45.6919 113.313 45.7695 113.374 45.8488C113.401 45.8835 113.428 45.9171 113.454 45.953C113.537 46.0694 113.614 46.1904 113.684 46.316C113.687 46.3224 113.69 46.3299 113.694 46.3363C113.759 46.4567 113.816 46.5806 113.868 46.7085C113.885 46.7508 113.899 46.7942 113.915 46.8376C113.95 46.9326 113.981 47.0281 114.009 47.1259C114.022 47.1751 114.035 47.2243 114.046 47.2741C114.07 47.3731 114.087 47.4733 114.103 47.5746C114.109 47.6203 114.118 47.6649 114.123 47.7112C114.138 47.8571 114.148 48.0036 114.147 48.1518L113.82 60.2797C113.806 61.3773 113.306 62.2434 112.582 62.7205L110.053 64.3849C110.777 63.9078 111.277 63.0418 111.292 61.9441L111.618 49.8162C111.62 49.6686 111.61 49.5215 111.594 49.3756C111.589 49.3299 111.581 49.2847 111.574 49.239C111.559 49.1383 111.541 49.0381 111.517 48.9391C111.506 48.8893 111.493 48.8395 111.48 48.7903C111.453 48.6931 111.421 48.597 111.387 48.5026C111.371 48.4592 111.356 48.4158 111.339 48.3729C111.287 48.2456 111.23 48.1205 111.164 48.0001C111.161 47.9937 111.158 47.9874 111.155 47.981C111.085 47.8548 111.008 47.7338 110.925 47.6174C110.9 47.5821 110.872 47.5485 110.845 47.5138C110.784 47.4339 110.72 47.3563 110.652 47.2822C110.619 47.2452 110.585 47.2093 110.549 47.174C110.465 47.0894 110.378 47.0067 110.286 46.932C110.275 46.9239 110.266 46.9146 110.256 46.9065C110.137 46.8121 110.013 46.7253 109.882 46.6489L77.3361 27.5403C77.2354 27.4806 77.134 27.4303 77.0327 27.3839C76.9551 27.3492 76.8775 27.3174 76.8005 27.2896C76.7953 27.2867 76.7912 27.2844 76.786 27.2826Z" fill="#F0F0F0"/>
<path d="M110.053 64.6725C109.958 64.6725 109.866 64.6268 109.811 64.5422C109.723 64.4091 109.76 64.229 109.893 64.1416C110.585 63.686 110.989 62.8836 111.002 61.9388L111.328 49.8074C111.33 49.6748 111.32 49.5399 111.306 49.4062L111.294 49.3298C111.273 49.1874 111.257 49.0953 111.235 49.0044C111.224 48.9575 111.213 48.9118 111.2 48.8666C111.175 48.7775 111.146 48.6883 111.114 48.6015L111.071 48.4828C111.023 48.3647 110.969 48.2495 110.909 48.1384C110.837 48.0041 110.764 47.8923 110.688 47.7852L110.647 47.7314C110.558 47.6162 110.5 47.5455 110.438 47.4778C110.407 47.4431 110.375 47.4106 110.343 47.3782C110.266 47.3006 110.187 47.2254 110.102 47.1565C109.968 47.0471 109.853 46.9684 109.735 46.8983L77.1888 27.7897C77.0973 27.7352 77.0052 27.6895 76.9126 27.6478C76.8425 27.6166 76.7724 27.5876 76.7023 27.5627L76.7846 27.2843L76.689 27.5575C76.6155 27.532 76.5414 27.5112 76.4672 27.4933C76.3775 27.4713 76.2883 27.4539 76.1997 27.4423C76.1406 27.4348 76.0816 27.4307 76.0231 27.4284C75.9287 27.4244 75.8331 27.4267 75.7405 27.4342C75.7399 27.4342 75.6826 27.44 75.6814 27.44C75.5888 27.4498 75.4967 27.4643 75.4069 27.4857C75.2714 27.5205 75.1579 27.5581 75.0491 27.6056C74.9292 27.6588 74.8226 27.7156 74.7219 27.7821L74.7178 27.785C74.5846 27.873 74.4045 27.836 74.3171 27.7028C74.2296 27.5697 74.2661 27.3896 74.3993 27.3016C74.4005 27.3011 74.4016 27.2999 74.4028 27.2993L76.9276 25.6372C77.0567 25.5521 77.1928 25.4792 77.3336 25.4166C77.4841 25.3506 77.6266 25.3032 77.7737 25.2661C77.787 25.2627 77.8171 25.2551 77.831 25.254C77.9132 25.232 78.0296 25.214 78.1472 25.2007L78.2196 25.1938C78.3406 25.1839 78.4587 25.1804 78.5786 25.1868C78.6643 25.1903 78.7332 25.1967 78.8015 25.2053C78.9104 25.2192 79.0216 25.2412 79.1322 25.2679C79.2393 25.2933 79.3233 25.3188 79.4073 25.3478C79.4999 25.3813 79.5764 25.4103 79.6528 25.4444C79.7889 25.5075 79.9001 25.5631 80.0101 25.628L112.556 44.7366C112.602 44.7632 112.647 44.791 112.692 44.8205C112.785 44.8813 112.876 44.9479 112.964 45.0174C113.064 45.1007 113.13 45.1563 113.193 45.2154C113.215 45.2356 113.235 45.2576 113.256 45.2802C113.319 45.3462 113.356 45.3844 113.393 45.4243C113.466 45.5054 113.535 45.5888 113.601 45.675L113.688 45.7879C113.777 45.9135 113.861 46.0432 113.935 46.1793C114.016 46.331 114.079 46.4647 114.134 46.6019L114.171 46.7003C114.222 46.8421 114.256 46.9458 114.285 47.0506C114.3 47.1032 114.314 47.1565 114.326 47.2103C114.351 47.3169 114.371 47.4245 114.387 47.5334L114.408 47.6804C114.425 47.8379 114.435 47.9965 114.433 48.1563L114.107 60.2883C114.092 61.4241 113.593 62.4002 112.739 62.9629L110.21 64.6273C110.163 64.6569 110.107 64.6725 110.053 64.6725ZM76.8801 27.0093C76.8871 27.0116 76.8975 27.0157 76.9027 27.018C76.9815 27.0458 77.066 27.0805 77.1506 27.1187C77.2618 27.1691 77.3729 27.2246 77.483 27.2895L110.029 46.3981C110.171 46.482 110.307 46.5764 110.437 46.6789C110.569 46.7883 110.664 46.8774 110.755 46.9689C110.793 47.0077 110.831 47.0471 110.867 47.0876C110.94 47.1663 111.009 47.2503 111.075 47.3371L111.16 47.4483C111.25 47.5745 111.334 47.7047 111.408 47.8408C111.489 47.9907 111.551 48.125 111.606 48.2622L111.643 48.3624C111.694 48.5037 111.728 48.6061 111.758 48.7115C111.772 48.7653 111.786 48.8186 111.799 48.8724C111.824 48.979 111.843 49.0866 111.859 49.1961L111.881 49.3425C111.898 49.5006 111.909 49.6592 111.906 49.8196L111.58 61.9504C111.573 62.3892 111.495 62.8043 111.353 63.1806L112.421 62.4778C113.113 62.0222 113.517 61.2198 113.53 60.275L113.856 48.143C113.857 48.011 113.848 47.8761 113.834 47.7418L113.822 47.6619C113.801 47.523 113.784 47.4309 113.763 47.3394C113.752 47.2925 113.74 47.2474 113.728 47.2022C113.703 47.1125 113.674 47.0239 113.642 46.9371L113.598 46.8172C113.55 46.6991 113.497 46.5845 113.437 46.4739C113.364 46.3391 113.292 46.2279 113.216 46.1202L113.173 46.0646C113.085 45.9512 113.027 45.88 112.965 45.8111L112.871 45.7127C112.868 45.7103 112.832 45.6715 112.829 45.6686C112.743 45.5835 112.686 45.5367 112.63 45.4903C112.529 45.4087 112.454 45.3537 112.375 45.3022C112.339 45.2779 112.302 45.2553 112.264 45.2327L79.7165 26.1235C79.625 26.0691 79.5329 26.0234 79.4403 25.9817C79.3563 25.9435 79.2938 25.9192 79.2307 25.8972C79.1496 25.8688 79.0818 25.8479 79.0147 25.8312C78.9058 25.8057 78.8172 25.7877 78.7286 25.7767C78.673 25.7698 78.6186 25.7646 78.5635 25.7617C78.4547 25.7571 78.3609 25.7605 78.2676 25.7681L78.208 25.7738C78.1171 25.7837 78.025 25.7982 77.9352 25.8196C77.7991 25.8543 77.6862 25.892 77.5774 25.9394C77.4557 25.9933 77.348 26.0512 77.2461 26.1189L76.129 26.8541C76.1765 26.8576 76.224 26.8617 76.2715 26.8674C76.3815 26.8813 76.4921 26.9033 76.6033 26.9305C76.6966 26.9514 76.7886 26.9769 76.8801 27.0093Z" fill="white"/>
<path d="M76.2368 27.154C74.719 26.9624 73.3454 28.1503 73.3205 29.9815L72.9945 42.1088C72.9771 43.3993 73.6633 44.6469 74.7294 45.2761L84.3701 56.6272L83.6908 50.5554L107.275 64.3848C107.639 64.599 108.01 64.7234 108.374 64.7698C109.892 64.9614 111.265 63.7734 111.29 61.9423L111.616 49.8143C111.634 48.5239 110.948 47.2734 109.881 46.6471L77.3353 27.5384C76.9722 27.3248 76.5999 27.1997 76.2368 27.154Z" fill="#5A74B7"/>
<path d="M108.698 65.08C108.579 65.08 108.459 65.0725 108.339 65.0574C107.923 65.0053 107.516 64.8629 107.129 64.6348L84.044 51.0977L84.659 56.5952C84.6729 56.722 84.6028 56.843 84.4858 56.8934C84.3695 56.9443 84.2334 56.9119 84.15 56.8152L74.54 45.5007C73.4055 44.8094 72.6869 43.4825 72.7054 42.1058L73.0315 29.9745C73.0448 28.9856 73.4241 28.1155 74.0993 27.5285C74.7045 27.0017 75.4799 26.7672 76.2732 26.8674C76.6884 26.9195 77.0949 27.0619 77.4823 27.29L110.028 46.3986C111.188 47.08 111.925 48.4225 111.906 49.8195L111.58 61.9509C111.566 62.9397 111.187 63.8098 110.512 64.3968C109.999 64.8432 109.365 65.08 108.698 65.08ZM83.6919 50.2664C83.7423 50.2664 83.7933 50.2797 83.8384 50.3063L107.423 64.1357C107.742 64.3239 108.074 64.4403 108.412 64.4831C109.044 64.5636 109.654 64.3772 110.133 63.9598C110.682 63.4821 110.991 62.7649 111.002 61.9387L111.328 49.8073C111.344 48.6182 110.719 47.4748 109.736 46.897L77.1899 27.7884C76.8708 27.6003 76.5384 27.4839 76.202 27.4411C75.5702 27.3618 74.9598 27.5476 74.4803 27.9644C73.9314 28.442 73.6227 29.1599 73.6117 29.9855L73.2857 42.1169C73.27 43.3025 73.8949 44.4465 74.8782 45.0271C74.906 45.0433 74.9309 45.0642 74.9517 45.0891L83.9786 55.717L83.4047 50.5877C83.3925 50.4789 83.4429 50.3724 83.535 50.3127C83.5825 50.282 83.6369 50.2664 83.6919 50.2664Z" fill="white"/>
<path d="M86.3359 44.6032V39.5967L86.7986 39.8919V44.8979L86.3359 44.6032Z" fill="#B0CBEF"/>
<path d="M87.4512 45.0144V40.6064L87.9144 40.9011V45.3096L87.4512 45.0144Z" fill="#B0CBEF"/>
<path d="M88.5664 45.1637V41.876L89.0297 42.1712V45.459L88.5664 45.1637Z" fill="#B0CBEF"/>
<path d="M89.6816 46.4339V42.0254L90.1449 42.3206V46.7292L89.6816 46.4339Z" fill="#B0CBEF"/>
<path d="M90.7969 46.5836V43.2959L91.2601 43.5912V46.8783L90.7969 46.5836Z" fill="#B0CBEF"/>
<path d="M91.9121 47.8538V43.4453L92.3754 43.7411V48.1491L91.9121 47.8538Z" fill="#B0CBEF"/>
<path d="M93.0293 48.003V44.7158L93.492 45.0105V48.2982L93.0293 48.003Z" fill="#B0CBEF"/>
<path d="M99.7227 53.1228V48.1162L100.186 48.4115V53.4174L99.7227 53.1228Z" fill="#B0CBEF"/>
<path d="M100.836 53.5339V49.126L101.299 49.4207V53.8292L100.836 53.5339Z" fill="#B0CBEF"/>
<path d="M101.953 53.6832V50.3955L102.417 50.6908V53.9785L101.953 53.6832Z" fill="#B0CBEF"/>
<path d="M103.068 54.9535V50.5449L103.532 50.8402V55.2487L103.068 54.9535Z" fill="#B0CBEF"/>
<path d="M104.184 55.1026V51.8154L104.647 52.1107V55.3978L104.184 55.1026Z" fill="#B0CBEF"/>
<path d="M105.299 56.3734V51.9648L105.762 52.2601V56.6686L105.299 56.3734Z" fill="#B0CBEF"/>
<path d="M106.414 56.5231V53.2354L106.877 53.5306V56.8183L106.414 56.5231Z" fill="#B0CBEF"/>
<path d="M107.531 57.2336V53.9453L107.994 54.2411V57.5283L107.531 57.2336Z" fill="#B0CBEF"/>
<path d="M94.1426 49.2389V44.9004L94.6059 45.1956V49.5336L94.1426 49.2389Z" fill="#B0CBEF"/>
<path d="M96.373 49.9621V47.0186L96.8369 47.3139V50.2568L96.373 49.9621Z" fill="#B0CBEF"/>
<path d="M95.2598 50.6536V44.9043L95.723 45.1995V50.9494L95.2598 50.6536Z" fill="#B0CBEF"/>
<path d="M82.9883 42.1387V37.8008L83.4516 38.0954V42.4339L82.9883 42.1387Z" fill="#B0CBEF"/>
<path d="M84.1035 43.555V37.8057L84.5668 38.1003V43.8502L84.1035 43.555Z" fill="#B0CBEF"/>
<path d="M85.2188 45.289V37.4902L85.682 37.7855V45.5842L85.2188 45.289Z" fill="#B0CBEF"/>
<path d="M97.4902 53.0985V45.2998L97.9535 45.5951V53.3938L97.4902 53.0985Z" fill="#B0CBEF"/>
<path d="M98.6055 54.446V45.373L99.0687 45.6683V54.7412L98.6055 54.446Z" fill="#B0CBEF"/>
<path d="M79.7122 39.0321C79.9085 37.9189 79.4232 36.4912 78.6374 35.8382C77.8481 35.191 77.0507 35.5673 76.8515 36.6794C76.658 37.7915 77.137 39.2215 77.928 39.8693C78.7202 40.5206 79.5164 40.1414 79.7122 39.0321Z" fill="#FFDE95"/>
<path d="M81.1135 40.1554C81.5061 37.9358 80.5419 35.0777 78.961 33.7803C77.3859 32.4806 75.7888 33.2309 75.4008 35.4546C75.0058 37.673 75.9741 40.5323 77.5492 41.8326C79.1301 43.1288 80.7261 42.3733 81.1135 40.1554ZM76.1762 36.0937C76.4605 34.4819 77.6268 33.9349 78.7734 34.8774C79.9136 35.8187 80.6195 37.9005 80.3363 39.5151C80.0537 41.128 78.8863 41.6768 77.7426 40.7332C76.5977 39.7913 75.8965 37.7089 76.1762 36.0937Z" fill="#B0CBEF"/>
<path d="M78.9611 33.7806C78.1063 33.0796 77.251 32.98 76.5781 33.3823L77.0605 34.5743C77.5493 34.2964 78.1602 34.3787 78.7735 34.8777C79.9137 35.819 80.6196 37.9008 80.3364 39.5155L81.1136 40.1558C81.5068 37.9362 80.542 35.0774 78.9611 33.7806Z" fill="#F85976"/>
<path d="M81.1143 40.1561L80.3371 39.5156C80.1159 40.7595 79.3788 41.3728 78.5234 41.151L78.6213 42.407C79.7957 42.7099 80.8149 41.8725 81.1143 40.1561Z" fill="#5A74B7"/>
<path d="M96.3887 62.4115C96.3053 62.3826 96.2225 62.3594 96.1397 62.3392C96.0395 62.3148 95.9399 62.2952 95.8403 62.2824C95.7737 62.2737 95.7071 62.2691 95.6405 62.2662C95.5328 62.261 95.4263 62.2639 95.3209 62.2726C95.2989 62.2743 95.2769 62.2766 95.2543 62.2789C95.1489 62.2905 95.0446 62.3067 94.9427 62.331C94.9352 62.3328 94.9277 62.3357 94.9201 62.3374C94.7887 62.3704 94.6607 62.4127 94.5374 62.4665C94.5339 62.4683 94.5298 62.47 94.5258 62.4717C94.3995 62.5273 94.2779 62.5927 94.1621 62.6692L96.691 61.0047C96.8068 60.9283 96.9284 60.8629 97.0547 60.8073C97.0587 60.8056 97.0622 60.8033 97.0663 60.8015C97.1896 60.7483 97.3176 60.7054 97.4484 60.6724C97.4536 60.6713 97.4589 60.6684 97.4641 60.6672C97.4664 60.6666 97.4693 60.6666 97.4716 60.6661C97.5735 60.6418 97.6772 60.6255 97.7831 60.614C97.8057 60.6117 97.8278 60.6093 97.8498 60.6076C97.9552 60.5989 98.0611 60.596 98.1688 60.6012C98.174 60.6012 98.1787 60.6007 98.1839 60.6012C98.2453 60.6041 98.3067 60.6099 98.3686 60.6174C98.4676 60.6302 98.5672 60.6498 98.6674 60.6742C98.675 60.6759 98.6819 60.6765 98.6894 60.6782C98.7647 60.6973 98.8406 60.7199 98.9164 60.7465C98.9211 60.7483 98.9263 60.7506 98.9309 60.7523C99.001 60.7766 99.0705 60.8033 99.14 60.8345C99.1481 60.838 99.1556 60.8432 99.1631 60.8467C99.2651 60.893 99.3664 60.9434 99.4672 61.003L125.813 76.4945C125.855 76.5188 125.896 76.5443 125.937 76.5709C126.023 76.6271 126.106 76.6879 126.187 76.7521C126.197 76.7602 126.207 76.7695 126.217 76.7776C126.279 76.828 126.34 76.8795 126.398 76.9345C126.427 76.9611 126.452 76.9924 126.48 77.0201C126.515 77.0555 126.549 77.0914 126.583 77.1284C126.651 77.2025 126.714 77.2801 126.775 77.36C126.802 77.3947 126.83 77.4283 126.855 77.4636C126.938 77.5806 127.016 77.701 127.085 77.8272C127.089 77.8336 127.091 77.8405 127.095 77.8474C127.16 77.9679 127.218 78.0918 127.269 78.2191C127.287 78.2614 127.301 78.3048 127.317 78.3482C127.351 78.4431 127.383 78.5387 127.41 78.6359C127.424 78.6851 127.436 78.7344 127.448 78.7847C127.471 78.8837 127.489 78.9839 127.504 79.0852C127.511 79.1309 127.519 79.1755 127.524 79.2212C127.54 79.3671 127.55 79.5142 127.548 79.6618L127.222 91.7897C127.207 92.8874 126.708 93.754 125.983 94.2305L123.454 95.8949C124.178 95.4179 124.678 94.5518 124.692 93.4541L125.018 81.3262C125.02 81.1786 125.011 81.0315 124.995 80.8856C124.989 80.8399 124.981 80.7948 124.974 80.7496C124.959 80.6489 124.941 80.5481 124.918 80.4491C124.907 80.3994 124.894 80.3496 124.88 80.3003C124.854 80.2031 124.822 80.1076 124.788 80.0126C124.772 79.9692 124.758 79.9258 124.74 79.8829C124.688 79.7556 124.631 79.6305 124.565 79.5101C124.562 79.5038 124.56 79.4974 124.556 79.491C124.487 79.3648 124.409 79.2444 124.326 79.1274C124.301 79.0915 124.272 79.0585 124.246 79.0238C124.185 78.9439 124.121 78.8664 124.054 78.7923C124.02 78.7558 123.985 78.7199 123.95 78.684C123.866 78.5989 123.78 78.5167 123.687 78.442C123.677 78.4333 123.667 78.4246 123.657 78.4165C123.539 78.3222 123.414 78.2353 123.283 78.1589L96.9377 62.668C96.8369 62.6084 96.7356 62.558 96.6337 62.5117C96.5566 62.4769 96.4785 62.4451 96.4015 62.4179C96.3986 62.4156 96.3933 62.4127 96.3887 62.4115Z" fill="#59559D"/>
<path d="M123.456 96.1837C123.361 96.1837 123.269 96.1379 123.214 96.0534C123.126 95.9202 123.163 95.7402 123.297 95.6528C123.989 95.1972 124.392 94.3948 124.405 93.45L124.731 81.318C124.733 81.186 124.724 81.0511 124.709 80.9168L124.697 80.8369C124.676 80.6985 124.66 80.6059 124.638 80.515L124.603 80.3767C124.579 80.2869 124.549 80.1983 124.517 80.1115L124.474 79.9922C124.426 79.8747 124.373 79.7589 124.313 79.6478C124.24 79.5146 124.169 79.4035 124.092 79.2958L124.048 79.2385C123.962 79.1267 123.903 79.0555 123.841 78.9866L123.747 78.8882C123.67 78.8101 123.591 78.7354 123.506 78.6665C123.371 78.5577 123.258 78.4783 123.139 78.4083L96.7927 62.9174C96.7012 62.8635 96.6092 62.8172 96.5165 62.7755C96.4464 62.7437 96.3764 62.7153 96.3069 62.6904L96.3885 62.4114L96.2941 62.6852C96.2194 62.6598 96.1447 62.6389 96.0706 62.6204C95.9814 62.5984 95.8928 62.581 95.8048 62.57C95.7452 62.5625 95.6861 62.5584 95.6276 62.5555C95.5332 62.5521 95.4382 62.5538 95.345 62.5613L95.2605 62.2945L95.2576 62.2962L95.2865 62.5666C95.1933 62.5764 95.1012 62.5909 95.0115 62.6123C94.8765 62.647 94.763 62.6847 94.6547 62.7321C94.5331 62.786 94.4254 62.8439 94.3235 62.9116C94.1903 62.9996 94.0102 62.9625 93.9228 62.8288C93.8347 62.6957 93.8718 62.5156 94.0056 62.4282H94.0062L96.5345 60.7638C96.6642 60.6787 96.7997 60.6057 96.9404 60.5432C97.0915 60.4772 97.2346 60.4292 97.3805 60.3927C97.5207 60.3579 97.6365 60.34 97.7546 60.3273L97.8299 60.3197C97.9463 60.3099 98.0644 60.3064 98.1849 60.3128C98.2694 60.3163 98.3378 60.3226 98.4067 60.3307C98.5179 60.3446 98.6285 60.3666 98.7391 60.3938C98.8462 60.4193 98.9296 60.4442 99.013 60.4732C99.1062 60.5067 99.1832 60.5363 99.2602 60.5704C99.3963 60.6335 99.5064 60.6891 99.6164 60.7528L125.963 76.2443C126.01 76.2721 126.054 76.2999 126.098 76.3288C126.192 76.3896 126.282 76.4562 126.37 76.5256C126.471 76.6084 126.537 76.664 126.6 76.7236C126.621 76.7433 126.641 76.7647 126.661 76.7867C126.726 76.8545 126.764 76.8933 126.8 76.9332C126.872 77.0131 126.941 77.097 127.008 77.1833L127.094 77.295C127.183 77.4218 127.267 77.5515 127.342 77.6875C127.423 77.8386 127.484 77.9724 127.541 78.1096L127.577 78.2074C127.629 78.3504 127.663 78.4535 127.692 78.5582C127.706 78.6109 127.72 78.6642 127.733 78.7186C127.757 78.8245 127.778 78.9328 127.793 79.0416C127.805 79.1175 127.811 79.1534 127.815 79.1899C127.832 79.3462 127.842 79.5048 127.84 79.6646L127.514 91.796C127.499 92.9318 127 93.9079 126.145 94.4706L123.616 96.135C123.566 96.1686 123.51 96.1837 123.456 96.1837ZM95.7353 61.9818C95.7828 61.9847 95.8303 61.9894 95.8778 61.9952C95.9872 62.009 96.0984 62.0305 96.2096 62.0577C96.3011 62.0803 96.392 62.1057 96.4835 62.137C96.4841 62.137 96.4847 62.137 96.4858 62.1376C96.4928 62.1399 96.5067 62.1457 96.5136 62.1491C96.5854 62.1735 96.6706 62.2088 96.7557 62.2476C96.8657 62.2968 96.9763 62.3529 97.0869 62.4172L123.433 77.9081C123.575 77.9915 123.711 78.0858 123.84 78.1889C123.972 78.2983 124.067 78.3875 124.158 78.4795C124.196 78.5172 124.233 78.5559 124.269 78.5959C124.342 78.6775 124.412 78.7609 124.478 78.8477L124.564 78.9594C124.653 79.0845 124.737 79.2147 124.811 79.3508C124.892 79.5013 124.954 79.6356 125.01 79.7728L125.047 79.8724C125.098 80.0142 125.132 80.1173 125.161 80.2221C125.176 80.2759 125.19 80.3292 125.202 80.3824C125.227 80.489 125.246 80.5966 125.263 80.7055L125.284 80.8525C125.301 81.01 125.311 81.1692 125.309 81.329L124.983 93.461C124.978 93.8992 124.899 94.3143 124.756 94.6906L125.825 93.9878C126.516 93.5327 126.92 92.7298 126.933 91.785L127.259 79.6536C127.261 79.5216 127.252 79.3867 127.237 79.2524L127.226 79.1742C127.204 79.0335 127.188 78.9415 127.167 78.8506C127.156 78.8037 127.145 78.7591 127.132 78.714C127.107 78.6231 127.078 78.5351 127.046 78.4483L127.002 78.3284C126.955 78.2109 126.902 78.0963 126.842 77.9851C126.769 77.8496 126.697 77.7385 126.62 77.6314L126.579 77.5775C126.491 77.4623 126.433 77.3917 126.37 77.3234C126.339 77.2892 126.308 77.2562 126.276 77.2244C126.273 77.2215 126.235 77.1815 126.232 77.1781C126.148 77.0953 126.092 77.0484 126.035 77.0021C125.934 76.9199 125.858 76.8649 125.78 76.8133L125.667 76.7427L99.3222 61.2524C99.2307 61.1986 99.1386 61.1522 99.0454 61.1106C98.962 61.0724 98.8995 61.048 98.8369 61.026C98.7553 60.9971 98.6875 60.9768 98.6192 60.9595C98.5103 60.934 98.4217 60.9166 98.3331 60.905C98.2798 60.8981 98.2248 60.8929 98.1704 60.8906C98.0609 60.8854 97.9666 60.8888 97.8739 60.8963C97.8733 60.8963 97.8154 60.9021 97.8148 60.9021C97.7216 60.912 97.6301 60.9265 97.5398 60.9479C97.4043 60.9826 97.2908 61.0202 97.1819 61.0677C97.0614 61.1216 96.9532 61.1794 96.8512 61.2466L95.7353 61.9818ZM95.3166 62.2568L95.3219 62.2719L95.3207 62.2539L95.3166 62.2568Z" fill="#F2F7FA"/>
<path d="M95.8417 62.2829C94.3239 62.0913 92.9503 63.2792 92.926 65.1104L92.5999 77.2383C92.5826 78.5287 93.2682 79.7763 94.3349 80.4056L111.658 90.5988L107.758 93.8842L120.681 95.8965C121.044 96.1107 121.416 96.2352 121.779 96.2815C123.297 96.4731 124.67 95.2852 124.695 93.4541L125.021 81.3261C125.039 80.0357 124.353 78.7846 123.286 78.1588L96.9408 62.6679C96.5765 62.4537 96.2053 62.3286 95.8417 62.2829Z" fill="#F0F0F0"/>
<path d="M122.101 96.5908C121.981 96.5908 121.862 96.5833 121.741 96.5682C121.343 96.5184 120.953 96.3858 120.581 96.174L107.711 94.1703C107.599 94.1529 107.507 94.0713 107.477 93.9624C107.446 93.853 107.482 93.7361 107.569 93.6632L111.157 90.6417L94.1864 80.6553C93.027 79.971 92.2898 78.6284 92.309 77.2344L92.635 65.1024C92.6483 64.1136 93.027 63.244 93.7022 62.6564C94.308 62.1296 95.0822 61.8951 95.8767 61.9953C96.2919 62.0474 96.6985 62.1898 97.0859 62.4179L123.432 77.9088C124.591 78.5896 125.327 79.9327 125.309 81.3297L124.983 93.4617C124.97 94.4505 124.59 95.32 123.915 95.9076C123.402 96.354 122.768 96.5908 122.101 96.5908ZM108.429 93.6956L120.724 95.6101C120.76 95.6159 120.794 95.628 120.826 95.6465C121.145 95.8341 121.478 95.9511 121.814 95.9933C122.448 96.0738 123.057 95.8874 123.536 95.47C124.085 94.9924 124.393 94.2751 124.404 93.449L124.73 81.317C124.746 80.1284 124.122 78.9845 123.139 78.4073L96.7928 62.9164C96.4732 62.7282 96.1414 62.6118 95.8043 62.569C95.1743 62.4891 94.5622 62.6755 94.0827 63.0923C93.5337 63.57 93.2257 64.2872 93.2141 65.1134L92.888 77.2454C92.8718 78.431 93.4967 79.575 94.4805 80.1556L111.803 90.3494C111.884 90.3969 111.937 90.4808 111.945 90.5746C111.953 90.6684 111.915 90.7598 111.843 90.82L108.429 93.6956Z" fill="white"/>
<path d="M121.23 84.8919V89.2304L120.768 88.9352V84.5967L121.23 84.8919Z" fill="#B0CBEF"/>
<path d="M119 84.1703V87.1139L118.537 86.8185V83.875L119 84.1703Z" fill="#B0CBEF"/>
<path d="M117.884 83.6424V86.2217L117.42 85.9263V83.3477L117.884 83.6424Z" fill="#B0CBEF"/>
<path d="M116.768 83.2738V85.1698L116.305 84.8745V82.9785L116.768 83.2738Z" fill="#B0CBEF"/>
<path d="M112.306 78.8777V83.8843L111.844 83.589V78.583L112.306 78.8777Z" fill="#B0CBEF"/>
<path d="M111.19 78.4665V82.8751L110.727 82.5798V78.1719L111.19 78.4665Z" fill="#B0CBEF"/>
<path d="M110.075 78.3177V81.6054L109.611 81.3108V78.0225L110.075 78.3177Z" fill="#B0CBEF"/>
<path d="M108.959 77.0466V81.4557L108.496 81.1605V76.752L108.959 77.0466Z" fill="#B0CBEF"/>
<path d="M107.844 76.8972V80.1849L107.381 79.8897V76.6025L107.844 76.8972Z" fill="#B0CBEF"/>
<path d="M106.728 75.6283V80.0362L106.266 79.7415V75.333L106.728 75.6283Z" fill="#B0CBEF"/>
<path d="M105.614 75.4783V78.766L105.15 78.4707V75.1836L105.614 75.4783Z" fill="#B0CBEF"/>
<path d="M120.114 83.4769V89.2268L119.65 88.9315V83.1816L120.114 83.4769Z" fill="#B0CBEF"/>
<path d="M104.496 74.2425V78.5804L104.033 78.2852V73.9473L104.496 74.2425Z" fill="#B0CBEF"/>
<path d="M102.266 73.5203V76.4639L101.803 76.1685V73.2256L102.266 73.5203Z" fill="#B0CBEF"/>
<path d="M103.381 72.8265V78.5764L102.918 78.2812V72.5312L103.381 72.8265Z" fill="#B0CBEF"/>
<path d="M115.653 81.3421V85.6806L115.189 85.3859V81.0469L115.653 81.3421Z" fill="#B0CBEF"/>
<path d="M114.537 79.9261V85.676L114.074 85.3808V79.6309L114.537 79.9261Z" fill="#B0CBEF"/>
<path d="M113.42 78.1922V85.9909L112.957 85.6956V77.8975L113.42 78.1922Z" fill="#B0CBEF"/>
<path d="M99.3299 73.4988C99.3235 72.2008 98.6894 71.0065 97.9134 70.8351C97.1409 70.6632 96.5196 71.582 96.5294 72.8828C96.5352 74.1738 97.1745 75.3728 97.943 75.547C98.7195 75.7132 99.3415 74.7979 99.3299 73.4988Z" fill="#B0CBEF"/>
<path d="M100.756 73.8421C100.737 71.2427 99.4681 68.8541 97.9243 68.5166C96.3787 68.1744 95.1377 70.0119 95.1545 72.6084C95.1742 75.2043 96.4452 77.5947 97.9874 77.934C99.5347 78.2738 100.777 76.4334 100.756 73.8421ZM95.9218 72.7723C95.9067 70.889 96.806 69.5476 97.9306 69.796C99.0546 70.0496 99.9794 71.784 99.9922 73.676C100.007 75.5621 99.1015 76.8994 97.9787 76.6528C96.8576 76.401 95.9357 74.6625 95.9218 72.7723Z" fill="#F85976"/>
<path d="M100.075 76.7931L99.4801 75.8529C99.1071 76.4637 98.5813 76.7815 97.9785 76.6524C96.858 76.4 95.9355 74.662 95.9216 72.7718L95.1543 72.6074C95.174 75.2033 96.4451 77.5937 97.9872 77.933C98.824 78.1171 99.5733 77.6626 100.075 76.7931Z" fill="#FFDE95"/>
<path d="M97.2045 69.8712L96.9219 68.6045C95.8796 69.0503 95.1389 70.6041 95.1545 72.6084L95.9218 72.7728C95.9097 71.3174 96.4465 70.196 97.2045 69.8712Z" fill="#023248"/>
<path d="M131.164 100.174C130.617 99.3064 129.445 98.5694 128.353 99.2375C128.353 99.2375 94.6849 118.39 94.5135 118.703C94.334 119.029 94.1302 119.452 94.4301 120.017C94.7382 120.58 95.2119 120.662 95.5901 120.662C96.8154 120.662 130.212 103.169 130.212 103.169C131.31 102.503 131.784 101.155 131.164 100.174Z" fill="#5A74B7"/>
<path d="M95.5906 120.951C95.3491 120.951 94.6131 120.951 94.177 120.155C93.7879 119.423 94.0948 118.864 94.2604 118.563C94.3119 118.468 94.4706 118.178 128.21 98.9855C129.401 98.2566 130.749 98.9722 131.408 100.019C131.712 100.5 131.803 101.088 131.664 101.673C131.498 102.38 131.023 103.015 130.361 103.416C124.759 106.351 96.824 120.951 95.5906 120.951ZM94.7416 118.89C94.5795 119.193 94.4747 119.483 94.686 119.881C94.9235 120.314 95.2767 120.373 95.5906 120.373C96.6984 120.234 116.824 109.855 130.078 102.912C130.591 102.6 130.97 102.097 131.102 101.541C131.205 101.101 131.142 100.682 130.919 100.328C130.511 99.6808 129.495 98.8795 128.505 99.4845C117.224 105.901 95.8436 118.105 94.7416 118.89Z" fill="white"/>
<path d="M97.7487 118.346L97.6635 118.231C97.4001 117.951 96.5749 117.305 95.1607 118.222C94.2921 118.785 92.0209 120.412 90.2026 121.727C89.7734 122.038 90.1255 122.706 90.6247 122.529C92.7476 121.774 95.3918 120.819 96.3467 120.418C97.8998 119.766 97.8309 118.721 97.7487 118.346Z" fill="#F0F0F0"/>
<path d="M90.4619 122.847C90.1932 122.847 89.9447 122.701 89.8104 122.445C89.6326 122.108 89.7253 121.716 90.0339 121.492C91.8158 120.204 94.124 118.549 95.0043 117.979C96.628 116.926 97.6119 117.753 97.8754 118.031L97.9825 118.173C98.0068 118.206 98.0236 118.243 98.0323 118.283C98.1145 118.657 98.2448 119.936 96.4595 120.685C95.4924 121.091 92.806 122.06 90.7225 122.801C90.6356 122.832 90.5476 122.847 90.4619 122.847ZM96.5388 118.038C96.2169 118.038 95.8121 118.145 95.3193 118.464C94.4495 119.028 92.1493 120.677 90.3733 121.962C90.2667 122.039 90.3026 122.137 90.3229 122.176C90.3432 122.215 90.4016 122.3 90.5285 122.256C92.6051 121.517 95.2811 120.552 96.2354 120.151C97.4996 119.621 97.5401 118.834 97.4781 118.465L97.4318 118.402C97.3038 118.269 97.0102 118.038 96.5388 118.038Z" fill="white"/>
<defs>
<radialGradient id="paint0_radial" cx="0" cy="0" r="1" gradientUnits="userSpaceOnUse" gradientTransform="translate(67.0318 66.9652) rotate(-53.9986) scale(74.764 41.6086)">
<stop stop-color="#B4BED8"/>
<stop offset="0.1782" stop-color="#C7CFE2"/>
<stop offset="0.5132" stop-color="#E6E9F2"/>
<stop offset="0.799" stop-color="#F8F9FC"/>
<stop offset="1" stop-color="white"/>
</radialGradient>
</defs>
</svg>
