<svg width="32" height="32" viewBox="0 0 32 32" fill="none" xmlns="http://www.w3.org/2000/svg">
<path d="M15.9958 11.5537C13.5475 11.5537 11.5495 13.5518 11.5495 16.0001C11.5495 18.4484 13.5475 20.4464 15.9958 20.4464C18.444 20.4464 20.442 18.4484 20.442 16.0001C20.442 13.5518 18.444 11.5537 15.9958 11.5537ZM29.3312 16.0001C29.3312 14.1588 29.3479 12.3343 29.2445 10.4964C29.1411 8.36159 28.6541 6.46697 27.0931 4.90592C25.5287 3.34153 23.6375 2.85787 21.5027 2.75447C19.6615 2.65106 17.837 2.66774 15.9991 2.66774C14.1579 2.66774 12.3334 2.65106 10.4955 2.75447C8.36075 2.85787 6.46617 3.34486 4.90515 4.90592C3.34078 6.47031 2.85713 8.36159 2.75373 10.4964C2.65033 12.3376 2.66701 14.1622 2.66701 16.0001C2.66701 17.838 2.65033 19.6659 2.75373 21.5038C2.85713 23.6386 3.34412 25.5332 4.90515 27.0942C6.46951 28.6586 8.36075 29.1423 10.4955 29.2457C12.3367 29.3491 14.1612 29.3324 15.9991 29.3324C17.8403 29.3324 19.6648 29.3491 21.5027 29.2457C23.6375 29.1423 25.532 28.6553 27.0931 27.0942C28.6574 25.5299 29.1411 23.6386 29.2445 21.5038C29.3512 19.6659 29.3312 17.8413 29.3312 16.0001ZM15.9958 22.8414C12.2099 22.8414 9.1546 19.786 9.1546 16.0001C9.1546 12.2142 12.2099 9.15879 15.9958 9.15879C19.7816 9.15879 22.8369 12.2142 22.8369 16.0001C22.8369 19.786 19.7816 22.8414 15.9958 22.8414ZM23.1171 10.4763C22.2332 10.4763 21.5194 9.76253 21.5194 8.8786C21.5194 7.99467 22.2332 7.28086 23.1171 7.28086C24.001 7.28086 24.7148 7.99467 24.7148 8.8786C24.7151 9.0885 24.6739 9.29638 24.5937 9.49035C24.5135 9.68431 24.3959 9.86055 24.2475 10.009C24.099 10.1574 23.9228 10.2751 23.7288 10.3553C23.5349 10.4355 23.327 10.4766 23.1171 10.4763Z" fill="#122861"/>
</svg>
