<svg width="32" height="32" viewBox="0 0 32 32" fill="none" xmlns="http://www.w3.org/2000/svg">
<path d="M29.3327 16.0001C29.3327 19.5363 27.9279 22.9277 25.4274 25.4282C22.927 27.9287 19.5356 29.3334 15.9993 29.3334C12.4631 29.3334 9.07174 27.9287 6.57126 25.4282C4.07077 22.9277 2.66602 19.5363 2.66602 16.0001C2.66602 12.4639 4.07077 9.07248 6.57126 6.57199C9.07174 4.07151 12.4631 2.66675 15.9993 2.66675C19.5356 2.66675 22.927 4.07151 25.4274 6.57199C27.9279 9.07248 29.3327 12.4639 29.3327 16.0001ZM16.4777 12.5101C15.181 13.0501 12.5877 14.1667 8.70102 15.8601C8.07102 16.1101 7.73935 16.3567 7.70935 16.5967C7.65935 17.0017 8.16768 17.1617 8.85935 17.3801L9.15102 17.4717C9.83102 17.6934 10.7477 17.9517 11.2227 17.9617C11.656 17.9717 12.1377 17.7951 12.6693 17.4284C16.301 14.9767 18.176 13.7384 18.2927 13.7117C18.376 13.6917 18.4927 13.6684 18.5693 13.7384C18.6477 13.8067 18.6394 13.9384 18.631 13.9734C18.581 14.1884 16.586 16.0417 15.5543 17.0017C15.2327 17.3017 15.0043 17.5134 14.9577 17.5617C14.8549 17.6668 14.7505 17.7701 14.6443 17.8717C14.011 18.4817 13.5377 18.9384 14.6693 19.6851C15.2143 20.0451 15.651 20.3401 16.086 20.6367C16.5594 20.9601 17.0327 21.2817 17.646 21.6851C17.801 21.7851 17.951 21.8934 18.096 21.9967C18.6477 22.3901 19.146 22.7434 19.7577 22.6867C20.1143 22.6534 20.4827 22.3201 20.6693 21.3201C21.111 18.9584 21.9794 13.8434 22.1793 11.7351C22.1916 11.5598 22.1843 11.3837 22.1577 11.2101C22.142 11.07 22.0742 10.9408 21.9677 10.8484C21.816 10.7437 21.6352 10.6895 21.451 10.6934C20.951 10.7017 20.1793 10.9701 16.4777 12.5101Z" fill="#122861"/>
</svg>
