<svg width="300" height="300" viewBox="0 0 300 300" fill="none" xmlns="http://www.w3.org/2000/svg">
<path d="M0.960775 205.408C-7.01242 270.332 35.5158 298.163 95.9814 267.575C156.439 236.924 211.872 159.513 219.845 94.5871C227.822 29.6298 185.314 1.79993 124.853 32.4839C64.3883 63.0692 8.92724 140.546 0.960775 205.408Z" fill="url(#paint0_radial)"/>
<path d="M126.485 206.376L126.447 207.154C126.338 209.359 127.421 211.443 129.277 212.629L168.954 237.602C173.66 240.604 179.138 241.206 184.107 238.647L202.976 229.284L200.549 228.398L199.422 228.243L126.485 206.376Z" fill="#023248"/>
<path d="M127.927 209.21L170.183 235.97C174.193 238.554 179.276 238.803 183.519 236.623L200.549 228.397L170.415 208.974L128.194 203.743C126.031 204.855 125.882 207.892 127.927 209.21Z" fill="#5B5C70"/>
<path d="M129.996 203.832L184.954 215.099L186.407 216.153L185.061 238.176H185.06L171.465 244.913C166.496 247.471 160.551 247.19 155.845 244.187L116.168 219.214C114.313 218.028 113.231 215.944 113.339 213.739L129.996 203.832Z" fill="#023248"/>
<path d="M182.61 237.273L129.295 203.387L130.409 180.647L183.687 215.282L182.61 237.273Z" fill="#5B5C70"/>
<path d="M114.819 215.795L157.076 242.555C161.086 245.139 166.169 245.388 170.412 243.208L182.633 237.289L129.296 203.388L115.087 210.329C112.924 211.44 112.774 214.477 114.819 215.795Z" fill="#B4BED8"/>
<path d="M132.927 33.8593L257.576 115.994C267.249 121.907 265.867 129.935 264.694 138.979L245.36 248.603C244.224 258.639 240.037 260 240.037 260L115.07 178.385C109.372 174.712 105.12 165.59 106.293 156.546L121.969 32.6872C121.969 32.6872 126.976 31.9099 128.737 32.1785C129.651 32.3167 130.964 32.5929 132.927 33.8593Z" fill="#023248"/>
<path d="M93.0391 165.582L114.767 43.59C115.715 36.2671 119.565 32.0086 124.025 32.6303C125.054 32.7674 126.143 33.1654 127.216 33.866L253.581 115.813C264.009 122.213 262.942 129.8 261.765 138.839L240.034 259.998L93.0391 165.582Z" fill="#F2F7FA"/>
<path d="M98.5938 150.099L238.812 240.696L257.647 139.057C258.686 130.766 259.862 125.91 252.858 121.374L124.822 38.3589C122.951 37.1506 120.67 37.507 119.217 38.8391C118.49 39.5123 117.978 40.4223 117.805 41.5001L98.5938 150.099Z" fill="#005478"/>
<path d="M239.202 241.601L97.9902 150.362L98.0538 150.003L117.265 41.4048C117.45 40.2514 117.996 39.2229 118.844 38.4368C120.574 36.8503 123.154 36.6299 125.119 37.8985L253.156 120.914C259.981 125.335 259.35 130.179 258.398 137.511L258.19 139.125L239.202 241.601ZM99.1974 149.836L238.422 239.791L257.107 138.956L257.31 137.368C258.274 129.96 258.804 125.878 252.559 121.833L124.523 38.8183C122.98 37.8228 120.948 37.9971 119.587 39.2427C118.924 39.8577 118.493 40.6691 118.346 41.5868L99.1974 149.836Z" fill="white"/>
<path d="M218.061 129.051L204.148 120.133L204.447 118.681L218.36 127.597L218.061 129.051Z" fill="#1483B5"/>
<path d="M223.366 132.453L221.389 131.186L221.687 129.731L223.664 130.998L223.366 132.453Z" fill="#1483B5"/>
<path d="M214.162 140.112L214.46 138.658L217.124 140.365L216.825 141.819L214.162 140.112Z" fill="#1483B5"/>
<path d="M235.787 157.426L236.085 155.971L238.9 157.776L238.602 159.231L235.787 157.426Z" fill="#1483B5"/>
<path d="M235.16 160.474L235.459 159.019L238.274 160.824L237.976 162.28L235.16 160.474Z" fill="#1483B5"/>
<path d="M228.758 139.16L208.102 126.039C208.097 126.036 208.091 126.03 208.086 126.027L208.383 124.575C208.389 124.579 208.394 124.581 208.4 124.584L229.055 137.705L228.758 139.16Z" fill="#1483B5"/>
<path d="M213.929 133.065L207.477 129.087C207.472 129.084 207.466 129.078 207.461 129.075L207.758 127.625C207.764 127.628 207.769 127.629 207.775 127.633L214.227 131.611L213.929 133.065Z" fill="#1483B5"/>
<path d="M216.603 138.228L206.852 132.135C206.847 132.132 206.841 132.126 206.836 132.123L207.133 130.672C207.139 130.676 207.144 130.677 207.15 130.681L216.9 136.774L216.603 138.228Z" fill="#1483B5"/>
<path d="M232.831 176.513L223.081 170.421C223.075 170.417 223.071 170.412 223.064 170.409L223.362 168.957C223.367 168.96 223.373 168.963 223.379 168.966L233.13 175.059L232.831 176.513Z" fill="#1483B5"/>
<path d="M216.381 144.984L205.602 138.231C205.597 138.228 205.593 138.222 205.586 138.219C205.586 138.219 205.895 136.773 205.901 136.776L216.679 143.529L216.381 144.984Z" fill="#1483B5"/>
<path d="M219.367 143.449L219.665 141.994L229.893 148.552L229.595 150.007L219.367 143.449Z" fill="#1483B5"/>
<path d="M211.189 145.098C211.174 145.09 211.161 145.086 211.147 145.077L204.977 141.28C204.972 141.277 204.968 141.272 204.961 141.268L205.258 139.818C205.264 139.821 205.269 139.822 205.276 139.827L211.445 143.623C211.458 143.632 211.47 143.644 211.483 143.654L211.189 145.098Z" fill="#1483B5"/>
<path d="M211.74 148.908L204.35 144.328C204.345 144.325 204.341 144.32 204.334 144.316L204.631 142.866C204.637 142.869 204.642 142.87 204.648 142.874L212.039 147.453L211.74 148.908Z" fill="#1483B5"/>
<path d="M219.705 150.565C219.692 150.557 219.682 150.546 219.67 150.537L219.966 149.091C219.979 149.098 219.991 149.102 220.003 149.11L226.261 153.123L225.962 154.578L219.705 150.565Z" fill="#1483B5"/>
<path d="M230.36 157.396L228.666 156.31L228.964 154.855L230.659 155.942L230.36 157.396Z" fill="#1483B5"/>
<path d="M246.14 147.055L235.066 139.955L235.365 138.5L246.438 145.6L246.14 147.055Z" fill="#1483B5"/>
<path d="M213.31 146.464L213.305 146.46L213.603 145.007L213.608 145.009L217.265 147.353L216.967 148.808L213.31 146.464Z" fill="#1483B5"/>
<path d="M212.155 159.847L201.377 153.094C201.371 153.091 201.367 153.085 201.361 153.082C201.361 153.082 201.669 151.636 201.676 151.639L212.455 158.392L212.155 159.847Z" fill="#1483B5"/>
<path d="M206.962 159.961C206.948 159.953 206.935 159.949 206.92 159.94L200.751 156.143C200.745 156.14 200.74 156.135 200.734 156.131L201.031 154.68C201.037 154.683 201.042 154.685 201.048 154.688L207.217 158.485C207.232 158.494 207.243 158.506 207.257 158.516L206.962 159.961Z" fill="#1483B5"/>
<path d="M207.516 163.771L200.126 159.191C200.12 159.188 200.115 159.183 200.109 159.178L200.406 157.728C200.412 157.731 200.417 157.733 200.423 157.736L207.813 162.316L207.516 163.771Z" fill="#1483B5"/>
<path d="M215.48 165.428C215.468 165.42 215.457 165.409 215.445 165.4L215.742 163.954C215.754 163.961 215.767 163.965 215.78 163.973L222.038 167.986L221.74 169.441L215.48 165.428Z" fill="#1483B5"/>
<path d="M209.086 161.327L209.08 161.324L209.378 159.87L209.384 159.872L213.04 162.216L212.741 163.671L209.086 161.327Z" fill="#1483B5"/>
<path d="M216.381 134.636L216.68 133.181L221.309 136.15L221.011 137.605L216.381 134.636Z" fill="#1483B5"/>
<path d="M231.737 137.821L227.461 135.079L227.759 133.624L232.035 136.366L231.737 137.821Z" fill="#1483B5"/>
<path d="M210.703 155.255L196.791 146.337L197.088 144.884L211.002 153.8L210.703 155.255Z" fill="#1483B5"/>
<path d="M216.01 158.656L214.033 157.389L214.331 155.935L216.308 157.201L216.01 158.656Z" fill="#1483B5"/>
<path d="M238.784 173.259L227.709 166.158L228.008 164.704L239.082 171.804L238.784 173.259Z" fill="#1483B5"/>
<path d="M224.381 164.024L220.104 161.282L220.402 159.827L224.679 162.569L224.381 164.024Z" fill="#1483B5"/>
<path d="M234.535 163.522L234.833 162.068L237.649 163.873L237.35 165.328L234.535 163.522Z" fill="#1483B5"/>
<path d="M212.044 138.754L206.227 135.184C206.222 135.181 206.218 135.176 206.211 135.172L206.508 133.721C206.514 133.724 206.519 133.726 206.526 133.729L212.342 137.299L212.044 138.754Z" fill="#1483B5"/>
<path d="M234.478 146.209L223.795 139.389L224.093 137.935L234.778 144.754L234.478 146.209Z" fill="#1483B5"/>
<path d="M221.137 158.266L201.061 145.667L201.049 145.657L201.346 144.206L201.359 144.212L221.437 156.811L221.137 158.266Z" fill="#1483B5"/>
<path d="M207.219 166.978L193.307 158.06L193.605 156.608L207.517 165.524L207.219 166.978Z" fill="#1483B5"/>
<path d="M212.526 170.38L210.549 169.113L210.847 167.658L212.824 168.925L212.526 170.38Z" fill="#1483B5"/>
<path d="M203.32 178.039L203.619 176.584L206.281 178.292L205.982 179.746L203.32 178.039Z" fill="#1483B5"/>
<path d="M224.943 195.353L225.243 193.898L228.057 195.703L227.759 197.159L224.943 195.353Z" fill="#1483B5"/>
<path d="M224.32 198.401L224.619 196.946L227.433 198.752L227.134 200.206L224.32 198.401Z" fill="#1483B5"/>
<path d="M217.918 177.087L197.263 163.966C197.257 163.963 197.252 163.957 197.246 163.954L197.543 162.504C197.549 162.507 197.554 162.508 197.561 162.512L218.216 175.633L217.918 177.087Z" fill="#1483B5"/>
<path d="M203.088 170.992L196.636 167.014C196.63 167.011 196.626 167.005 196.619 167.001L196.916 165.551C196.922 165.554 196.927 165.555 196.934 165.559L203.385 169.537L203.088 170.992Z" fill="#1483B5"/>
<path d="M205.761 176.155L196.011 170.062C196.005 170.059 196.001 170.053 195.994 170.049L196.291 168.599C196.297 168.602 196.302 168.603 196.309 168.607L206.059 174.7L205.761 176.155Z" fill="#1483B5"/>
<path d="M221.99 214.441L212.239 208.348C212.234 208.345 212.229 208.339 212.223 208.336L212.521 206.885C212.526 206.889 212.532 206.89 212.537 206.894L222.288 212.987L221.99 214.441Z" fill="#1483B5"/>
<path d="M205.539 182.911L194.761 176.159C194.755 176.156 194.751 176.151 194.744 176.146C194.744 176.146 195.053 174.7 195.059 174.704L205.838 181.457L205.539 182.911Z" fill="#1483B5"/>
<path d="M208.525 181.376L208.824 179.921L219.05 186.479L218.752 187.934L208.525 181.376Z" fill="#1483B5"/>
<path d="M200.346 183.025C200.331 183.017 200.318 183.014 200.305 183.004L194.134 179.207C194.129 179.204 194.125 179.199 194.119 179.195L194.416 177.745C194.422 177.748 194.428 177.749 194.434 177.754L200.603 181.55C200.616 181.559 200.628 181.572 200.643 181.581L200.346 183.025Z" fill="#1483B5"/>
<path d="M200.9 186.835L193.511 182.255C193.505 182.252 193.5 182.247 193.494 182.243L193.792 180.793C193.798 180.796 193.803 180.797 193.809 180.802L201.199 185.38L200.9 186.835Z" fill="#1483B5"/>
<path d="M208.865 188.492C208.853 188.484 208.842 188.473 208.83 188.465L209.127 187.018C209.139 187.025 209.151 187.029 209.164 187.037L215.422 191.05L215.123 192.505L208.865 188.492Z" fill="#1483B5"/>
<path d="M219.519 195.324L217.824 194.237L218.122 192.782L219.817 193.869L219.519 195.324Z" fill="#1483B5"/>
<path d="M235.298 184.983L224.225 177.882L224.523 176.427L235.597 183.528L235.298 184.983Z" fill="#1483B5"/>
<path d="M202.468 184.391L202.463 184.387L202.761 182.934L202.767 182.936L206.422 185.281L206.124 186.735L202.468 184.391Z" fill="#1483B5"/>
<path d="M201.314 197.774L190.535 191.021L190.52 191.009L190.834 189.567L201.613 196.319L201.314 197.774Z" fill="#1483B5"/>
<path d="M196.121 197.888C196.107 197.88 196.095 197.876 196.08 197.867L189.911 194.07C189.905 194.067 189.9 194.062 189.895 194.058L190.192 192.608C190.197 192.611 190.203 192.612 190.208 192.617L196.378 196.413C196.392 196.422 196.403 196.435 196.417 196.444L196.121 197.888Z" fill="#1483B5"/>
<path d="M196.674 201.698L189.284 197.118C189.279 197.115 189.273 197.11 189.268 197.106L189.565 195.656C189.57 195.659 189.576 195.66 189.581 195.664L196.971 200.243L196.674 201.698Z" fill="#1483B5"/>
<path d="M204.637 203.355C204.625 203.347 204.614 203.336 204.602 203.327L204.899 201.881C204.911 201.888 204.923 201.892 204.936 201.901L211.194 205.913L210.896 207.368L204.637 203.355Z" fill="#1483B5"/>
<path d="M198.243 199.254L198.238 199.25L198.536 197.797L198.541 197.799L202.197 200.143L201.899 201.598L198.243 199.254Z" fill="#1483B5"/>
<path d="M205.539 172.563L205.837 171.108L210.466 174.076L210.168 175.532L205.539 172.563Z" fill="#1483B5"/>
<path d="M220.897 175.748L216.621 173.006L216.919 171.551L221.195 174.293L220.897 175.748Z" fill="#1483B5"/>
<path d="M199.863 193.182L185.949 184.263L186.247 182.811L200.161 191.727L199.863 193.182Z" fill="#1483B5"/>
<path d="M205.168 196.583L203.191 195.316L203.49 193.861L205.466 195.129L205.168 196.583Z" fill="#1483B5"/>
<path d="M227.941 211.187L216.867 204.086L217.165 202.63L228.239 209.732L227.941 211.187Z" fill="#1483B5"/>
<path d="M213.539 201.951L209.262 199.209L209.561 197.754L213.837 200.496L213.539 201.951Z" fill="#1483B5"/>
<path d="M223.695 201.45L223.994 199.995L226.809 201.8L226.51 203.255L223.695 201.45Z" fill="#1483B5"/>
<path d="M201.202 176.681L195.386 173.111C195.38 173.108 195.376 173.103 195.369 173.098L195.666 171.648C195.672 171.651 195.677 171.652 195.684 171.656L201.5 175.226L201.202 176.681Z" fill="#1483B5"/>
<path d="M223.638 184.136L212.953 177.316L213.251 175.861L223.936 182.682L223.638 184.136Z" fill="#1483B5"/>
<path d="M210.296 196.193L190.219 183.594L190.207 183.584L190.504 182.133L190.517 182.139L210.595 194.738L210.296 196.193Z" fill="#1483B5"/>
<path d="M128.815 126.762L128.514 128.23L125.674 126.409L125.975 124.942L128.815 126.762Z" fill="#1483B5"/>
<path d="M129.445 123.687L129.143 125.154L126.305 123.334L126.605 121.866L129.445 123.687Z" fill="#1483B5"/>
<path d="M153.629 139.199C153.644 139.207 153.657 139.211 153.671 139.22L159.895 143.051C159.901 143.054 159.905 143.06 159.912 143.063L159.611 144.527C159.606 144.523 159.6 144.522 159.594 144.518L153.37 140.687C153.355 140.678 153.344 140.665 153.33 140.656L153.629 139.199Z" fill="#1483B5"/>
<path d="M153.071 135.355L160.527 139.974L160.542 139.988L160.242 141.451L160.225 141.443L152.77 136.823L153.071 135.355Z" fill="#1483B5"/>
<path d="M145.038 133.684C145.051 133.692 145.062 133.703 145.074 133.712L144.775 135.171C144.763 135.163 144.75 135.16 144.738 135.151L138.426 131.104L138.726 129.636L145.038 133.684Z" fill="#1483B5"/>
<path d="M134.289 126.792L135.998 127.888L135.698 129.356L133.988 128.259L134.289 126.792Z" fill="#1483B5"/>
<path d="M151.489 137.821L151.494 137.824L151.193 139.291L151.187 139.288L147.5 136.923L147.8 135.456L151.489 137.821Z" fill="#1483B5"/>
<path d="M130.077 120.612L129.775 122.08L126.936 120.259L127.237 118.792L130.077 120.612Z" fill="#1483B5"/>
<path d="M141.868 99.3053L164.1 113.428C164.107 113.431 164.112 113.438 164.118 113.441L163.797 115.003C163.791 114.999 163.785 114.997 163.779 114.994L141.547 100.872L141.868 99.3053Z" fill="#1483B5"/>
<path d="M157.831 105.865L164.776 110.147C164.781 110.15 164.787 110.155 164.793 110.16L164.473 111.722C164.468 111.719 164.461 111.717 164.454 111.712L157.51 107.431L157.831 105.865Z" fill="#1483B5"/>
<path d="M145.432 67.3579L154.886 73.2654L154.902 73.2774L154.612 74.6841L154.597 74.6754L145.143 68.769L145.432 67.3579Z" fill="#1483B5"/>
<path d="M157.31 78.2584L175.93 90.0646C175.936 90.0679 175.94 90.0734 175.946 90.0767C175.946 90.0767 175.646 91.4779 175.641 91.4746L157.021 79.6684L157.31 78.2584Z" fill="#1483B5"/>
<path d="M170.515 83.4072C170.528 83.4149 170.541 83.4182 170.554 83.427L176.536 87.1087C176.542 87.112 176.546 87.1175 176.552 87.1208L176.263 88.5275C176.258 88.5242 176.252 88.5231 176.247 88.5187L170.264 84.8369C170.251 84.8282 170.24 84.8161 170.227 84.8074L170.515 83.4072Z" fill="#1483B5"/>
<path d="M169.977 79.7135L177.142 84.1529C177.147 84.1561 177.152 84.1616 177.157 84.1649L176.869 85.5716C176.864 85.5683 176.858 85.5672 176.853 85.564L169.688 81.1235L169.977 79.7135Z" fill="#1483B5"/>
<path d="M162.256 78.1071C162.268 78.1148 162.279 78.1257 162.29 78.1334L162.003 79.5357C161.991 79.5291 161.979 79.5248 161.967 79.5171L155.9 75.627L156.19 74.2159L162.256 78.1071Z" fill="#1483B5"/>
<path d="M168.457 82.0828L168.462 82.0872L168.173 83.4961L168.168 83.4928L164.623 81.2199L164.913 79.8099L168.457 82.0828Z" fill="#1483B5"/>
<path d="M155.193 104.174L154.872 105.74L149.889 102.545L150.21 100.978L155.193 104.174Z" fill="#1483B5"/>
<path d="M135.802 160.526L150.821 170.153L150.5 171.72L135.48 162.096L135.802 160.526Z" fill="#1483B5"/>
<path d="M132.168 158.125L134.302 159.494L133.98 161.064L131.846 159.696L132.168 158.125Z" fill="#1483B5"/>
<path d="M111.537 145.089L123.492 152.755L123.17 154.326L111.215 146.66L111.537 145.089Z" fill="#1483B5"/>
<path d="M124.869 153.594L129.485 156.554L129.164 158.126L124.547 155.164L124.869 153.594Z" fill="#1483B5"/>
<path d="M135.714 91.718L147.213 99.0585L146.892 100.624L135.393 93.2837L135.714 91.718Z" fill="#1483B5"/>
<path d="M128.37 159.811L150.045 173.412L150.058 173.423L149.737 174.989L149.723 174.983L128.049 161.382L128.37 159.811Z" fill="#1483B5"/>
<path d="M122.173 61.012L120.01 72.0265L119.998 72.0846L119.309 75.5997C119.338 75.6184 151.371 96.0906 172.645 109.687L172.641 109.704H172.67C183.227 116.451 191.141 121.51 191.141 121.51L191.832 117.995L191.866 117.821L194.007 106.921C193.96 106.894 122.173 61.012 122.173 61.012ZM120.225 71.9684L120.899 68.5377L137.779 79.3253L137.106 82.756L120.225 71.9684ZM192.414 113.984L174.279 102.394L174.953 98.9621L193.088 110.553L192.414 113.984ZM174.771 98.8459L174.097 102.278L138.006 79.2102L138.68 75.7784L174.771 98.8459ZM138.725 75.5471L139.37 72.2633L175.46 95.3308L174.817 98.6145L138.725 75.5471ZM191.695 117.648L173.561 106.058L174.234 102.626L192.369 114.216L191.695 117.648ZM173.379 105.942L137.286 82.8722L137.961 79.4416L174.052 102.51L173.379 105.942ZM121.619 64.8735L138.498 75.6611L137.824 79.0929L120.944 68.3053L121.619 64.8735ZM122.309 61.3584L139.189 72.1471L138.544 75.4309L121.665 64.6433L122.309 61.3584ZM193.778 107.038L193.133 110.321L174.998 98.7297L175.642 95.4459L193.778 107.038ZM191.004 121.164L172.871 109.574L173.515 106.289C183.118 112.427 190.484 117.134 191.649 117.878L191.004 121.164ZM172.689 109.457L123.872 78.2552L124.517 74.9726C134.09 81.0917 156.908 95.674 173.334 106.173L172.689 109.457ZM120.18 72.2008C120.645 72.498 122.119 73.4398 124.335 74.8563L123.691 78.139L119.536 75.4835L120.18 72.2008Z" fill="#B4BED8"/>
<path d="M116.338 90.1864L114.174 101.201L114.162 101.26L113.473 104.775C113.503 104.794 145.535 125.266 166.809 138.863L166.805 138.879H166.834C177.391 145.627 185.305 150.685 185.305 150.685L185.996 147.17L186.03 146.997L188.171 136.097C188.124 136.068 116.338 90.1864 116.338 90.1864ZM114.39 101.143L115.064 97.7122L131.943 108.5L131.269 111.932L114.39 101.143ZM186.578 143.16L168.444 131.569L169.117 128.138L187.252 139.729L186.578 143.16ZM168.936 128.02L168.263 131.452L132.171 108.384L132.845 104.952L168.936 128.02ZM132.889 104.722L133.534 101.437L169.624 124.504L168.981 127.789L132.889 104.722ZM185.859 146.823L167.725 135.233L168.399 131.8L186.533 143.39L185.859 146.823ZM167.543 135.116L131.451 112.047L132.125 108.616L168.217 131.685L167.543 135.116ZM115.783 94.048L132.662 104.837L131.988 108.268L115.109 97.4809L115.783 94.048ZM116.474 90.5329L133.353 101.322L132.708 104.605L115.829 93.8166L116.474 90.5329ZM187.942 136.213L187.297 139.495L169.162 127.905L169.805 124.621L187.942 136.213ZM185.168 150.339L167.035 138.749L167.679 135.464C177.283 141.602 184.648 146.31 185.813 147.053L185.168 150.339ZM166.854 138.632L118.037 107.43L118.682 104.147C128.256 110.266 151.073 124.848 167.499 135.348L166.854 138.632ZM114.344 101.376C114.809 101.674 116.283 102.614 118.5 104.031L117.855 107.313L113.7 104.658L114.344 101.376Z" fill="#B4BED8"/>
<path d="M110.503 119.361L108.34 130.375L108.327 130.434L107.637 133.949C107.667 133.968 139.699 154.439 160.973 168.036L160.97 168.053H160.998C171.555 174.8 179.469 179.858 179.469 179.858L180.159 176.342L180.193 176.169L182.334 165.269C182.29 165.242 110.503 119.361 110.503 119.361ZM108.556 130.317L109.23 126.887L126.109 137.674L125.435 141.105L108.556 130.317ZM180.743 172.334L162.609 160.744L163.282 157.311L181.418 168.902L180.743 172.334ZM163.101 157.195L162.428 160.628L126.335 137.559L127.009 134.127L163.101 157.195ZM127.055 133.896L127.7 130.612L163.791 153.68L163.147 156.963L127.055 133.896ZM180.024 175.997L161.891 164.407L162.564 160.975L180.698 172.565L180.024 175.997ZM161.71 164.292L125.617 141.222L126.291 137.792L162.383 160.86L161.71 164.292ZM109.949 123.224L126.828 134.011L126.154 137.443L109.275 126.655L109.949 123.224ZM110.64 119.707L127.519 130.496L126.874 133.78L109.995 122.992L110.64 119.707ZM182.108 165.388L181.464 168.671L163.328 157.08L163.971 153.796L182.108 165.388ZM179.333 179.512L161.2 167.922L161.844 164.637C171.447 170.775 178.814 175.482 179.978 176.226L179.333 179.512ZM161.019 167.807L112.201 136.605L112.846 133.323C122.421 139.442 145.237 154.024 161.664 164.523L161.019 167.807ZM108.509 130.551C108.974 130.848 110.448 131.79 112.665 133.206L112.02 136.489L107.865 133.833L108.509 130.551Z" fill="#B4BED8"/>
<path d="M67.1898 178.194C66.7096 179.846 63.9718 179.557 64.6341 181.622C65.2152 183.434 65.532 185.093 65.2886 185.25C64.7996 185.565 63.553 181.863 62.9193 180.37C62.2867 178.877 62.0389 177.364 61.392 177.727C60.6596 178.136 60.2166 180.472 59.9074 180.497C58.4295 180.627 59.3077 176.279 60.7637 175.582C62.3174 174.839 53.7193 163.473 53.8651 158.907L60.2682 158.172C60.2682 158.172 63.4807 171.098 65.2788 173.468C65.9695 174.377 67.8115 176.057 67.1898 178.194Z" fill="#FDABAB"/>
<path d="M66.1599 149.891C63.1273 154.637 61.8192 158.214 61.1285 159.725C60.4355 161.235 53.4536 162.708 53.3473 159.945C53.0852 152.938 56.2582 147.272 58.8468 143.394C61.9179 138.797 64.7927 136.041 67.8846 138.447C70.6278 140.585 69.7178 144.317 66.1599 149.891Z" fill="#EBEBEB"/>
<path d="M70.1679 240.813C70.6919 241.947 69.7282 243.767 68.7842 244.584C67.7459 245.483 61.5128 250.879 57.467 249.329C56.978 249.142 56.4868 248.913 56.1382 248.525C55.5319 247.854 56.3881 244.19 57.0635 243.533C57.9461 242.67 69.7414 239.883 70.1679 240.813Z" fill="#FFDE95"/>
<path d="M62.9437 240.297C65.8076 239.186 69.5727 239.307 70.0025 240.236C70.5244 241.371 68.9411 243.299 68.0026 244.125C65.3065 246.49 59.8716 249.013 57.9079 248.356C57.4124 248.191 56.487 247.834 56.1372 247.446C55.5309 246.775 56.089 244.428 56.8104 243.729C57.4913 243.071 61.4351 240.884 62.9437 240.297Z" fill="#F95A75"/>
<path d="M61.6153 246.792C61.9314 246.792 62.1876 246.461 62.1876 246.052C62.1876 245.643 61.9314 245.312 61.6153 245.312C61.2992 245.312 61.043 245.643 61.043 246.052C61.043 246.461 61.2992 246.792 61.6153 246.792Z" fill="#FFDE95"/>
<path d="M57.6867 242.962L58.8204 244.459L58.5298 244.996C57.9673 245.805 58.0595 248.457 58.0595 248.457C56.7514 248.359 56.2986 247.6 56.2986 247.6C55.962 244.984 57.019 243.979 57.019 243.979L57.6867 242.962Z" fill="#FFDE95"/>
<path d="M64.178 241.475C64.4115 241.991 63.9697 243.436 61.4655 244.5C60.5741 244.88 59.4886 245.155 58.5304 244.996C58.6543 244.603 58.4821 244.138 58.1324 243.922C57.7771 243.702 57.3539 243.79 57.0195 243.978C57.2125 243.32 57.3177 242.633 57.4383 241.955C58.1422 242.075 63.4401 239.852 64.178 241.475Z" fill="#FDABAB"/>
<path d="M65.6517 209.171C65.485 216.197 63.7165 241.14 63.7165 241.14C63.7165 241.14 61.0873 243.584 56.092 241.658C56.092 241.658 54.7478 223.278 54.3005 218.314C53.8532 213.35 54.6656 209.06 55.0789 208.129C56.2028 205.613 65.8216 202.147 65.6517 209.171Z" fill="#023248"/>
<path d="M56.7515 171.724C57.9466 170.818 61.6273 170.289 65.3266 173.508C71.984 179.301 65.5766 206.639 65.5766 211.253C65.5766 216.016 55.983 215.559 54.8734 209.175C54.1278 204.888 52.3231 190.02 52.0918 187.329C51.8385 184.391 51.8056 175.462 56.7515 171.724Z" fill="#023248"/>
<path d="M81.1094 246.18C81.6335 247.314 80.6698 249.134 79.7268 249.953C78.6885 250.851 72.4554 256.246 68.4086 254.696C67.9207 254.509 67.4317 254.279 67.0797 253.891C66.4734 253.221 67.3286 249.557 68.0051 248.899C68.8899 248.036 80.6829 245.249 81.1094 246.18Z" fill="#FFDE95"/>
<path d="M73.887 245.664C76.7509 244.553 80.5159 244.675 80.9457 245.602C81.4676 246.738 79.8866 248.666 78.9459 249.491C76.2498 251.86 70.816 254.384 68.8512 253.722C68.3545 253.558 67.4325 253.201 67.0805 252.813C66.4742 252.141 67.0323 249.795 67.757 249.096C68.4346 248.44 72.3784 246.25 73.887 245.664Z" fill="#F95A75"/>
<path d="M72.5604 252.159C72.8752 252.159 73.1305 251.828 73.1305 251.419C73.1305 251.01 72.8752 250.679 72.5604 250.679C72.2455 250.679 71.9902 251.01 71.9902 251.419C71.9902 251.828 72.2455 252.159 72.5604 252.159Z" fill="#FFDE95"/>
<path d="M68.6322 248.329L69.7637 249.825L69.4732 250.362C68.9129 251.171 69.0028 253.822 69.0028 253.822C67.6948 253.725 67.242 252.969 67.242 252.969C66.9054 250.35 67.9623 249.345 67.9623 249.345L68.6322 248.329Z" fill="#FFDE95"/>
<path d="M75.1214 246.841C75.3582 247.361 74.9141 248.803 72.4099 249.866C71.5186 250.247 70.4331 250.522 69.4749 250.363C69.5977 249.969 69.4255 249.505 69.0758 249.289C68.7238 249.073 68.2973 249.157 67.9629 249.346C68.1559 248.688 68.2611 248.001 68.3817 247.323C69.0856 247.442 74.3835 245.219 75.1214 246.841Z" fill="#FDABAB"/>
<path d="M76.3094 214.959C76.1428 221.983 74.4126 246.478 74.4126 246.478C74.4126 246.478 71.8109 250.226 66.8189 248.298C66.8189 248.298 65.4045 229.066 64.9583 224.103C64.511 219.139 64.7982 214.068 65.2126 213.14C66.3365 210.62 76.4794 207.936 76.3094 214.959Z" fill="#005478"/>
<path d="M65.6563 177.811C66.8514 176.906 71.407 174.317 75.1929 177.433C80.3054 181.638 76.2367 212.427 76.2367 217.041C76.2367 221.801 66.642 221.346 65.5335 214.963C64.7879 210.673 61.9603 192.122 61.7289 189.433C61.4768 186.497 60.7104 181.546 65.6563 177.811Z" fill="#005478"/>
<path d="M62.0168 191.817C61.8666 190.701 61.7635 189.864 61.7263 189.435C61.4752 186.497 60.7088 181.547 65.6547 177.811C66.8498 176.907 71.4054 174.318 75.1913 177.434C76.5848 178.58 73.0928 187.418 62.0168 191.817Z" fill="#023248"/>
<path d="M58.8179 153.193C59.1775 145.829 61.4625 136.107 69.156 137.638C72.9584 138.394 84.8314 144.03 83.2241 152.107C81.8141 159.194 77.4635 174.732 77.7475 183.606C77.7475 183.606 56.5034 183.987 52.1484 176.328C52.1484 176.327 58.4616 160.557 58.8179 153.193Z" fill="#F85976"/>
<path d="M77.0112 125.779C77.8499 125.448 84.2409 126.784 84.1379 127.741C84.0326 128.701 82.866 129.85 83.0316 130.8C83.1467 131.458 83.1719 132.833 82.5141 133.557C80.3048 135.982 78.7062 138.088 77.0167 137.204C76.1867 139.003 77.4991 141.522 77.271 141.443C75.9586 140.99 72.4622 138.925 71.3789 138.045C72.8634 133.958 72.449 130.558 75.4729 127.017C75.9049 126.512 76.3906 126.022 77.0112 125.779Z" fill="#FDABAB"/>
<path d="M75.9119 120.799C76.5577 117.55 82.3084 119.421 81.7415 121.864C84.6328 120.901 87.5415 125.096 84.2698 129.154C84.2698 129.154 84.0857 127.617 82.9684 127.894C82.5002 130.248 81.1681 128.604 80.0772 131.192C79.4095 132.78 78.54 134.413 76.8669 135.106C75.4295 135.7 72.3705 134.19 72.3705 134.19C72.8244 131.91 69.3576 127.389 71.1644 125.23C70.4869 121.771 73.604 119.975 75.9119 120.799Z" fill="#023248"/>
<path d="M72.1358 136.235C73.5524 136.6 74.7705 137.1 77.5192 139.267C78.2034 139.806 78.8448 141.271 78.5564 142.59L69.7676 137.731L70.8881 136.586C71.2137 136.256 71.6896 136.12 72.1358 136.235Z" fill="#EBEBEB"/>
<path d="M112.025 160.904C112.523 160.708 113.973 159.657 114.128 158.869C114.46 157.181 115.428 155.309 115.939 155.832C116.192 156.09 115.713 158.066 115.793 159.04C115.861 159.901 116.368 159.355 118.222 159.001C120.076 158.647 123.303 159.611 124.398 159.988C125.111 160.233 122.723 160.916 120.607 160.469C118.003 159.92 121.383 161.326 121.432 162.015C121.479 162.702 120.09 165.197 119.883 165.799C119.678 166.399 116.53 165.784 115.211 165.607C112.345 165.224 98.9898 170.385 93.4727 171.084L95.1173 163.06C95.1195 163.06 108.241 162.394 112.025 160.904Z" fill="#FDABAB"/>
<path d="M76.0014 145.042C79.5703 143.124 83.115 145.849 87.3767 152.265C91.0059 157.727 94.1986 160.806 95.4836 162.252C96.7653 163.699 94.7413 172.713 91.7503 171.524C84.1632 168.504 78.8686 162.035 75.9576 157.453C72.5028 152.016 71.982 147.201 76.0014 145.042Z" fill="white"/>
<defs>
<radialGradient id="paint0_radial" cx="0" cy="0" r="1" gradientUnits="userSpaceOnUse" gradientTransform="translate(110.373 150.053) rotate(-54.0063) scale(147.352 81.999)">
<stop stop-opacity="0.2"/>
<stop offset="1" stop-opacity="0"/>
</radialGradient>
</defs>
</svg>
