<svg width="300" height="300" viewBox="0 0 300 300" fill="none" xmlns="http://www.w3.org/2000/svg">
<path d="M0.960775 205.408C-7.01242 270.332 35.5158 298.163 95.9814 267.575C156.439 236.924 211.872 159.513 219.845 94.5871C227.822 29.6298 185.314 1.79993 124.853 32.4839C64.3883 63.0692 8.92724 140.546 0.960775 205.408Z" fill="url(#paint0_radial)"/>
<path d="M69.5109 31.6438C69.5109 31.6438 95.0399 132.689 116.587 121.109C134.495 111.482 146.374 55.5409 165.818 51.9528C190.303 47.4331 188.628 112.073 205.341 118.639C222.055 125.203 235.106 83.7715 247.552 89.491C259.999 95.2128 261.383 148.63 261.383 148.63L69.5098 254.275V31.6438H69.5109Z" fill="#576DFC"/>
<path d="M69.511 255.398C69.3135 255.398 69.1159 255.347 68.9397 255.242C68.5974 255.04 68.3887 254.673 68.3887 254.276V31.6437C68.3887 31.078 68.8106 30.5999 69.3729 30.5303C69.9296 30.4596 70.4605 30.8199 70.5997 31.3687C70.8028 32.1723 91.1353 111.871 110.154 120.251C112.243 121.173 114.176 121.131 116.056 120.12C124.041 115.828 131.115 101.27 137.957 87.1901C146.154 70.32 154.629 52.8764 165.616 50.8483C180.529 48.103 186.092 68.1606 191.467 87.5672C195.197 101.035 199.055 114.962 205.754 117.594C213.863 120.781 221.294 111.234 228.479 102.004C235.118 93.4775 241.384 85.4246 248.022 88.4707C260.954 94.4158 262.449 146.391 262.506 148.601C262.518 149.021 262.293 149.411 261.925 149.613L70.0519 255.258C69.8836 255.352 69.6973 255.398 69.511 255.398ZM70.6334 40.1848V252.377L260.243 147.978C259.786 132.823 256.624 94.8973 247.083 90.5111C242.058 88.198 236.323 95.5797 230.249 103.383C222.914 112.804 214.596 123.484 204.932 119.682C197.189 116.641 193.357 102.81 189.301 88.1654C184.196 69.7341 178.912 50.6653 166.021 53.0548C156.151 54.8764 147.926 71.8015 139.974 88.1699C132.655 103.233 125.741 117.46 117.118 122.096C114.623 123.436 111.976 123.506 109.247 122.304C92.8458 115.077 76.4707 61.2155 70.6334 40.1848Z" fill="#8DABFC"/>
<path d="M84.1554 39.8313C84.1554 39.8313 108.242 141.655 129.789 130.072C147.697 120.448 156.937 71.8756 179.02 60.9158C201.102 49.9572 201.831 121.037 218.544 127.602C235.258 134.167 248.31 92.7345 260.754 98.4563C273.201 104.176 274.585 157.595 274.585 157.595L84.1543 262.444V39.8313H84.1554Z" fill="#F85976"/>
<path d="M83.5938 263.396V35.022L84.7003 39.7022C84.8934 40.5159 104.168 121.157 123.2 129.717C125.423 130.716 127.488 130.672 129.524 129.578C137.79 125.136 144.229 112.127 151.044 98.3541C158.842 82.5963 166.907 66.302 178.77 60.4141C181.619 58.9999 184.304 58.8327 186.756 59.9203C194.534 63.3704 198.985 79.1338 203.289 94.3776C207.448 109.103 211.746 124.33 218.749 127.08C227.248 130.416 234.811 120.706 242.123 111.313C248.621 102.966 254.762 95.0813 260.988 97.9467C273.607 103.745 275.088 155.385 275.146 157.581L275.155 157.922L274.855 158.087L83.5938 263.396ZM84.7161 44.461V261.496L274.014 157.27C273.864 152.707 272.001 104.242 260.52 98.9658C255.097 96.4731 249.226 104.018 243.009 112.002C235.796 121.267 227.62 131.768 218.34 128.123C210.819 125.169 206.637 110.36 202.21 94.6818C197.976 79.6872 193.598 64.1818 186.3 60.945C184.142 59.9865 181.841 60.1425 179.27 61.4175C167.743 67.1381 159.766 83.2596 152.049 98.8502C145.151 112.788 138.637 125.953 130.054 130.565C127.727 131.816 125.264 131.874 122.739 130.739C105.648 123.054 89.1124 61.8754 84.7161 44.461Z" fill="white"/>
<path d="M102.957 61.0564L105.117 268.321L283.294 172.249C283.294 172.249 283.088 166.145 282.196 157.087V157.068C282.117 156.373 282.059 155.66 281.979 154.946C280.711 142.995 278.352 128.01 274.149 119.725C273.832 119.13 273.515 118.556 273.178 118.02C272.008 116.118 270.701 114.711 269.254 113.997C267.906 113.343 266.578 113.245 265.23 113.621C264.577 113.799 263.901 114.076 263.247 114.473C258.471 117.208 253.654 124.839 248.461 131.438C247.312 132.886 246.163 134.274 244.993 135.563C241.028 139.903 236.826 143.015 232.229 142.5C231.336 142.401 230.425 142.162 229.492 141.767L229.471 141.747C222.355 138.732 218.848 124.284 215.377 109.934C215.219 109.26 215.061 108.586 214.902 107.931C210.621 90.3498 206.14 73.7412 194.884 79.2913C173.972 89.5978 165.824 134.195 148.879 143.272C128.525 154.194 102.957 61.0564 102.957 61.0564Z" fill="#FFB64D"/>
<path d="M105.118 268.884C105.019 268.884 104.921 268.858 104.833 268.806C104.664 268.706 104.559 268.526 104.557 268.329L102.397 61.0641C102.393 60.7824 102.601 60.5411 102.88 60.503C103.166 60.457 103.423 60.6388 103.5 60.9104C103.703 61.6511 124.04 135.044 142.44 142.936C144.64 143.88 146.661 143.829 148.617 142.779C156.428 138.595 162.384 126.61 168.688 113.92C175.916 99.3757 183.39 84.335 194.64 78.7906C197.384 77.437 199.922 77.2833 202.182 78.3405C208.553 81.3159 211.829 92.9289 215.45 107.802C215.61 108.458 215.769 109.135 215.927 109.809C219.318 123.826 222.823 138.324 229.694 141.234C229.725 141.247 229.757 141.264 229.786 141.283C230.621 141.631 231.464 141.853 232.293 141.945C236.076 142.369 239.981 140.223 244.581 135.188C245.618 134.045 246.711 132.744 248.023 131.093C249.268 129.511 250.508 127.848 251.705 126.24C255.581 121.038 259.243 116.125 262.969 113.99C263.621 113.595 264.337 113.287 265.083 113.084C266.605 112.661 268.049 112.795 269.499 113.496C270.981 114.228 272.378 115.652 273.656 117.731C273.998 118.272 274.322 118.857 274.646 119.465C278.967 127.987 281.322 143.431 282.538 154.89C282.577 155.24 282.611 155.593 282.645 155.945C282.68 156.303 282.715 156.657 282.755 157.007C283.641 166.006 283.854 172.173 283.856 172.233C283.863 172.445 283.749 172.645 283.561 172.746L105.384 268.818C105.301 268.861 105.209 268.884 105.118 268.884ZM103.563 65.2348L105.669 267.387L282.72 171.922C282.662 170.506 282.401 164.873 281.637 157.143C281.598 156.776 281.563 156.415 281.527 156.051C281.495 155.705 281.46 155.358 281.421 155.01C280.215 143.641 277.888 128.339 273.648 119.981C273.343 119.409 273.034 118.846 272.702 118.321C271.533 116.42 270.29 115.136 269.004 114.502C267.815 113.926 266.629 113.816 265.38 114.163C264.731 114.34 264.112 114.606 263.536 114.954C260.002 116.979 256.407 121.801 252.603 126.907C251.401 128.521 250.157 130.19 248.901 131.786C247.572 133.459 246.463 134.778 245.408 135.941C242.346 139.291 237.639 143.664 232.165 143.059C231.204 142.952 230.23 142.691 229.273 142.284C229.24 142.27 229.208 142.253 229.179 142.233C221.837 139.034 218.276 124.309 214.833 110.066C214.674 109.389 214.516 108.717 214.357 108.065C211.567 96.6035 208.093 82.3395 201.705 79.3551C199.744 78.4382 197.593 78.583 195.134 79.7951C184.224 85.1723 176.837 100.04 169.693 114.419C163.305 127.273 157.272 139.414 149.146 143.767C146.9 144.971 144.494 145.037 141.995 143.966C125.441 136.865 108.15 80.9983 103.563 65.2348Z" fill="white"/>
<path opacity="0.4" d="M122.839 201.903V241.366L104.94 251.098L104.127 251.534L104.959 253.1L105.057 253.278L122.839 243.625V256.807H124.82V242.554L192.785 205.649V219.048H194.768V204.558L263.25 167.375V182.915H265.233V166.304L282.198 157.088V157.069L283.429 156.414L282.477 154.672L281.982 154.948L265.233 164.046V124.584L274.152 119.727C273.835 119.132 273.518 118.558 273.18 118.022L265.233 122.323V113.623C264.58 113.801 263.904 114.078 263.25 114.475V123.413L248.464 131.44L229.475 141.749L194.768 160.599V121.135L215.381 109.936C215.223 109.262 215.065 108.588 214.905 107.934L194.768 118.874V81.2542H192.785V119.945L124.82 156.851V106.011H122.839V157.941L104.127 168.11L105.057 169.854L122.839 160.181V199.644L104.503 209.615L104.127 209.813L104.523 210.546L105.058 211.556L122.839 201.903ZM194.767 162.855L232.23 142.5L244.995 135.563L263.248 125.651V165.133L194.767 202.318V162.855ZM124.82 200.832L192.785 163.927V203.39L124.82 240.297V200.832ZM124.82 159.108L192.785 122.203V161.666L124.82 198.574V159.108Z" fill="#FFDBB6"/>
<path d="M212.553 125.803C211.784 126.334 209.234 125.629 209.057 125.926C208.203 127.337 212.642 127.913 214.386 127.486C216.631 126.933 225.076 140.149 225.076 140.149L230.037 136.533C230.037 136.533 220.199 126.977 218.714 124.016C218.146 122.877 217.801 120.919 215.477 120.065C214.907 119.854 211.858 122.443 210.736 120.306C209.774 118.478 208.601 117.287 208.324 117.453C207.77 117.786 209.485 121.615 210.663 122.98C211.845 124.345 213.233 125.335 212.553 125.803Z" fill="#FDABAB"/>
<path d="M243.271 149.439C249.386 150.109 253.791 149.627 253.952 145.272C254.092 141.405 250.26 139.511 242.963 138.559C236.747 137.75 232.763 136.307 230.98 135.816C229.198 135.326 222.949 140.227 225.228 142.292C231.014 147.525 238.113 148.872 243.271 149.439Z" fill="white"/>
<path d="M239.147 253.178C240.303 254.179 247.24 260.183 251.742 258.458C252.285 258.249 252.833 257.994 253.22 257.563C253.896 256.817 252.943 252.74 252.191 252.008C251.21 251.048 238.084 247.947 237.608 248.983C237.025 250.244 238.098 252.269 239.147 253.178Z" fill="#FFDE95"/>
<path d="M240.017 252.666C243.017 255.298 249.064 258.107 251.25 257.374C251.802 257.192 252.832 256.794 253.22 256.362C253.896 255.615 253.275 253.004 252.472 252.226C251.713 251.493 247.326 249.06 245.647 248.407C242.46 247.171 238.27 247.306 237.793 248.338C237.211 249.603 238.973 251.748 240.017 252.666Z" fill="#F95A75"/>
<path d="M247.124 255.635C247.475 255.635 247.758 255.266 247.758 254.811C247.758 254.356 247.475 253.987 247.124 253.987C246.774 253.987 246.49 254.356 246.49 254.811C246.49 255.266 246.774 255.635 247.124 255.635Z" fill="#FFDE95"/>
<path d="M251.081 257.486C252.537 257.377 253.04 256.533 253.04 256.533C253.415 253.621 252.239 252.502 252.239 252.502L251.496 251.372L250.234 253.037L250.558 253.635C251.183 254.537 251.081 257.486 251.081 257.486Z" fill="#FFDE95"/>
<path d="M247.292 253.084C248.284 253.507 249.491 253.813 250.558 253.636C250.421 253.198 250.612 252.68 251.001 252.441C251.398 252.197 251.868 252.295 252.24 252.503C252.026 251.77 251.909 251.007 251.775 250.252C250.991 250.387 245.096 247.913 244.274 249.717C244.014 250.292 244.505 251.9 247.292 253.084Z" fill="#FDABAB"/>
<path d="M253.269 249.921C253.269 249.921 254.765 231.909 255.262 226.385C255.759 220.861 254.856 216.088 254.396 215.053C253.145 212.252 242.443 208.396 242.631 216.211C242.818 224.028 244.785 249.346 244.785 249.346C244.785 249.346 247.711 252.066 253.269 249.921Z" fill="#023248"/>
<path d="M254.627 216.217C255.457 211.446 257.464 194.901 257.723 191.907C258.003 188.637 258.04 178.7 252.537 174.54C251.206 173.534 247.111 172.944 242.995 176.526C235.586 182.974 242.718 213.393 242.718 218.528C242.717 223.827 253.391 223.319 254.627 216.217Z" fill="#023248"/>
<path d="M226.971 259.153C228.126 260.152 235.063 266.156 239.566 264.431C240.108 264.222 240.652 263.967 241.044 263.535C241.719 262.789 240.767 258.713 240.014 257.981C239.031 257.02 225.907 253.919 225.432 254.955C224.85 256.216 225.921 258.241 226.971 259.153Z" fill="#FFDE95"/>
<path d="M227.842 258.639C230.842 261.274 236.89 264.083 239.074 263.348C239.627 263.165 240.653 262.766 241.046 262.335C241.72 261.588 241.099 258.977 240.292 258.199C239.538 257.47 235.15 255.033 233.471 254.381C230.284 253.145 226.095 253.28 225.617 254.312C225.036 255.575 226.794 257.72 227.842 258.639Z" fill="#F95A75"/>
<path d="M234.946 261.608C235.298 261.608 235.584 261.239 235.584 260.784C235.584 260.329 235.298 259.96 234.946 259.96C234.594 259.96 234.309 260.329 234.309 260.784C234.309 261.239 234.594 261.608 234.946 261.608Z" fill="#FFDE95"/>
<path d="M238.904 263.459C240.36 263.35 240.863 262.509 240.863 262.509C241.237 259.595 240.062 258.476 240.062 258.476L239.315 257.345L238.057 259.01L238.38 259.608C239.004 260.509 238.904 263.459 238.904 263.459Z" fill="#FFDE95"/>
<path d="M235.115 259.056C236.107 259.479 237.314 259.785 238.381 259.608C238.244 259.17 238.436 258.653 238.825 258.413C239.217 258.173 239.69 258.267 240.064 258.476C239.85 257.744 239.732 256.979 239.597 256.224C238.814 256.359 232.919 253.885 232.098 255.689C231.833 256.268 232.329 257.872 235.115 259.056Z" fill="#FDABAB"/>
<path d="M241.332 257.312C241.332 257.312 242.905 238.349 243.404 232.827C243.901 227.303 243.581 221.66 243.121 220.627C241.871 217.824 230.583 214.838 230.772 222.653C230.958 230.47 232.883 255.287 232.883 255.287C232.883 255.287 235.777 259.456 241.332 257.312Z" fill="#005478"/>
<path d="M242.766 222.658C243.595 217.884 246.743 197.241 246.998 194.248C247.279 190.978 248.132 185.47 242.628 181.314C241.297 180.307 236.229 177.427 232.015 180.893C226.327 185.572 230.854 219.834 230.854 224.969C230.856 230.266 241.534 229.76 242.766 222.658Z" fill="#005478"/>
<path d="M246.675 196.899C246.842 195.657 246.958 194.726 246.998 194.249C247.279 190.979 248.132 185.47 242.628 181.314C241.297 180.307 236.229 177.427 232.015 180.893C230.464 182.169 234.35 192.005 246.675 196.899Z" fill="#023248"/>
<path d="M258.299 186.12C258.299 186.12 254.832 167.538 256.042 159.423C257.248 151.309 256.864 140.202 248.135 140.202C243.821 140.202 229.639 143.775 229.639 152.939C229.639 160.98 231.015 178.884 228.777 188.506C228.78 188.505 251.882 193.533 258.299 186.12Z" fill="#5B5C70"/>
<path d="M234.477 129.727C234.208 130.42 233.882 131.916 234.444 132.848C236.328 135.975 237.615 138.621 239.652 138.022C240.166 140.165 238.188 142.631 238.454 142.594C239.984 142.385 244.25 140.889 245.622 140.165C244.89 135.383 246.08 131.761 243.548 127.239C243.186 126.596 242.762 125.955 242.138 125.554C241.294 125.011 234.028 125.083 233.934 126.149C233.839 127.219 234.862 128.726 234.477 129.727Z" fill="#FDABAB"/>
<path d="M235.176 126.569C235.176 129.24 236.985 127.736 237.616 130.797C237.998 132.675 238.593 134.647 240.269 135.765C241.708 136.726 245.376 135.742 245.376 135.742C245.376 133.155 250.14 128.973 248.637 126.224C250.127 122.597 247.115 119.959 244.418 120.358C244.418 116.671 237.736 117.464 237.825 120.253C234.878 118.574 230.793 122.522 233.482 127.662C233.482 127.661 234.018 126.024 235.176 126.569Z" fill="#023248"/>
<path d="M246.473 138.677C246.19 138.247 245.701 137.996 245.188 138.024C243.564 138.117 242.125 138.396 238.655 140.164C237.791 140.604 236.773 142.063 236.801 143.564L247.448 140.169L246.473 138.677Z" fill="white"/>
<path d="M214.59 184.125C216.085 182.069 214.586 185.23 214.991 185.75C215.398 186.268 217.98 187.15 218.513 187.444C219.043 187.739 220.813 185.224 221.705 184.317C224.029 181.955 237.941 174.612 237.941 174.612L234.332 169.649C234.332 169.649 224.594 177.575 220.957 178.94C220.479 179.12 218.777 179.304 218.162 178.842C216.847 177.859 214.961 177.15 214.932 177.847C214.918 178.193 216.523 179.288 217.089 180.029C217.593 180.684 216.883 180.621 215.342 181.556C213.799 182.491 212.126 185.24 211.591 186.209C211.243 186.84 213.373 185.795 214.59 184.125Z" fill="#FDABAB"/>
<path d="M231.868 170.879C231.885 172.727 238.309 177.398 239.671 174.64C243.121 167.641 242.474 160.445 241.608 155.33C240.578 149.263 238.907 145.158 234.674 146.2C230.915 147.124 230.143 151.326 231.227 158.605C232.149 164.804 231.855 169.032 231.868 170.879Z" fill="#EBEBEB"/>
<defs>
<radialGradient id="paint0_radial" cx="0" cy="0" r="1" gradientUnits="userSpaceOnUse" gradientTransform="translate(110.373 150.053) rotate(-54.0063) scale(147.352 81.999)">
<stop stop-opacity="0.2"/>
<stop offset="1" stop-opacity="0"/>
</radialGradient>
</defs>
</svg>
