<svg width="48" height="48" viewBox="0 0 48 48" fill="none" xmlns="http://www.w3.org/2000/svg">
<rect width="48" height="48" rx="9" fill="white"/>
<path d="M18.6675 24C18.6675 21.0546 21.0546 18.6662 24 18.6662C26.9454 18.6662 29.3338 21.0546 29.3338 24C29.3338 26.9454 26.9454 29.3338 24 29.3338C21.0546 29.3338 18.6675 26.9454 18.6675 24ZM15.7842 24C15.7842 28.5376 19.4624 32.2158 24 32.2158C28.5376 32.2158 32.2158 28.5376 32.2158 24C32.2158 19.4624 28.5376 15.7842 24 15.7842C19.4624 15.7842 15.7842 19.4624 15.7842 24ZM30.6211 15.4584C30.6209 15.8382 30.7334 16.2094 30.9442 16.5253C31.1551 16.8411 31.4548 17.0873 31.8056 17.2328C32.1564 17.3782 32.5424 17.4164 32.9149 17.3425C33.2873 17.2685 33.6295 17.0858 33.8982 16.8174C34.1668 16.549 34.3498 16.2069 34.424 15.8345C34.4982 15.4621 34.4604 15.076 34.3152 14.7252C34.17 14.3743 33.924 14.0743 33.6084 13.8632C33.2927 13.6521 32.9216 13.5394 32.5418 13.5392H32.5411C32.032 13.5394 31.5439 13.7417 31.1839 14.1015C30.8239 14.4614 30.6215 14.9494 30.6211 15.4584ZM17.536 37.0236C15.9761 36.9526 15.1282 36.6927 14.5647 36.4732C13.8177 36.1824 13.2847 35.836 12.7244 35.2764C12.164 34.7168 11.8171 34.1843 11.5276 33.4373C11.3079 32.8741 11.0481 32.026 10.9772 30.466C10.8996 28.7795 10.8841 28.2729 10.8841 24.0001C10.8841 19.7274 10.9009 19.2221 10.9772 17.5342C11.0482 15.9743 11.31 15.1278 11.5276 14.5629C11.8184 13.8159 12.1647 13.2829 12.7244 12.7226C13.284 12.1622 13.8164 11.8153 14.5647 11.5258C15.1279 11.3061 15.9761 11.0463 17.536 10.9754C19.2225 10.8978 19.7292 10.8823 24 10.8823C28.2708 10.8823 28.778 10.8991 30.4659 10.9754C32.0259 11.0464 32.8723 11.3082 33.4372 11.5258C34.1842 11.8153 34.7172 12.1629 35.2776 12.7226C35.838 13.2822 36.1836 13.8159 36.4744 14.5629C36.694 15.1261 36.9539 15.9743 37.0248 17.5342C37.1023 19.2221 37.1178 19.7274 37.1178 24.0001C37.1178 28.2729 37.1023 28.7781 37.0248 30.466C36.9537 32.026 36.6926 32.8739 36.4744 33.4373C36.1836 34.1843 35.8372 34.7173 35.2776 35.2764C34.718 35.8355 34.1842 36.1824 33.4372 36.4732C32.874 36.6929 32.0259 36.9527 30.4659 37.0236C28.7794 37.1012 28.2728 37.1167 24 37.1167C19.7272 37.1167 19.222 37.1012 17.536 37.0236ZM17.4035 8.0969C15.7002 8.17446 14.5363 8.44454 13.5199 8.84006C12.4672 9.24851 11.5761 9.79648 10.6856 10.6856C9.79507 11.5747 9.24851 12.4672 8.84006 13.5199C8.44454 14.537 8.17446 15.7002 8.0969 17.4035C8.01805 19.1095 8 19.6549 8 24C8 28.3451 8.01805 28.8905 8.0969 30.5965C8.17446 32.2999 8.44454 33.463 8.84006 34.4801C9.24851 35.5322 9.7952 36.4257 10.6856 37.3144C11.5759 38.2031 12.4672 38.7503 13.5199 39.1599C14.5382 39.5555 15.7002 39.8255 17.4035 39.9031C19.1104 39.9807 19.6549 40 24 40C28.3451 40 28.8905 39.982 30.5965 39.9031C32.2999 39.8255 33.463 39.5555 34.4801 39.1599C35.5322 38.7503 36.4239 38.2035 37.3144 37.3144C38.2049 36.4253 38.7503 35.5322 39.1599 34.4801C39.5555 33.463 39.8268 32.2998 39.9031 30.5965C39.9807 28.8892 39.9987 28.3451 39.9987 24C39.9987 19.6549 39.9807 19.1095 39.9031 17.4035C39.8255 15.7001 39.5555 14.5363 39.1599 13.5199C38.7503 12.4678 38.2035 11.5761 37.3144 10.6856C36.4253 9.79507 35.5322 9.24851 34.4814 8.84006C33.463 8.44454 32.2998 8.17318 30.5978 8.0969C28.8918 8.01933 28.3464 8 24.0013 8C19.6562 8 19.1104 8.01805 17.4035 8.0969Z" fill="url(#paint0_radial)"/>
<path d="M18.6675 24C18.6675 21.0546 21.0546 18.6662 24 18.6662C26.9454 18.6662 29.3338 21.0546 29.3338 24C29.3338 26.9454 26.9454 29.3338 24 29.3338C21.0546 29.3338 18.6675 26.9454 18.6675 24ZM15.7842 24C15.7842 28.5376 19.4624 32.2158 24 32.2158C28.5376 32.2158 32.2158 28.5376 32.2158 24C32.2158 19.4624 28.5376 15.7842 24 15.7842C19.4624 15.7842 15.7842 19.4624 15.7842 24ZM30.6211 15.4584C30.6209 15.8382 30.7334 16.2094 30.9442 16.5253C31.1551 16.8411 31.4548 17.0873 31.8056 17.2328C32.1564 17.3782 32.5424 17.4164 32.9149 17.3425C33.2873 17.2685 33.6295 17.0858 33.8982 16.8174C34.1668 16.549 34.3498 16.2069 34.424 15.8345C34.4982 15.4621 34.4604 15.076 34.3152 14.7252C34.17 14.3743 33.924 14.0743 33.6084 13.8632C33.2927 13.6521 32.9216 13.5394 32.5418 13.5392H32.5411C32.032 13.5394 31.5439 13.7417 31.1839 14.1015C30.8239 14.4614 30.6215 14.9494 30.6211 15.4584ZM17.536 37.0236C15.9761 36.9526 15.1282 36.6927 14.5647 36.4732C13.8177 36.1824 13.2847 35.836 12.7244 35.2764C12.164 34.7168 11.8171 34.1843 11.5276 33.4373C11.3079 32.8741 11.0481 32.026 10.9772 30.466C10.8996 28.7795 10.8841 28.2729 10.8841 24.0001C10.8841 19.7274 10.9009 19.2221 10.9772 17.5342C11.0482 15.9743 11.31 15.1278 11.5276 14.5629C11.8184 13.8159 12.1647 13.2829 12.7244 12.7226C13.284 12.1622 13.8164 11.8153 14.5647 11.5258C15.1279 11.3061 15.9761 11.0463 17.536 10.9754C19.2225 10.8978 19.7292 10.8823 24 10.8823C28.2708 10.8823 28.778 10.8991 30.4659 10.9754C32.0259 11.0464 32.8723 11.3082 33.4372 11.5258C34.1842 11.8153 34.7172 12.1629 35.2776 12.7226C35.838 13.2822 36.1836 13.8159 36.4744 14.5629C36.694 15.1261 36.9539 15.9743 37.0248 17.5342C37.1023 19.2221 37.1178 19.7274 37.1178 24.0001C37.1178 28.2729 37.1023 28.7781 37.0248 30.466C36.9537 32.026 36.6926 32.8739 36.4744 33.4373C36.1836 34.1843 35.8372 34.7173 35.2776 35.2764C34.718 35.8355 34.1842 36.1824 33.4372 36.4732C32.874 36.6929 32.0259 36.9527 30.4659 37.0236C28.7794 37.1012 28.2728 37.1167 24 37.1167C19.7272 37.1167 19.222 37.1012 17.536 37.0236ZM17.4035 8.0969C15.7002 8.17446 14.5363 8.44454 13.5199 8.84006C12.4672 9.24851 11.5761 9.79648 10.6856 10.6856C9.79507 11.5747 9.24851 12.4672 8.84006 13.5199C8.44454 14.537 8.17446 15.7002 8.0969 17.4035C8.01805 19.1095 8 19.6549 8 24C8 28.3451 8.01805 28.8905 8.0969 30.5965C8.17446 32.2999 8.44454 33.463 8.84006 34.4801C9.24851 35.5322 9.7952 36.4257 10.6856 37.3144C11.5759 38.2031 12.4672 38.7503 13.5199 39.1599C14.5382 39.5555 15.7002 39.8255 17.4035 39.9031C19.1104 39.9807 19.6549 40 24 40C28.3451 40 28.8905 39.982 30.5965 39.9031C32.2999 39.8255 33.463 39.5555 34.4801 39.1599C35.5322 38.7503 36.4239 38.2035 37.3144 37.3144C38.2049 36.4253 38.7503 35.5322 39.1599 34.4801C39.5555 33.463 39.8268 32.2998 39.9031 30.5965C39.9807 28.8892 39.9987 28.3451 39.9987 24C39.9987 19.6549 39.9807 19.1095 39.9031 17.4035C39.8255 15.7001 39.5555 14.5363 39.1599 13.5199C38.7503 12.4678 38.2035 11.5761 37.3144 10.6856C36.4253 9.79507 35.5322 9.24851 34.4814 8.84006C33.463 8.44454 32.2998 8.17318 30.5978 8.0969C28.8918 8.01933 28.3464 8 24.0013 8C19.6562 8 19.1104 8.01805 17.4035 8.0969Z" fill="url(#paint1_radial)"/>
<defs>
<radialGradient id="paint0_radial" cx="0" cy="0" r="1" gradientUnits="userSpaceOnUse" gradientTransform="translate(12.2514 40.1512) scale(41.7733)">
<stop offset="0.09" stop-color="#FA8F21"/>
<stop offset="0.78" stop-color="#D82D7E"/>
</radialGradient>
<radialGradient id="paint1_radial" cx="0" cy="0" r="1" gradientUnits="userSpaceOnUse" gradientTransform="translate(27.4066 41.5848) scale(32.9231)">
<stop offset="0.64" stop-color="#8C3AAA" stop-opacity="0"/>
<stop offset="1" stop-color="#8C3AAA"/>
</radialGradient>
</defs>
</svg>
