<svg width="48" height="48" viewBox="0 0 48 48" fill="none" xmlns="http://www.w3.org/2000/svg">
<rect x="4" y="4" width="40" height="40" rx="9" fill="white"/>
<path d="M13.6668 8H34.3332C37.4663 8 40 10.5979 40 13.812V34.188C40 37.4014 37.467 40 34.3332 40H13.6668C10.5337 40 8 37.4021 8 34.188V13.812C8 10.5986 10.533 8 13.6668 8Z" fill="#001E36"/>
<path d="M24.7996 30.6187H16.3459C16.1994 30.6187 16.1326 30.5363 16.1326 30.3722V16.3968C16.1191 16.3013 16.1859 16.2188 16.2791 16.2057H18.9458C19.0126 16.1919 19.0922 16.2466 19.0922 16.3151V27.8429H25.2519C25.3856 27.8429 25.4254 27.9114 25.3984 28.034L25.0115 30.413C25.0115 30.4816 24.9717 30.5363 24.9319 30.5771C24.8928 30.6048 24.853 30.6187 24.7996 30.6187Z" fill="#31A8FF"/>
<path d="M26.933 19.6788H29.2662C29.3998 19.6788 29.5065 19.7743 29.5463 19.8976C29.5997 19.9931 29.6395 20.1025 29.653 20.2119C29.68 20.349 29.7063 20.4993 29.7198 20.6356C29.7334 20.7859 29.7469 20.95 29.7469 21.1279C30.1465 20.6495 30.6272 20.2528 31.1734 19.9523C31.787 19.6102 32.4669 19.4461 33.1602 19.46C33.2534 19.4461 33.3337 19.5147 33.3465 19.6102V22.3313C33.3465 22.4407 33.2797 22.4816 33.1332 22.4816C32.2663 22.4269 31.3995 22.591 30.613 22.9469C30.3463 23.0701 30.0932 23.2342 29.8934 23.453V30.4269C29.8934 30.564 29.84 30.618 29.7198 30.618H27.12C27.0134 30.6318 26.9202 30.5633 26.9067 30.4539V22.8236C26.9067 22.4954 26.9067 22.1534 26.8932 21.7982C26.8797 21.4423 26.8797 21.0871 26.8662 20.7319C26.8526 20.4314 26.8263 20.1302 26.7858 19.829C26.7723 19.7605 26.8128 19.6919 26.879 19.6788C26.8932 19.6649 26.906 19.6649 26.933 19.6788Z" fill="#31A8FF"/>
</svg>
