<svg width="48" height="48" viewBox="0 0 48 48" fill="none" xmlns="http://www.w3.org/2000/svg">
<rect width="48" height="48" rx="9" fill="white"/>
<path opacity="0.712" d="M19.6562 21.9216V38.5267H35.5386C36.5747 38.5267 37.4045 37.6893 37.4045 36.6608V23.7875C37.4045 22.7514 36.567 21.9216 35.5386 21.9216H19.6562Z" fill="#E2E2E2"/>
<path d="M21.4472 10.4572C21.5618 10.5336 21.6764 10.6024 21.7895 10.6849C21.6749 10.6024 21.5542 10.526 21.4472 10.4572ZM22.2617 11.0288C22.3993 11.1281 22.5276 11.2351 22.6575 11.3329C22.5292 11.2274 22.3977 11.1266 22.2617 11.0288ZM12.4967 16.4064C12.3974 16.5974 12.298 16.7869 12.2079 16.9779C12.2996 16.7869 12.3974 16.5974 12.4967 16.4064ZM10.7148 21.998C9.90796 28.2437 12.703 34.9172 19.6806 38.4885V30.6811L19.6501 30.7117L10.7148 21.998Z" fill="#0B552B"/>
<path d="M22.2616 11.0287C22.3991 11.1281 22.5275 11.2351 22.6574 11.3329C22.529 11.2274 22.3976 11.1266 22.2616 11.0287ZM16.1687 11.8203C15.8723 12.0801 15.5819 12.3384 15.3084 12.6196V12.6272C15.5743 12.346 15.8631 12.0725 16.1687 11.8203ZM15.2992 16.3835V16.414H12.4965C11.5674 18.1577 10.9653 20.0557 10.707 21.998L19.6499 30.7269L19.6805 30.6963V20.6944L19.6499 20.725L15.2992 16.3835Z" fill="#0B8142"/>
<path d="M21.448 10.4572C21.5626 10.5336 21.6772 10.6024 21.7903 10.6849C21.6802 10.6039 21.5656 10.5275 21.448 10.4572ZM22.2625 11.0288C22.4 11.1281 22.5284 11.2351 22.6583 11.3329C22.5299 11.2274 22.3985 11.1266 22.2625 11.0288ZM28.5616 21.8375L19.6875 30.6811V38.4885C26.9998 34.3594 29.4158 27.802 28.5616 21.8375Z" fill="#8BC249"/>
<path d="M22.2625 11.0287C22.4 11.1281 22.5284 11.2351 22.6583 11.3329C22.5299 11.2274 22.3985 11.1266 22.2625 11.0287ZM23.0999 11.7073C23.2069 11.7989 23.3215 11.8983 23.4269 11.9961C23.3215 11.8968 23.2069 11.7974 23.0999 11.7073ZM23.4208 11.9961L23.7861 12.3384C23.6638 12.2253 23.5507 12.1107 23.4208 11.9961ZM23.7861 12.3384C23.9083 12.453 24.0214 12.5753 24.136 12.696C24.0229 12.5753 23.9083 12.4606 23.7861 12.3384ZM24.136 12.6975C24.3652 12.9405 24.5929 13.185 24.8145 13.4433C24.6006 13.185 24.3729 12.9405 24.136 12.6975ZM25.4395 14.2349L25.736 14.6459L25.4395 14.2349ZM25.736 14.6475L19.6875 20.6945V30.6811L28.5692 21.8375C28.1964 19.2396 27.2061 16.764 25.736 14.6475Z" fill="#AED580"/>
<path d="M19.6883 9.47467C17.9982 10.3045 16.5434 11.3788 15.3086 12.6212V16.3836L19.6578 20.7327L19.6883 20.7022V9.47467Z" fill="#32AC71"/>
<path d="M19.6875 9.47467V20.6945L25.736 14.6475C24.1895 12.4302 22.1249 10.6101 19.6875 9.47467Z" fill="#B2FF59"/>
</svg>
