<svg width="370" height="540" viewBox="0 0 370 540" fill="none" xmlns="http://www.w3.org/2000/svg">
<path fill-rule="evenodd" clip-rule="evenodd" d="M8.46601 252.64C13.9869 208.55 65.3014 191.097 97.4561 160.504C130.983 128.605 151.794 76.3588 197.849 72.4536C246.356 68.3406 289.138 104.053 320.201 141.616C349.817 177.43 362.647 223.051 360.831 269.539C358.996 316.498 345.076 363.839 310.288 395.35C275.577 426.792 227.044 438.119 180.566 432.825C136.918 427.853 101.832 399.95 71.4554 368.145C39.986 335.197 2.79787 297.905 8.46601 252.64Z" fill="#EFF3FA"/>
<path fill-rule="evenodd" clip-rule="evenodd" d="M192.819 503.124H192.829V503.096C192.826 503.105 192.822 503.114 192.819 503.124ZM221.645 44.7964C221.487 50.209 222.583 55.452 224.932 60.5256C225.38 61.4946 225.882 62.4632 226.439 63.4318L237.319 63.986C237.409 63.7382 237.506 63.4933 237.61 63.2504L252.267 64.1584C252.3 64.3535 252.33 64.553 252.358 64.758L291.718 66.774C284.791 60.9252 279.845 54.8166 276.878 48.4474C274.457 43.253 273.367 37.8825 273.609 32.3368C273.875 25.7256 276.006 18.8537 280.002 11.7217L221.645 44.7964ZM296.821 62.5964C305.225 40.922 301.877 23.9755 286.777 11.7576C283.411 18.2117 281.607 24.4596 281.365 30.5022L292.462 28.6495C296.119 31.9067 296.803 35.9873 294.515 40.8914L284.634 46.6306C287.189 52.1524 291.251 57.4742 296.821 62.5964Z" fill="#E9EDF8"/>
<path fill-rule="evenodd" clip-rule="evenodd" d="M140.58 63.0588C141.553 60.7071 142.679 58.1613 143.958 55.4212C145.92 51.2074 148.021 47.0418 150.261 42.9249C152.222 39.3044 153.754 36.6827 154.856 35.0605C158.101 29.8174 162.624 25.67 168.424 22.6186C174.091 19.6278 179.752 18.3021 185.407 18.6411C188.212 18.8097 190.758 19.3821 193.044 20.3577C193.101 20.1156 193.153 19.8703 193.199 19.6221C193.889 16.5463 193.416 14.1064 191.782 12.3024C190.329 12.7382 189.299 11.8422 188.694 9.61427C188.015 7.13191 187.077 5.97568 185.878 6.14516C184.426 8.20362 182.155 10.0868 179.067 11.794C177.36 12.8232 174.751 14.2763 171.239 16.1529C162.243 17.4366 154.444 21.5048 147.845 28.3585C141.089 35.3817 137.626 43.3492 137.456 52.2609C138.054 56.1065 139.096 59.706 140.58 63.0588Z" fill="#C35A21"/>
<path fill-rule="evenodd" clip-rule="evenodd" d="M255.245 79.3781C256.469 78.8635 257.323 78.0887 257.805 77.0533C258.411 75.6727 258.326 74.2138 257.551 72.6761C256.861 71.1385 255.747 69.9818 254.209 69.207C254.184 69.1951 254.16 69.1831 254.137 69.1707C253.611 68.934 253.079 68.7794 252.538 68.7073C251.421 68.5633 250.265 68.772 249.069 69.334C244.759 69.9299 240.851 71.8885 237.345 75.21C234.793 77.6256 232.453 80.7648 230.325 84.6273C229.55 86.0805 227.625 90.0159 224.549 96.4334C222.321 101.41 220.305 105.14 218.501 107.622C217.908 108.566 216.836 110.195 215.286 112.508C213.445 115.709 210.763 120.134 207.24 125.785C206.338 127.231 205.382 128.756 204.37 130.363C203.609 131.628 202.886 132.866 202.2 134.077C199.037 139.667 196.678 144.677 195.125 149.107C196.683 151.002 199.786 152.931 204.434 154.892C204.628 154.973 204.825 155.055 205.024 155.137C207.591 156.166 209.728 157.195 211.436 158.225C213.071 159.169 214.312 160.156 215.159 161.185C215.294 160.963 215.427 160.742 215.559 160.522C218.433 155.788 220.588 152.195 222.025 149.743C222.05 149.704 222.074 149.665 222.098 149.625C222.259 149.352 222.411 149.095 222.552 148.853C222.609 148.76 222.664 148.669 222.715 148.58C222.843 148.355 222.965 148.143 223.078 147.944C223.258 147.64 223.415 147.368 223.551 147.127C223.755 146.77 223.913 146.485 224.023 146.274C227.196 140.461 229.424 135.109 230.707 130.217C231.216 127.917 231.985 125.096 233.014 121.753C234.213 117.987 235.072 115.16 235.593 113.271C236.707 108.815 237.73 105.607 238.663 103.645C240.297 100.133 242.871 99.0617 246.382 100.43C247.541 99.8213 248.6 99.2341 249.56 98.6683C251.588 97.4857 253.18 96.402 254.337 95.4174C257.51 92.85 258.369 90.7071 256.916 88.9875C255.112 88.7331 254.126 88.4366 253.956 88.0977C253.871 87.7587 254.343 87.2441 255.373 86.5538C256.861 85.5716 257.999 84.7057 258.788 83.9564C259.433 83.3466 259.845 82.8138 260.023 82.3582C260.067 82.2514 260.097 82.1483 260.113 82.0493C260.113 80.6457 258.727 80.1368 255.954 80.5236C255.354 80.6094 254.688 80.7368 253.956 80.905C252.333 81.3289 251.48 81.5409 251.395 81.5409C251.129 81.4559 251.855 80.8993 253.575 79.8696C254.19 79.7467 254.747 79.583 255.245 79.3781ZM161.814 42.8614C167.658 40.2665 171.514 38.6105 173.383 37.8938C178.179 36.0172 182.738 34.6004 187.06 33.6437C188.773 33.2607 191.141 32.8491 194.162 32.4087C192.848 30.5367 191.371 28.672 189.73 26.8144C183.821 25.7002 178.082 26.1303 172.512 28.1038C167.039 30.0777 162.286 33.3349 158.254 37.8757C158.615 38.2134 158.956 38.5619 159.28 38.9202C160.339 40.1135 161.183 41.4273 161.814 42.8614Z" fill="#FFB087"/>
<path fill-rule="evenodd" clip-rule="evenodd" d="M193.043 20.3582C190.757 19.3826 188.211 18.8107 185.406 18.6416C179.751 18.3026 174.09 19.6288 168.423 22.6191C162.623 25.6705 158.1 29.818 154.855 35.061C153.753 36.6836 152.221 39.305 150.26 42.9254C148.019 47.0423 145.919 51.2075 143.957 55.4217C142.678 58.1618 141.552 60.7077 140.579 63.0593C141.41 64.9314 142.379 66.7264 143.485 68.4446C147.167 73.8328 151.622 77.2599 156.853 78.725C156.248 75.2983 155.733 72.7677 155.309 71.1328C154.62 68.3115 153.548 66.041 152.095 64.3215C151.066 63.1228 150.593 61.6697 150.678 59.9622C150.678 58.5094 151.065 57.0076 151.84 55.458C152.433 55.6395 153.886 56.5417 156.199 58.1639C157.834 59.363 159.335 59.8351 160.704 59.5807C162.665 55.9842 163.476 52.2124 163.138 48.265C162.978 46.3046 162.537 44.5035 161.811 42.8615C161.181 41.4273 160.337 40.1136 159.278 38.9202C158.954 38.5619 158.612 38.2139 158.251 37.8757C162.283 33.3349 167.036 30.0778 172.509 28.1038C178.08 26.1303 183.819 25.7002 189.728 26.8144C191.37 24.9539 192.475 22.801 193.043 20.3582Z" fill="#813106"/>
<path fill-rule="evenodd" clip-rule="evenodd" d="M194.162 32.4092C191.14 32.8496 188.773 33.2611 187.06 33.6442C182.737 34.6008 178.178 36.0177 173.383 37.8943C171.514 38.6109 167.657 40.2665 161.813 42.8619C162.538 44.5039 162.98 46.305 163.139 48.2653C163.478 52.2128 162.667 55.9846 160.706 59.5811C159.337 59.8355 157.836 59.3634 156.201 58.1643C153.888 56.5417 152.435 55.6398 151.842 55.4584C151.067 57.008 150.679 58.5098 150.679 59.9625C150.595 61.6701 151.067 63.1232 152.096 64.3219C155.693 67.1552 160.36 68.6145 166.1 68.699C169.091 74.2691 174.401 77.4355 182.03 78.1984C185.541 78.5493 192.049 78.1258 201.555 76.9271C202.233 72.8951 201.93 66.895 200.646 58.9275C199.278 50.0277 198.636 43.8223 198.721 40.3107C197.52 37.6617 196.001 35.0284 194.162 32.4092Z" fill="#FFD1B1"/>
<path fill-rule="evenodd" clip-rule="evenodd" d="M249.56 98.6682C248.6 99.234 247.54 99.8211 246.381 100.43C250.837 111.303 254.089 120.894 256.135 129.2C256.994 132.276 258.193 137.028 259.731 143.458C260.082 144.572 260.427 145.644 260.767 146.673C262.304 150.524 264.187 153.69 266.415 156.172C270.871 157.976 274.94 158.703 278.621 158.352C279.039 158.307 279.441 158.249 279.829 158.18C283.095 157.561 285.302 155.948 286.45 153.339C286.58 152.991 286.701 152.618 286.813 152.222C286.918 151.847 287.015 151.45 287.104 151.033C285.554 142.641 281.867 133.263 276.042 122.898C269.772 112.708 265.037 104.713 261.839 98.914C261.56 99.21 261.258 99.5041 260.931 99.7948C259.393 101.151 257.625 101.702 255.627 101.448C253.206 101.212 251.184 100.286 249.56 98.6682ZM255.245 79.3788C255.466 79.7656 255.702 80.1466 255.953 80.5231C258.726 80.1363 260.113 80.6447 260.113 82.0488C260.097 82.1477 260.066 82.2504 260.022 82.3576C259.844 82.8133 259.433 83.346 258.787 83.9559C260.158 85.3694 261.387 86.8527 262.474 88.406C263.406 89.7635 263.978 91.083 264.19 92.3658C266.363 88.594 266.716 84.3011 265.253 79.4881C264.405 76.4853 262.91 73.8756 260.767 71.66C258.401 69.2943 255.658 67.7171 252.539 66.9282C252.554 67.3992 252.554 67.868 252.539 68.336C252.536 68.4614 252.536 68.5855 252.539 68.7084C253.079 68.7801 253.611 68.9348 254.137 69.1719C254.16 69.1842 254.184 69.1962 254.209 69.2081C255.747 69.9829 256.861 71.1396 257.551 72.6773C258.326 74.2149 258.411 75.6742 257.806 77.0544C257.323 78.0894 256.469 78.8642 255.245 79.3788ZM191.529 90.1498C191.699 89.9804 191.868 89.8109 192.037 89.6414C191.105 86.5537 191.789 83.8532 194.09 81.5403C195.386 80.2567 197.874 78.719 201.555 76.927C192.05 78.1257 185.541 78.5496 182.03 78.1982C174.402 77.4354 169.092 74.2689 166.101 68.6989C160.361 68.6139 155.694 67.155 152.097 64.3218C153.55 66.0409 154.622 68.3117 155.312 71.133C155.736 72.7676 156.25 75.2986 156.856 78.7252C157.873 80.4328 158.853 82.6545 159.798 85.3913C161.688 85.9966 166.01 86.7719 172.767 87.7161C178.167 88.479 182.411 89.6352 185.499 91.1853C186.516 91.8636 187.673 91.9906 188.968 91.5667C189.73 91.3119 190.585 90.8397 191.529 90.1498Z" fill="#ED9870"/>
<path fill-rule="evenodd" clip-rule="evenodd" d="M207.239 125.785C210.762 120.134 213.444 115.709 215.285 112.508C212.718 110.28 211.005 107.192 210.145 103.245C208.946 102.398 207.282 101.417 205.15 100.302C201.893 98.7524 200.095 97.8927 199.756 97.7236L199.883 97.8506L199.756 98.886L198.23 102.001V102.01L201.281 109.929C203.452 114.952 205.438 120.237 207.239 125.785ZM192.037 89.6411C191.867 89.8106 191.698 89.9801 191.528 90.1495C191.782 90.1495 191.994 90.192 192.164 90.277C192.3 90.5949 192.458 90.9157 192.636 91.2394C192.375 90.7305 192.175 90.1978 192.037 89.6411ZM155.056 112.763C149.995 108.476 144.643 106.46 139 106.715C137.196 109.197 134.241 112.793 130.136 117.503C129.022 119.053 128.035 120.555 127.176 122.008C127.599 122.868 128.029 123.721 128.465 124.569C132.4 133.045 136.336 139.257 140.271 143.204C147.9 150.905 158.689 155.912 172.638 158.225H211.434C209.727 157.195 207.59 156.167 205.023 155.137C204.824 155.055 204.626 154.974 204.432 154.893C199.785 152.931 196.682 151.002 195.124 149.108C196.677 144.677 199.035 139.667 202.198 134.077C201.03 126.291 199.525 119.144 197.684 112.636L185.497 104.79L170.586 96.0532C169.302 95.5448 168.103 94.9877 166.989 94.3823C163.223 92.4208 159.07 91.6093 154.529 91.9486C153.161 93.3168 151.538 94.7699 149.661 96.3076C148.026 97.5913 146.567 98.8382 145.284 100.049C145.792 100.049 146.307 100.092 146.828 100.177C161.043 105.141 170.718 113.49 175.852 125.223C177.995 129.934 179.37 135.582 179.976 142.169C179.794 142.085 179.618 142 179.449 141.915C179.364 141.83 179.237 141.788 179.067 141.788C178.813 141.703 178.559 141.618 178.304 141.534L168.151 136.266C167.897 136.012 166.655 135.152 164.428 133.687C160.48 131.471 157.096 129.25 154.275 127.021C151.453 124.709 149.916 122.008 149.661 118.92C149.396 115.748 151.194 113.695 155.056 112.763ZM232.249 138.572C232.165 135.581 231.65 132.796 230.706 130.217C229.422 135.109 227.194 140.461 224.021 146.273C223.911 146.485 223.754 146.77 223.549 147.127C223.414 147.367 223.257 147.64 223.077 147.944C222.963 148.142 222.842 148.354 222.713 148.58C222.662 148.668 222.607 148.76 222.55 148.852C222.409 149.094 222.258 149.352 222.096 149.624C222.073 149.664 222.048 149.703 222.024 149.742C220.586 152.194 218.431 155.787 215.557 160.522C216.902 168.571 217.968 177.014 218.754 185.85C217.725 198.177 215.799 208.324 212.978 216.292L205.15 192.135C205.33 184.414 205.33 177.04 205.15 170.012C203.65 170.194 202.064 170.164 200.391 169.922C195.172 169.485 187.768 168.844 178.177 167.996V205.376C178.941 209.311 179.54 214.621 179.976 221.305C180.315 226.015 180.484 229.696 180.484 232.348C180.484 234.576 180.441 236.628 180.356 238.506C181.301 238.59 182.197 238.675 183.045 238.76C195.202 239.45 205.652 238.342 214.394 235.436C217.216 234.492 219.867 233.378 222.349 232.094C223.294 231.489 224.323 231.017 225.437 230.677C225.691 227.759 225.346 224.417 224.402 220.652C224.232 220.059 223.294 216.807 221.586 210.898C219.189 202.761 218.977 196.253 220.951 191.373C221.968 188.37 222.779 184.731 223.384 180.457C223.808 175.48 224.147 171.793 224.401 169.395C225.346 160.241 227.658 153.267 231.34 148.471C231.425 148.302 231.467 148.084 231.467 147.818C231.648 147.224 231.782 146.583 231.866 145.893C232.292 143.325 232.419 140.885 232.249 138.572Z" fill="#F3F7FE"/>
<path fill-rule="evenodd" clip-rule="evenodd" d="M139.001 106.714C144.643 106.46 149.995 108.476 155.057 112.762H155.184C155.608 113.101 155.989 113.483 156.329 113.907L157.618 115.069C163.018 120.457 165.331 126.021 164.556 131.761C164.556 132.366 164.471 132.965 164.302 133.559L164.429 133.686C166.657 135.151 167.898 136.011 168.152 136.265L178.306 141.532C178.56 141.617 178.814 141.702 179.069 141.787C179.238 141.787 179.365 141.829 179.45 141.914C179.619 141.999 179.795 142.083 179.977 142.168C179.371 135.581 177.997 129.932 175.854 125.222C170.72 113.488 161.045 105.14 146.829 100.175C146.308 100.09 145.794 100.048 145.285 100.048C142.379 102.616 140.284 104.837 139.001 106.714ZM156.455 231.44C158.768 234.613 162.964 236.544 169.042 237.234C169.126 237.234 169.217 237.234 169.314 237.234C173.504 237.658 175.987 237.955 176.761 238.124C177.015 238.209 177.228 238.251 177.397 238.251C178.426 238.336 179.413 238.421 180.358 238.506C180.443 236.629 180.485 234.576 180.485 232.348C180.485 229.696 180.316 226.016 179.977 221.305C179.541 214.621 178.942 209.312 178.179 205.376V167.996C176.29 167.827 174.273 167.652 172.131 167.47C169.733 167.13 167.42 166.792 165.192 166.453C157.406 165.084 150.559 163.159 144.65 160.677C151.322 169.746 155.39 181.092 156.856 194.714C157.787 203.615 157.654 215.856 156.455 231.44ZM231.342 148.471C234.853 154.55 241.065 159.085 249.977 162.075C252.714 163.02 256.606 164.049 261.656 165.163C266.742 166.318 270.339 167.199 272.444 167.806C272.682 167.872 272.9 167.936 273.098 167.996C277.893 169.619 281.92 168.287 285.177 164.001C285.516 163.577 285.77 163.195 285.94 162.856C286.109 162.602 286.236 162.342 286.321 162.075C286.927 161.228 287.357 160.332 287.611 159.387V159.26C288.035 157.892 288.204 156.566 288.12 155.283C288.035 154.762 287.95 154.29 287.865 153.866C287.442 153.696 286.969 153.521 286.448 153.339C285.301 155.948 283.094 157.561 279.828 158.18C279.44 158.25 279.037 158.308 278.62 158.352C274.939 158.704 270.87 157.977 266.414 156.173C264.186 153.69 262.303 150.524 260.765 146.673C256.915 145.899 252.762 145.166 248.305 144.475C246.077 144.137 240.725 142.169 232.249 138.573C232.419 140.886 232.292 143.325 231.868 145.892C231.783 146.583 231.65 147.224 231.468 147.818C231.469 148.084 231.426 148.302 231.342 148.471Z" fill="#BACDF4"/>
<path fill-rule="evenodd" clip-rule="evenodd" d="M185.5 104.789L188.696 99.5216L198.232 102.001L199.758 98.8862L199.885 97.8507L199.758 97.7237C198.293 96.9609 197.003 96.1073 195.889 95.1626L192.82 91.5665L192.638 91.2395C192.46 90.9154 192.302 90.595 192.166 90.2771C191.996 90.1921 191.785 90.1497 191.53 90.1497C190.586 90.8399 189.732 91.3121 188.969 91.5665C187.673 91.99 186.517 91.863 185.5 91.1851C182.413 89.635 178.168 88.4788 172.768 87.716C166.011 86.7713 161.689 85.9964 159.799 85.3911C159.715 85.561 159.587 85.7787 159.418 86.0451L156.712 89.6416C156.119 90.32 155.392 91.0886 154.532 91.9483C159.073 91.6094 163.226 92.4209 166.992 94.382C168.106 94.9874 169.305 95.5445 170.589 96.0529L185.5 104.789Z" fill="white"/>
<path fill-rule="evenodd" clip-rule="evenodd" d="M286.448 153.339C286.969 153.52 287.441 153.696 287.865 153.865C287.95 154.289 288.034 154.761 288.119 155.282C288.05 154.092 287.814 152.933 287.411 151.804C287.316 151.546 287.213 151.289 287.102 151.032C287.014 151.45 286.917 151.846 286.811 152.222C286.699 152.618 286.579 152.99 286.448 153.339ZM215.285 112.508C216.835 110.195 217.906 108.566 218.5 107.622C215.243 105.394 212.458 103.935 210.145 103.245C211.004 107.192 212.718 110.28 215.285 112.508ZM178.178 167.996C187.768 168.844 195.173 169.486 200.391 169.922C202.064 170.164 203.651 170.194 205.15 170.012C206.794 169.808 208.332 169.348 209.764 168.632C213.021 167.009 214.819 164.527 215.158 161.185C214.31 160.155 213.069 159.169 211.435 158.224H172.638C158.689 155.911 147.901 150.905 140.272 143.204C136.337 139.256 132.401 133.044 128.466 124.568C128.03 123.72 127.6 122.867 127.177 122.007C125.723 124.744 124.779 127.395 124.343 129.963C123.58 136.477 125.209 142.731 129.229 148.725C133.164 154.549 138.304 158.533 144.649 160.676C150.558 163.159 157.406 165.084 165.191 166.452C167.419 166.791 169.732 167.13 172.13 167.469C174.273 167.652 176.289 167.827 178.178 167.996ZM155.056 112.763C151.194 113.695 149.395 115.748 149.662 118.92C149.916 122.007 151.454 124.708 154.275 127.021C157.097 129.249 160.481 131.471 164.428 133.687L164.301 133.56C164.47 132.967 164.555 132.367 164.555 131.762C165.33 126.022 163.017 120.458 157.617 115.07L156.328 113.908C155.988 113.484 155.607 113.102 155.183 112.763H155.056V112.763ZM230.705 130.217C231.65 132.796 232.164 135.581 232.249 138.572C240.725 142.168 246.077 144.136 248.305 144.475C252.762 145.165 256.914 145.898 260.765 146.673C260.426 145.643 260.081 144.572 259.73 143.458C258.192 137.028 256.993 132.275 256.133 129.2C253.736 125.349 250.782 122.05 247.27 119.301C243.758 116.564 239.865 114.554 235.591 113.271C235.07 115.16 234.211 117.987 233.012 121.753C231.983 125.095 231.214 127.916 230.705 130.217Z" fill="#CEDEFE"/>
<path fill-rule="evenodd" clip-rule="evenodd" d="M115.325 530.958C115.846 531.179 116.364 531.388 116.878 531.584C118.414 532.174 119.924 532.658 121.41 533.038C125.074 533.976 128.583 534.28 131.935 533.946C133.536 533.803 134.974 533.5 136.249 533.038C140.292 531.571 142.705 528.495 143.487 523.811C147.689 523.811 150.516 522.267 151.969 519.179C152.054 518.925 152.139 518.665 152.223 518.398C152.562 517.466 152.816 516.485 152.986 515.456C152.986 515.343 152.986 515.233 152.986 515.129C152.986 514.944 152.986 514.75 152.986 514.548C153.071 514.039 153.071 512.925 152.986 511.206C152.986 511.025 152.986 510.834 152.986 510.633C152.956 510.656 152.926 510.677 152.896 510.697C149.639 512.816 145.261 513.876 139.763 513.876C139.749 513.876 139.734 513.876 139.718 513.876C138.724 513.874 137.691 513.838 136.621 513.766C134.642 513.635 132.535 513.384 130.3 513.013V513.022L128.239 512.204C127.904 512.536 127.55 512.893 127.177 513.276C126.837 513.7 125.379 514.983 122.799 517.127C122.402 517.524 121.93 517.963 121.382 518.444C121.346 518.478 121.31 518.511 121.274 518.543C120.831 518.937 120.413 519.33 120.02 519.724C119.046 520.686 118.214 521.645 117.522 522.602C117.292 522.919 117.078 523.237 116.878 523.556C115.337 526.02 114.743 528.454 115.098 530.857C115.175 530.891 115.25 530.924 115.325 530.958ZM220.426 501.071C212.479 504.631 204.266 505.551 195.788 503.831C194.805 503.631 193.819 503.394 192.827 503.123H192.818C192.564 503.982 192.388 504.751 192.292 505.43C191.872 507.507 191.767 509.395 191.974 511.097C192.182 512.831 192.718 514.369 193.581 515.71C193.919 516.219 194.307 516.691 194.743 517.127C196.196 518.41 197.994 519.222 200.138 519.561C201.675 519.9 204.285 519.942 207.966 519.688C211.477 519.434 214.05 519.476 215.685 519.816C218.337 520.421 220.347 521.922 221.715 524.32C225.566 527.226 230.149 528.722 235.465 528.806C240.672 528.884 245.122 527.262 248.814 523.939C248.475 520.427 246.205 517.642 242.003 515.584C236.954 513.525 233.442 511.769 231.468 510.316C230.355 509.372 229.331 508.512 228.399 507.737C226.256 506.029 224.543 504.662 223.259 503.632C222.23 502.687 221.285 501.834 220.426 501.071Z" fill="#2A2A2A"/>
<path fill-rule="evenodd" clip-rule="evenodd" d="M152.986 515.129C152.986 515.234 152.986 515.343 152.986 515.456C152.817 516.485 152.562 517.466 152.223 518.399C152.139 518.665 152.054 518.925 151.969 519.18C150.516 522.267 147.689 523.811 143.487 523.811C142.705 528.496 140.292 531.571 136.249 533.038C134.974 533.501 133.536 533.804 131.935 533.946C128.583 534.28 125.074 533.977 121.41 533.038C119.924 532.658 118.414 532.174 116.878 531.585C116.364 531.388 115.846 531.18 115.325 530.958C114.987 532.24 114.911 533.515 115.098 534.781C121.092 537.361 126.704 538.39 131.935 537.869C136.348 537.477 139.526 535.866 141.471 533.038C142.466 531.589 143.139 529.821 143.487 527.734C147.689 527.734 150.516 526.19 151.969 523.103C152.054 522.848 152.139 522.588 152.223 522.321C152.562 521.389 152.816 520.408 152.986 519.379C152.986 519.04 152.986 518.737 152.986 518.471C153.071 517.962 153.071 516.848 152.986 515.129ZM192.827 503.123C193.819 503.394 194.805 503.63 195.788 503.832C204.266 505.551 212.479 504.631 220.426 501.071L224.303 435.602L224.812 427.02C225.366 418.227 225.187 410.538 224.276 403.953C223.344 398.734 223.216 392.656 223.895 385.717C223.895 385.111 224.755 379.076 226.474 367.609C228.405 362.653 230.091 357.574 231.532 352.37C231.966 350.8 232.378 349.22 232.768 347.629C235.667 335.783 237.335 323.304 237.772 310.195C238.462 291.003 236.494 271.387 231.869 251.347C230.924 246.648 230.192 243.101 229.671 240.703C228.739 236.417 227.328 233.075 225.439 230.677C224.325 231.016 223.296 231.489 222.351 232.094C219.869 233.378 217.217 234.492 214.396 235.436L196.5 239.5L194.5 253.5L193.5 267L191.5 281.5C191.5 283 190.718 288.775 190.112 289.126C189.168 299.055 189.767 312.454 191.91 329.321C194.223 348.683 195.38 362.088 195.38 369.534C197.099 376.981 197.056 387.128 195.252 399.975C194.054 407.858 193.37 412.907 193.2 415.124C192.691 420.863 192.648 425.961 193.072 430.417L192.827 503.096V503.123ZM248.814 523.938C245.122 527.261 240.672 528.884 235.465 528.806C230.149 528.721 225.566 527.226 221.715 524.319C220.347 521.922 218.337 520.42 215.685 519.815C214.05 519.476 211.477 519.433 207.966 519.688C204.285 519.942 201.675 519.9 200.138 519.561C197.995 519.221 196.196 518.41 194.743 517.127C194.307 516.691 193.919 516.219 193.581 515.71C192.717 514.369 192.181 512.831 191.974 511.096C191.627 514.367 192.162 517.103 193.581 519.306C193.919 519.814 194.307 520.287 194.743 520.723C196.196 522.006 197.994 522.817 200.138 523.156C201.675 523.495 204.285 523.538 207.966 523.284C211.477 523.029 214.05 523.072 215.685 523.411C218.337 524.017 220.347 525.518 221.715 527.916C225.566 530.822 230.149 532.317 235.465 532.402C241.107 532.487 245.557 530.864 248.814 527.534V523.938Z" fill="#343434"/>
<path fill-rule="evenodd" clip-rule="evenodd" d="M190.111 289.126C191.564 286.897 191.5 288 194.5 281.5C197.5 275 197.001 275.376 198.001 267C198.5 257 198.001 259.113 198.001 252L197.001 239.5C197.001 239.5 181.302 238.59 180.357 238.505C179.413 238.42 178.426 238.336 177.397 238.251C177.228 238.251 177.015 238.208 176.761 238.124C175.986 237.954 173.505 237.657 169.314 237.233C169.217 237.233 169.126 237.233 169.042 237.233C162.964 236.543 158.768 234.612 156.455 231.439C154.324 236.15 152.956 243.433 152.35 253.29C151.757 263.388 150.516 270.751 148.627 275.376C143.311 289.761 140.187 305.732 139.255 323.29C138.395 337.76 139.037 354.113 141.18 372.349C141.434 379.033 140.017 387.987 136.93 399.212C133.6 411.708 131.759 420.657 131.408 426.057C131.214 428.724 131.099 431.588 131.062 434.648C131.059 435.014 131.056 435.384 131.054 435.756L130.818 467.796L128.23 512.205H128.239L130.3 513.022V513.013C132.535 513.384 134.642 513.635 136.621 513.766C137.691 513.838 138.723 513.875 139.718 513.876C139.733 513.876 139.749 513.876 139.763 513.876C145.26 513.876 149.638 512.816 152.895 510.697C152.925 510.677 152.955 510.656 152.986 510.633C154.058 509.92 155.008 509.095 155.837 508.154L161.985 437.809C162.54 435.099 162.967 432.804 163.266 430.925C164.549 422.618 164.895 415.044 164.301 408.203C164.047 404.001 164.901 398.734 166.862 392.401C169.43 383.924 170.889 378.7 171.239 376.726C172.172 367.39 174.267 356.341 177.524 343.578C181.641 329.108 184.595 318.235 186.388 310.958C187.077 309.069 187.508 305.345 187.677 299.787C187.847 294.908 188.658 291.354 190.111 289.126Z" fill="#313131"/>
<path fill-rule="evenodd" clip-rule="evenodd" d="M198.23 102L188.695 99.521L185.498 104.788L197.685 112.635L201.281 109.928L198.23 102.009L198.23 102Z" fill="#5A74B7"/>
<path fill-rule="evenodd" clip-rule="evenodd" d="M207.241 125.785C205.44 120.237 203.454 114.952 201.283 109.929L197.687 112.635C199.527 119.143 201.032 126.29 202.2 134.076C202.886 132.866 203.61 131.628 204.371 130.362C205.382 128.756 206.339 127.231 207.241 125.785ZM205.152 170.013C205.332 177.04 205.332 184.414 205.152 192.135L212.98 216.292C215.801 208.325 217.727 198.177 218.756 185.851C217.97 177.014 216.904 168.571 215.559 160.522C215.428 160.742 215.294 160.963 215.159 161.185C214.82 164.527 213.022 167.01 209.765 168.632C208.333 169.348 206.796 169.808 205.152 170.013Z" fill="#85ACD6"/>
<path fill-rule="evenodd" clip-rule="evenodd" d="M280.001 11.7214C276.006 18.8534 273.874 25.7248 273.608 32.3365C273.366 37.8822 274.456 43.2527 276.877 48.4471C279.844 54.8163 284.79 60.9253 291.717 66.7737L302.396 67.2821C300.374 65.7325 298.515 64.1705 296.82 62.5961C291.25 57.4743 287.188 52.1521 284.633 46.6307C282.223 41.4363 281.134 36.06 281.364 30.5019C281.606 24.4598 283.41 18.2118 286.776 11.7573C287.769 9.85631 288.889 7.93723 290.136 6L280.001 11.7214ZM226.438 63.4315C225.881 62.4629 225.379 61.4943 224.931 60.5253C222.582 55.4521 221.486 50.2087 221.644 44.7961L214.524 48.81C211.63 54.5738 213.143 59.3204 219.064 63.0497L226.438 63.4315ZM292.461 28.6492C288.332 34.7401 289.016 38.8207 294.514 40.8912C296.802 35.9871 296.118 31.9064 292.461 28.6492Z" fill="#00E8D3"/>
<path fill-rule="evenodd" clip-rule="evenodd" d="M258.786 83.9555C257.998 84.7048 256.86 85.5707 255.372 86.5529C254.342 87.2432 253.87 87.7578 253.955 88.0968C254.124 88.4357 255.111 88.7326 256.915 88.9866C258.368 90.7061 257.508 92.8491 254.336 95.4164C253.179 96.4011 251.587 97.4852 249.559 98.6674C251.183 100.285 253.205 101.212 255.626 101.447C257.623 101.701 259.391 101.15 260.929 99.7935C261.256 99.5024 261.559 99.2088 261.837 98.9128C263.783 96.8498 264.567 94.6672 264.19 92.365C263.978 91.0826 263.406 89.7627 262.473 88.4052C261.386 86.8523 260.157 85.3691 258.786 83.9555ZM255.245 79.3784C254.747 79.5834 254.19 79.7471 253.573 79.8687C251.854 80.8983 251.127 81.455 251.394 81.54C251.479 81.54 252.332 81.328 253.955 80.9041C254.686 80.7359 255.353 80.6085 255.953 80.5227C255.701 80.1466 255.465 79.7652 255.245 79.3784ZM237.345 75.2104C240.851 71.8889 244.759 69.9302 249.069 69.3344C250.265 68.7727 251.421 68.5637 252.538 68.7076C252.536 68.5847 252.536 68.4606 252.538 68.3352C252.554 67.8676 252.554 67.3984 252.538 66.9275C252.517 66.3085 252.469 65.6879 252.393 65.0657C252.381 64.9622 252.369 64.8591 252.357 64.7568C252.329 64.5519 252.298 64.3523 252.266 64.1573L237.609 63.2493C237.505 63.4922 237.408 63.7375 237.318 63.9849C236.404 66.532 236.229 69.4049 236.791 72.6031C236.946 73.4665 237.131 74.3349 237.345 75.2104ZM286.775 11.7573C301.875 23.9748 305.223 40.9212 296.82 62.5961C298.515 64.1701 300.374 65.7321 302.396 67.2821C315.449 39.977 311.362 19.5499 290.136 6C288.888 7.93723 287.768 9.85631 286.775 11.7573ZM284.632 46.6303L294.512 40.8911C289.015 38.8203 288.331 34.7401 292.46 28.6492L281.363 30.5019C281.133 36.0596 282.223 41.4359 284.632 46.6303Z" fill="#098378"/>
</svg>
