<svg width="661" height="554" viewBox="0 0 661 554" fill="none" xmlns="http://www.w3.org/2000/svg">
<path d="M615.377 4.63317L617.232 8.73311C629.278 3.28314 640.281 5.02012 647.149 11.6583C654.077 18.3547 658.067 31.2699 653.21 50.7467L653.19 50.8239L653.174 50.9016L553.798 519.24L553.797 519.248L553.795 519.255C550.448 535.311 544.214 543.893 536.764 547.247C529.335 550.591 519.04 549.488 505.725 542.214L354.585 430.576L351.513 428.307L348.774 430.97L276.008 501.729C276.005 501.731 276.002 501.734 275.999 501.737C275.769 501.959 275.542 502.179 275.317 502.396C271.271 506.305 268.027 509.44 264.162 511.747C261.264 513.477 257.949 514.769 253.647 515.318L263.523 367.747L543.018 115.504C543.022 115.5 543.027 115.496 543.031 115.492C546.357 112.537 548.906 109.082 549.048 105.308C549.125 103.259 548.467 101.349 547.179 99.814C545.951 98.3504 544.331 97.4356 542.726 96.8846C539.568 95.8005 535.659 95.8317 531.683 96.6556C527.621 97.4975 523.133 99.2368 518.633 101.975L518.601 101.994L518.57 102.013L173.65 319.636L25.7967 273.513L25.7867 273.51L25.7766 273.507C18.0853 271.147 12.7265 268.172 9.46655 265.089C6.28382 262.079 5.27174 259.173 5.54262 256.481C5.83048 253.619 7.66566 249.993 12.2594 245.931C16.8195 241.898 23.7636 237.75 33.4123 233.872C33.422 233.868 33.4316 233.864 33.4413 233.86L616.996 8.83181L615.377 4.63317Z" stroke="#5A74B7" stroke-opacity="0.05" stroke-width="9"/>
</svg>
