<svg width="80" height="80" viewBox="0 0 80 80" fill="none" xmlns="http://www.w3.org/2000/svg">
<rect width="80" height="80" rx="16" fill="#FF8200"/>
<path d="M51.2533 25H28.7467C27.4889 25.0035 26.2836 25.5047 25.3942 26.3942C24.5047 27.2836 24.0035 28.4889 24 29.7467V52.2533C24.0035 53.5111 24.5047 54.7164 25.3942 55.6058C26.2836 56.4953 27.4889 56.9965 28.7467 57H51.2533C52.5111 56.9965 53.7164 56.4953 54.6058 55.6058C55.4953 54.7164 55.9965 53.5111 56 52.2533V29.7467C55.9965 28.4889 55.4953 27.2836 54.6058 26.3942C53.7164 25.5047 52.5111 25.0035 51.2533 25V25ZM53.3333 52.2533C53.3333 52.805 53.1142 53.334 52.7241 53.7241C52.334 54.1142 51.805 54.3333 51.2533 54.3333H28.7467C28.195 54.3333 27.666 54.1142 27.2759 53.7241C26.8858 53.334 26.6667 52.805 26.6667 52.2533V29.7467C26.6667 29.195 26.8858 28.666 27.2759 28.2759C27.666 27.8858 28.195 27.6667 28.7467 27.6667H51.2533C51.805 27.6667 52.334 27.8858 52.7241 28.2759C53.1142 28.666 53.3333 29.195 53.3333 29.7467V52.2533Z" fill="white"/>
<path d="M40 33C38.4178 33 36.871 33.4692 35.5554 34.3482C34.2398 35.2273 33.2145 36.4767 32.609 37.9385C32.0035 39.4003 31.845 41.0089 32.1537 42.5607C32.4624 44.1126 33.2243 45.538 34.3431 46.6569C35.462 47.7757 36.8874 48.5376 38.4393 48.8463C39.9911 49.155 41.5997 48.9965 43.0615 48.391C44.5233 47.7855 45.7727 46.7602 46.6518 45.4446C47.5308 44.129 48 42.5823 48 41C48 38.8783 47.1572 36.8434 45.6569 35.3431C44.1566 33.8429 42.1217 33 40 33ZM40 46.3333C38.9452 46.3333 37.914 46.0205 37.037 45.4345C36.1599 44.8485 35.4763 44.0155 35.0726 43.041C34.669 42.0664 34.5634 40.9941 34.7691 39.9595C34.9749 38.925 35.4829 37.9746 36.2288 37.2288C36.9746 36.4829 37.925 35.9749 38.9595 35.7691C39.9941 35.5634 41.0664 35.669 42.041 36.0726C43.0155 36.4763 43.8485 37.1599 44.4345 38.037C45.0205 38.914 45.3333 39.9452 45.3333 41C45.3333 42.4145 44.7714 43.771 43.7712 44.7712C42.771 45.7714 41.4145 46.3333 40 46.3333Z" fill="white"/>
<path d="M48.666 34.3335C49.7706 34.3335 50.666 33.4381 50.666 32.3335C50.666 31.2289 49.7706 30.3335 48.666 30.3335C47.5614 30.3335 46.666 31.2289 46.666 32.3335C46.666 33.4381 47.5614 34.3335 48.666 34.3335Z" fill="white"/>
</svg>
