<svg width="80" height="80" viewBox="0 0 80 80" fill="none" xmlns="http://www.w3.org/2000/svg">
<rect width="80" height="80" rx="16" fill="#FF8200"/>
<path d="M58.2386 24.8761C57.7767 24.3111 57.0847 24 56.29 24C55.858 24 55.4003 24.0909 54.93 24.2707L22.9138 36.4922C21.2148 37.1406 20.9859 38.1137 21.0006 38.636C21.0154 39.1583 21.299 40.1169 23.0321 40.6683C23.0425 40.6715 23.0529 40.6747 23.0633 40.6775L29.7043 42.578L33.2958 52.848C33.7855 54.2481 34.8846 55.1179 36.1647 55.1179C36.9718 55.1179 37.7656 54.7797 38.4605 54.1402L42.5682 50.358L48.5262 55.1554C48.5267 55.156 48.5276 55.1562 48.5282 55.1568L48.5847 55.2024C48.5899 55.2065 48.5954 55.2108 48.6006 55.2148C49.2629 55.7285 49.9857 55.9997 50.6918 56H50.6921C52.0717 56 53.1703 54.9788 53.4903 53.3986L58.7361 27.496C58.9468 26.4563 58.7702 25.5259 58.2386 24.8761V24.8761ZM31.926 42.217L44.7385 35.6715L36.7606 44.1487C36.6298 44.2875 36.5372 44.4574 36.4916 44.6424L34.9533 50.8737L31.926 42.217ZM36.9591 52.5098C36.906 52.5586 36.8526 52.6022 36.7992 52.6423L38.2265 46.8618L40.8227 48.9524L36.9591 52.5098ZM56.5641 27.0559L51.3183 52.9588C51.2678 53.2067 51.1065 53.7835 50.6918 53.7835C50.487 53.7835 50.2296 53.6719 49.9661 53.469L43.2149 48.033C43.214 48.0322 43.2128 48.0313 43.2117 48.0307L39.1946 44.7959L50.7317 32.5369C51.101 32.1444 51.1345 31.5433 50.811 31.1122C50.4872 30.6811 49.9006 30.5455 49.4207 30.7908L30.4453 40.4848L23.714 38.5589L55.7203 26.3411C55.9907 26.2378 56.1795 26.2162 56.29 26.2162C56.3578 26.2162 56.4784 26.2243 56.5231 26.2794C56.582 26.3512 56.657 26.5962 56.5641 27.0559V27.0559Z" fill="white"/>
</svg>
