<svg width="32" height="32" viewBox="0 0 32 32" fill="none" xmlns="http://www.w3.org/2000/svg">
<path d="M27.8271 14.49L15.3684 1.64192C14.9398 1.16841 14.3276 0.947431 13.7154 1.01057L6.49111 1.76819C5.51155 1.8629 4.71566 2.68366 4.62382 3.69383L3.88915 11.1438C3.82793 11.8068 4.04221 12.4381 4.50138 12.8801L8.84817 17.3627C7.89922 18.7833 7.31761 20.4879 7.31761 22.3188C7.31761 27.0856 11.0828 31 15.7357 31C20.3886 31 24.1232 27.1172 24.1232 22.3188C24.1232 22.0032 24.0926 21.6875 24.062 21.3718L27.7965 17.5205C28.6536 16.6998 28.6536 15.3108 27.8271 14.49ZM15.7357 29.4532C11.9093 29.4532 8.81756 26.2648 8.81756 22.3188C8.81756 18.3729 11.9093 15.1845 15.7357 15.1845C19.5621 15.1845 22.6232 18.4044 22.6232 22.3188C22.6232 26.2333 19.5315 29.4532 15.7357 29.4532ZM26.7863 16.4472L23.6946 19.604C22.5926 16.1631 19.4397 13.6693 15.7357 13.6693C13.4399 13.6693 11.3277 14.6479 9.82773 16.1947L5.54216 11.8068C5.41971 11.6805 5.35849 11.4911 5.3891 11.3017L6.09316 3.85167C6.12377 3.56756 6.33805 3.31502 6.64416 3.28345L13.8684 2.55739C13.8684 2.52582 13.899 2.52582 13.9296 2.52582C14.0827 2.52582 14.2357 2.58896 14.3582 2.71523L26.817 15.5633C27.0006 15.8159 27.0006 16.1947 26.7863 16.4472Z" fill="#122861"/>
<path d="M10.4406 4.9248C8.91 4.9248 7.68555 6.21909 7.68555 7.76591C7.68555 9.3443 8.94061 10.6386 10.4406 10.6386C11.9711 10.6386 13.2262 9.3443 13.2262 7.76591C13.2262 6.18752 11.9711 4.9248 10.4406 4.9248ZM10.4406 9.09176C9.7365 9.09176 9.15489 8.49197 9.15489 7.76591C9.15489 7.03985 9.7365 6.44006 10.4406 6.44006C11.1446 6.44006 11.7262 7.03985 11.7262 7.76591C11.7262 8.49197 11.1446 9.09176 10.4406 9.09176Z" fill="#122861"/>
<path d="M16.2885 21.5613H15.1865C14.7273 21.5613 14.36 21.1825 14.36 20.709C14.36 20.2355 14.7273 19.8567 15.1865 19.8567H16.2885C16.5946 19.8567 16.8701 20.0145 17.0231 20.2986C17.2068 20.6774 17.666 20.8353 18.0333 20.6459C18.4006 20.4565 18.5537 19.983 18.37 19.6041C18.0027 18.8781 17.2986 18.4046 16.5027 18.3414V17.5838C16.5027 17.1419 16.166 16.8262 15.7681 16.8262C15.3395 16.8262 15.0334 17.1734 15.0334 17.5838V18.3099C13.8396 18.4046 12.8906 19.4463 12.8906 20.6774C12.8906 22.0033 13.9314 23.0766 15.2171 23.0766H16.3191C16.7783 23.0766 17.1456 23.4554 17.1456 23.9289C17.1456 24.4025 16.7783 24.7813 16.3191 24.7813H15.2171C14.9416 24.7813 14.6661 24.6234 14.5436 24.4025C14.4212 24.1183 14.1763 23.9289 13.8396 23.9289C13.411 23.9289 13.1049 24.2762 13.1049 24.7181C13.1049 24.8444 13.1355 24.9707 13.1967 25.0654C13.5641 25.7914 14.2681 26.2334 15.0334 26.2965V27.0541C15.0334 27.4961 15.3701 27.8118 15.7681 27.8118C16.1966 27.8118 16.5027 27.4645 16.5027 27.0541V26.2965C17.6966 26.2018 18.6455 25.1916 18.6455 23.9289C18.6149 22.6347 17.5741 21.5613 16.2885 21.5613Z" fill="#122861"/>
</svg>
