<svg width="32" height="32" viewBox="0 0 32 32" fill="none" xmlns="http://www.w3.org/2000/svg">
<path d="M30.9991 16.0304C30.9993 15.9484 30.9829 15.8673 30.9509 15.7918C30.9189 15.7163 30.872 15.6481 30.813 15.5912L27.9416 12.8256L29.0609 9.00036C29.084 8.92163 29.091 8.83903 29.0813 8.75755C29.0716 8.67607 29.0456 8.59739 29.0047 8.52623C28.9639 8.45508 28.909 8.39293 28.8435 8.34352C28.778 8.29411 28.7032 8.25846 28.6235 8.23872L24.7545 7.27996L23.8109 3.40723C23.7915 3.32758 23.7562 3.25269 23.7071 3.18704C23.658 3.12139 23.5961 3.06634 23.5252 3.02521C23.4543 2.98407 23.3758 2.95769 23.2944 2.94765C23.213 2.93761 23.1305 2.94412 23.0517 2.96678L19.2191 4.07093L16.4682 1.18798C16.4114 1.12887 16.3433 1.08177 16.2679 1.04948C16.1926 1.01719 16.1115 1.00036 16.0296 1V1C15.9478 0.999998 15.8669 1.01648 15.7916 1.04847C15.7163 1.08045 15.6483 1.12728 15.5915 1.18615L12.826 4.05755L9.00072 2.93819C8.92198 2.9151 8.83939 2.90818 8.75791 2.91785C8.67643 2.92751 8.59774 2.95355 8.52659 2.99442C8.45544 3.03528 8.39328 3.09011 8.34387 3.15562C8.29446 3.22113 8.25881 3.29595 8.23907 3.37559L7.28032 7.24468L3.40637 8.18822C3.32672 8.20765 3.25183 8.24298 3.18618 8.29208C3.12053 8.34119 3.06548 8.40305 3.02434 8.47396C2.98321 8.54488 2.95683 8.62337 2.94679 8.70474C2.93675 8.7861 2.94326 8.86865 2.96592 8.94744L4.07007 12.78L1.18712 15.531C1.12796 15.5877 1.08089 15.6559 1.04873 15.7313C1.01658 15.8067 1 15.8879 1 15.9699C1 16.0519 1.01658 16.133 1.04873 16.2085C1.08089 16.2839 1.12796 16.352 1.18712 16.4088L4.05851 19.1743L2.93916 22.9996C2.91607 23.0784 2.90915 23.161 2.91881 23.2424C2.92847 23.3239 2.95452 23.4026 2.99538 23.4738C3.03624 23.5449 3.09108 23.6071 3.15658 23.6565C3.22209 23.7059 3.29692 23.7415 3.37656 23.7613L7.24564 24.72L8.18736 28.5928C8.20679 28.6724 8.24212 28.7473 8.29122 28.813C8.34033 28.8786 8.40219 28.9337 8.47311 28.9748C8.54402 29.0159 8.62251 29.0423 8.70388 29.0524C8.78524 29.0624 8.86779 29.0559 8.94658 29.0332L12.7792 27.9291L15.5325 30.812C15.5893 30.8711 15.6574 30.9182 15.7328 30.9505C15.8081 30.9828 15.8892 30.9996 15.9712 31V31C16.0529 31 16.1339 30.9835 16.2091 30.9515C16.2844 30.9195 16.3524 30.8727 16.4092 30.8138L19.1747 27.9424L23 29.0618C23.0787 29.0849 23.1613 29.0918 23.2428 29.0822C23.3243 29.0725 23.403 29.0464 23.4741 29.0056C23.5453 28.9647 23.6074 28.9099 23.6568 28.8444C23.7063 28.7789 23.7419 28.704 23.7616 28.6244L24.7204 24.7553L28.5919 23.8118C28.6716 23.7923 28.7465 23.757 28.8121 23.7079C28.8778 23.6588 28.9328 23.5969 28.9739 23.526C29.0151 23.4551 29.0415 23.3766 29.0515 23.2953C29.0615 23.2139 29.055 23.1313 29.0324 23.0526L27.9282 19.22L30.8112 16.4666C30.87 16.4101 30.9169 16.3424 30.9492 16.2675C30.9815 16.1926 30.9985 16.112 30.9991 16.0304V16.0304ZM26.8216 18.597C26.7413 18.6738 26.6835 18.771 26.6546 18.8783C26.6256 18.9855 26.6266 19.0986 26.6574 19.2054L27.6879 22.78L24.0731 23.6603C23.9653 23.6867 23.8667 23.7421 23.7881 23.8205C23.7095 23.8988 23.6539 23.9972 23.6272 24.105L22.7317 27.7161L19.1625 26.671C19.056 26.6405 18.9432 26.6395 18.836 26.668C18.7289 26.6965 18.6315 26.7534 18.5542 26.8328L15.9736 29.5126L13.4021 26.8225C13.3453 26.7631 13.277 26.7158 13.2014 26.6835C13.1258 26.6511 13.0445 26.6345 12.9623 26.6345C12.9053 26.6346 12.8486 26.6426 12.7938 26.6582L9.21912 27.6888L8.33884 24.074C8.31246 23.9661 8.25707 23.8676 8.17868 23.789C8.10029 23.7104 8.00189 23.6547 7.89414 23.6281L4.28299 22.7326L5.32813 19.1634C5.3592 19.0569 5.36055 18.9439 5.33203 18.8367C5.3035 18.7294 5.2462 18.6321 5.16631 18.5551L2.48959 15.9744L5.1797 13.4048C5.26001 13.328 5.31777 13.2308 5.34673 13.1235C5.37568 13.0163 5.37472 12.9032 5.34395 12.7964L4.31341 9.2218L7.92821 8.34153C8.03603 8.31514 8.13459 8.25975 8.21319 8.18137C8.29179 8.10298 8.34744 8.00458 8.37412 7.89682L9.26961 4.28568L12.8357 5.32899C12.9423 5.36006 13.0552 5.36141 13.1625 5.33289C13.2697 5.30436 13.3671 5.24706 13.4441 5.16717L16.0247 2.49045L18.5943 5.18056C18.6711 5.26087 18.7684 5.31863 18.8756 5.34759C18.9828 5.37654 19.096 5.37558 19.2027 5.34481L22.7773 4.31427L23.6576 7.92907C23.684 8.03689 23.7394 8.13545 23.8178 8.21405C23.8962 8.29265 23.9946 8.3483 24.1023 8.37498L27.7135 9.27047L26.6701 12.8366C26.6391 12.9431 26.6377 13.0561 26.6663 13.1633C26.6948 13.2706 26.7521 13.3679 26.832 13.4449L29.5117 16.0255L26.8216 18.597ZM21.0423 10.9556C21.1564 11.0697 21.2204 11.2244 21.2204 11.3857C21.2204 11.547 21.1564 11.7017 21.0423 11.8158L11.8137 21.0444C11.699 21.1552 11.5453 21.2165 11.3858 21.2152C11.2263 21.2138 11.0737 21.1498 10.9609 21.037C10.8481 20.9242 10.7842 20.7716 10.7828 20.6121C10.7814 20.4526 10.8427 20.2989 10.9535 20.1842L20.1821 10.9556C20.2386 10.8989 20.3058 10.854 20.3797 10.8233C20.4536 10.7927 20.5328 10.7769 20.6128 10.7769C20.6929 10.7769 20.7721 10.7927 20.846 10.8233C20.9199 10.854 20.987 10.8989 21.0435 10.9556H21.0423ZM13.1089 15.2511C13.6043 15.2508 14.0843 15.0788 14.4671 14.7643C14.8498 14.4498 15.1117 14.0124 15.2081 13.5264C15.3045 13.0405 15.2295 12.5362 14.9957 12.0994C14.762 11.6626 14.384 11.3203 13.9262 11.131C13.4684 10.9416 12.9591 10.9168 12.4851 11.0609C12.0111 11.2049 11.6017 11.5088 11.3267 11.9208C11.0516 12.3329 10.9279 12.8275 10.9767 13.3205C11.0255 13.8135 11.2437 14.2744 11.5941 14.6245C11.7929 14.8235 12.0291 14.9813 12.289 15.0888C12.549 15.1964 12.8276 15.2515 13.1089 15.2511V15.2511ZM12.4543 12.4527C12.5838 12.3232 12.7488 12.235 12.9284 12.1992C13.108 12.1635 13.2942 12.1818 13.4634 12.2519C13.6326 12.3219 13.7772 12.4406 13.879 12.5929C13.9807 12.7451 14.0351 12.9242 14.0351 13.1073C14.0351 13.2905 13.9807 13.4695 13.879 13.6218C13.7772 13.774 13.6326 13.8927 13.4634 13.9628C13.2942 14.0328 13.108 14.0512 12.9284 14.0154C12.7488 13.9796 12.5838 13.8914 12.4543 13.7619C12.281 13.5886 12.1837 13.3536 12.1837 13.1085C12.1837 12.8635 12.281 12.6285 12.4543 12.4552V12.4527ZM17.3746 17.373C17.0751 17.6726 16.8711 18.0543 16.7885 18.4698C16.7059 18.8853 16.7484 19.3159 16.9105 19.7073C17.0726 20.0987 17.3472 20.4332 17.6994 20.6685C18.0517 20.9039 18.4658 21.0295 18.8894 21.0295C19.313 21.0295 19.7271 20.9039 20.0794 20.6685C20.4316 20.4332 20.7062 20.0987 20.8683 19.7073C21.0304 19.3159 21.0729 18.8853 20.9903 18.4698C20.9076 18.0543 20.7037 17.6726 20.4042 17.373C20.0018 16.9722 19.4569 16.7473 18.8889 16.7477C18.3209 16.7482 17.7763 16.9739 17.3746 17.3755V17.373ZM19.544 19.5424C19.4145 19.6717 19.2497 19.7598 19.0702 19.7954C18.8907 19.831 18.7047 19.8127 18.5357 19.7426C18.3667 19.6725 18.2222 19.5539 18.1206 19.4018C18.0189 19.2497 17.9647 19.0708 17.9647 18.8878C17.9647 18.7049 18.0189 18.526 18.1206 18.3738C18.2222 18.2217 18.3667 18.1031 18.5357 18.033C18.7047 17.963 18.8907 17.9446 19.0702 17.9802C19.2497 18.0159 19.4145 18.1039 19.544 18.2332C19.7177 18.4073 19.8152 18.6431 19.8152 18.889C19.8152 19.1349 19.7177 19.3708 19.544 19.5448V19.5424Z" fill="#122861"/>
</svg>
