<svg width="32" height="32" viewBox="0 0 32 32" fill="none" xmlns="http://www.w3.org/2000/svg">
<path d="M5 3C3.90353 3 3 3.90353 3 5V27C3 28.0965 3.90353 29 5 29H27C28.0965 29 29 28.0965 29 27V5C29 3.90353 28.0965 3 27 3H5ZM5 4.33333H15.3333V15.3333H4.33333V5C4.33333 4.61914 4.61914 4.33333 5 4.33333ZM16.6667 4.33333H27C27.3809 4.33333 27.6667 4.61914 27.6667 5V15.3333H16.6667V4.33333ZM9.92708 6.65625C9.76139 6.67446 9.60853 6.75407 9.49862 6.8794C9.38872 7.00473 9.32975 7.16668 9.33333 7.33333V9.33333H7.33333C7.31251 9.33236 7.29166 9.33236 7.27083 9.33333C7.18327 9.33742 7.09738 9.35872 7.01805 9.396C6.93872 9.43329 6.86751 9.48584 6.80849 9.55065C6.74948 9.61546 6.7038 9.69126 6.67408 9.77372C6.64436 9.85619 6.63118 9.9437 6.63528 10.0313C6.63939 10.1188 6.6607 10.2047 6.698 10.284C6.73531 10.3634 6.78787 10.4345 6.85269 10.4936C6.91751 10.5526 6.99332 10.5982 7.07579 10.6279C7.15826 10.6576 7.24578 10.6708 7.33333 10.6667H9.33333V12.6667C9.33208 12.755 9.34841 12.8427 9.38135 12.9247C9.41429 13.0067 9.4632 13.0813 9.52523 13.1442C9.58726 13.2071 9.66117 13.2571 9.74268 13.2912C9.82418 13.3253 9.91165 13.3428 10 13.3428C10.0883 13.3428 10.1758 13.3253 10.2573 13.2912C10.3388 13.2571 10.4127 13.2071 10.4748 13.1442C10.5368 13.0813 10.5857 13.0067 10.6187 12.9247C10.6516 12.8427 10.6679 12.755 10.6667 12.6667V10.6667H12.6667C12.755 10.6679 12.8427 10.6516 12.9247 10.6187C13.0067 10.5857 13.0813 10.5368 13.1442 10.4748C13.2071 10.4127 13.2571 10.3388 13.2912 10.2573C13.3253 10.1758 13.3428 10.0884 13.3428 10C13.3428 9.91165 13.3253 9.82418 13.2912 9.74268C13.2571 9.66117 13.2071 9.58726 13.1442 9.52523C13.0813 9.4632 13.0067 9.41429 12.9247 9.38135C12.8427 9.34841 12.755 9.33209 12.6667 9.33333H10.6667V7.33333C10.6687 7.23843 10.6505 7.14418 10.6132 7.0569C10.5758 6.96961 10.5203 6.8913 10.4503 6.8272C10.3803 6.7631 10.2974 6.71469 10.2072 6.68521C10.1169 6.65573 10.0214 6.64586 9.92708 6.65625V6.65625ZM19.2708 9.33333C19.1833 9.33742 19.0974 9.35872 19.018 9.396C18.9387 9.43329 18.8675 9.48584 18.8085 9.55065C18.7495 9.61546 18.7038 9.69126 18.6741 9.77372C18.6444 9.85619 18.6312 9.9437 18.6353 10.0313C18.6394 10.1188 18.6607 10.2047 18.698 10.284C18.7353 10.3634 18.7879 10.4345 18.8527 10.4936C18.9175 10.5526 18.9933 10.5982 19.0758 10.6279C19.1583 10.6576 19.2458 10.6708 19.3333 10.6667H24.6667C24.755 10.6679 24.8427 10.6516 24.9247 10.6187C25.0067 10.5857 25.0813 10.5368 25.1442 10.4748C25.2071 10.4127 25.2571 10.3388 25.2912 10.2573C25.3253 10.1758 25.3428 10.0884 25.3428 10C25.3428 9.91165 25.3253 9.82418 25.2912 9.74268C25.2571 9.66117 25.2071 9.58726 25.1442 9.52523C25.0813 9.4632 25.0067 9.41429 24.9247 9.38135C24.8427 9.34841 24.755 9.33209 24.6667 9.33333H19.3333C19.3125 9.33236 19.2917 9.33236 19.2708 9.33333V9.33333ZM4.33333 16.6667H15.3333V27.6667H5C4.61914 27.6667 4.33333 27.3809 4.33333 27V16.6667ZM16.6667 16.6667H27.6667V27C27.6667 27.3809 27.3809 27.6667 27 27.6667H16.6667V16.6667ZM7.92708 19.3229C7.80001 19.3353 7.67916 19.3839 7.57889 19.4629C7.47863 19.542 7.40316 19.6481 7.36148 19.7688C7.31979 19.8895 7.31362 20.0196 7.34372 20.1437C7.37382 20.2678 7.4389 20.3806 7.53125 20.4688L9.0625 22L7.53125 23.5208C7.46701 23.5819 7.4156 23.6552 7.38002 23.7364C7.34445 23.8176 7.32543 23.9051 7.32407 23.9938C7.32271 24.0824 7.33905 24.1704 7.37212 24.2527C7.40519 24.3349 7.45433 24.4098 7.51668 24.4728C7.57902 24.5358 7.6533 24.5858 7.73519 24.6198C7.81707 24.6538 7.90491 24.6711 7.99356 24.6707C8.08222 24.6703 8.16991 24.6523 8.2515 24.6176C8.33309 24.5829 8.40695 24.5323 8.46875 24.4688L10 22.9375L11.5313 24.4688C11.5931 24.5323 11.6669 24.5829 11.7485 24.6176C11.8301 24.6523 11.9178 24.6703 12.0064 24.6707C12.0951 24.6711 12.1829 24.6538 12.2648 24.6198C12.3467 24.5858 12.421 24.5358 12.4833 24.4728C12.5457 24.4098 12.5948 24.3349 12.6279 24.2527C12.661 24.1704 12.6773 24.0824 12.6759 23.9938C12.6746 23.9051 12.6556 23.8176 12.62 23.7364C12.5844 23.6552 12.533 23.5819 12.4688 23.5208L10.9375 22L12.4688 20.4688C12.5721 20.3717 12.6419 20.2441 12.6678 20.1047C12.6937 19.9652 12.6745 19.8211 12.613 19.6934C12.5514 19.5656 12.4507 19.4608 12.3255 19.3941C12.2002 19.3275 12.057 19.3026 11.9167 19.3229C11.7697 19.3441 11.6341 19.4138 11.5313 19.5208L10 21.0521L8.46875 19.5208C8.39904 19.4494 8.31417 19.3945 8.22042 19.3603C8.12667 19.326 8.02643 19.3133 7.92708 19.3229V19.3229ZM19.2708 20C19.1833 20.0041 19.0974 20.0254 19.018 20.0627C18.9387 20.1 18.8675 20.1525 18.8085 20.2173C18.7495 20.2821 18.7038 20.3579 18.6741 20.4404C18.6444 20.5229 18.6312 20.6104 18.6353 20.6979C18.6394 20.7855 18.6607 20.8714 18.698 20.9507C18.7353 21.03 18.7879 21.1012 18.8527 21.1602C18.9175 21.2192 18.9933 21.2649 19.0758 21.2946C19.1583 21.3243 19.2458 21.3375 19.3333 21.3333H24.6667C24.755 21.3346 24.8427 21.3183 24.9247 21.2853C25.0067 21.2524 25.0813 21.2035 25.1442 21.1414C25.2071 21.0794 25.2571 21.0055 25.2912 20.924C25.3253 20.8425 25.3428 20.755 25.3428 20.6667C25.3428 20.5783 25.3253 20.4909 25.2912 20.4093C25.2571 20.3278 25.2071 20.2539 25.1442 20.1919C25.0813 20.1299 25.0067 20.081 24.9247 20.048C24.8427 20.0151 24.755 19.9988 24.6667 20H19.3333C19.3125 19.999 19.2917 19.999 19.2708 20V20ZM19.2708 22.6667C19.1833 22.6708 19.0974 22.6921 19.018 22.7293C18.9387 22.7666 18.8675 22.8192 18.8085 22.884C18.7495 22.9488 18.7038 23.0246 18.6741 23.1071C18.6444 23.1895 18.6312 23.277 18.6353 23.3646C18.6394 23.4521 18.6607 23.538 18.698 23.6174C18.7353 23.6967 18.7879 23.7679 18.8527 23.8269C18.9175 23.8859 18.9933 23.9316 19.0758 23.9613C19.1583 23.991 19.2458 24.0041 19.3333 24H24.6667C24.755 24.0013 24.8427 23.9849 24.9247 23.952C25.0067 23.919 25.0813 23.8701 25.1442 23.8081C25.2071 23.7461 25.2571 23.6722 25.2912 23.5907C25.3253 23.5092 25.3428 23.4217 25.3428 23.3333C25.3428 23.245 25.3253 23.1575 25.2912 23.076C25.2571 22.9945 25.2071 22.9206 25.1442 22.8586C25.0813 22.7965 25.0067 22.7476 24.9247 22.7147C24.8427 22.6817 24.755 22.6654 24.6667 22.6667H19.3333C19.3125 22.6657 19.2917 22.6657 19.2708 22.6667V22.6667Z" fill="#122861"/>
</svg>
