<svg width="32" height="32" viewBox="0 0 32 32" fill="none" xmlns="http://www.w3.org/2000/svg">
<path d="M31 11.1035C30.9993 10.6481 30.8653 10.1862 30.5691 9.80539L28.1921 6.76394C27.7939 6.2584 27.1881 6.00102 26.5827 6C26.2224 6 25.8556 6.09238 25.5314 6.29453L23.2137 7.73651C22.9699 7.89196 22.552 7.99866 22.1484 7.99593C21.8347 7.9973 21.5317 7.93457 21.3316 7.83571L19.0619 6.73633C18.6958 6.56009 18.2877 6.48782 17.8773 6.48714C17.2879 6.48986 16.691 6.63474 16.2114 6.96712L15.9465 7.1529C15.7348 7.04723 15.4113 6.88632 15.0448 6.70395C14.6054 6.4885 14.0886 6.40157 13.5667 6.39987C13.0952 6.40123 12.6238 6.47384 12.2099 6.64872L10.664 7.30835C10.4124 7.41744 10.0122 7.48868 9.61472 7.48698C9.21724 7.48868 8.81771 7.41744 8.56614 7.30835L7.01882 6.64838C6.73656 6.52804 6.43487 6.47657 6.13591 6.47623C5.7916 6.47657 5.44935 6.54441 5.13129 6.67326C4.81358 6.8028 4.51871 6.99405 4.28383 7.25653L1.46669 10.4115C1.15443 10.7602 0.99932 11.1993 1 11.6316C0.99932 12.147 1.21988 12.6641 1.64531 13.0265L4.27326 15.2686L3.02661 16.5691C2.68299 16.9277 2.51187 17.3927 2.51187 17.8525C2.51118 18.3417 2.70549 18.8357 3.09036 19.1994L3.3433 19.4397C3.58159 19.6657 3.86794 19.8096 4.16759 19.8863C4.01725 20.1628 3.9351 20.4658 3.93578 20.7696C3.9351 21.2591 4.12941 21.7527 4.51359 22.1168L4.51291 22.1164L4.76654 22.3578C5.12754 22.7 5.59559 22.8705 6.05682 22.8701C6.30465 22.8705 6.55282 22.8207 6.78599 22.7232C6.8678 23.0552 7.03689 23.3709 7.30278 23.6232L7.55641 23.8645C7.91741 24.2068 8.38478 24.3772 8.84669 24.3769C9.2077 24.3772 9.57041 24.2709 9.88267 24.0643C9.97403 24.3581 10.1305 24.6367 10.3688 24.863L10.6224 25.1044C10.9827 25.4466 11.4508 25.6171 11.912 25.6167C12.4032 25.6171 12.8992 25.4241 13.2657 25.0416L14.3675 23.8911L15.8643 25.2765C16.2226 25.6089 16.6825 25.7742 17.1365 25.7732C17.6353 25.7742 18.1384 25.5744 18.5056 25.1814L18.7445 24.9254C18.9508 24.7038 19.0854 24.4417 19.1635 24.1679L19.7434 24.7031C20.1023 25.0341 20.5615 25.1988 21.0149 25.1984C21.5143 25.1988 22.0188 24.999 22.3863 24.6056L22.6239 24.35C22.8983 24.0568 23.0528 23.6937 23.1005 23.3228C23.2535 23.362 23.4086 23.3886 23.5651 23.3886C24.0645 23.3886 24.5677 23.1892 24.9355 22.7962L25.1738 22.5405C25.5068 22.1836 25.6725 21.7258 25.6718 21.2744C25.6718 21.1343 25.6517 20.9949 25.6207 20.8572C26.0349 20.8023 26.4365 20.6175 26.7419 20.2896L26.9809 20.0336C27.3139 19.6766 27.4789 19.2188 27.4789 18.7671C27.4796 18.2701 27.2791 17.7687 26.8837 17.4032L26.4368 16.9904L30.4703 12.5308C30.8323 12.1293 30.9993 11.6125 31 11.1035ZM3.79431 18.4651C3.61909 18.2994 3.5325 18.0789 3.53182 17.8525C3.5325 17.6402 3.60852 17.4329 3.76499 17.2696L6.31828 14.6052C6.48464 14.4317 6.70656 14.3447 6.93428 14.3444C7.14734 14.3447 7.35562 14.4214 7.52027 14.5765L7.77254 14.8172C7.77254 14.8172 8.03366 15.2034 8.03434 15.4301C8.03366 15.5999 7.98253 15.7652 7.88333 15.9084C7.8748 15.9169 5.12754 18.7801 5.12754 18.7801C4.98164 18.8834 4.80915 18.9366 4.63359 18.9373C4.41985 18.9366 4.21088 18.8602 4.04759 18.7054L3.79431 18.4651ZM6.0575 21.855C5.84376 21.8546 5.63547 21.7779 5.4715 21.6232L5.21788 21.3821L5.2172 21.3818C5.04334 21.2168 4.95607 20.9956 4.95607 20.7692C4.95607 20.5568 5.03277 20.3496 5.18856 20.1863C5.18856 20.1863 8.59204 16.6434 8.62068 16.6093C8.78328 16.4528 8.99293 16.372 9.2094 16.3717C9.42314 16.372 9.63143 16.4484 9.7954 16.6035L10.049 16.8448C10.2236 17.0098 10.3101 17.2307 10.3108 17.4574C10.3101 17.6698 10.2334 17.8774 10.0777 18.0407L6.67281 21.5949C6.5068 21.7677 6.28522 21.8543 6.0575 21.855ZM8.84737 23.3617C8.63363 23.3614 8.42535 23.2847 8.26138 23.1296L8.00707 22.8885C7.83253 22.7232 7.74526 22.5023 7.74526 22.276C7.74526 22.0864 7.80969 21.9027 7.9331 21.7496L10.3033 19.2758C10.4632 19.1316 10.6637 19.0555 10.8713 19.0555C11.085 19.0559 11.2933 19.1322 11.4573 19.2873L11.7116 19.5287C11.8854 19.6937 11.9727 19.9146 11.9734 20.1409C11.9727 20.3537 11.8953 20.5613 11.7402 20.7242L9.46234 23.1013C9.29667 23.2744 9.07509 23.361 8.84737 23.3617ZM12.5277 24.3411C12.362 24.5143 12.1401 24.6009 11.9123 24.6015C11.6986 24.6012 11.4903 24.5245 11.3264 24.3694L11.0727 24.1284C10.8989 23.9634 10.8116 23.7421 10.8109 23.5158C10.8116 23.3031 10.8883 23.0955 11.0441 22.9329L12.4816 21.4319C12.648 21.2587 12.8699 21.1718 13.0976 21.1715C13.3107 21.1718 13.5197 21.2482 13.6836 21.4036L13.9379 21.6446C14.1118 21.8096 14.1984 22.0305 14.1991 22.2569C14.1984 22.4696 14.1217 22.6772 13.9659 22.8401L12.5277 24.3411ZM26.234 19.3433L25.9957 19.5989C25.8293 19.7769 25.6037 19.8669 25.3725 19.8672C25.1629 19.8669 24.9577 19.7932 24.7947 19.6426L20.779 15.9289L20.0846 16.6724L24.3829 20.6543C24.5619 20.82 24.6519 21.045 24.6532 21.2748C24.6519 21.4841 24.5779 21.6879 24.4269 21.8502L24.1893 22.1059C24.0229 22.2838 23.7973 22.3735 23.5661 22.3741C23.3565 22.3735 23.1506 22.2995 22.989 22.1498L18.9723 18.4361L18.2785 19.1796L21.8433 22.4761C22.0151 22.6407 22.103 22.8599 22.103 23.0849C22.103 23.2935 22.029 23.4977 21.878 23.6597L21.6397 23.9153C21.4741 24.0933 21.2477 24.1833 21.0159 24.1839C20.8056 24.1833 20.6004 24.1093 20.4381 23.9596L16.8805 20.6751H16.8798L16.8792 20.6744L16.1868 21.4193L16.1875 21.42L16.2008 21.4326L17.9826 23.0771C18.1405 23.2393 18.2223 23.4473 18.223 23.6624C18.2223 23.87 18.149 24.0732 17.998 24.2351L17.7597 24.4911C17.5933 24.669 17.3683 24.7584 17.1379 24.759C16.9283 24.7584 16.723 24.6847 16.5608 24.5344L15.0094 23.0979C15.1444 22.833 15.2197 22.5456 15.2197 22.2572C15.2204 21.768 15.0261 21.2748 14.6419 20.9103L14.3876 20.669C14.0273 20.3271 13.5599 20.1563 13.0987 20.157C13.0629 20.157 13.0267 20.1651 12.9916 20.1672C12.9916 20.1587 12.9937 20.1498 12.9937 20.1413C12.9943 19.6521 12.4158 18.7937 12.4158 18.7937L12.1622 18.5531C11.8926 18.2974 11.5636 18.1379 11.2214 18.0738C11.2919 17.874 11.3318 17.6661 11.3318 17.4578C11.3318 16.9686 11.1382 16.475 10.754 16.1109L10.5004 15.8696C10.1394 15.5273 9.67199 15.3565 9.21077 15.3568C9.1569 15.3568 9.10372 15.3678 9.0502 15.3725C9.03555 14.9028 8.84635 14.4334 8.47818 14.0836V14.0833L8.22524 13.8429C7.86424 13.5003 7.39687 13.3296 6.93564 13.3299C6.44373 13.3296 5.94841 13.5225 5.58195 13.905L4.97925 14.5339L2.30937 12.2568C2.11745 12.0924 2.02166 11.8654 2.02098 11.6322C2.02166 11.4369 2.08813 11.2457 2.22995 11.0868L5.04709 7.93184C5.1589 7.80639 5.32424 7.69288 5.51787 7.61413C5.71149 7.53538 5.93137 7.49209 6.13693 7.49243C6.3159 7.49243 6.48396 7.52482 6.61827 7.58277L8.1649 8.24274C8.60091 8.42648 9.10713 8.50182 9.61575 8.50352C10.125 8.50182 10.6306 8.42648 11.0666 8.24274L12.6125 7.58311C12.8508 7.47914 13.2105 7.41471 13.5681 7.41607C13.9635 7.41369 14.3596 7.4955 14.5894 7.61277C14.7353 7.68538 14.8737 7.75424 15.0022 7.81867L13.4256 8.92691C12.919 9.28315 12.646 9.84971 12.6466 10.4214C12.646 10.7998 12.7659 11.185 13.01 11.5119L13.0093 11.5112L13.2176 11.7911C13.6131 12.3168 14.2297 12.5871 14.8461 12.5885C15.1941 12.5885 15.5487 12.5005 15.8647 12.311L16.8076 11.7447C16.9998 11.6271 17.2903 11.5528 17.5906 11.5542C17.9434 11.5521 18.299 11.6564 18.5127 11.8136L21.1212 13.6837C21.7018 14.0996 22.6474 14.8711 23.1714 15.3565L26.1907 18.1481C26.3696 18.3141 26.4596 18.5381 26.4603 18.7682C26.46 18.9768 26.3853 19.181 26.234 19.3433ZM29.7131 11.8521L25.6909 16.2998L23.8648 14.6117C23.2927 14.0836 22.3495 13.3135 21.7168 12.8591L19.109 10.989C18.6668 10.6757 18.1255 10.5404 17.5903 10.5383C17.1348 10.5397 16.676 10.6389 16.2799 10.8748L15.3376 11.441C15.1931 11.5279 15.0227 11.5722 14.8457 11.5726C14.5294 11.5736 14.2127 11.426 14.0361 11.1857L13.8285 10.9061L13.8278 10.9055C13.7174 10.7565 13.6659 10.5895 13.6652 10.4204C13.6666 10.1647 13.7845 9.91653 14.0129 9.75528L16.8008 7.79651C17.0418 7.62197 17.4706 7.49959 17.878 7.50266C18.1609 7.50129 18.4313 7.55822 18.6164 7.64958L20.886 8.74897C21.2729 8.93475 21.7096 9.01077 22.149 9.01179C22.7136 9.00907 23.2842 8.88635 23.7543 8.59761L26.0727 7.15529C26.2207 7.06291 26.3983 7.01518 26.5834 7.01518C26.8963 7.0145 27.2099 7.15631 27.3876 7.38778L29.7646 10.4292C29.9016 10.6034 29.9811 10.8492 29.9811 11.1039C29.9814 11.3888 29.8808 11.6691 29.7131 11.8521Z" fill="#122861"/>
</svg>
