<svg width="32" height="32" viewBox="0 0 32 32" fill="none" xmlns="http://www.w3.org/2000/svg">
<path d="M24.879 5H7.063C4.823 5 3 6.823 3 9.063V19.159C3 21.324 4.702 23.099 6.839 23.217V26.881C6.839 27.079 6.956 27.259 7.139 27.339C7.203 27.367 7.271 27.381 7.339 27.381C7.462 27.381 7.585 27.335 7.679 27.247L12.025 23.223H24.88C27.12 23.223 28.943 21.401 28.943 19.16V9.063C28.943 6.823 27.119 5 24.879 5ZM27.943 19.159C27.943 20.848 26.569 22.222 24.88 22.222H11.828C11.702 22.222 11.581 22.27 11.488 22.356L7.838 25.736V22.722C7.838 22.446 7.614 22.222 7.338 22.222H7.063C5.374 22.222 4 20.848 4 19.159V9.063C4 7.375 5.374 6 7.063 6H24.879C26.568 6 27.942 7.375 27.942 9.063V19.159H27.943Z" fill="#122861"/>
<path d="M13.2126 10.8929C13.2126 9.78293 12.3096 8.87793 11.1986 8.87793C10.0876 8.87793 9.18359 9.78193 9.18359 10.8929C9.18359 12.0039 10.0876 12.9079 11.1986 12.9079C12.3096 12.9079 13.2126 12.0039 13.2126 10.8929ZM10.1846 10.8929C10.1846 10.3329 10.6396 9.87793 11.1996 9.87793C11.7596 9.87793 12.2136 10.3329 12.2136 10.8929C12.2136 11.4529 11.7596 11.9079 11.1996 11.9079C10.6396 11.9079 10.1846 11.4529 10.1846 10.8929Z" fill="#122861"/>
<path d="M20.7425 8.87793C19.6325 8.87793 18.7285 9.78193 18.7285 10.8929C18.7285 12.0039 19.6315 12.9079 20.7425 12.9079C21.8535 12.9079 22.7575 12.0049 22.7575 10.8929C22.7575 9.78293 21.8535 8.87793 20.7425 8.87793ZM20.7425 11.9079C20.1825 11.9079 19.7285 11.4529 19.7285 10.8929C19.7285 10.3329 20.1825 9.87793 20.7425 9.87793C21.3025 9.87793 21.7575 10.3329 21.7575 10.8929C21.7575 11.4529 21.3025 11.9079 20.7425 11.9079Z" fill="#122861"/>
<path d="M20.2265 17.206C17.8805 19.552 14.0635 19.552 11.7165 17.206C11.5215 17.011 11.2045 17.011 11.0095 17.206C10.8145 17.401 10.8145 17.718 11.0095 17.913C12.3775 19.281 14.1745 19.965 15.9715 19.965C17.7685 19.965 19.5655 19.281 20.9335 17.913C21.1285 17.718 21.1285 17.401 20.9335 17.206C20.7385 17.011 20.4215 17.01 20.2265 17.206Z" fill="#122861"/>
</svg>
