<svg width="1387" height="217" viewBox="0 0 1387 217" fill="none" xmlns="http://www.w3.org/2000/svg">
<path d="M137.349 170.189H61.2268L46.755 213.604H0.589844L79.0271 2.89436H119.259L198.13 213.604H151.965L137.349 170.189ZM72.949 135.022H125.626L99.143 56.1507L72.949 135.022Z" fill="url(#paint0_linear)" fill-opacity="0.03"/>
<path d="M380.041 143.416C378.401 166.088 370.007 183.937 354.86 196.962C339.809 209.986 319.935 216.498 295.236 216.498C268.222 216.498 246.949 207.429 231.415 189.291C215.979 171.057 208.261 146.069 208.261 114.327V101.447C208.261 81.1869 211.83 63.3383 218.97 47.9017C226.109 32.4651 236.288 20.6465 249.505 12.4458C262.819 4.14859 278.256 0 295.815 0C320.128 0 339.713 6.51232 354.571 19.537C369.428 32.5616 378.015 50.8443 380.331 74.3852H336.915C335.854 60.7817 332.043 50.9408 325.482 44.8627C319.018 38.688 309.129 35.6007 295.815 35.6007C281.343 35.6007 270.489 40.8105 263.253 51.2303C256.114 61.5535 252.448 77.6172 252.255 99.4214V115.34C252.255 138.109 255.68 154.752 262.53 165.268C269.476 175.784 280.378 181.043 295.236 181.043C308.647 181.043 318.632 178.003 325.193 171.925C331.85 165.751 335.661 156.247 336.626 143.416H380.041Z" fill="url(#paint1_linear)" fill-opacity="0.03"/>
<path d="M527.509 170.189H451.387L436.915 213.604H390.75L469.188 2.89436H509.419L588.291 213.604H542.126L527.509 170.189ZM463.109 135.022H515.787L489.303 56.1507L463.109 135.022Z" fill="url(#paint2_linear)" fill-opacity="0.03"/>
<path d="M607.972 213.604V2.89436H672.806C691.33 2.89436 707.876 7.09119 722.444 15.4849C737.109 23.782 748.542 35.6489 756.743 51.0855C764.943 66.4257 769.044 83.8883 769.044 103.474V113.17C769.044 132.755 764.992 150.169 756.887 165.413C748.88 180.657 737.543 192.475 722.879 200.869C708.214 209.263 691.668 213.508 673.24 213.604H607.972ZM651.388 38.0609V178.727H672.372C689.352 178.727 702.329 173.179 711.301 162.084C720.274 150.989 724.856 135.119 725.049 114.472V103.329C725.049 81.9105 720.611 65.7021 711.735 54.7035C702.859 43.6084 689.883 38.0609 672.806 38.0609H651.388Z" fill="url(#paint3_linear)" fill-opacity="0.03"/>
<path d="M927.51 122.287H844.153V178.727H941.982V213.604H800.737V2.89436H941.693V38.0609H844.153V88.2781H927.51V122.287Z" fill="url(#paint4_linear)" fill-opacity="0.03"/>
<path d="M1024.18 2.89436L1078.31 155.717L1132.14 2.89436H1189.16V213.604H1145.6V156.006L1149.94 56.5848L1093.07 213.604H1063.26L1006.53 56.7296L1010.87 156.006V213.604H967.452V2.89436H1024.18Z" fill="url(#paint5_linear)" fill-opacity="0.03"/>
<path d="M1295.67 97.8295L1339.52 2.89436H1386.99L1317.82 137.193V213.604H1273.68V137.193L1204.5 2.89436H1252.11L1295.67 97.8295Z" fill="url(#paint6_linear)" fill-opacity="0.03"/>
<defs>
<linearGradient id="paint0_linear" x1="237.43" y1="1.9344e-08" x2="238.044" y2="298.523" gradientUnits="userSpaceOnUse">
<stop stop-color="#122861"/>
<stop offset="0.696979" stop-color="#122861" stop-opacity="0.364695"/>
<stop offset="0.81466" stop-color="white" stop-opacity="0"/>
</linearGradient>
<linearGradient id="paint1_linear" x1="237.43" y1="1.9344e-08" x2="238.044" y2="298.523" gradientUnits="userSpaceOnUse">
<stop stop-color="#122861"/>
<stop offset="0.696979" stop-color="#122861" stop-opacity="0.364695"/>
<stop offset="0.81466" stop-color="white" stop-opacity="0"/>
</linearGradient>
<linearGradient id="paint2_linear" x1="237.43" y1="1.9344e-08" x2="238.044" y2="298.523" gradientUnits="userSpaceOnUse">
<stop stop-color="#122861"/>
<stop offset="0.696979" stop-color="#122861" stop-opacity="0.364695"/>
<stop offset="0.81466" stop-color="white" stop-opacity="0"/>
</linearGradient>
<linearGradient id="paint3_linear" x1="237.43" y1="1.9344e-08" x2="238.044" y2="298.523" gradientUnits="userSpaceOnUse">
<stop stop-color="#122861"/>
<stop offset="0.696979" stop-color="#122861" stop-opacity="0.364695"/>
<stop offset="0.81466" stop-color="white" stop-opacity="0"/>
</linearGradient>
<linearGradient id="paint4_linear" x1="237.43" y1="1.9344e-08" x2="238.044" y2="298.523" gradientUnits="userSpaceOnUse">
<stop stop-color="#122861"/>
<stop offset="0.696979" stop-color="#122861" stop-opacity="0.364695"/>
<stop offset="0.81466" stop-color="white" stop-opacity="0"/>
</linearGradient>
<linearGradient id="paint5_linear" x1="237.43" y1="1.9344e-08" x2="238.044" y2="298.523" gradientUnits="userSpaceOnUse">
<stop stop-color="#122861"/>
<stop offset="0.696979" stop-color="#122861" stop-opacity="0.364695"/>
<stop offset="0.81466" stop-color="white" stop-opacity="0"/>
</linearGradient>
<linearGradient id="paint6_linear" x1="237.43" y1="1.9344e-08" x2="238.044" y2="298.523" gradientUnits="userSpaceOnUse">
<stop stop-color="#122861"/>
<stop offset="0.696979" stop-color="#122861" stop-opacity="0.364695"/>
<stop offset="0.81466" stop-color="white" stop-opacity="0"/>
</linearGradient>
</defs>
</svg>
