<svg width="1920" height="800" viewBox="0 0 1920 800" fill="none" xmlns="http://www.w3.org/2000/svg">
<g clip-path="url(#clip0)">
<path d="M1920 0V800H-4.1604e-05L-1 0H1920Z" fill="#122861"/>
<g opacity="0.8">
<path d="M1666.84 134.146H360.176V936.241H1666.84V134.146Z" fill="url(#paint0_linear)"/>
<path d="M353.977 -195.326C533.476 -308.594 688.573 -265.259 855.926 -171.96C999.129 -92.112 1136.83 28.5365 1298.77 42.6568C1460.23 56.7491 1602.99 4.47366 1743.84 85.9365C1932.7 195.194 1938.53 393.239 1851.11 538.647C1729.88 740.229 1495.72 752.149 1322.19 646.456C1178.6 559.006 1028.19 463.116 847.075 490.716C680.224 516.172 500.195 668.486 327.676 585.408C131.984 491.218 22.0064 14.1656 353.977 -195.326Z" fill="url(#paint1_radial)"/>
<g opacity="0.5">
<path d="M815.049 208.952C795.84 254.989 695.467 247.275 691.083 290.526C685.806 342.635 767.668 338.819 802.652 327.846C889.624 300.608 894.789 362.464 967.437 380.623C1021.69 394.186 1039.25 332.748 1099.36 355.808C1155.2 377.225 1175.58 300.831 1135.32 276.657C1082.19 244.74 1022.41 294.398 982.71 235.132C947.642 182.828 869.186 79.1965 815.049 208.952Z" stroke="#0B225F" stroke-width="4.5736" stroke-miterlimit="10" stroke-linecap="round" stroke-linejoin="round"/>
<path d="M809.132 204.998C788.862 253.569 682.961 245.437 678.326 291.056C672.77 346.033 759.127 341.994 796.038 330.436C887.783 301.723 893.256 366.976 969.897 386.11C1027.13 400.425 1045.67 335.617 1109.08 359.93C1168.02 382.517 1189.49 301.917 1147.02 276.406C1090.96 242.735 1027.86 295.122 985.979 232.597C949.04 177.453 866.257 68.0843 809.132 204.998Z" stroke="#0B225F" stroke-width="4.5736" stroke-miterlimit="10" stroke-linecap="round" stroke-linejoin="round"/>
<path d="M803.183 201.043C781.852 252.148 670.395 243.598 665.536 291.613C659.673 349.458 750.553 345.225 789.39 333.054C885.938 302.836 891.69 371.488 972.351 391.652C1032.57 406.691 1052.09 338.513 1118.82 364.08C1180.83 387.864 1203.45 303.031 1158.75 276.211C1099.75 240.785 1033.36 295.902 989.299 230.091C950.434 172.05 863.295 56.9718 803.183 201.043Z" stroke="#0B225F" stroke-width="4.5736" stroke-miterlimit="10" stroke-linecap="round" stroke-linejoin="round"/>
<path d="M797.264 197.088C774.872 250.728 657.887 241.76 652.777 292.142C646.635 352.856 742.038 348.428 782.802 335.645C884.152 303.923 890.182 376 974.836 397.139C1038.05 412.93 1058.54 341.354 1128.56 368.202C1193.65 393.156 1217.38 304.118 1170.47 275.961C1108.55 238.78 1038.86 296.626 992.594 227.557C951.802 166.647 860.364 45.8596 797.264 197.088Z" stroke="#0B225F" stroke-width="4.5736" stroke-miterlimit="10" stroke-linecap="round" stroke-linejoin="round"/>
<path d="M791.316 193.133C767.863 249.308 645.35 239.922 640.017 292.699C633.567 356.31 733.494 351.631 776.183 338.262C882.336 305.037 888.646 380.512 977.32 402.681C1043.52 419.224 1064.96 344.25 1138.34 372.379C1206.52 398.503 1231.37 305.259 1182.23 275.766C1117.37 236.831 1044.38 297.433 995.943 225.078C953.197 161.272 857.403 34.7472 791.316 193.133Z" stroke="#0B225F" stroke-width="4.5736" stroke-miterlimit="10" stroke-linecap="round" stroke-linejoin="round"/>
<path d="M785.399 189.178C760.886 247.915 632.844 238.056 627.26 293.228C620.531 359.707 724.952 354.833 769.569 340.852C880.524 306.123 887.113 385.023 979.78 408.167C1048.99 425.462 1071.39 347.119 1148.08 376.501C1219.33 403.822 1245.3 306.346 1193.96 275.515C1126.17 234.825 1049.89 298.157 999.24 222.543C954.568 155.869 854.474 23.6347 785.399 189.178Z" stroke="#0B225F" stroke-width="4.5736" stroke-miterlimit="10" stroke-linecap="round" stroke-linejoin="round"/>
<path d="M779.45 185.224C753.875 246.495 620.305 236.218 614.47 293.785C607.434 363.133 716.378 358.036 762.949 343.47C878.678 307.237 885.575 389.535 982.262 413.709C1054.46 431.757 1077.83 350.015 1157.82 380.679C1232.15 409.17 1259.26 307.488 1205.68 275.348C1134.96 232.876 1055.39 298.965 1002.56 220.093C955.961 150.466 851.512 12.5224 779.45 185.224Z" stroke="#0B225F" stroke-width="4.5736" stroke-miterlimit="10" stroke-linecap="round" stroke-linejoin="round"/>
<path d="M773.531 181.269C746.923 245.074 607.769 234.38 601.711 294.314C594.396 366.531 707.863 361.239 756.333 346.061C876.864 308.323 884.039 394.047 984.72 419.196C1059.91 437.995 1084.25 352.856 1167.57 384.801C1244.99 414.489 1273.22 308.602 1217.41 275.097C1143.75 230.871 1060.89 299.689 1005.86 217.53C957.33 145.091 848.581 1.41004 773.531 181.269Z" stroke="#0B225F" stroke-width="4.5736" stroke-miterlimit="10" stroke-linecap="round" stroke-linejoin="round"/>
<path d="M767.613 177.314C739.944 243.654 595.262 232.542 588.952 294.871C581.357 369.956 699.32 364.47 749.744 348.678C875.078 309.437 882.532 398.587 987.233 424.738C1065.41 444.261 1090.73 355.752 1177.34 388.978C1257.84 419.837 1287.18 309.743 1229.19 274.902C1152.6 228.921 1066.44 300.469 1009.23 215.051C958.726 139.688 845.622 -9.67449 767.613 177.314Z" stroke="#0B225F" stroke-width="4.5736" stroke-miterlimit="10" stroke-linecap="round" stroke-linejoin="round"/>
<path d="M761.667 173.359C732.937 242.234 582.727 230.703 576.166 295.4C568.264 373.382 690.75 367.645 743.1 351.269C873.236 310.523 880.97 403.071 989.663 430.225C1070.83 450.5 1097.13 358.593 1187.06 393.072C1270.62 425.1 1301.11 310.802 1240.89 274.652C1161.37 226.916 1071.92 301.193 1012.5 212.517C960.096 134.313 842.692 -20.7869 761.667 173.359Z" stroke="#0B225F" stroke-width="4.5736" stroke-miterlimit="10" stroke-linecap="round" stroke-linejoin="round"/>
<path d="M755.745 169.432C725.954 240.841 570.215 228.893 563.403 295.985C555.222 376.835 682.203 370.903 736.48 353.914C871.39 311.665 879.431 407.638 992.145 435.795C1076.3 456.822 1103.57 361.545 1196.8 397.278C1283.46 430.503 1315.04 311.971 1252.61 274.484C1170.16 224.994 1077.41 302.001 1015.82 210.066C961.488 128.91 839.757 -31.8993 755.745 169.432Z" stroke="#0B225F" stroke-width="4.5736" stroke-miterlimit="10" stroke-linecap="round" stroke-linejoin="round"/>
<path d="M749.799 165.477C718.947 239.421 557.653 227.055 550.617 296.514C542.129 380.233 673.661 374.078 729.864 356.504C869.577 312.751 877.897 412.122 994.603 441.281C1081.74 463.06 1109.97 364.386 1206.55 401.399C1296.28 435.795 1329 313.057 1264.34 274.234C1178.96 222.989 1082.91 302.725 1019.12 207.504C962.858 123.507 836.798 -43.0118 749.799 165.477Z" stroke="#0B225F" stroke-width="4.5736" stroke-miterlimit="10" stroke-linecap="round" stroke-linejoin="round"/>
<path d="M743.882 161.523C711.969 238.028 545.146 225.217 537.887 297.071C529.12 383.659 665.147 377.309 723.277 359.122C867.792 313.893 876.391 416.662 997.118 446.824C1087.27 469.355 1116.45 367.283 1216.35 405.577C1309.15 441.17 1342.99 314.199 1276.12 274.039C1187.81 221.012 1088.47 303.533 1022.5 205.025C964.256 118.132 833.869 -54.124 743.882 161.523Z" stroke="#0B225F" stroke-width="4.5736" stroke-miterlimit="10" stroke-linecap="round" stroke-linejoin="round"/>
<path d="M737.962 157.568C704.988 236.608 532.637 223.379 525.126 297.601C516.052 387.057 656.603 380.512 716.659 361.713C865.976 314.979 874.854 421.146 999.574 452.31C1092.72 475.594 1122.87 370.124 1226.06 409.699C1321.97 446.462 1356.92 315.286 1287.82 273.816C1196.58 219.034 1093.94 304.285 1025.76 202.519C965.623 112.729 830.908 -65.2362 737.962 157.568Z" stroke="#0B225F" stroke-width="4.5736" stroke-miterlimit="10" stroke-linecap="round" stroke-linejoin="round"/>
<path d="M732.014 153.613C697.979 235.187 520.1 221.513 512.338 298.158C502.985 390.51 648.058 383.714 710.041 364.303C864.16 316.065 873.318 425.657 1002.06 457.825C1098.19 481.86 1129.32 372.992 1235.83 413.849C1334.81 451.781 1370.88 316.4 1299.58 273.593C1205.4 217.057 1099.47 305.037 1029.11 200.012C967.018 107.326 827.975 -76.3487 732.014 153.613Z" stroke="#0B225F" stroke-width="4.5736" stroke-miterlimit="10" stroke-linecap="round" stroke-linejoin="round"/>
<path d="M726.095 149.658C691 233.767 507.592 219.675 499.579 298.715C489.946 393.936 639.515 386.945 703.424 366.921C862.318 317.179 871.783 430.169 1004.52 463.339C1103.63 488.098 1135.74 375.888 1245.55 417.971C1347.6 457.101 1384.82 317.514 1311.27 273.343C1214.17 215.052 1104.94 305.761 1032.38 197.45C968.387 101.95 825.016 -87.4611 726.095 149.658Z" stroke="#0B225F" stroke-width="4.5736" stroke-miterlimit="10" stroke-linecap="round" stroke-linejoin="round"/>
<path d="M720.15 145.704C683.993 232.347 495.029 217.837 486.793 299.244C476.853 397.333 630.945 390.148 696.809 369.511C860.505 318.266 870.249 434.681 1007 468.853C1109.11 494.365 1142.19 378.757 1255.32 422.12C1360.47 462.42 1398.78 318.628 1323.03 273.12C1223.02 213.074 1110.47 306.513 1035.73 194.943C969.784 96.5474 822.086 -98.5456 720.15 145.704Z" stroke="#0B225F" stroke-width="4.5736" stroke-miterlimit="10" stroke-linecap="round" stroke-linejoin="round"/>
<path d="M714.231 141.749C677.014 230.926 482.522 215.998 474.034 299.801C463.815 400.759 622.402 393.351 690.192 372.129C858.69 319.38 868.713 439.22 1009.46 474.396C1114.55 500.659 1148.61 381.653 1265.07 426.298C1373.29 467.795 1412.74 319.769 1334.76 272.953C1231.82 211.124 1115.97 307.32 1039.03 192.492C971.152 91.1722 819.127 -109.658 714.231 141.749Z" stroke="#0B225F" stroke-width="4.5736" stroke-miterlimit="10" stroke-linecap="round" stroke-linejoin="round"/>
<path d="M708.282 137.794C670.003 229.506 469.983 214.16 461.244 300.33C450.718 404.157 613.856 396.554 683.544 374.719C856.845 320.466 867.147 443.705 1011.91 479.882C1120.02 506.897 1155 384.494 1274.78 430.42C1386.07 473.087 1426.67 320.856 1346.45 272.702C1240.58 209.119 1121.42 308.045 1042.32 189.958C972.546 85.7693 816.193 -120.77 708.282 137.794Z" stroke="#0B225F" stroke-width="4.5736" stroke-miterlimit="10" stroke-linecap="round" stroke-linejoin="round"/>
<path d="M702.363 133.839C663.024 228.114 457.475 212.322 448.485 300.887C437.68 407.582 605.313 399.756 676.956 377.337C855.031 321.58 865.64 448.244 1014.4 485.425C1125.49 513.192 1161.45 387.419 1284.55 434.598C1398.94 478.434 1440.63 321.998 1358.21 272.507C1249.4 207.17 1126.95 308.824 1045.64 187.48C973.915 80.3664 813.234 -131.883 702.363 133.839Z" stroke="#0B225F" stroke-width="4.5736" stroke-miterlimit="10" stroke-linecap="round" stroke-linejoin="round"/>
<path d="M696.444 129.884C656.044 226.693 444.939 210.484 435.754 301.416C424.641 411.008 596.797 402.959 670.367 379.927C853.244 322.666 864.133 452.728 1016.91 490.911C1130.99 519.43 1167.93 390.259 1294.33 438.719C1411.79 483.753 1454.62 323.084 1369.96 272.256C1258.23 205.164 1132.47 309.576 1048.99 184.917C975.311 74.991 810.303 -142.995 696.444 129.884Z" stroke="#0B225F" stroke-width="4.5736" stroke-miterlimit="10" stroke-linecap="round" stroke-linejoin="round"/>
<path d="M690.498 125.93C649.037 225.273 432.404 208.646 422.967 301.973C411.576 414.434 588.227 406.19 663.723 382.545C851.402 323.78 862.57 457.268 1019.34 496.453C1136.41 525.696 1174.33 393.156 1304.04 442.897C1424.58 489.101 1468.52 324.226 1381.66 272.089C1266.99 203.243 1137.95 310.384 1052.29 182.466C976.68 69.5881 807.344 -154.107 690.498 125.93Z" stroke="#0B225F" stroke-width="4.5736" stroke-miterlimit="10" stroke-linecap="round" stroke-linejoin="round"/>
<path d="M684.578 122.003C642.055 223.88 419.895 206.836 410.206 302.53C398.536 417.859 579.71 409.393 657.132 385.163C849.614 324.894 861.061 461.779 1021.85 501.968C1141.91 531.963 1180.8 396.024 1313.81 447.019C1437.45 494.42 1482.51 325.312 1393.42 271.839C1275.82 201.238 1143.47 311.108 1055.61 179.932C978.075 64.1851 804.411 -165.22 684.578 122.003Z" stroke="#0B225F" stroke-width="4.5736" stroke-miterlimit="10" stroke-linecap="round" stroke-linejoin="round"/>
<path d="M678.632 118.048C635.049 222.46 407.36 204.97 397.42 303.087C385.443 421.285 571.14 412.623 650.489 387.78C847.773 326.008 859.499 466.319 1024.28 507.51C1147.33 538.257 1187.2 398.921 1323.53 451.196C1450.23 499.768 1496.41 326.454 1405.11 271.644C1284.58 199.26 1148.95 311.888 1058.9 177.453C979.444 58.8098 801.453 -176.332 678.632 118.048Z" stroke="#0B225F" stroke-width="4.5736" stroke-miterlimit="10" stroke-linecap="round" stroke-linejoin="round"/>
<path d="M672.714 114.093C628.097 221.039 394.824 203.131 384.661 303.616C372.404 424.682 562.596 415.798 643.872 390.371C845.93 327.122 857.964 470.803 1026.77 512.997C1152.8 544.496 1193.62 401.789 1333.3 455.318C1463.08 505.059 1510.4 327.568 1416.87 271.393C1293.41 197.255 1154.48 312.612 1062.23 174.891C980.841 53.4069 798.522 -187.417 672.714 114.093Z" stroke="#0B225F" stroke-width="4.5736" stroke-miterlimit="10" stroke-linecap="round" stroke-linejoin="round"/>
<path d="M666.764 110.139C621.087 219.647 382.286 201.293 371.871 304.173C359.307 428.136 554.023 419.029 637.253 392.989C844.113 328.236 856.398 475.343 1029.22 518.539C1158.27 550.79 1200.04 404.686 1343.02 459.496C1475.89 510.434 1524.3 328.71 1428.57 271.226C1302.17 195.333 1159.95 313.42 1065.52 172.44C982.206 48.0319 795.56 -198.529 666.764 110.139Z" stroke="#0B225F" stroke-width="4.5736" stroke-miterlimit="10" stroke-linecap="round" stroke-linejoin="round"/>
<path d="M660.845 106.184C614.107 218.226 369.778 199.455 359.112 304.702C346.269 431.534 545.507 422.232 630.636 395.579C842.299 329.322 854.863 479.854 1031.71 524.025C1163.74 557.028 1206.49 407.527 1352.79 463.618C1488.73 515.726 1538.29 329.796 1440.32 270.975C1310.99 193.328 1165.47 314.144 1068.84 169.906C983.603 42.6288 792.629 -209.641 660.845 106.184Z" stroke="#0B225F" stroke-width="4.5736" stroke-miterlimit="10" stroke-linecap="round" stroke-linejoin="round"/>
<path d="M654.927 102.229C607.128 216.806 357.27 197.617 346.354 305.26C333.203 434.96 536.965 425.435 624.048 398.197C840.513 330.436 853.356 484.366 1034.2 529.568C1169.22 563.323 1212.94 410.423 1362.54 467.795C1501.55 521.101 1552.23 330.938 1452.05 270.781C1319.79 191.379 1170.98 314.952 1072.17 167.427C984.972 37.2259 789.698 -220.754 654.927 102.229Z" stroke="#0B225F" stroke-width="4.5736" stroke-miterlimit="10" stroke-linecap="round" stroke-linejoin="round"/>
<path d="M648.981 98.2743C600.121 215.386 344.735 195.779 333.595 305.789C320.165 438.357 528.422 428.637 617.431 400.759C838.67 331.495 851.821 488.85 1036.68 535.027C1174.69 569.506 1219.39 413.264 1372.31 471.862C1514.42 526.337 1566.21 331.968 1463.8 270.502C1328.61 189.346 1176.5 315.648 1075.49 164.837C986.368 31.8507 786.739 -231.866 648.981 98.2743Z" stroke="#0B225F" stroke-width="4.5736" stroke-miterlimit="10" stroke-linecap="round" stroke-linejoin="round"/>
<path d="M643.062 94.3194C593.141 213.965 332.199 193.941 320.835 306.346C307.127 441.783 519.906 431.868 610.814 403.377C836.856 332.609 850.286 493.362 1039.14 540.569C1180.13 575.8 1225.81 416.16 1382.03 476.039C1527.21 531.684 1580.15 333.11 1475.5 270.307C1337.38 187.368 1181.98 316.427 1078.78 162.358C987.765 26.4476 783.808 -242.979 643.062 94.3194Z" stroke="#0B225F" stroke-width="4.5736" stroke-miterlimit="10" stroke-linecap="round" stroke-linejoin="round"/>
<path d="M637.113 90.3648C586.13 212.545 319.66 192.103 308.046 306.875C294.03 445.181 511.332 435.043 604.195 405.967C835.039 333.695 848.748 497.874 1041.62 546.055C1185.6 582.038 1232.26 419.001 1391.79 480.161C1540.05 537.004 1594.1 334.196 1487.25 270.056C1346.2 185.363 1187.5 317.152 1082.1 159.824C989.13 21.0726 780.846 -254.091 637.113 90.3648Z" stroke="#0B225F" stroke-width="4.5736" stroke-miterlimit="10" stroke-linecap="round" stroke-linejoin="round"/>
<path d="M631.194 86.4099C579.151 211.125 307.153 190.265 295.287 307.432C280.991 448.634 502.789 438.274 597.578 408.585C833.224 334.809 847.212 502.386 1044.08 551.598C1191.05 588.332 1238.65 421.898 1401.54 484.339C1552.89 542.351 1608.07 335.338 1499.01 269.861C1355.02 183.413 1193.03 317.932 1085.46 157.345C990.527 15.6695 777.915 -265.203 631.194 86.4099Z" stroke="#0B225F" stroke-width="4.5736" stroke-miterlimit="10" stroke-linecap="round" stroke-linejoin="round"/>
<path d="M625.276 82.4551C572.172 209.732 294.645 188.399 282.528 307.961C267.926 452.032 494.247 441.449 590.962 411.175C831.411 335.895 845.678 506.897 1046.56 557.084C1196.55 594.571 1245.1 424.738 1411.28 488.46C1565.71 547.671 1622 336.452 1510.74 269.639C1363.82 181.436 1198.53 318.683 1088.75 154.811C991.896 10.2665 774.956 -276.288 625.276 82.4551Z" stroke="#0B225F" stroke-width="4.5736" stroke-miterlimit="10" stroke-linecap="round" stroke-linejoin="round"/>
<path d="M619.328 78.5003C565.163 208.312 282.08 186.56 269.74 308.518C254.858 455.457 485.702 444.679 584.344 413.793C829.567 337.009 844.141 511.409 1049.02 562.626C1201.99 600.865 1251.52 427.663 1421.03 492.638C1578.53 553.018 1635.96 337.594 1522.46 269.444C1372.61 179.486 1204.03 319.463 1092.07 152.332C993.291 4.89127 772.023 -287.4 619.328 78.5003Z" stroke="#0B225F" stroke-width="4.5736" stroke-miterlimit="10" stroke-linecap="round" stroke-linejoin="round"/>
<path d="M613.41 74.5733C558.184 206.919 269.573 184.75 256.981 309.075C241.792 458.883 477.159 447.91 577.728 416.411C827.753 338.123 842.606 515.949 1051.51 568.141C1207.47 607.104 1257.97 430.531 1430.77 496.788C1591.37 558.337 1649.89 338.708 1534.19 269.221C1381.41 177.509 1209.53 320.215 1095.37 149.825C994.66 -0.511752 769.065 -298.513 613.41 74.5733Z" stroke="#0B225F" stroke-width="4.5736" stroke-miterlimit="10" stroke-linecap="round" stroke-linejoin="round"/>
<path d="M607.464 70.6186C551.177 205.499 257.038 182.912 244.195 309.632C228.727 462.309 468.589 451.113 571.112 419.029C825.939 339.265 841.072 520.488 1053.96 573.683C1212.91 613.398 1264.4 433.428 1440.52 500.937C1604.19 563.685 1663.85 339.822 1545.92 268.998C1390.21 175.504 1215.03 320.995 1098.69 147.319C996.057 -5.91465 766.134 -309.625 607.464 70.6186Z" stroke="#0B225F" stroke-width="4.5736" stroke-miterlimit="10" stroke-linecap="round" stroke-linejoin="round"/>
<path d="M601.545 66.6638C544.197 204.078 244.529 181.074 231.463 310.161C215.716 465.734 460.073 454.315 564.523 421.619C824.152 340.351 839.564 524.972 1056.48 579.169C1218.41 619.636 1270.87 436.268 1450.29 505.059C1617.03 568.976 1677.81 340.908 1557.67 268.775C1399.03 173.526 1220.53 321.747 1102.01 144.812C997.425 -11.2899 763.175 -320.737 601.545 66.6638Z" stroke="#0B225F" stroke-width="4.5736" stroke-miterlimit="10" stroke-linecap="round" stroke-linejoin="round"/>
<path d="M595.597 62.7092C537.188 202.658 231.993 179.236 218.675 310.718C202.621 469.16 451.529 457.546 557.877 424.237C822.281 341.465 838 529.512 1058.9 584.712C1223.83 625.931 1277.27 439.165 1460.01 509.237C1629.84 574.351 1691.74 342.05 1569.37 268.58C1407.79 171.577 1226.01 322.527 1105.31 142.306C998.82 -16.6928 760.242 -331.849 595.597 62.7092Z" stroke="#0B225F" stroke-width="4.5736" stroke-miterlimit="10" stroke-linecap="round" stroke-linejoin="round"/>
<path d="M589.679 58.7543C530.209 201.266 219.457 177.398 205.916 311.275C189.583 472.586 442.986 460.749 551.288 426.855C820.495 342.579 836.493 534.024 1061.42 590.226C1229.36 632.197 1283.72 442.061 1469.81 513.387C1642.72 579.671 1705.73 343.164 1581.15 268.358C1416.65 169.6 1231.56 323.279 1108.66 139.799C1000.19 -22.0679 757.283 -342.962 589.679 58.7543Z" stroke="#0B225F" stroke-width="4.5736" stroke-miterlimit="10" stroke-linecap="round" stroke-linejoin="round"/>
<path d="M583.758 54.7996C523.228 199.845 206.948 175.559 193.155 311.804C176.515 475.983 434.441 463.952 544.67 429.445C818.679 343.665 834.956 538.536 1063.87 595.741C1234.8 638.463 1290.14 444.93 1479.52 517.536C1655.5 584.99 1719.66 344.278 1592.85 268.135C1425.41 167.622 1237.03 324.031 1111.95 137.293C1001.58 -27.471 754.351 -354.046 583.758 54.7996Z" stroke="#0B225F" stroke-width="4.5736" stroke-miterlimit="10" stroke-linecap="round" stroke-linejoin="round"/>
<path d="M577.812 50.8446C516.221 198.425 194.413 173.721 180.369 312.361C163.449 479.409 425.899 467.155 538.026 432.063C816.837 344.779 833.394 543.047 1066.33 601.255C1240.25 644.702 1296.56 447.798 1489.27 521.686C1668.35 590.338 1733.62 345.392 1604.58 267.94C1434.21 165.645 1242.54 324.81 1115.25 134.814C1002.95 -32.8741 751.392 -365.159 577.812 50.8446Z" stroke="#0B225F" stroke-width="4.5736" stroke-miterlimit="10" stroke-linecap="round" stroke-linejoin="round"/>
<path d="M571.894 46.8901C509.269 197.004 181.905 171.855 167.61 312.891C150.383 482.835 417.356 470.358 531.438 434.625C815.051 345.838 831.887 547.531 1068.82 606.742C1245.72 650.941 1303.01 450.639 1499.01 525.808C1681.16 595.629 1747.56 346.506 1616.3 267.689C1443.03 163.64 1248.04 325.535 1118.57 132.252C1004.35 -38.2491 748.461 -376.271 571.894 46.8901Z" stroke="#0B225F" stroke-width="4.5736" stroke-miterlimit="10" stroke-linecap="round" stroke-linejoin="round"/>
<path d="M565.944 42.9352C502.259 195.584 169.338 170.017 154.82 313.448C137.314 486.26 408.782 473.588 524.79 437.243C813.178 346.952 830.321 552.043 1071.24 612.256C1251.13 657.207 1309.4 453.536 1508.72 529.93C1693.95 600.921 1761.49 347.592 1628 267.438C1451.8 161.634 1253.51 326.287 1121.84 129.718C1005.72 -43.6521 745.527 -387.384 565.944 42.9352Z" stroke="#0B225F" stroke-width="4.5736" stroke-miterlimit="10" stroke-linecap="round" stroke-linejoin="round"/>
<path d="M560.026 38.9803C495.279 194.164 156.831 168.179 142.061 313.977C124.276 489.658 400.239 476.763 518.173 439.833C811.363 348.038 828.785 556.555 1073.73 617.77C1256.61 663.473 1315.85 456.404 1518.47 534.079C1706.79 606.268 1775.42 348.706 1639.73 267.243C1460.59 159.685 1259.01 327.066 1125.16 127.239C1007.11 -49.0553 742.568 -398.496 560.026 38.9803Z" stroke="#0B225F" stroke-width="4.5736" stroke-miterlimit="10" stroke-linecap="round" stroke-linejoin="round"/>
<path d="M554.082 35.0254C488.274 192.771 144.297 166.369 129.304 314.533C111.212 493.083 391.726 479.994 511.587 442.451C809.579 349.152 827.28 561.094 1076.22 623.285C1262.08 669.739 1322.31 459.273 1528.24 538.229C1719.64 611.587 1789.41 349.82 1651.48 267.02C1469.42 157.707 1264.54 327.818 1128.48 124.732C1008.48 -54.4305 739.639 -409.608 554.082 35.0254Z" stroke="#0B225F" stroke-width="4.5736" stroke-miterlimit="10" stroke-linecap="round" stroke-linejoin="round"/>
<path d="M548.161 31.0987C481.292 191.351 131.788 164.531 116.543 315.091C98.1716 496.509 383.181 483.197 504.968 445.069C807.763 350.266 825.743 565.606 1078.7 628.827C1267.58 676.034 1328.73 462.169 1538.01 542.407C1732.48 616.963 1803.37 350.962 1663.24 266.826C1478.24 155.758 1270.06 328.598 1131.83 122.226C1009.88 -59.8333 736.678 -420.721 548.161 31.0987Z" stroke="#0B225F" stroke-width="4.5736" stroke-miterlimit="10" stroke-linecap="round" stroke-linejoin="round"/>
<path d="M542.239 27.1439C474.309 189.958 119.276 162.693 103.781 315.648C85.102 499.935 374.634 486.427 498.376 447.687C805.945 351.38 824.233 570.146 1081.18 634.342C1273.05 682.3 1335.17 465.038 1547.76 546.557C1745.32 622.282 1817.33 352.076 1674.96 266.603C1487.03 153.753 1275.56 329.35 1135.12 119.719C1011.24 -65.2085 733.743 -431.833 542.239 27.1439Z" stroke="#0B225F" stroke-width="4.5736" stroke-miterlimit="10" stroke-linecap="round" stroke-linejoin="round"/>
<path d="M536.295 23.1891C467.304 188.538 106.715 160.854 90.9962 316.177C72.0384 503.36 366.066 489.63 491.734 450.277C804.105 352.494 822.672 574.63 1083.64 639.856C1278.5 688.539 1341.6 467.935 1557.5 550.706C1758.14 627.602 1831.26 353.19 1686.69 266.408C1495.83 151.803 1281.07 330.13 1138.45 117.24C1012.64 -70.6115 730.787 -442.918 536.295 23.1891Z" stroke="#0B225F" stroke-width="4.5736" stroke-miterlimit="10" stroke-linecap="round" stroke-linejoin="round"/>
<path d="M530.375 19.2342C460.323 187.117 94.2059 159.016 78.2356 316.734C58.9706 506.786 357.549 492.833 485.116 452.895C802.289 353.608 821.136 579.169 1086.1 645.37C1283.94 694.805 1348.02 470.803 1567.22 554.828C1770.92 632.921 1845.19 354.276 1698.39 266.157C1504.59 149.798 1286.54 330.854 1141.74 114.706C1014.01 -76.0147 727.854 -454.03 530.375 19.2342Z" stroke="#0B225F" stroke-width="4.5736" stroke-miterlimit="10" stroke-linecap="round" stroke-linejoin="round"/>
<path d="M524.427 15.2797C453.314 185.697 81.6688 157.178 65.4472 317.263C45.9031 510.184 348.976 496.036 478.498 455.485C800.474 354.694 819.599 583.654 1088.58 650.885C1289.41 701.072 1354.47 473.672 1576.99 558.978C1783.79 638.241 1859.15 355.418 1710.14 265.935C1513.42 147.82 1292.06 331.606 1145.06 112.172C1015.4 -81.3895 724.894 -465.142 524.427 15.2797Z" stroke="#0B225F" stroke-width="4.5736" stroke-miterlimit="10" stroke-linecap="round" stroke-linejoin="round"/>
<path d="M518.51 11.3248C446.337 184.277 69.163 155.34 52.6901 317.82C32.8668 513.609 340.435 499.266 471.884 458.103C798.661 355.808 818.066 588.193 1091.04 656.399C1294.86 707.338 1360.89 476.54 1586.74 563.128C1796.61 643.588 1873.11 356.532 1721.87 265.712C1522.21 145.843 1297.57 332.386 1148.39 109.665C1016.77 -86.7927 721.965 -476.255 518.51 11.3248Z" stroke="#0B225F" stroke-width="4.5736" stroke-miterlimit="10" stroke-linecap="round" stroke-linejoin="round"/>
<path d="M512.562 7.37011C439.355 182.884 56.6258 153.474 39.9296 318.349C19.7991 517.007 331.891 502.441 465.265 460.693C796.817 356.894 816.529 592.705 1093.53 661.914C1300.33 713.604 1367.31 479.437 1596.48 567.277C1809.43 648.907 1887.07 357.646 1733.59 265.517C1531.01 143.866 1303.07 333.166 1151.68 107.186C1018.17 -92.1956 719.004 -487.367 512.562 7.37011Z" stroke="#0B225F" stroke-width="4.5736" stroke-miterlimit="10" stroke-linecap="round" stroke-linejoin="round"/>
</g>
<path d="M351.824 352.578C502.984 243.766 641.189 273.482 792.795 346.283C922.512 408.585 1049.61 506.925 1192.22 510.657C1334.42 514.389 1456.65 460.972 1584.42 524.833C1755.71 610.474 1771.43 783.648 1702.63 915.688C1607.25 1098.75 1402.74 1121.67 1245.07 1038.34C1114.6 969.384 977.711 893.408 820.52 927.274C675.726 958.466 526.186 1101.51 370.614 1037.92C194.159 965.819 72.2315 553.798 351.824 352.578Z" fill="url(#paint2_radial)"/>
</g>
</g>
<defs>
<linearGradient id="paint0_linear" x1="1013.52" y1="-223.909" x2="1013.52" y2="832.098" gradientUnits="userSpaceOnUse">
<stop stop-color="#0E5DF8"/>
<stop offset="0.3103" stop-color="#0F4EE0"/>
<stop offset="0.9631" stop-color="#1026A3"/>
<stop offset="1" stop-color="#10249F"/>
</linearGradient>
<radialGradient id="paint1_radial" cx="0" cy="0" r="1" gradientUnits="userSpaceOnUse" gradientTransform="translate(973.977 292.873) scale(1000.1 553.002)">
<stop offset="0.1868" stop-color="#00457F"/>
<stop offset="1" stop-color="#122861"/>
</radialGradient>
<radialGradient id="paint2_radial" cx="0" cy="0" r="1" gradientUnits="userSpaceOnUse" gradientTransform="translate(919.764 739.044) scale(881.419 455.574)">
<stop offset="0.1868" stop-color="#00457F"/>
<stop offset="1" stop-color="#122861"/>
</radialGradient>
<clipPath id="clip0">
<rect width="1920" height="800" fill="white"/>
</clipPath>
</defs>
</svg>
